<svg version="1.2" xmlns="http://www.w3.org/2000/svg" viewBox="0 0 300 300" width="300" height="300">
	<style>
		.s0 { fill: #b6a893 } 
	</style>
	<path class="s0" d="m180.75 83.25c-3.97-10.4-15.76-7.62-18.39-3.2 5.64-13.5-6.15-21.88-10.35-30.05-4.2 8.17-16.24 16.55-10.6 30.05-2.63-4.42-14.42-7.2-18.39 3.2-4.07 10.68 4.55 36.14 21.71 54.92 0.56 0.61 1.65 0.08 1.42-0.72-7.53-27.46-1.49-39.13 5.86-38.7 6.96 0.4 13.25 16.53 4.67 38.57-0.31 0.81 0.84 1.41 1.43 0.77 17.09-18.7 26.69-44.2 22.64-54.84z"/>
	<path class="s0" d="m137.45 153.98c-27.46 7.53-39.13 1.5-38.7-5.86 0.4-6.96 16.53-13.25 38.57-4.67 0.81 0.32 1.41-0.84 0.77-1.42-18.7-17.09-44.19-26.7-54.83-22.64-10.41 3.97-7.63 15.76-3.2 18.38-13.51-5.64-21.89 6.16-30.06 10.36 8.17 4.19 16.55 16.24 30.06 10.6-4.43 2.63-7.21 14.42 3.2 18.38 10.68 4.08 36.14-4.54 54.91-21.7 0.61-0.56 0.08-1.65-0.72-1.43z"/>
	<path class="s0" d="m177.11 216.89c4.08-10.68-4.54-36.15-21.7-54.92-0.56-0.62-1.65-0.09-1.43 0.72 7.54 27.45 1.5 39.13-5.85 38.7-6.97-0.41-13.25-16.53-4.67-38.58 0.31-0.8-0.85-1.4-1.43-0.76-17.09 18.69-26.69 44.2-22.64 54.84 3.97 10.41 15.76 7.63 18.39 3.21-5.64 13.5 6.15 21.88 10.35 30.05 4.2-8.17 16.24-16.55 10.6-30.05 2.63 4.42 14.42 7.2 18.38-3.21z"/>
	<path class="s0" d="m250.14 152.01c-8.17-4.2-16.55-16.25-30.06-10.61 4.43-2.63 7.21-14.41-3.2-18.38-10.68-4.07-36.14 4.54-54.91 21.7-0.62 0.56-0.09 1.65 0.72 1.43 27.45-7.54 39.12-1.5 38.69 5.85-0.4 6.97-16.52 13.26-38.57 4.68-0.8-0.32-1.4 0.84-0.76 1.42 18.69 17.09 44.19 26.7 54.83 22.64 10.41-3.97 7.62-15.76 3.2-18.39 13.51 5.65 21.89-6.14 30.06-10.34z"/>
	<path class="s0" d="m107.58 190.74c2.54 2.55 7.2 2.01 10.4-1.19 3.21-3.2 12.18-18.33 16.02-25.24-7.2 4.38-22.03 12.82-25.23 16.02-3.21 3.2-3.74 7.87-1.19 10.41z"/>
	<path class="s0" d="m180.33 191.37c3.21 3.2 7.87 3.74 10.41 1.19 2.55-2.55 2.02-7.21-1.19-10.41-3.2-3.2-18.32-12.18-25.24-16.02 4.38 7.2 12.82 22.04 16.02 25.24z"/>
	<path class="s0" d="m192.56 109.39c-2.54-2.54-7.2-2.01-10.41 1.19-3.2 3.21-12.18 18.33-16.02 25.24 7.2-4.38 22.04-12.81 25.24-16.02 3.2-3.2 3.74-7.86 1.19-10.41z"/>
	<path class="s0" d="m119.8 108.76c-3.2-3.2-7.86-3.73-10.4-1.19-2.55 2.55-2.02 7.21 1.19 10.41 3.2 3.21 18.32 12.18 25.24 16.02-4.38-7.2-12.82-22.03-16.03-25.24z"/>
	<path fill-rule="evenodd" class="s0" d="m150.07 159.75c-5.36 0-9.69-4.33-9.69-9.68 0-5.36 4.33-9.69 9.69-9.69 5.36 0 9.69 4.33 9.69 9.69 0 5.35-4.33 9.68-9.69 9.68z"/>
</svg>