<svg version="1.2" xmlns="http://www.w3.org/2000/svg" viewBox="0 0 300 300" width="300" height="300"><style></style><path  d="m120.1 275.4q-0.1-0.7-0.5-1.6h-24.7q-0.2 0.3-0.4 0.5 0 0 0.1 0.1c1.4 0.9 3.5 2.3 4.5 5 0.4 0.8 0.6 1.6 0.7 2.3h13.8c0.7-0.9 1.8-1.7 3.6-2.3 3.1-1.1 3.2-2.7 2.9-4z"/><path  d="m133.8 273.8c-0.1 1-0.2 2.1-0.5 3.2-0.4 1.6-1 3.2-1.9 4.7h153.2v-7.9z"/><path  d="m117.7 253.9c-0.4-8.5-20.9 4.8-23 6.2-3.5 2.2-1-7.9-0.7-8.7 1.6-4.5-2.3-10.3 0.2-14.3 0.6-0.9 4.8-9.6-0.3-7.8-3.2 1.1-3.9 8-5.9 8.3-1.8 0.3-5.2-20.5-5.2-22.2 0-4.3-1.9-11.2 2.2-14.5 1.8-1.3 8.7-3.9 2.2-5.6-5.5-1.4 4.2-7.2 7.6-6.6 4.5 0.9-0.3 6.2 1.8 8.6 4.7 5 14.2-11.5-1.3-12.9q0 0-0.3 0c-0.1 0-0.1 0-0.1 0-20.3 0.2-20.5 31.1-14.9 43.7 1 2.1 5.3 12.9 3.5 14.1-1.3 1-7.4-1.5-9.7-1.1-15.2 2.5 5.7 8.8 8.8 12.2 13.1 14.5-23.8 37.7-33.3 12-0.4-0.9-0.2-9.6-3.9-6.6-3.8 3.1-1.5 9.8 0 13.3 3.9 9.1 17 14.4 26.7 11.2 5.3-1.7 13.5-5.3 17.9 0 3 3.6 8.5 3 6.2-2.7-2-4.8-9.4-3.9-2.8-9.5 4.3-3.6 8.7-4.2 13.8-6 10.4-3.9 23.7 12.9 11.1 17.3-5.5 1.8-0.5 5.3 3.3 3.9 4.2-1.6 7.6-5.7 8.6-9.8 3.1-13.4-12.2-13-12.5-22.5z"/><path  d="m22.4 205c0.3 0.4 0.7 1 1.1 1.4q1.5-1.1 2.8-2.5v-21.6c-0.5-0.3-1.1-0.5-1.7-0.5-2.1 0-4.7 2.4-6.4 4q0 0-0.1 0v15.4q0.1 0.1 0.3 0.1c1.7 0.7 2.8 2.2 4 3.7z"/><path  d="m18.1 170.4c2.7-1.3 5.5-2 7.9-2q0.1 0 0.3 0v-143.9h-8.2v139.9c0-0.4 0 0 0 0.2z"/><path  d="m39.1 250.6c-1.6-3.3-5.5-2.1-8.3-2.6-10.9-2.2-13.7-17.1-7.6-24.8 5-6.3 18.7-12.7 24.4-3.4 4.1 6.9 9.1 18.6 11.3 4.3 0.3-2-2.8-8.9 1.9-7.4 4.1 1.3 8 2.9 12.2 4 3.9 1 1.6-4.9-2.3-5.1-4-0.2-4.7-3.7-1.7-6 6.1-4.7-3.4-2.7-5.5-2.2-4.2 1-7.8-0.7-11.8-0.9-5.8-0.1-18.7 5.6-9.7-3.6 2.6-2.7 10.1-15.3 4.3-18.1-3-1.5-5.7 1.8-6.7-3.3-1.1-5.6-7.3-8.7-12.3-9.9-6-1.3-21.2 7.5-14 13.7 1.5 1.4 10.9-15.4 19.3-0.2 4.3 7.9-0.2 19.5-8.3 24.5-2.6 1.6-4.9-4.5-7.2-5.5-6-2.4-4.2 3.7-1.7 5.8 6.2 5.2-5.4 24.4 0.9 34.2 2.7 4.2 7.9 7.8 12.4 9 1.1 0.2 12.5 2 10.4-2.5z"/><path  d="m109.6 216.5c-3.1-0.6-3.7-7.3-7.2-1.2-4 6.9-9.8 1.9-15.1 4.9-5.3 2.9 18 6.8 26.3-1.2 4.3-4.1 8.4-9.2 5.2-15.4-2.5-4.6-8.8-7.4-12.8-2.6-3.5 4.3 1.7 7.1 5.7 5.4 5.7-2.6 3.5 11.2-2.1 10.1z"/><path  d="m57.8 249.2c-5.9 3.6 7.5 5 4.3 8.8-3.2 3.7-3.2 9 2.9 9.4-0.4 0-0.5 0 0.7 0q0.4 0 0.4 0c13.6-0.9 2.7-24.7-8.3-18.2z"/><path  d="m49.1 240.9c6.8-10.5-18-21-19-7.9q0-0.1 0 0.3c0 1.2 0 1.1 0 0.7 0.4 5.8 6 5.9 9.8 2.8 4-3.1 5.5 9.8 9.2 4.1z"/><path  d="m46 251.9c2.6 2.6 4.5 6.3 7.5 8.2 4.2 2.5 2.5-5.4-3.5-11.2-2.8-2.7-8-5.8-10.7-5.9-6.6-0.2 4.5 6.7 6.7 8.9z"/><path  d="m115.4 237.6q0 0 0-0.2c0-0.6 0-0.6 0-0.4-0.3-3.6-5 0.7-6.6-1.1-0.8-0.9 2-9.4-3.2-5-13 11.1 8.7 14.1 9.8 6.7z"/><path  d="m131.4 242c0.2 3.4 0-0.2 0 0z"/><path  d="m124.7 232.2c-4.4-1.1 1.3 6.7 1.3 7.4 0.1 2.9-5.1 4.3-4 7.1 2.6 6.1 9.6-0.7 9.4-4.7 0-3.7-2.8-8.8-6.7-9.8z"/><path  d="m63.8 187.6c-3.4 1-7 7.4-4.4 10.4 2.7 2.9 11.8 1.3 12.6-2.9 0.7-3.8-3.8-1.2-5.1-1.2-3.9 0.2 1.5-7.7-3.1-6.3z"/><path  d="m20.9 261.5c-1.3 2.6 1.6 7.3 4.4 4.4 2.8-3.2 5.9-4.6 8.8-7.3 2-1.9-11.2-1.1-13.2 2.9z"/><path  d="m38.8 263c-2.8 2.9-4.4 5.8-7.6 8.5-3.1 2.6 1.8 5.4 4.5 4.2 4.2-1.9 5-14.6 3.1-12.7z"/><path  d="m102.2 243.4c-2.4-1.7-4.3 4.5-4.5 5.4-0.2 3.1 7-3.6 4.5-5.4z"/><path  d="m50.3 203.4c0.9-0.2 7.4-2.1 5.6-4.3-1.9-2.4-8.9 4.4-5.6 4.3z"/><path  d="m53.4 181c3 1.1 4.3-4 7.4-3.8 0.8 0 8.9 5.4 7.8 1.2-1.1-3.8-6.5-6.4-10.3-6.4-4.2-0.2-11.2 6.5-4.9 9z"/><path  d="m58.3 172c0.3 0-3.5-0.1 0 0z"/></svg>