<svg version="1.2" xmlns="http://www.w3.org/2000/svg" viewBox="0 0 300 300" width="300" height="300">
	<style>
		.s0 { fill: #b6a893 } 
	</style>
	<path class="s0" d="m181.08 243.54c0.07-0.1-0.08-0.21-0.16-0.13-9.36 11.04-22.15 20.09-35.07 26.47-1.97 0.97-0.23 4.01 1.74 2.97 13.87-7.36 24.03-16.94 33.49-29.31z"/>
	<path class="s0" d="m234.21 251.87c-1.36 4.7-4.63 8.85-8.23 12.05-3.6 3.2-7.47 4.62-11.65 6.75-1.32 0.68-0.36 2.53 0.95 2.27 10.12-1.97 16.08-12.19 19.13-21.02 0.04-0.12-0.16-0.18-0.2-0.05z"/>
	<path class="s0" d="m181.67 243.69c-4.72 11.23-13.41 18.27-22.37 25.91-1.32 1.13 0.4 3.33 1.85 2.41 10.04-6.4 16.06-17.71 20.71-28.24 0.06-0.13-0.13-0.21-0.19-0.08z"/>
	<path class="s0" d="m181.64 244.71c-2.31 8.44-5.91 16.67-9.54 24.62-1.1 2.41 2.57 3.9 3.32 1.4 2.58-8.58 4.31-17.27 6.42-25.96 0.03-0.13-0.16-0.18-0.2-0.06z"/>
	<path class="s0" d="m155.13 249.3c6.77-6.57 12.74-13.15 21.24-17.65 8.72-4.62 24.66-10.83 34.17-5.35 0.12 0.06 0.2-0.11 0.1-0.18-16.74-12.49-49.07 6-58.66 20.74-1.26 1.95 1.55 4 3.15 2.44z"/>
	<path class="s0" d="m155.97 228.26c-2.61 1.64-0.12 5.86 2.41 4.13 15.29-10.46 32.95-17.24 51.62-12.71 0.13 0.03 0.18-0.15 0.06-0.19-19.07-6.7-37.38-1.76-54.09 8.77z"/>
	<path class="s0" d="m165.7 207.94c-3.7 0.6-2.2 6.57 1.58 5.71 12.81-2.93 29.86-5.96 41.95 0.74 0.1 0.05 0.2-0.08 0.12-0.15-11.97-10.36-29.09-8.67-43.65-6.3z"/>
	<path class="s0" d="m28.79 269.38c11.18 4.32 22.78 2.69 33.84-1.29 9.03-3.25 33.04-17.6 43.57-10.15 0.22 1.79 0.71 3.62 1.56 5.46 7.31 15.69 30.02 8.54 41.31 2.11 18.17-10.35 38.44-47.6 62.93-31.61 0.1 0.06 0.22-0.08 0.13-0.16-15.7-13.35-33.25 0.39-45.05 12.09-10.15 10.07-20.9 19.15-35.44 21.79-5.97 1.09-14.62 1.57-18.55-4.58-2.38-3.72-2.23-9.94 0.01-13.67 2.32-3.87 6.94-6.47 11.21-7.35q2.36-0.19 4.73-0.38 7.62-0.9 8.31 7.87c-3 1.43-0.38 5.84 2.61 4.46 4.12-1.91 6.01-6.33 3.96-10.66-2.91-6.14-12.06-7.46-17.99-6.97-8.47 0.71-16.12 6.31-18.83 13.73-0.07-6.51 1.38-13.02-2.46-18.92-3.12-4.8-10.05-9.56-15.96-9.46-6.12 0.09-5.14 9.63 1.14 8.44 5.39-1.03 11.52 5.07 12.84 9.62 0.75 2.59 1.08 5.15 1.64 7.68-7.34-12.16-26.45-13.5-39.2-8.17-4.19 1.76-2.76 8.09 1.94 7.01 12.8-2.96 29.54-7.1 37.2 6.28-10.29-14.45-41.41 0.66-54.94-0.51-5.36-0.47-5.46 8.71 0 8.41 13.94-0.78 43.96-17.63 55.11-5.55-3.66-2.22-8.43-2.92-13.25-2.3-20.12 2.59-38.36 18.46-59.21 9.28-5.41-2.4-8.74 5.35-3.16 7.5zm77.05-13.55q0.07 0.12 0.17 0.19-0.1-0.08-0.2-0.16 0.02-0.01 0.03-0.03z"/>
	<path class="s0" d="m112.41 235.15c3.93-16.93 22.4-24.42 37.2-15.63 1.82 1.08 4.02-1.08 2.92-2.91-4.66-7.67-10.05-15.98-12.19-24.81-2.49-10.29 0.31-19.58 2.81-29.54 1.13-4.51 2.58-10.45 3.36-16.52 6.07-0.78 12.02-2.24 16.53-3.37 9.96-2.49 19.25-5.3 29.54-2.81 8.83 2.14 17.14 7.53 24.81 12.19 1.83 1.1 4-1.1 2.92-2.92-8.8-14.8-1.31-33.27 15.62-37.2 0.13-0.03 0.08-0.22-0.05-0.19-16.81 3.08-25.84 17.64-21.8 32.95-10.78-7.01-22.35-12.71-35.68-11.29-9.68 1.02-18.83 4.7-28.53 5.76-3.27 0.36-6.77 0.15-10.28-0.05 0.2 3.51 0.42 7.01 0.06 10.28-1.07 9.7-4.74 18.85-5.77 28.52-1.41 13.33 4.28 24.9 11.3 35.69-15.31-4.04-29.88 4.98-32.96 21.8-0.03 0.13 0.16 0.18 0.19 0.05z"/>
	<path class="s0" d="m258.39 239.21c-5.17-3.63-11.15-5.15-17.3-5.97 7.43-1.76 14.59-5.5 20.45-10.29 10.2-8.34 15.6-23.61 6.33-34.79-8.49-10.23-26.9-9.27-31.46 4.3-2.73 8.11 2.38 19.98 10.68 20.09-3.68 2.02-9.13 2.97-11.16 3.06-4.5 0.22-8.98-0.86-13.34-1.79-3.55-0.77-6.94-1.76-10.36-2.37 0.61 3.42 1.6 6.81 2.36 10.36 0.94 4.36 2.02 8.84 1.8 13.34-0.09 2.03-1.04 7.48-3.06 11.17-0.11-8.31-11.98-13.42-20.09-10.69-13.57 4.56-14.54 22.97-4.3 31.46 11.18 9.27 26.45 3.88 34.79-6.33 4.79-5.86 8.53-13.02 10.29-20.44 0.82 6.14 2.33 12.12 5.97 17.29 7.99 11.37 20.74 14.27 33.64 15.24-0.97-12.9-3.87-25.65-15.24-33.64zm-25.42-7.01c-1.24 10.27-6.63 20.7-13.22 27.36-6.41 6.49-16.91 10.72-25.38 5.26-6.58-4.25-9.92-14.32-3.5-20.69 3.41-3.39 21.14-4.62 15.66 4.9-1.91 3.31 3.14 6.26 5.1 3.01 4.68-1.54 8.06-8.52 9.19-12.41 1.48-5.08 1.82-11.8 1.14-18.45 6.64 0.68 13.36 0.35 18.44-1.13 3.9-1.13 10.88-4.51 12.41-9.19 3.26-1.96 0.31-7.01-3-5.11-9.53 5.48-8.3-12.25-4.91-15.66 6.38-6.42 16.44-3.07 20.69 3.51 5.47 8.47 1.23 18.96-5.26 25.38-6.65 6.58-17.08 11.97-27.36 13.22zm8.73 13.15c-0.37-1.67-0.59-3.4-0.72-5.15 1.75 0.14 3.48 0.35 5.15 0.72 15.19 3.39 22.59 16.58 26.1 30.53-13.95-3.51-27.14-10.91-30.53-26.1z"/>
	<path class="s0" d="m270.65 145.07c-6.37 12.92-15.43 25.71-26.46 35.08-0.09 0.07 0.03 0.23 0.12 0.16 12.38-9.47 21.95-19.63 29.31-33.5 1.04-1.97-1.99-3.71-2.97-1.74z"/>
	<path class="s0" d="m271.45 213.55c-2.13 4.19-3.55 8.06-6.75 11.65-3.21 3.6-7.35 6.88-12.06 8.23-0.12 0.04-0.07 0.24 0.06 0.2 8.83-3.05 19.04-9.01 21.02-19.12 0.26-1.32-1.6-2.28-2.27-0.96z"/>
	<path class="s0" d="m270.38 158.52c-7.64 8.96-14.68 17.65-25.91 22.38-0.14 0.05-0.06 0.24 0.08 0.18 10.52-4.65 21.84-10.67 28.23-20.7 0.93-1.46-1.27-3.18-2.4-1.86z"/>
	<path class="s0" d="m270.1 171.33c-7.94 3.62-16.17 7.23-24.61 9.54-0.13 0.03-0.07 0.22 0.05 0.19 8.69-2.11 17.38-3.83 25.96-6.41 2.51-0.76 1.01-4.42-1.4-3.32z"/>
	<path class="s0" d="m250.08 154.36c1.55-1.61-0.49-4.42-2.44-3.15-14.74 9.59-33.23 41.92-20.74 58.65 0.07 0.11 0.24 0.02 0.17-0.1-5.48-9.5 0.74-25.44 5.36-34.16 4.5-8.5 11.08-14.47 17.65-21.24z"/>
	<path class="s0" d="m229.04 155.19c-10.53 16.72-15.47 35.02-8.78 54.09 0.05 0.12 0.23 0.07 0.2-0.06-4.54-18.67 2.24-36.33 12.7-51.62 1.73-2.53-2.48-5.02-4.12-2.41z"/>
	<path class="s0" d="m215.17 208.46c-6.7-12.1-3.68-29.15-0.74-41.96 0.86-3.78-5.12-5.27-5.72-1.58-2.36 14.56-4.05 31.68 6.31 43.65 0.07 0.09 0.2-0.02 0.15-0.11z"/>
	<path class="s0" d="m195.28 169.54c-3.97-2.72-8.17-2.73-12.78-2.37-4.61 0.35-9.13 0.69-13.69 0.87-0.17 4.55-0.51 9.07-0.86 13.69-0.36 4.6-0.35 8.8 2.36 12.77 6.73 9.85 22.86 10.91 33.49 11.7 0.1 0.01 0.14-0.15 0.05-0.19-4.91-2.38-10.09-4.36-15.25-6.13-3.22-1.11-6.59-1.76-9.54-3.59-6.68-4.14-6.64-9.9-5.71-16.81 0.21-1.55 0.62-3.63 0.99-5.91 2.28-0.38 4.37-0.78 5.91-0.99 6.91-0.93 12.68-0.97 16.82 5.7 1.83 2.95 2.48 6.33 3.59 9.55 1.77 5.16 3.75 10.33 6.12 15.24 0.05 0.09 0.2 0.05 0.19-0.05-0.79-10.62-1.84-26.75-11.69-33.48z"/>
	<path class="s0" d="m264.17 106.99c-1.84-0.86-3.66-1.35-5.45-1.57-7.45-10.52 6.89-34.54 10.14-43.57 3.99-11.06 5.62-22.65 1.29-33.84-2.15-5.58-9.89-2.25-7.51 3.16 9.19 20.85-6.68 39.09-9.27 59.22-0.62 4.82 0.09 9.58 2.3 13.24-12.08-11.15 4.77-41.17 5.55-55.1 0.3-5.46-8.88-5.37-8.41 0 1.17 13.52-13.93 44.64 0.51 54.94-13.38-7.67-9.24-24.41-6.28-37.21 1.09-4.7-5.25-6.13-7-1.93-5.33 12.74-3.99 31.85 8.16 39.19-2.52-0.56-5.09-0.89-7.68-1.64-4.54-1.32-10.64-7.44-9.62-12.84 1.19-6.28-8.34-7.26-8.44-1.14-0.09 5.92 4.67 12.84 9.47 15.96 5.89 3.84 12.4 2.39 18.92 2.46-7.43 2.71-13.03 10.36-13.73 18.84-0.5 5.92 0.83 15.07 6.96 17.98 4.33 2.05 8.75 0.17 10.66-3.96 1.38-2.99-3.03-5.61-4.45-2.6q-8.78-0.69-7.88-8.32 0.19-2.36 0.38-4.72c0.88-4.28 3.48-8.89 7.35-11.22 3.74-2.24 9.95-2.39 13.67-0.01 6.15 3.93 5.67 12.58 4.59 18.55-2.64 14.55-11.73 25.29-21.79 35.44-11.7 11.79-25.44 29.35-12.1 45.04 0.08 0.09 0.23-0.02 0.16-0.12-15.98-24.49 21.27-44.75 31.62-62.93 6.43-11.29 13.58-34-2.12-41.3zm-7.56-1.92q0.01-0.02 0.03-0.04 0.08 0.1 0.16 0.2-0.07-0.09-0.19-0.16z"/>
</svg>