<svg version="1.2" xmlns="http://www.w3.org/2000/svg" viewBox="0 0 300 300" width="300" height="300"><style></style><path  d="m63.8 207.2c-2.2 1.6-4.8 5.7-2.6 8.6 1 1.2 7.5 3 5.8 5.9-3.3 5.7-18.6-3.8-20-13.9-0.4-3.5-0.2-7.9-0.1-11.8 0-0.8 0-1.7 0-2.4q0-0.3 0-0.6v-163h-7.9v166c0 2.5 0.3 5.2 0.4 7-0.1-0.2 0-2.9 0 0-0.2 0-1 17.6 11.6 26.8 6.8 4.9 26.4 3.7 26.4-12.3 0-5.7-5.9-15.8-13.6-10.3z"/><path  d="m39.3 203q0 0 0 0 0 0 0 0z"/><path  d="m94.2 218.8c5.8-6.2 27.8-9.6 29.4-12.7 1.9-3.9-2-3.7-3-6.1-0.7-1.5 2.6-6.4 3.3-7.6 0.9-1.9 2.1-3.9 0.4-5.6-2-2-4.3-1-6.3 0.3-2 1.2-4.4 1.7-6.4 2.9-2.2 1.3-2.9-5-5.8-4.6-2.9 0.4-7.3 9.4-7.1 12.1 0.2 1.7-3.3 11.6-4.6 13.4-1.3 1.9-2.8 4.3-3.9 6.3-2 3.4 2.6 3.1 4 1.6z"/><path  d="m58.9 199.7c2.3-0.8 5.6-5.5 15.8-4.5 4 0.3 9.6 7.6 9.5 11.4 0 2.1-0.8 15.2 2.6 9 2.5-4.5 3.3-9.2 3.3-14.4 0-6.2-3.6-12.3-3.6-14.1 0-4.8-7.9-8.9-10.8-4.2-1.7 2.8-2.2 2.8-5.6 2.8-1.4 0-11.9 2.3-12.8 7.4-0.1 0.9-0.8 7.5 1.6 6.6z"/><path  d="m90.1 201.2c0 0 0-1.9 0 0z"/><path fill-rule="evenodd" d="m62.5 255.3c-3.9 0.2-7.4-2.7-7.6-6.7-0.3-3.9 2.7-7.4 6.6-7.7 4-0.2 7.4 2.7 7.7 6.7 0.3 3.9-2.7 7.4-6.7 7.7z"/><path fill-rule="evenodd" d="m78.2 234.7c-1.6 0-2.9-1.3-2.9-2.9 0-1.6 1.3-2.9 2.9-2.9 1.6 0 2.9 1.3 2.9 2.9 0 1.6-1.3 2.9-2.9 2.9z"/><path  d="m106.7 270.6q0 0-0.1 0 0 0 0.1 0z"/><path  d="m108.5 219.9c1.8 0 0 0 0 0z"/><path  d="m108.5 219.9c-5.2 0-9.9 0.7-14.4 3.2-6.2 3.4 6.9 2.6 9 2.6 3.8 0 11 5.6 11.4 9.5 1 10.3-3.7 13.6-4.6 15.9-0.8 2.4 5.8 1.7 6.7 1.5 5.1-0.9 7.4-11.3 7.4-12.7-0.1-3.4 0-4 2.7-5.7 4.7-2.9 0.7-10.7-4.1-10.7-1.8 0-7.9-3.6-14.1-3.6z"/><path  d="m280 263h-166.1v0.1c-3.9 0-8.6 0-12.2-0.5-10.1-1.3-19.4-16.4-13.8-19.7 2.9-1.6 4.7 4.8 6 5.8 2.9 2.2 6.9-0.3 8.5-2.6 5.6-7.7-4.6-13.6-10.3-13.6-15.9 0-17.1 19.7-12.2 26.4 9.2 12.6 26.7 11.8 26.7 11.7 2.9 0 0.3 0 0.1 0 2.1 0 5.4 0.5 8.2 0.3h165.1z"/></svg>