<svg version="1.2" xmlns="http://www.w3.org/2000/svg" viewBox="0 0 300 300" width="300" height="300">
	<style>
		.s0 { fill: #b6a893 } 
	</style>
	<path class="s0" d="m25.48 25.5h257.85v2.5h-38.63c-7.23 0-13.56 4.48-20.26 9.23-7.22 5.1-14.65 10.36-23.78 10.36q-2.02 0.01-4.17-0.36c-6.15-1.06-8.27-4.59-8.99-6.59-1.11-3.09-0.47-6.76 1.59-9.14 1.84-2.13 4.84-3.06 7.83-2.42 2.62 0.56 4.63 2.2 5.25 4.28 0.45 1.49 0.41 3.84-2.29 6.59-0.49 0.5-1.28 0.5-1.77 0.02-0.49-0.49-0.5-1.28-0.01-1.77 1.02-1.04 2.14-2.6 1.68-4.12-0.35-1.19-1.68-2.2-3.38-2.56-1.65-0.36-3.93-0.11-5.42 1.61-1.46 1.69-1.93 4.44-1.13 6.67 0.65 1.82 2.41 4.16 7.07 4.97 10.08 1.75 18.21-4.02 26.08-9.58 3.72-2.64 7.51-5.32 11.51-7.19h-206.53v206.56c1.87-4 4.55-7.79 7.18-11.51 5.57-7.87 11.33-16 9.59-26.08-0.81-4.66-3.15-6.42-4.97-7.07-2.23-0.8-4.98-0.34-6.67 1.13-1.73 1.49-1.97 3.77-1.61 5.42 0.36 1.69 1.36 3.02 2.56 3.38 1.52 0.46 3.08-0.67 4.12-1.69 0.49-0.48 1.28-0.48 1.76 0.02 0.49 0.49 0.48 1.28-0.01 1.76-2.75 2.71-5.1 2.75-6.59 2.3-2.08-0.62-3.73-2.63-4.28-5.25-0.64-2.99 0.29-5.99 2.41-7.83 2.39-2.06 6.06-2.7 9.15-1.6 2 0.72 5.52 2.84 6.59 9q0.36 2.14 0.36 4.17c0 9.13-5.26 16.56-10.37 23.78-4.74 6.7-9.22 13.03-9.22 20.27v29.78h-2.5c0 0 0-249.04 0-249.04z"/>
	<path class="s0" d="m223.76 29.53c-7.27-0.18-14.52 0.16-21.78 0.23-0.08 0-0.08 0.12 0 0.12q0.05 0.01 0.1 0.01-0.01 0.04 0.03 0.06c1.6 0.59 2.93 1.82 4.19 2.93 1.12 0.99 2.43 2.21 2.64 3.75 0.06 0.39 0.28 0.64 0.56 0.77 0.23 0.2 0.56 0.27 0.9 0.06q0.01-0.01 0.03-0.02 0.36-0.1 0.62-0.36c4.09-2.46 8.37-4.45 12.92-5.94 0.88-0.29 0.73-1.59-0.21-1.61zm-21.29 0.38c5.71 0.34 11.4 0.82 17.12 1.09q-4.43 1.78-8.56 4.2c-1.45-3.24-5.38-4.44-8.56-5.29z"/>
	<path class="s0" d="m33.68 161.1c-0.46 0.52-0.73 1.24-1.16 1.8q-0.64 0.8-1.43 1.44c-0.52 0.42-1.29 0.41-1.66-0.22-0.32-0.54-0.05-1.43 0.63-1.54q0.91-0.15 1.76-0.49c0.57-0.23 1.39-0.56 1.76-1.07 0.05-0.07 0.16 0.01 0.1 0.08z"/>
	<path class="s0" d="m29.85 155.61c1.15-0.77 2.89-0.51 4.23-0.93 1.66-0.52 3.42-1.44 4.55-2.79 0.05-0.06 0.14 0.03 0.09 0.09-1.2 1.46-2.27 2.82-3.87 3.87-1.24 0.81-3.29 2.06-4.77 1.48-0.76-0.3-0.93-1.24-0.23-1.72z"/>
	<path class="s0" d="m29.87 202.12q-0.01-0.05-0.01-0.1c0-0.08-0.12-0.08-0.12 0-0.07 7.27-0.41 14.52-0.23 21.79 0.02 0.94 1.32 1.08 1.61 0.21 1.49-4.55 3.47-8.83 5.94-12.93q0.25-0.26 0.36-0.61 0.01-0.02 0.02-0.04c0.21-0.33 0.14-0.66-0.06-0.89-0.13-0.29-0.38-0.51-0.78-0.56-1.53-0.21-2.75-1.52-3.74-2.64-1.11-1.26-2.34-2.59-2.94-4.2q-0.02-0.03-0.05-0.03zm0.02 0.4c0.85 3.18 2.05 7.11 5.29 8.55q-2.42 4.14-4.2 8.56c-0.27-5.71-0.75-11.4-1.09-17.11z"/>
	<path class="s0" d="m93.6 62.87c3.41-1.57 6.05-4.61 8.03-7.73q1.24-1.98 2.27-4.08c0.55-1.11 0.78-2.1 1.9-2.7 0.59-0.31 1.18 0.09 1.24 0.71 0.22 2.44-3.17 5.82-4.74 7.59-2.48 2.82-5.26 4.71-8.64 6.31-0.07 0.04-0.13-0.07-0.06-0.1z"/>
	<path class="s0" d="m115.93 86.02l-6.38 1.12c-0.23 0.04-0.42 0.2-0.49 0.42-0.07 0.22-0.02 0.46 0.14 0.62l4.5 4.78q0.19 0.19 0.46 0.19 0.03 0 0.07 0l7.58-0.86c0.24-0.03 0.45-0.19 0.52-0.43 0.08-0.24 0-0.49-0.18-0.66l-5.7-5.03q-0.23-0.19-0.52-0.15zm-0.08 1.28l4.42 3.91-5.87 0.66-3.5-3.7z"/>
	<path class="s0" d="m99.34 111.41c-2.63-0.8-5.37-3.11-7.3-5.02-2.25-2.22-3.87-4.68-5.42-7.41-0.04-0.07 0.06-0.14 0.11-0.07 1.71 2.74 4.49 4.68 7.14 6.42 2.13 1.41 4.68 2.48 6.61 4.12 0.91 0.77-0.06 2.28-1.14 1.96z"/>
	<path class="s0" d="m83.56 109.67c-0.96 2.54-1.99 5.88-4.26 7.49-0.64 0.44-1.33-0.29-1.21-0.93 0.48-2.41 2.68-4.48 3.87-6.63 1.86-3.34 3.13-6.98 2.98-10.84 0-0.08 0.12-0.08 0.13 0 0.25 3.83-0.16 7.29-1.51 10.91z"/>
	<path class="s0" d="m60.16 103.94c-0.23-0.04-0.46 0.04-0.6 0.22l-4.05 5.07q-0.18 0.24-0.12 0.53l1.69 7.41c0.05 0.24 0.24 0.43 0.49 0.48 0.24 0.04 0.48-0.06 0.63-0.26l4.38-6.24q0.12-0.16 0.12-0.36 0-0.1-0.03-0.19l-2.03-6.24c-0.07-0.22-0.26-0.38-0.48-0.42zm-0.35 1.91l1.57 4.84-3.39 4.83-1.31-5.75z"/>
	<path class="s0" d="m98.88 86.75c-0.07-0.04-0.01-0.14 0.06-0.1 2.74 1.55 5.2 3.17 7.42 5.41 1.91 1.94 4.22 4.69 5.01 7.32 0.33 1.07-1.19 2.04-1.95 1.13-1.64-1.93-2.71-4.48-4.12-6.61-1.74-2.65-3.68-5.43-6.42-7.15z"/>
	<path class="s0" d="m71.24 110.2c0.52 1.11-0.91 2.51-1.84 1.42-3.91-4.59-5.18-11.15-5.19-17 0-0.08 0.11-0.08 0.12 0 0.54 6 4.49 10.37 6.91 15.58z"/>
	<path class="s0" d="m65.96 65.99c1.34 5.37 1.64 13.55 7.65 15.63 1.9 0.66 4.78 0.2 6.91-1.07 1.27-2.13 1.73-5.01 1.07-6.91-2.08-6.01-10.26-6.31-15.63-7.65zm5.3 2.01c2.4 0.89 5.53 1.6 7.19 3.65 1.67 2.05 1.87 4.63 0.51 6.88q-0.09 0.14-0.19 0.27-0.13 0.09-0.27 0.19c-2.25 1.36-4.83 1.16-6.88-0.51-2.05-1.67-2.76-4.79-3.65-7.2-0.62-1.67-1.22-3.34-1.75-5.04q2.54 0.82 5.04 1.76z"/>
	<path class="s0" d="m48.34 105.84c0.6-1.13 1.59-1.36 2.7-1.91q2.1-1.03 4.08-2.27c3.11-1.98 6.16-4.62 7.72-8.03 0.03-0.07 0.14-0.01 0.11 0.06-1.61 3.38-3.49 6.16-6.31 8.64-1.78 1.57-5.15 4.96-7.6 4.74-0.62-0.06-1.02-0.65-0.7-1.23z"/>
	<path class="s0" d="m149.63 47.1c-8.39 4.41-16.94 5.11-26.06 2.55-7.58-2.14-14.07-6.5-21.4-9.16-6.82-2.47-14.6-4.24-21.84-3.2-8.35 1.19-18.4 9.05-13.63 18.62 3.53 7.09 14.23 9.5 20.43 4.88 2.51-1.88 4.22-4.83 3.44-8.07-1.04-4.28-3.9-2.9-6.91-1.81-1.3 0.47-2.51-1.21-1.79-2.32 2.56-3.97 7.94-4.71 11.04-0.87 3.16 3.91 2.29 10.01-0.77 13.69-0.95 1.14-2.04 2.07-3.24 2.81 2.37 0.35 4.44 1.61 5.43 4.32 1.21 3.33 0.35 7.91-2.47 10.23 2.7 1 3.16 5.26 2.5 7.89-0.33 1.31-1.3 3.5-2.61 5.12-1.62 1.31-3.81 2.28-5.12 2.61-2.64 0.66-6.89 0.2-7.89-2.5-2.32 2.83-6.9 3.69-10.22 2.47-2.72-0.99-3.98-3.06-4.33-5.43-0.74 1.2-1.67 2.3-2.81 3.24-3.68 3.06-9.77 3.93-13.69 0.77-3.84-3.1-3.1-8.48 0.87-11.04 1.11-0.72 2.79 0.49 2.32 1.78-1.09 3.02-2.47 5.88 1.81 6.92 3.24 0.78 6.19-0.93 8.07-3.45 4.62-6.19 2.2-16.89-4.88-20.42-9.57-4.77-17.43 5.28-18.62 13.63-1.03 7.24 0.73 15.02 3.2 21.84 2.66 7.33 7.03 13.82 9.16 21.41 2.56 9.12 1.86 17.67-2.55 26.06-0.03 0.07-0.14 0.01-0.11-0.06 5.98-10.48 4.06-22.22-0.64-32.74-2.62-5.86-6.15-11.18-8.15-17.31-3.9-11.94-5.49-36.82 13.54-36.46 11.64 0.22 17.89 14.89 13.21 24.53 0.6 2.61 2.35 4.81 5.36 5.27 3.16 0.49 5.34-0.99 7.58-2.99 0.68-0.6 1.72-0.01 1.6 0.79 2.31 2.07 6.53 1.34 8.96-0.16 0.43-0.26 0.79-0.59 1.13-0.96q0.55-0.49 0.96-1.12c1.5-2.44 2.23-6.65 0.15-8.97-0.8 0.12-1.39-0.92-0.78-1.6 1.99-2.23 3.47-4.41 2.98-7.58-0.46-3-2.66-4.76-5.26-5.36-9.64 4.68-24.31-1.56-24.54-13.21-0.35-19.03 24.52-17.44 36.46-13.54 6.13 2 11.45 5.53 17.31 8.15 10.52 4.71 22.25 6.62 32.73 0.65 0.08-0.05 0.14 0.06 0.07 0.1z"/>
	<path class="s0" d="m86.55 86.58c-0.46 0.54-1.13 0.9-1.86 0.86-1.36-0.06-2.52-1.1-2.52-2.51 0-0.71 0.34-1.39 0.86-1.87 0.48-0.52 1.16-0.86 1.87-0.86 1.41 0 2.45 1.15 2.52 2.52 0.03 0.73-0.33 1.4-0.87 1.86z"/>
	<path class="s0" d="m44.75 29.95q-1.25 1.43-2.87 2.42c-0.1 0.06-0.22-0.06-0.16-0.16q0.93-1.51 1.37-3.22c0.39-1.53 2.79-0.32 1.66 0.96z"/>
	<path class="s0" d="m91.83 122.37c0.23-0.08 0.4-0.29 0.43-0.53l0.86-7.58q0-0.04 0-0.07 0-0.26-0.2-0.45l-4.77-4.51c-0.16-0.16-0.4-0.21-0.62-0.14-0.22 0.08-0.38 0.26-0.42 0.49l-1.12 6.38q-0.04 0.3 0.15 0.52l5.03 5.7c0.17 0.19 0.42 0.26 0.66 0.19zm-0.65-2.07l-3.9-4.42 0.86-4.94 3.7 3.49z"/>
	<path class="s0" d="m38.96 80.52c0 0.08-0.12 0.08-0.12 0-0.56-6.38 4.62-12.02 11.02-12.32 5.91-0.28 11.86 4.89 10.48 11.08-0.45 2-3.38 1.46-3.45-0.47-0.19-4.62-2.47-8.21-7.64-8.16-5.05 0.05-10.27 4.71-10.29 9.87z"/>
	<path class="s0" d="m40.65 81.58c-2.46-8.05 11.6-12.87 14.54-5.06 0.79 2.13-2.99 3.16-3.39 0.93-0.53-2.97-4.41-2.81-6.65-2.04-2.66 0.92-4.53 3.28-4.39 6.16 0.01 0.07-0.09 0.08-0.11 0.01z"/>
	<path class="s0" d="m110.17 71.27c-5.22-2.42-9.58-6.37-15.58-6.91-0.08-0.01-0.08-0.13 0-0.13 5.85 0.01 12.41 1.29 17 5.2 1.09 0.93-0.31 2.35-1.42 1.84z"/>
	<path class="s0" d="m98.73 85.09c-0.08 0-0.08-0.12 0-0.12 3.86 0.15 7.5-1.12 10.84-2.98 2.15-1.19 4.22-3.39 6.63-3.87 0.64-0.12 1.37 0.57 0.92 1.21-1.6 2.27-4.94 3.3-7.48 4.25-3.62 1.36-7.08 1.77-10.91 1.51z"/>
	<path class="s0" d="m117.36 58.22c0.2-0.14 0.3-0.39 0.25-0.63-0.05-0.24-0.23-0.43-0.47-0.49l-7.41-1.68q-0.29-0.06-0.53 0.12l-5.07 4.04c-0.18 0.15-0.26 0.38-0.22 0.6 0.04 0.23 0.2 0.41 0.42 0.48l6.24 2.03q0.1 0.03 0.19 0.03 0.2 0 0.36-0.11zm-1.87-0.21l-4.83 3.39-4.84-1.57 3.93-3.13z"/>
	<path class="s0" d="m32.15 186.3c-4.82-4.14-2.9-12.93-0.89-18.13 2.88-7.5 8.31-13.76 11.78-20.87-0.99 0.65-2.17 1.11-3.57 1.33-7.52 1.17-10.55-7.17-7.31-12.48 0.64-3.5-0.3-7.4-2.51-10.1-2.06-2.53 2.04-5.32 3.41-2.63 1.82 3.61 2.08 7.18 1.02 10.56q0.57-0.45 1.24-0.82c8.76-4.7 8.07 9.51 2.22 5.19-0.06-0.05 0-0.15 0.07-0.11q-3.64-3.85-4.3-0.11-2.23 3.91 1.54 8.04c3.11 2.13 7.35-0.37 9.01-2.91 1.68-2.57 2.12-5.87 1.89-8.87-0.46-5.87-3.34-11.39-6.02-16.51-4.41-8.39-10.75-17.36-10.8-27.21-0.01-1.67 2.47-1.64 2.57 0 0.84 12.98 10.15 23.47 14.4 35.38 1.98 5.53 3.14 15.75-1.72 20.36-1.47 4.11-3.54 7.99-5.78 12.01-2.39 4.27-4.79 8.64-5.81 13.47-1.1 5.2 0.73 8.93 0.87 13.87 0.01 0.7-0.83 0.94-1.31 0.54z"/>
	<path class="s0" d="m158 33.16c0.46-1.01 0.59-2.13 1.05-3.14 0.52-1.13 2.19-0.29 1.93 0.81-0.61 2.58-3.22 4.07-5.1 5.6-0.08 0.06-0.15-0.04-0.08-0.1 0.98-0.75 1.69-2.05 2.2-3.17z"/>
	<path class="s0" d="m153.48 31.39c-0.11 3.68-1.57 6.42-3.84 9.21-0.04 0.06-0.14-0.02-0.1-0.07 1.86-2.45 2.26-5.89 1.65-8.83-0.08-0.39-0.03-0.87 0.3-1.14q0.14-0.12 0.28-0.23 0.36-0.3 0.78-0.11 0.18 0.08 0.36 0.16c0.35 0.16 0.59 0.64 0.57 1.01z"/>
	<path class="s0" d="m35.82 131.01c-0.04 0.06-0.14 0-0.11-0.07 0.43-0.84 0.61-1.63 1.28-2.36 0.74-0.82 1.56-1.1 2.64-1.2 1.62-0.16 1.68 2.58 0 2.57-1.16-0.01-3.06-0.03-3.81 1.06z"/>
	<path class="s0" d="m157.29 30.1c0.58 1.49-0.67 3.53-1.48 4.77-1.05 1.61-2.41 2.68-3.87 3.87-0.06 0.05-0.15-0.03-0.09-0.09 1.34-1.12 2.26-2.89 2.79-4.55 0.42-1.34 0.16-3.07 0.93-4.22 0.48-0.71 1.42-0.54 1.72 0.22z"/>
	<path class="s0" d="m158.38 38.42c-4.02 2.24-7.9 4.31-12.01 5.77-4.61 4.87-14.82 3.71-20.35 1.73-11.91-4.25-22.41-13.56-35.38-14.4-1.64-0.11-1.67-2.59 0-2.58 9.84 0.05 18.81 6.4 27.2 10.8 5.12 2.69 10.64 5.57 16.51 6.03 3 0.23 6.3-0.21 8.87-1.89 2.54-1.66 5.04-5.9 2.91-9.01q-4.13-3.77-8.04-1.54-3.74 0.66 0.11 4.29c-0.04-0.07 0.06-0.12 0.11-0.06 4.32 5.85-9.89 6.54-5.19-2.22q0.37-0.68 0.82-1.25c-3.38 1.07-6.95 0.81-10.55-1.02-2.7-1.36 0.09-5.46 2.62-3.4 2.71 2.21 6.6 3.15 10.1 2.51 5.31-3.24 13.65-0.21 12.48 7.31-0.22 1.4-0.69 2.57-1.33 3.57 7.11-3.47 13.37-8.9 20.86-11.79 5.21-2 13.99-3.92 18.13 0.9 0.41 0.47 0.17 1.32-0.54 1.3-4.93-0.14-8.66-1.97-13.86-0.87-4.84 1.03-9.2 3.43-13.47 5.82z"/>
	<path class="s0" d="m30 159.09c1.01-0.46 2.12-0.59 3.14-1.05 1.12-0.51 2.42-1.22 3.17-2.2 0.06-0.07 0.16 0.01 0.1 0.08-1.53 1.88-3.02 4.49-5.6 5.1-1.11 0.26-1.95-1.41-0.81-1.93z"/>
	<path class="s0" d="m40.58 149.68c-2.79 2.27-5.53 3.72-9.21 3.84-0.37 0.01-0.85-0.22-1.01-0.58q-0.08-0.17-0.16-0.35-0.19-0.42 0.11-0.78 0.11-0.14 0.23-0.28c0.27-0.33 0.75-0.38 1.14-0.3 2.94 0.61 6.38 0.21 8.83-1.65 0.05-0.04 0.13 0.06 0.07 0.1z"/>
	<path class="s0" d="m28.86 47.59c1.65-1.49 3.75-3.35 4.7-5.39 0.03-0.07 0.14-0.02 0.11 0.05-0.45 1.08-0.71 2.25-1.17 3.34-0.51 1.2-1.19 2.24-1.99 3.27-0.95 1.25-2.75-0.29-1.65-1.27z"/>
	<path class="s0" d="m30.53 53.76c1.22-3.73 3.72-6.99 4.87-10.81 0.02-0.08 0.14-0.05 0.12 0.03-1.02 3.77-0.88 8.22-2.96 11.64-0.63 1.05-2.43 0.38-2.03-0.86z"/>
	<path class="s0" d="m38.19 42.23c0.01-0.08 0.12-0.08 0.12 0-0.02 5.5-0.06 10.8-1.63 16.13-0.44 1.52-2.87 0.84-2.37-0.66 1.7-5.03 3.49-10.14 3.88-15.47z"/>
	<path class="s0" d="m164.09 29.45c0.62 0.37 0.63 1.14 0.21 1.66q-0.64 0.8-1.44 1.43c-0.56 0.43-1.28 0.7-1.8 1.16-0.07 0.06-0.15-0.04-0.08-0.1 0.51-0.37 0.84-1.19 1.07-1.76q0.34-0.85 0.49-1.76c0.11-0.68 1-0.95 1.55-0.63z"/>
	<path class="s0" d="m28.96 43.11q1.72-0.44 3.23-1.37c0.09-0.06 0.22 0.06 0.15 0.16q-0.99 1.62-2.41 2.88c-1.28 1.13-2.49-1.27-0.97-1.67z"/>
	<path class="s0" d="m42.17 33.58c2.05-0.95 3.9-3.04 5.39-4.7 0.99-1.09 2.53 0.7 1.28 1.66-1.03 0.79-2.08 1.47-3.28 1.98-1.09 0.47-2.25 0.72-3.34 1.17-0.06 0.03-0.11-0.08-0.05-0.11z"/>
	<path class="s0" d="m79.56 29.53c-7.27-0.18-14.51 0.16-21.78 0.23-0.08 0-0.08 0.12 0 0.12q0.05 0.01 0.1 0.01 0 0.04 0.03 0.06c1.61 0.59 2.94 1.82 4.2 2.93 1.12 0.99 2.43 2.21 2.64 3.75 0.05 0.39 0.27 0.64 0.56 0.77 0.23 0.2 0.55 0.27 0.89 0.06q0.02-0.01 0.03-0.02 0.36-0.1 0.62-0.36c4.1-2.46 8.38-4.45 12.93-5.94 0.87-0.29 0.73-1.59-0.22-1.61zm-21.28 0.38c5.71 0.34 11.4 0.82 17.11 1.09q-4.42 1.78-8.56 4.2c-1.44-3.24-5.37-4.44-8.55-5.29z"/>
	<path class="s0" d="m54.59 32.59c-3.41 2.07-7.86 1.94-11.64 2.95-0.07 0.02-0.11-0.1-0.03-0.12 3.82-1.14 7.09-3.65 10.82-4.87 1.23-0.4 1.9 1.4 0.85 2.04z"/>
	<path class="s0" d="m42.7 40.53c6.18 0.63 12.52 0.16 18.55-1.25 2.25-0.52 2.71 2.9 0.42 3.11-6.56 0.58-12.65-0.05-18.98-1.74-0.07-0.02-0.06-0.13 0.01-0.12z"/>
	<path class="s0" d="m81.54 40.79c-2.88-0.15-5.24 1.72-6.16 4.38-0.77 2.25-0.93 6.12 2.04 6.65 2.23 0.4 1.19 4.19-0.93 3.39-7.81-2.93-2.99-17 5.06-14.54 0.07 0.02 0.06 0.12-0.01 0.12z"/>
	<path class="s0" d="m36.6 64.78c-1.53-0.21-2.75-1.52-3.74-2.64-1.11-1.27-2.34-2.6-2.94-4.2q-0.02-0.04-0.05-0.03-0.01-0.05-0.01-0.1c0-0.08-0.12-0.08-0.12 0-0.07 7.27-0.41 14.51-0.23 21.78 0.02 0.95 1.32 1.09 1.61 0.22 1.49-4.55 3.47-8.83 5.94-12.93q0.25-0.26 0.36-0.62 0.01-0.01 0.02-0.03c0.21-0.33 0.14-0.66-0.06-0.89-0.13-0.29-0.38-0.51-0.78-0.56zm-1.42 2.08q-2.42 4.14-4.2 8.56c-0.27-5.71-0.75-11.41-1.09-17.12 0.85 3.19 2.05 7.11 5.29 8.56z"/>
	<path class="s0" d="m34.95 38.09c0.91 0.2 1.75-0.17 2.55-0.56 0.4-0.81 0.77-1.65 0.57-2.56-0.16-0.76-0.64-1.48-1.35-1.82-0.61-0.29-1.27-0.23-1.85 0.09-0.3 0.16-0.59 0.46-0.9 0.75-0.29 0.31-0.59 0.61-0.75 0.9-0.33 0.58-0.38 1.24-0.09 1.85 0.33 0.71 1.06 1.19 1.82 1.35zm-0.7-2.82c0-0.27 0.09-0.55 0.18-0.82 0.27-0.09 0.54-0.18 0.82-0.18 0.76 0 0.64 0.74 0.4 1.4-0.66 0.24-1.4 0.36-1.4-0.4z"/>
	<path class="s0" d="m42.2 38.21c5.34-0.39 10.45-2.18 15.48-3.88 1.5-0.5 2.18 1.93 0.65 2.38-5.32 1.56-10.62 1.6-16.12 1.63-0.09 0-0.09-0.12-0.01-0.13z"/>
	<path class="s0" d="m129.91 39.65c0.01 1.68-2.72 1.62-2.57 0 0.11-1.08 0.39-1.9 1.21-2.64 0.73-0.67 1.51-0.85 2.36-1.28 0.07-0.03 0.12 0.07 0.06 0.11-1.09 0.75-1.07 2.65-1.06 3.81z"/>
	<path class="s0" d="m78.79 56.91c1.92 0.08 2.46 3 0.46 3.45-6.18 1.39-11.35-4.57-11.08-10.47 0.3-6.41 5.95-11.59 12.32-11.03 0.08 0 0.09 0.12 0 0.12-5.15 0.02-9.82 5.24-9.87 10.3-0.05 5.16 3.54 7.44 8.17 7.63z"/>
	<path class="s0" d="m31.01 41.02c3.39-0.44 6.79-0.4 10.13 0.15-0.54-3.34-0.58-6.75-0.15-10.14 0.04-0.32-0.31-0.6-0.6-0.6-3.19 0-6.32 0.26-9.47 0.51-0.26 3.16-0.51 6.29-0.52 9.47 0.01 0.3 0.29 0.65 0.61 0.61zm0.54-1.33c-0.27-2.83-0.48-5.7-0.43-8.55 2.85-0.05 5.72 0.16 8.55 0.43q-0.79 3.82-0.55 7.57-3.75-0.23-7.57 0.55z"/>
	<path class="s0" d="m39.26 61.28c1.41-6.04 1.88-12.37 1.24-18.55-0.01-0.07 0.11-0.09 0.13-0.02 1.69 6.33 2.31 12.43 1.73 18.99-0.2 2.29-3.63 1.82-3.1-0.42z"/>
	<path class="s0" d="m53.66 44.77c-3.56-0.1-7.31-0.7-10.76-1.84 1.14 3.45 1.74 7.2 1.84 10.76 0.05 1.78-0.36 3.65 1.1 4.99 1.27 1.17 3.19 0.97 4.75 0.95 3.29-0.04 6.51 0.5 9.74 0.73-0.23-3.23-0.77-6.46-0.72-9.74 0.02-1.56 0.21-3.49-0.95-4.75-1.35-1.47-3.22-1.05-5-1.1zm-7.51 5.66q0.19 0.28 0.41 0.55c1.67 1.93 4.37 3.24 6.92 2.52 0.72-2.55-0.6-5.25-2.52-6.91q-0.28-0.23-0.56-0.42 0.13 0.03 0.26 0.05c0.86 0.12 3.8-0.03 4.51 0.35 3.68 1.96 1.97 7.18 2.24 10.52q0.02 0.19 0.04 0.38-0.2-0.01-0.39-0.03c-3.33-0.27-8.56 1.44-10.52-2.24-0.38-0.71-0.22-3.65-0.35-4.51q-0.02-0.13-0.04-0.26zm-1.3-5.55c2.9 1.14 5.7 3.19 6.15 6.14-2.95-0.45-5-3.25-6.15-6.14z"/>
	<path class="s0" d="m44.31 44.27q-0.06-0.02-0.11-0.05 0.02 0.06 0.05 0.11 0-0.03-0.01-0.07 0.03 0.01 0.07 0.01z"/>
</svg>