<svg version="1.2" xmlns="http://www.w3.org/2000/svg" viewBox="0 0 300 300" width="300" height="300">
	<style>
		.s0 { fill: #b6a893 } 
	</style>
	<path class="s0" d="m273.31 28h-52.58c-0.49 0-0.93 0.2-1.25 0.53q-2.94-0.52-6.27-0.53h-153.6q-0.11 0-0.22 0.02c-7.85-0.1-15.64 3.22-20.97 9.6q-0.5 0.4-0.95 0.85-0.45 0.45-0.85 0.95c-6.38 5.33-9.71 13.12-9.6 20.98q-0.02 0.1-0.02 0.21v153.61q0.01 3.32 0.53 6.27c-0.33 0.31-0.53 0.75-0.53 1.24v49.35h3.47v-42.24c2.51 4.34 6.3 7.29 11.14 8.42 6.85 1.6 13.72-2.43 15.75-9.06 8.5-1.32 15.62-9.76 15.62-18.61 0-0.49-0.21-0.95-0.56-1.28-0.36-0.33-0.84-0.49-1.33-0.45-4.91 0.43-9.92 4.8-12.99 9.78-1.09-5.46-4.39-9.93-7.41-14.01-3.74-5.08-7.28-9.88-6.38-15.84 0.75-4.97 4.81-8.4 9.43-7.99 1.35 0.12 2.57 0.75 3.43 1.79 0.87 1.03 1.28 2.34 1.16 3.69-0.13 1.48-1.44 2.57-2.91 2.44q-0.47-0.05-0.78-0.41-0.3-0.36-0.27-0.83c0.01-0.08 0.08-0.14 0.16-0.13 0.95 0.08 1.8-0.62 1.88-1.58 0.08-0.95-0.62-1.79-1.57-1.88-1.99-0.17-3.74 1.3-3.92 3.28-0.22 2.53 1.66 4.78 4.19 5.01 3.38 0.29 6.38-2.21 6.68-5.59q0.03-0.39 0.03-0.77c0-2-0.69-3.91-1.99-5.46-1.46-1.74-3.51-2.81-5.78-3.01q-0.06-0.01-0.13-0.01c3.85-2.86 7.96-8.36 7.96-14.06q0.01-1.92-0.67-3.83c-0.3-0.81-1.15-1.28-2-1.1-4.35 0.94-7.75 3.17-9.84 6.47-2.25 3.54-2.83 8.02-1.68 12.95q0.09 0.36 0.31 0.65c-3.68 1.72-6.43 5.31-7.12 9.85-1.12 7.39 3.02 13 7.02 18.42 2.99 4.04 5.86 7.93 6.79 12.54-1.13-0.99-2.5-1.7-4-2.05-1.73-0.41-3.52-0.11-5.03 0.83-1.5 0.93-2.56 2.4-2.96 4.13-0.3 1.29-0.08 2.61 0.61 3.73 0.7 1.12 1.79 1.9 3.07 2.2 1 0.24 2.02 0.07 2.89-0.47 0.86-0.54 1.47-1.39 1.7-2.38 0.22-0.93-0.36-1.86-1.29-2.08-0.94-0.22-1.87 0.36-2.09 1.29-0.02 0.12-0.1 0.19-0.15 0.22-0.06 0.04-0.15 0.07-0.27 0.05-0.38-0.09-0.71-0.33-0.91-0.66-0.21-0.33-0.27-0.73-0.19-1.11 0.2-0.83 0.7-1.53 1.42-1.98 0.72-0.45 1.58-0.59 2.41-0.39 1.51 0.35 2.79 1.27 3.61 2.59 0.82 1.32 1.08 2.88 0.72 4.39-1.23 5.29-6.54 8.59-11.83 7.35-10.77-2.52-11.93-14.6-11.93-19.67v-141.05q0.76 1.35 1.69 2.63c2.45 3.36 5.85 5.61 9.56 6.68-2.88 1.98-5.24 4.87-6.75 8.45-3.3 7.81-2.82 20.27 8.42 31.82 2.77 2.84 5.76 5.41 8.65 7.89 8.98 7.71 17.47 15 17.47 29.1q0 0.15 0 0.29c-0.06 7-5.65 11.67-10.34 14.37-0.83 0.47-1.11 1.53-0.64 2.36 0.48 0.83 1.54 1.12 2.37 0.64 7.73-4.44 12.02-10.6 12.08-17.34q0-0.16 0-0.32c0-13.99-7.54-21.98-15.68-29.13 13.62 2.66 39.04 2.21 56.78-15.53 17.75-17.75 18.2-43.16 15.53-56.78 7.15 8.14 15.15 15.68 29.13 15.68q0.16 0 0.32-0.01c6.74-0.05 12.9-4.34 17.34-12.07 0.48-0.83 0.19-1.89-0.64-2.37-0.82-0.48-1.88-0.19-2.36 0.64-2.69 4.69-7.37 10.28-14.37 10.34q-0.14 0-0.28 0c-14.11 0-21.4-8.49-29.11-17.47-2.48-2.89-5.05-5.88-7.89-8.65-11.55-11.24-24-11.72-31.81-8.42-3.59 1.51-6.48 3.87-8.45 6.75-1.08-3.71-3.33-7.12-6.68-9.56q-1.29-0.93-2.64-1.69h141.05c5.08 0 17.16 1.16 19.67 11.93 1.24 5.29-2.06 10.59-7.35 11.83-1.51 0.35-3.07 0.1-4.39-0.72-1.32-0.82-2.24-2.1-2.59-3.62-0.19-0.82-0.05-1.68 0.39-2.4 0.45-0.72 1.16-1.23 1.98-1.42 0.38-0.09 0.78-0.02 1.11 0.18 0.34 0.21 0.57 0.54 0.66 0.92q0.02 0.18-0.05 0.26c-0.03 0.06-0.1 0.14-0.21 0.16-0.94 0.22-1.52 1.15-1.3 2.08 0.22 0.94 1.15 1.52 2.08 1.3 1-0.23 1.84-0.84 2.38-1.71 0.54-0.86 0.71-1.89 0.47-2.88-0.3-1.28-1.08-2.38-2.2-3.07-1.12-0.7-2.44-0.91-3.73-0.61-1.73 0.4-3.19 1.45-4.13 2.96-0.94 1.51-1.23 3.29-0.83 5.02 0.35 1.51 1.06 2.88 2.05 4.01-4.61-0.94-8.5-3.81-12.54-6.79-5.42-4-11.02-8.14-18.41-7.02-4.54 0.68-8.13 3.44-9.86 7.12q-0.28-0.22-0.65-0.31c-4.92-1.15-9.4-0.57-12.94 1.67-3.3 2.1-5.54 5.5-6.47 9.85-0.18 0.84 0.28 1.69 1.1 1.99q1.91 0.69 3.83 0.67c5.69 0 11.19-4.1 14.06-7.95q0 0.06 0 0.13c0.2 2.26 1.27 4.32 3.02 5.78 1.55 1.29 3.46 1.99 5.45 1.99q0.39 0 0.77-0.04c3.38-0.3 5.89-3.29 5.59-6.67-0.22-2.54-2.47-4.42-5-4.19-1.99 0.17-3.46 1.93-3.28 3.91 0.08 0.96 0.92 1.66 1.88 1.58 0.95-0.09 1.66-0.93 1.57-1.88 0-0.08 0.05-0.15 0.13-0.16q0.48-0.03 0.84 0.26 0.36 0.31 0.41 0.78c0.13 1.48-0.97 2.79-2.45 2.92-1.34 0.11-2.65-0.29-3.69-1.16-1.03-0.87-1.67-2.09-1.79-3.43-0.41-4.63 3.03-8.68 7.99-9.44 5.97-0.9 10.77 2.64 15.84 6.39 4.09 3.02 8.56 6.31 14.02 7.4-4.98 3.08-9.35 8.08-9.78 13-0.04 0.48 0.12 0.96 0.45 1.32 0.33 0.36 0.79 0.56 1.28 0.56 8.85 0 17.28-7.12 18.6-15.62 6.63-2.03 10.67-8.89 9.07-15.74-1.13-4.84-4.09-8.63-8.42-11.14h45.46c0 0 0-3.47 0-3.47zm-203.98 183.84c-0.93 5.65-5.2 10.73-10.47 12.45 1.26-4.96 6.08-10.69 10.47-12.45zm-17.04-46.16c1.33-2.09 3.4-3.63 6.04-4.51 0.79 5.38-4.12 10.95-7.27 12.94q-0.17 0.1-0.3 0.23c-0.48-3.33 0.04-6.3 1.53-8.66zm20.47-129.72c6.51 4.75 7.94 13.9 3.19 20.41-1.4 1.93-3.47 3.19-5.82 3.56-2.35 0.37-4.71-0.21-6.63-1.61-2.32-1.69-2.83-4.95-1.14-7.27 0.9-1.24 2.65-1.51 3.89-0.61q0.4 0.3 0.48 0.79 0.08 0.5-0.21 0.9c-0.07 0.09-0.18 0.1-0.26 0.04-0.78-0.56-1.86-0.39-2.43 0.38-0.56 0.78-0.39 1.86 0.38 2.43 1.63 1.18 3.92 0.82 5.11-0.8 0.73-1.01 1.03-2.25 0.84-3.48-0.19-1.24-0.86-2.32-1.87-3.06-2.78-2.03-6.7-1.42-8.73 1.37-2.82 3.86-1.97 9.3 1.89 12.11 2.14 1.57 4.67 2.39 7.27 2.39q0.97 0 1.94-0.15c3.27-0.52 6.14-2.27 8.09-4.94q0.11-0.16 0.21-0.32c1.27 7.85 5.25 12.74 11.25 13.71q0.04 0.09 0.09 0.17c0.39 0.48 8.39 10.32 18.5 10.32 1.48 0 3.01-0.21 4.56-0.7 0.47-0.14 0.86-0.48 1.06-0.93 0.21-0.45 0.22-0.96 0.02-1.41-0.05-0.1-3.59-7.92-13.65-9.94q1.08-0.84 1.8-1.69c2.12-2.43 3.33-5.72 3.33-9.02 0-5.87-3.65-9.96-8.87-9.96-3.75 0-6.27 4.24-6.27 8.2 0 0.96 0.78 1.74 1.73 1.74 0.96 0 1.74-0.78 1.74-1.74 0-2.13 1.29-4.74 2.8-4.74 3.99 0 5.4 3.5 5.4 6.5 0 2.48-0.9 4.94-2.47 6.75-1.82 2.08-4.41 3.19-7.51 3.19-9.48 0-10.5-11.39-10.5-16.29 0-5.65 3.56-10.67 9.31-13.09 6.78-2.87 17.71-2.35 28.05 7.71 1.58 1.55 3.09 3.19 4.56 4.84 0.56 0.82 1.37 3.16 2.06 6.56 0.23 11.18-3.36 19.6-10.72 25.06-9.77 7.24-23.31 6.93-26.81 5.59q-0.3-0.12-0.61-0.11-0.01 0.31 0.11 0.61c1.34 3.5 1.65 17.04-5.59 26.81-5.46 7.36-13.88 10.95-25.06 10.72-3.39-0.69-5.74-1.5-6.56-2.06-1.65-1.47-3.29-2.98-4.84-4.56-10.06-10.34-10.58-21.27-7.71-28.05 2.42-5.74 7.44-9.31 13.09-9.31 4.9 0 16.29 1.02 16.29 10.5 0 3.1-1.1 5.69-3.19 7.51-1.81 1.57-4.27 2.47-6.75 2.47-3 0-6.49-1.41-6.49-5.4 0-1.51 2.6-2.8 4.74-2.8 0.95 0 1.73-0.78 1.73-1.74 0-0.95-0.78-1.73-1.73-1.73-3.97 0-8.21 2.52-8.21 6.27 0 5.23 4.09 8.87 9.96 8.87 3.31 0 6.6-1.21 9.03-3.33q0.84-0.73 1.68-1.8c2.02 10.06 9.84 13.6 9.94 13.65 0.45 0.19 0.96 0.19 1.41-0.02 0.45-0.2 0.79-0.59 0.94-1.06q0.7-2.33 0.69-4.56c0-10.11-9.84-18.11-10.32-18.5q-0.08-0.05-0.17-0.1c-0.97-5.99-5.86-9.97-13.71-11.24q0.16-0.11 0.32-0.21c2.67-1.95 4.43-4.82 4.94-8.09q0.15-0.98 0.15-1.94c0-2.6-0.82-5.13-2.38-7.27-2.82-3.86-8.26-4.71-12.12-1.9-2.79 2.04-3.4 5.96-1.37 8.74 0.74 1.01 1.83 1.67 3.06 1.87 1.24 0.19 2.47-0.11 3.48-0.85 1.63-1.18 1.98-3.47 0.8-5.1-0.57-0.77-1.65-0.94-2.42-0.38-0.78 0.56-0.95 1.65-0.38 2.42 0.05 0.08 0.04 0.2-0.04 0.26q-0.41 0.29-0.9 0.22-0.5-0.08-0.8-0.48c-0.9-1.24-0.63-2.99 0.61-3.9 2.32-1.69 5.58-1.18 7.27 1.14 1.41 1.93 1.98 4.28 1.61 6.63-0.37 2.36-1.63 4.43-3.56 5.83-6.5 4.75-15.66 3.32-20.41-3.19-5.77-7.91-5.82-18.25-0.95-26.1 0.39 6.24 5.57 11.19 11.9 11.19 3.29 0 6.28-1.34 8.44-3.5 2.16-2.16 3.5-5.15 3.5-8.44 0-6.33-4.95-11.51-11.19-11.9 7.86-4.88 18.2-4.83 26.11 0.94zm-1.14 92.28q2.19-0.8 4.04-1.8l1.5 1.5q-2.85 0.27-5.54 0.3zm7.03-0.44l-1.94-1.94q1.84-1.1 3.36-2.32l3.51 3.51q-2.5 0.48-4.93 0.75zm6.28-1.03l-3.97-3.97q1.6-1.41 2.83-2.85l5.67 5.67q-2.27 0.67-4.53 1.15zm5.79-1.53l-6.19-6.19q0.31-0.37 0.59-0.75 0.94-1.28 1.73-2.6l8.02 8.01q-2.07 0.86-4.15 1.53zm5.3-2.01l-8.57-8.58q1.04-1.9 1.82-3.85l10.57 10.57q-1.89 1.02-3.82 1.86zm4.87-2.45l-11.16-11.16q0.81-2.24 1.32-4.45l13.98 13q-2.03 1.43-4.14 2.61zm5.09-3.31l-14.64-13.62c0.42-2.09 0.65-4.11 0.75-5.99l17.07 17.06q-1.57 1.36-3.18 2.55zm5.65-4.85q-0.8 0.79-1.62 1.53l-17.86-17.87q0.01-0.3 0.01-0.6-0.01-1.4-0.1-2.62 1.23 0.09 2.62 0.1 0.3-0.01 0.6-0.01l17.87 17.86q-0.74 0.82-1.52 1.61zm2.29-2.47l-17.06-17.06c1.88-0.1 3.9-0.34 5.99-0.75l13.62 14.64q-1.19 1.61-2.55 3.17zm3.25-4.12l-13-13.98q2.21-0.51 4.46-1.32l11.16 11.16q-1.19 2.1-2.62 4.14zm3.2-5.19l-10.57-10.57q1.95-0.78 3.85-1.83l8.58 8.58q-0.84 1.93-1.86 3.82zm2.34-4.97l-8.01-8.02q1.32-0.79 2.6-1.73 0.37-0.28 0.75-0.59l6.19 6.18q-0.67 2.09-1.53 4.16zm1.91-5.41l-5.67-5.67q1.44-1.23 2.85-2.83l3.97 3.97q-0.48 2.26-1.15 4.53zm1.43-5.88l-3.51-3.51q1.22-1.52 2.32-3.36l1.94 1.94q-0.27 2.43-0.75 4.93zm0.9-6.42l-1.51-1.5q1-1.86 1.8-4.04-0.03 2.69-0.29 5.54zm-87.88-36.24q0.49-0.41 0.99-0.8 0.02-0.01 0.03-0.03 0.02-0.01 0.03-0.03 0.39-0.51 0.81-0.99c1.4-1.02 3.12-1.64 4.98-1.64 4.67 0 8.48 3.81 8.48 8.48 0 2.34-0.95 4.46-2.49 5.99-1.53 1.53-3.65 2.48-5.99 2.48-4.67 0-8.47-3.8-8.47-8.47 0-1.86 0.61-3.58 1.63-4.99zm56.33 30.39c8.47-0.16 12.82 3.93 14.7 6.44-6.07 0.62-11.66-3.58-14.7-6.44zm-24.09 24.09c2.86 3.04 7.06 8.63 6.44 14.7-2.51-1.88-6.6-6.24-6.44-14.7zm101.8-44.34c-1.99 3.15-7.56 8.06-12.93 7.27 0.87-2.64 2.41-4.71 4.5-6.04 2.36-1.49 5.33-2.01 8.67-1.53q-0.14 0.13-0.24 0.3zm37.73 18.26c1.77-4.38 7.49-9.2 12.45-10.46-1.72 5.27-6.8 9.54-12.45 10.46z"/>
</svg>