<svg version="1.2" xmlns="http://www.w3.org/2000/svg" viewBox="0 0 300 300" width="300" height="300">
	<style>
		.s0 { fill: #b6a893 } 
	</style>
	<path class="s0" d="m110.29 108.53q-0.39 0.24-0.69 0.55-0.32 0.3-0.55 0.7c-1.73 2.9 1.17 7.84 1.76 8.8 3.32 5.33 8.54 8.25 13.97 7.82 0.58-0.05 1.09-0.29 1.49-0.65 0.36-0.4 0.6-0.91 0.64-1.48 0.44-5.43-2.49-10.66-7.82-13.97-0.96-0.6-5.9-3.49-8.8-1.77zm8.6 7.99c1.05 1.04 2.21 2.55 2.73 4.49q-0.07-0.02-0.14-0.04 0.03 0.07 0.05 0.14c-1.95-0.53-3.46-1.69-4.49-2.73-1.62-1.63-2.6-3.46-3.09-4.78q0.11 0.03 0.23 0.06-0.04-0.11-0.07-0.23c1.32 0.49 3.15 1.48 4.78 3.09z"/>
	<path class="s0" d="m125.81 106.37c3.65 0 6.97-1.23 9.01-2.47 1.17-0.7 1.56-2.21 0.9-3.4-2.68-4.74-8.01-7.45-14.29-7.22-1.13 0.04-6.85 0.4-8.29 3.45-0.51 1.09-0.38 2.33 0.36 3.3 3.67 4.79 8.2 6.34 12.31 6.34zm-1.07-7.82c1.44 0.28 3.24 0.89 4.77 2.21-2.67 0.84-6.82 1.26-10.47-2.1 1.38-0.33 3.44-0.53 5.7-0.11z"/>
	<path class="s0" d="m136.99 82.22c-4.01-3.68-9.93-4.6-15.82-2.44-1.06 0.39-6.39 2.5-6.82 5.84-0.15 1.21 0.36 2.34 1.36 3.03 3.13 2.16 6.19 2.98 8.99 2.98 5.64 0 10.28-3.33 12.49-5.9 0.89-1.03 0.8-2.58-0.2-3.51zm-16.42 3.41c1.2-0.74 3.1-1.57 5.38-1.86 1.45-0.19 3.35-0.17 5.2 0.61-2.27 1.61-6.09 3.3-10.58 1.25z"/>
	<path class="s0" d="m25.67 25.15v249.67h5.05v-58.85l7.77-17.17q0.23-0.51 0.23-1.05 0-0.6-0.28-1.15c-0.35-0.68-1.14-0.86-1.75-1.32-3.28-2.46-5.97-4.84-5.97-9.17v-139.28l16.53-0.1 0.09-16.53h139.29c4.32 0 6.71 2.7 9.16 5.97 0.46 0.62 0.64 1.41 1.32 1.76q0.56 0.28 1.16 0.28 0.54 0 1.04-0.23l17.17-7.78h58.33v-5.05c0 0-249.14 0-249.14 0z"/>
	<path class="s0" d="m103.91 105.77l2.25-0.12 0.13-2.25c0.02-0.52 0.59-12.71-6.83-20.11-7.41-7.4-19.6-6.8-20.12-6.77l-2.18 0.12-0.13 2.19c-0.02 0.51-0.62 12.7 6.78 20.12 7.4 7.42 19.59 6.85 20.1 6.82zm-16.53-10.39c-4.03-4.04-5.02-10.31-5.25-13.77 3.45 0.23 9.72 1.22 13.77 5.26 4.06 4.05 5.06 10.36 5.29 13.8-3.45-0.23-9.75-1.22-13.81-5.29z"/>
	<path class="s0" d="m42.32 125.56c0.28 6.27 3.4 11.38 8.34 13.66 1.24 0.57 2.71 0.06 3.32-1.16 0.94-1.87 1.79-4.72 1.79-7.85 0-2.52-0.55-5.23-2.07-7.77 2-0.32 3.82-1.38 5.22-3.09 1.53-1.87 2.4-4.34 2.47-6.82q0.02-0.06 0.04-0.13c0.6-2.95 2.32-5.5 4.83-7.16 2.52-1.67 5.53-2.25 8.49-1.65 3.07 0.62 5.06 3.64 4.44 6.71-0.12 0.62-0.48 1.15-1.01 1.5-0.47 0.31-1.01 0.44-1.56 0.38 0.76-0.31 1.35-0.98 1.52-1.83 0.28-1.37-0.6-2.7-1.97-2.98-1.11-0.23-2.24-0.01-3.19 0.62-0.95 0.63-1.6 1.59-1.82 2.7-0.3 1.42-0.01 2.87 0.79 4.08 0.8 1.21 2.02 2.04 3.45 2.32 1.94 0.4 3.91 0.01 5.57-1.08 1.65-1.09 2.77-2.76 3.17-4.7q0.22-1.08 0.22-2.16c0-2.09-0.61-4.13-1.79-5.91-1.58-2.4-4.01-4.03-6.82-4.6-4.27-0.87-8.64-0.02-12.27 2.39-1.95 1.28-3.55 2.94-4.76 4.85-1.65-1.38-3.9-2.04-6.17-1.58-1.4 0.29-2.62 1.1-3.41 2.3-0.8 1.2-1.08 2.63-0.79 4.04 0.28 1.37 1.61 2.25 2.98 1.97 1.36-0.27 2.25-1.6 1.97-2.97-0.04-0.18 0.08-0.35 0.26-0.39 1.22-0.25 2.43 0.55 2.68 1.78 0.35 1.76-0.13 3.78-1.23 5.13-0.5 0.61-1.37 1.35-2.6 1.35-3.91 0-6.43-3.66-7.85-6.72-2.11-4.53-3.28-10.76-3.28-17.53 0-12.59 4.01-25.96 12.66-30.13-3.33 6.12-2.64 13.09 2.21 18.58 3.97 4.49 10.87 4.92 15.36 0.94 1.5-1.32 2.39-3.15 2.52-5.15q0.01-0.24 0.01-0.47c0-1.83-0.66-3.57-1.88-4.96-2-2.26-5.47-2.47-7.74-0.47-0.85 0.75-1.36 1.8-1.43 2.94-0.08 1.13 0.3 2.24 1.06 3.1 0.92 1.05 2.52 1.14 3.56 0.22 0.71-0.62 0.98-1.54 0.81-2.4 0.4 0.48 0.6 1.09 0.57 1.72-0.04 0.66-0.33 1.26-0.82 1.69-2.41 2.13-6.11 1.9-8.24-0.51-4.42-5-3.99-11.27 1.12-16.37q0.38-0.4 0.57-0.89 0.49-0.18 0.88-0.57c5.1-5.1 11.38-5.53 16.38-1.11 2.41 2.13 2.64 5.82 0.5 8.23-0.43 0.49-1.03 0.78-1.68 0.82-0.64 0.04-1.24-0.16-1.72-0.57 0.85 0.18 1.78-0.1 2.4-0.8 0.92-1.04 0.82-2.64-0.22-3.56-0.86-0.76-1.97-1.14-3.1-1.07-1.14 0.07-2.19 0.58-2.95 1.44-2 2.26-1.78 5.74 0.48 7.74 1.38 1.22 3.12 1.88 4.95 1.88q0.24 0 0.47-0.02c2-0.12 3.83-1.01 5.16-2.51 3.97-4.5 3.55-11.39-0.95-15.36-5.49-4.86-12.46-5.54-18.57-2.22 4.16-8.65 17.54-12.65 30.12-12.65 6.77 0 13 1.16 17.54 3.27 3.06 1.43 6.71 3.95 6.71 7.85 0 1.24-0.73 2.1-1.35 2.6-1.35 1.11-3.36 1.59-5.13 1.23-1.23-0.25-2.02-1.45-1.77-2.68 0.03-0.18 0.21-0.29 0.38-0.26 1.37 0.28 2.7-0.6 2.98-1.97 0.27-1.37-0.61-2.7-1.98-2.97-1.4-0.29-2.84-0.01-4.04 0.78-1.19 0.8-2.01 2.01-2.3 3.42-0.46 2.27 0.2 4.51 1.59 6.16-1.91 1.22-3.57 2.82-4.86 4.76-2.41 3.64-3.26 8-2.39 12.28 0.58 2.81 2.21 5.23 4.6 6.81 1.78 1.18 3.82 1.79 5.91 1.79q1.08 0 2.16-0.22c1.94-0.39 3.61-1.52 4.71-3.17 1.09-1.65 1.47-3.63 1.08-5.57-0.29-1.42-1.11-2.64-2.32-3.45-1.21-0.8-2.67-1.08-4.09-0.79-1.11 0.23-2.07 0.87-2.69 1.82-0.63 0.95-0.85 2.08-0.63 3.2 0.28 1.36 1.61 2.25 2.98 1.97 0.86-0.18 1.53-0.77 1.84-1.52 0.06 0.54-0.07 1.09-0.38 1.56-0.35 0.52-0.88 0.88-1.5 1.01-3.08 0.62-6.09-1.37-6.72-4.45-0.6-2.95-0.01-5.97 1.65-8.48 1.67-2.52 4.21-4.23 7.17-4.83q0.06-0.02 0.12-0.04c2.48-0.07 4.95-0.94 6.83-2.48 1.7-1.39 2.76-3.21 3.09-5.21 2.53 1.51 5.24 2.07 7.77 2.07 3.13 0 5.97-0.85 7.85-1.8 1.22-0.61 1.73-2.08 1.16-3.31-2.29-4.95-7.4-8.07-13.67-8.34-0.9-0.04-4.68-0.1-7.05 1.33-5.45-5.05-15.6-7.42-25.25-7.42-16.7 0-34.59 6.66-36.35 21.19-14.53 1.76-21.19 19.65-21.19 36.35 0 9.65 2.37 19.8 7.42 25.25-1.43 2.37-1.37 6.15-1.33 7.05zm5.18-2.81c3.62 3.36 3.52 7.54 2.91 10.25-1.43-1.41-2.18-3.15-2.56-4.57-0.61-2.21-0.57-4.28-0.35-5.68zm81.45-75.42c1.42 0.39 3.16 1.13 4.57 2.57-2.71 0.6-6.89 0.7-10.25-2.92 1.39-0.22 3.47-0.26 5.68 0.35z"/>
	<path class="s0" d="m100.54 112.98c-0.97-0.74-2.2-0.87-3.3-0.35-3.05 1.44-3.41 7.15-3.45 8.29-0.23 6.27 2.48 11.61 7.23 14.28 1.19 0.67 2.69 0.27 3.4-0.89 1.24-2.05 2.46-5.36 2.46-9.02 0-4.1-1.54-8.64-6.34-12.31zm0.73 16.01c-1.32-1.52-1.93-3.32-2.2-4.77-0.43-2.25-0.22-4.32 0.1-5.69 3.37 3.64 2.94 7.79 2.1 10.46z"/>
	<path class="s0" d="m80.29 120.65c-2.15 5.9-1.24 11.81 2.45 15.82 0.92 1 2.48 1.1 3.51 0.21 2.56-2.22 5.9-6.86 5.9-12.5 0-2.8-0.83-5.86-2.98-8.98-0.69-1.01-1.83-1.52-3.03-1.36-3.35 0.42-5.46 5.75-5.85 6.81zm4 4.78c0.29-2.27 1.12-4.18 1.86-5.38 2.05 4.5 0.35 8.32-1.25 10.59-0.78-1.86-0.8-3.76-0.61-5.21z"/>
	<path class="s0" d="m54 164.33q-0.03 0.24-0.04 0.4c-0.47 6.25 2.03 11.7 6.67 14.55 1.16 0.71 2.68 0.38 3.43-0.76 1.39-2.11 2.83-5.63 2.83-9.54 0-3.6-1.23-7.53-4.82-10.97 2.04-2.35 3.62-4.96 4.69-7.71 2.67 4.36 6.8 7.08 11.44 7.39 1.36 0.09 2.54-0.92 2.68-2.27q0.07-0.68 0.07-1.47c0-5.34-2.58-13.97-12.76-16.11q-0.05-0.01-0.11-0.01c-0.89-5.03-3.51-9.82-7.76-14.06-0.99-0.99-2.59-0.99-3.57 0-0.99 0.98-0.99 2.58 0 3.57 4.68 4.68 6.97 10.07 6.59 15.57-0.31 4.63-2.56 9.36-6.17 12.97-5.04 5.04-12.58 7.7-17.25 3.04-1.94-1.94-1.21-4.05 0-5.26 0.84-0.84 1.99-1.33 3.15-1.34 1.42-0.01 2.86 0.67 4.18 1.99 0.98 0.98 2.58 0.98 3.56 0 0.99-0.99 0.99-2.59 0-3.57-2.89-2.9-5.82-3.48-7.78-3.47-2.51 0.02-4.88 1.02-6.68 2.82-3.08 3.08-4.07 8.33 0 12.4 4.97 4.96 11.71 4.78 17.65 1.84zm21.75-12.36c-1.85-0.8-3.17-2.17-4.05-3.35-1.35-1.85-2.06-3.8-2.35-5.18 4.6 1.84 6 5.76 6.4 8.53zm-16.32 10.58c3.22 3.77 2.63 7.9 1.69 10.53-1.26-1.57-1.8-3.39-2.01-4.85-0.35-2.27-0.06-4.32 0.32-5.68z"/>
</svg>