<svg version="1.2" xmlns="http://www.w3.org/2000/svg" viewBox="0 0 300 300" width="300" height="300">
	<style>
		.s0 { fill: #b6a893 } 
	</style>
	<g id="Folder 1">
		<path class="s0" d="m265.52 48.97h-216.55v216.52h3.21v-98.94l10.16 2.31q0.18 0.04 0.36 0.04c3.41 0 6.58-1.04 9.22-2.82 2.53 2.43 4.11 5.84 4.11 9.61 0 3.92-3.19 7.11-7.11 7.11-1.92 0-3.47-1.56-3.47-3.48 0-0.75 0.61-1.36 1.35-1.36 0.89 0 1.61-0.71 1.61-1.6 0-0.89-0.72-1.6-1.61-1.6-2.51 0-4.56 2.04-4.56 4.56 0 3.69 3 6.69 6.68 6.69 5.69 0 10.32-4.63 10.32-10.32 0-3.87-1.35-7.42-3.58-10.24 11.82-1.07 21.04-7.4 26.37-18.17 0.48 2.59 1.45 5.02 3.28 6.94 2.26 2.37 5.52 3.58 9.7 3.58 4.68 0.01 8.5-1.5 11.06-4.37 1.95-2.19 3.08-5.06 3.34-8.43 2.35 2.06 5.91 4.38 9.94 4.38q3.89-0.02 7.2-2.83 2.81-3.31 2.83-7.2c0-4.03-2.32-7.59-4.37-9.94 3.37-0.26 6.23-1.39 8.43-3.34 2.86-2.56 4.37-6.38 4.36-11.06 0-4.18-1.21-7.45-3.58-9.7-1.92-1.83-4.34-2.8-6.94-3.28 10.78-5.34 17.1-14.55 18.17-26.38 2.82 2.24 6.37 3.58 10.24 3.58 5.69 0 10.32-4.62 10.32-10.31 0-3.69-3-6.69-6.69-6.69-2.52 0-4.56 2.05-4.56 4.57 0 0.89 0.71 1.6 1.6 1.6 0.89 0 1.6-0.71 1.6-1.6 0-0.75 0.61-1.36 1.36-1.36 1.92 0 3.48 1.56 3.48 3.48 0 3.92-3.19 7.1-7.11 7.1-3.77 0-7.18-1.57-9.61-4.1 1.78-2.64 2.82-5.81 2.82-9.23q-0.01-0.18-0.04-0.35l-2.31-10.16h98.97zm-103.55 22.95c-2.42 2.53-5.84 4.1-9.61 4.1-3.92 0-7.11-3.19-7.11-7.1 0-1.92 1.56-3.48 3.48-3.48 0.75 0 1.36 0.61 1.36 1.36 0 0.89 0.72 1.6 1.6 1.6 0.89 0 1.61-0.71 1.61-1.6 0-2.52-2.05-4.57-4.57-4.57-3.69 0-6.69 3-6.69 6.69 0 5.68 4.63 10.31 10.32 10.31 3.69 0 7.08-1.22 9.83-3.27-1.23 11.19-7.73 19.72-18.67 24.25-9.68 4.02-21.6 4.35-32.39 1.62 0.06-4.39 0.93-8.48 2.8-11.56 3.47-5.71 10.93-7.54 16.64-4.07 3.02 1.83 3.98 5.77 2.15 8.78-0.42 0.7-1.1 1.19-1.89 1.39-0.79 0.19-1.61 0.07-2.32-0.36q-0.39-0.24-0.5-0.69-0.1-0.45 0.13-0.84c0.46-0.76 0.22-1.75-0.54-2.21-0.76-0.46-1.75-0.21-2.2 0.54-1.24 2.04-0.59 4.71 1.45 5.94 1.43 0.87 3.11 1.13 4.74 0.73 1.63-0.39 3.01-1.4 3.87-2.83 2.75-4.53 1.3-10.45-3.22-13.2-7.23-4.38-16.67-2.07-21.05 5.15-1.96 3.23-3.02 7.53-3.18 12.34q-4.25-1.34-8.07-3.3c-2.48-2.72-7.28-9-4.28-14.14 1.35-2.32 4.33-3.1 6.64-1.75 1.03 0.6 1.38 1.93 0.78 2.96-0.11 0.18-0.27 0.25-0.36 0.27-0.09 0.03-0.27 0.05-0.45-0.06-0.77-0.45-1.75-0.19-2.2 0.58-0.44 0.76-0.19 1.74 0.58 2.19 0.88 0.51 1.9 0.65 2.88 0.4 0.99-0.26 1.81-0.89 2.32-1.77 1.49-2.56 0.62-5.85-1.93-7.35-3.85-2.24-8.79-0.93-11.04 2.91-1.84 3.16-1.82 6.95-0.05 10.94-3.99-1.77-7.78-1.79-10.94 0.06-3.85 2.24-5.15 7.18-2.91 11.03 1.49 2.56 4.79 3.42 7.35 1.93 0.88-0.51 1.5-1.33 1.76-2.32 0.26-0.98 0.12-2-0.39-2.88-0.45-0.76-1.43-1.02-2.19-0.58-0.77 0.45-1.03 1.43-0.58 2.2 0.1 0.18 0.08 0.36 0.06 0.45-0.03 0.09-0.09 0.25-0.28 0.36-1.03 0.6-2.36 0.25-2.96-0.78-1.35-2.31-0.56-5.29 1.75-6.64 5.14-3 11.42 1.8 14.14 4.28q1.97 3.83 3.3 8.07c-4.81 0.16-9.11 1.22-12.33 3.18-7.23 4.39-9.54 13.83-5.15 21.05 2.75 4.53 8.66 5.97 13.19 3.23 1.43-0.87 2.44-2.25 2.84-3.87 0.4-1.63 0.14-3.31-0.73-4.75-1.24-2.04-3.9-2.69-5.94-1.45-0.76 0.46-1 1.45-0.54 2.2 0.46 0.76 1.45 1 2.2 0.54q0.4-0.23 0.85-0.13 0.44 0.12 0.69 0.51c0.42 0.7 0.55 1.52 0.35 2.32-0.19 0.79-0.68 1.46-1.38 1.89-3.02 1.83-6.96 0.86-8.79-2.15-3.46-5.71-1.64-13.18 4.07-16.64 3.09-1.87 7.17-2.75 11.56-2.8 2.73 10.78 2.4 22.7-1.61 32.39-4.53 10.93-13.06 17.44-24.26 18.67 2.05-2.76 3.28-6.15 3.28-9.84 0-5.68-4.63-10.31-10.32-10.31-3.68 0-6.68 3-6.68 6.68 0 2.52 2.05 4.57 4.56 4.57 0.89 0 1.61-0.72 1.61-1.6 0-0.89-0.72-1.61-1.61-1.61-0.75 0-1.35-0.61-1.35-1.36 0-1.91 1.55-3.47 3.47-3.47 3.92 0 7.11 3.19 7.11 7.1 0 3.78-1.58 7.19-4.11 9.62-2.64-1.78-5.81-2.82-9.22-2.82q-0.25 0-0.48 0.07l-10.04 3.14v-67.24c5.7 7.54 3.9 13.96 2.16 20.19-1.78 6.34-3.62 12.9 2.95 19.46 1.61 1.62 3.85 2.33 6.3 2.01 3.24-0.42 6.43-2.59 8.12-5.51 1.85-3.19 0.76-7.29-2.43-9.13-1.06-0.62-2.29-0.78-3.47-0.47-1.18 0.32-2.16 1.07-2.77 2.13-0.45 0.76-0.19 1.75 0.58 2.19 0.77 0.44 1.75 0.18 2.19-0.58 0.38-0.65 1.21-0.87 1.86-0.5 0.8 0.47 1.38 1.22 1.62 2.12 0.23 0.89 0.11 1.83-0.36 2.63-1.19 2.06-3.51 3.65-5.76 3.94-1.02 0.13-2.47 0.05-3.62-1.1-5.23-5.23-3.86-10.13-2.12-16.32 2.04-7.31 4.36-15.55-4.61-25.3l3.78-3.77q0.29 0.54 0.62 1.07c1.89 2.98 4.83 5.05 8.27 5.82 3.45 0.77 6.99 0.15 9.97-1.74 2.51-1.59 3.89-4.32 3.89-7.09 0-1.53-0.42-3.09-1.3-4.48-1.64-2.58-5.08-3.35-7.67-1.71-0.88 0.56-1.49 1.43-1.72 2.45-0.23 1.02-0.04 2.06 0.52 2.94 0.47 0.75 1.46 0.97 2.21 0.5 0.75-0.48 0.97-1.47 0.5-2.22-0.14-0.21-0.12-0.42-0.1-0.52 0.03-0.11 0.1-0.31 0.31-0.44 1.1-0.7 2.55-0.37 3.24 0.72 1.53 2.41 0.81 5.61-1.6 7.14-2.25 1.43-4.93 1.9-7.54 1.31-2.61-0.58-4.84-2.14-6.27-4.4q-0.52-0.84-0.96-1.73l25.77-25.76q0.89 0.43 1.73 0.95c2.25 1.43 3.82 3.66 4.4 6.27 0.59 2.61 0.12 5.29-1.31 7.55-1.53 2.41-4.73 3.12-7.14 1.59-1.09-0.69-1.42-2.14-0.72-3.23 0.13-0.22 0.33-0.29 0.44-0.31 0.1-0.03 0.31-0.05 0.52 0.09 0.75 0.47 1.74 0.25 2.22-0.5 0.47-0.74 0.25-1.74-0.5-2.21-0.88-0.56-1.93-0.74-2.95-0.51-1.02 0.22-1.88 0.83-2.44 1.72-1.64 2.58-0.87 6.02 1.71 7.66 1.39 0.89 2.94 1.31 4.48 1.31 2.77 0 5.49-1.38 7.09-3.89 1.89-2.99 2.5-6.53 1.73-9.97-0.77-3.45-2.83-6.39-5.81-8.28q-0.53-0.33-1.07-0.62l3.77-3.77c9.75 8.96 17.99 6.65 25.3 4.6 6.19-1.73 11.09-3.1 16.32 2.13 1.15 1.15 1.23 2.6 1.1 3.61-0.3 2.26-1.88 4.58-3.94 5.77-0.8 0.47-1.74 0.59-2.64 0.35-0.89-0.24-1.64-0.81-2.11-1.61-0.38-0.65-0.15-1.49 0.49-1.86 0.77-0.44 1.03-1.43 0.59-2.19-0.45-0.77-1.43-1.03-2.19-0.59-1.06 0.61-1.82 1.6-2.13 2.78-0.31 1.18-0.15 2.41 0.46 3.46 1.85 3.19 5.95 4.29 9.14 2.44 2.92-1.7 5.08-4.89 5.51-8.13 0.32-2.44-0.4-4.68-2.01-6.3-6.56-6.56-13.12-4.72-19.46-2.95-6.23 1.75-12.65 3.54-20.2-2.15h67.25l-3.14 10.04q-0.07 0.23-0.07 0.47c0 3.42 1.03 6.59 2.81 9.23zm-109.79-19.74h15.31v15.3h-15.31zm0 18.52h16.29l-16.29 16.29zm10.69 94.99l-6.12-1.39 6.19-1.93c2.24 0.04 4.36 0.64 6.2 1.66-1.86 1.03-4 1.63-6.27 1.66zm89.14-58.05c1.73 1.65 2.58 4.06 2.59 7.38 0 3.74-1.14 6.73-3.3 8.65-2.36 2.11-5.88 2.95-10.17 2.45-0.71-0.08-1.39 0.32-1.67 0.99-0.27 0.67-0.06 1.43 0.5 1.88 0.07 0.04 6.22 4.88 6.21 10.37q-0.02 2.58-1.9 4.91-2.33 1.89-4.91 1.9c-5.49 0.02-10.33-6.14-10.38-6.2-0.44-0.57-1.21-0.78-1.87-0.5-0.67 0.27-1.07 0.95-0.99 1.67 0.5 4.28-0.34 7.8-2.45 10.16-1.93 2.16-4.92 3.3-8.65 3.3-3.32-0.01-5.73-0.85-7.39-2.59-2.07-2.17-2.69-5.47-2.79-8.84q2.17 4.04 6.99 5.26c4.08 1.02 8.24-1.47 9.26-5.55q0.16-0.62 0.16-1.25c0-0.92-0.25-1.82-0.73-2.62-0.71-1.18-1.82-2.01-3.15-2.34-0.95-0.24-1.93-0.09-2.77 0.41-0.83 0.5-1.43 1.3-1.66 2.25-0.22 0.86 0.3 1.73 1.16 1.94 0.86 0.22 1.73-0.3 1.95-1.16 0.04-0.15 0.13-0.23 0.2-0.28 0.07-0.04 0.19-0.08 0.34-0.05 0.5 0.13 0.91 0.44 1.17 0.88 0.27 0.43 0.34 0.95 0.22 1.44-0.29 1.15-1.01 2.11-2.02 2.72-1.01 0.61-2.2 0.78-3.35 0.49-3.02-0.76-6.93-2.91-6.24-12.57q0.52-3.78 0.51-7.63c0-4.65-0.56-9.33-1.63-13.85q2.12 0.16 4.25 0.54c5.87 22.49 25.36 25.03 25.57 25.05 0.49 0.06 0.96-0.12 1.31-0.47 0.34-0.34 0.52-0.82 0.47-1.31-0.03-0.2-2.56-19.7-25.05-25.57q-0.38-2.13-0.54-4.25c4.52 1.07 9.2 1.64 13.85 1.64q3.85 0 7.62-0.51c9.67-0.7 11.82 3.21 12.58 6.23 0.29 1.15 0.11 2.34-0.49 3.35-0.61 1.02-1.58 1.73-2.72 2.02-0.5 0.13-1.01 0.05-1.45-0.21-0.44-0.27-0.75-0.68-0.87-1.18-0.04-0.15 0.01-0.26 0.05-0.33 0.04-0.08 0.13-0.17 0.27-0.21 0.86-0.21 1.38-1.09 1.17-1.94-0.22-0.86-1.09-1.39-1.95-1.17-0.94 0.24-1.74 0.83-2.24 1.67-0.5 0.83-0.65 1.82-0.41 2.76 0.33 1.33 1.16 2.45 2.33 3.15 0.81 0.48 1.71 0.73 2.62 0.73q0.63 0 1.26-0.16c4.08-1.02 6.57-5.18 5.54-9.26q-1.22-4.82-5.25-6.99c3.37 0.1 6.67 0.72 8.84 2.8zm-47.62 0.41q-0.87-2.91-2.02-5.68 2.76 1.16 5.68 2.02 0.1 2 0.4 4.06-2.06-0.3-4.06-0.4zm28.43 25.04c-4.84-1.37-15-5.89-19.53-19.79 13.91 4.52 18.42 14.69 19.8 19.52l-0.41-0.14zm-62.13-80.91h16.3l-16.3 16.29zm93.33 16.96c-1.02-1.84-1.62-3.96-1.66-6.2l1.94-6.19 1.39 6.12c-0.03 2.27-0.63 4.41-1.67 6.27z"/>
		<path class="s0" d="m82.84 89.26h6.42v-6.42c0-0.89-0.72-1.6-1.61-1.6h-6.41v6.41c0 0.89 0.71 1.61 1.6 1.61zm1.6-4.82h1.61v1.61h-1.61z"/>
		<path class="s0" d="m107.76 73.72q0.39 0.23 0.84 0.23 0.18 0 0.36-0.04c7.34-1.71 9.41-11.71 9.5-12.13 0.11-0.58-0.1-1.18-0.56-1.56-0.45-0.37-1.08-0.47-1.63-0.24-10.54 4.34-19.55-1.01-19.67-1.08-0.64-0.39-1.46-0.29-1.99 0.25-0.52 0.54-0.6 1.36-0.2 1.99 4.7 7.24 13 12.36 13.35 12.58zm6.66-9.72c-0.94 2.39-2.69 5.58-5.57 6.6-1.34-0.88-4.8-3.29-7.99-6.57 3.49 0.91 8.24 1.43 13.56-0.03z"/>
		<path class="s0" d="m143.44 90.78c6.44-2.56 10.99-6.4 15.94-11.09 0.1-0.09-0.05-0.24-0.15-0.15-4.42 3.78-10.75 5.8-16.43 6.51-3.71 0.46-2.39 5.93 0.64 4.73z"/>
		<path class="s0" d="m144.13 83.3c4.45 0.35 8.19-1.47 12.12-3.19 0.12-0.05 0.04-0.23-0.08-0.2-3.78 1.23-7.78 0.24-11.48-0.75-2.9-0.77-3.68 3.89-0.56 4.14z"/>
		<path class="s0" d="m158.87 81.98c-1 2.04-3.09 3.84-4.85 5.22-1.63 1.27-3.91 2.03-5.3 3.52-0.97 1.05-0.03 2.98 1.47 2.51 2.13-0.68 3.83-2.97 5.14-4.7 1.55-2.02 2.42-4.3 3.73-6.44 0.07-0.12-0.13-0.23-0.19-0.11z"/>
		<path fill-rule="evenodd" class="s0" d="m34 34v231.49h3.21v-228.28h228.31v-3.21z"/>
		<path class="s0" d="m59.72 212.93c0.31 0.36 0.77 0.57 1.25 0.56 0.48-0.01 0.92-0.23 1.22-0.6l4.13-5.17q0.35-0.45 0.35-1 0-0.21-0.05-0.41l-4.13-15.86c-0.18-0.7-0.81-1.2-1.54-1.2-0.72-0.01-1.36 0.47-1.56 1.17l-4.42 15.87c-0.14 0.51-0.02 1.06 0.32 1.47zm1.17-15.92l2.43 9.33-2.42 3.03-2.61-3.05z"/>
		<path class="s0" d="m59.53 221.25c0.32 0.29 0.73 0.45 1.16 0.43 0.42-0.01 0.83-0.2 1.11-0.51l4.45-4.8c0.28-0.31 0.43-0.7 0.43-1.09 0-0.43-0.18-0.86-0.52-1.18-0.65-0.6-1.66-0.56-2.26 0.09l-3.36 3.62-3.98-3.71c-0.64-0.6-1.66-0.56-2.26 0.08-0.61 0.65-0.57 1.67 0.08 2.27z"/>
		<path class="s0" d="m63.89 222.07l-3.35 3.62-3.98-3.7c-0.64-0.6-1.66-0.57-2.26 0.08-0.61 0.65-0.57 1.66 0.08 2.27l5.15 4.8c0.32 0.29 0.73 0.44 1.16 0.43 0.42-0.02 0.83-0.2 1.11-0.52l4.45-4.8c0.28-0.31 0.43-0.7 0.43-1.09 0-0.43-0.18-0.86-0.52-1.18-0.65-0.59-1.66-0.56-2.27 0.09z"/>
		<path class="s0" d="m59.53 237.02c0.32 0.3 0.73 0.45 1.16 0.43 0.42-0.01 0.83-0.2 1.11-0.51l4.45-4.8c0.28-0.31 0.43-0.7 0.43-1.09 0-0.43-0.18-0.86-0.52-1.18-0.65-0.6-1.66-0.56-2.26 0.09l-3.36 3.62-3.98-3.7c-0.64-0.61-1.66-0.57-2.26 0.08-0.61 0.65-0.57 1.66 0.08 2.26z"/>
		<path class="s0" d="m59.53 244.91c0.32 0.29 0.73 0.45 1.16 0.43 0.42-0.02 0.83-0.2 1.11-0.51l4.45-4.8c0.28-0.31 0.43-0.7 0.43-1.09 0-0.44-0.18-0.87-0.52-1.18-0.65-0.6-1.66-0.56-2.26 0.09l-3.36 3.62-3.98-3.71c-0.64-0.6-1.66-0.57-2.26 0.08-0.61 0.65-0.57 1.67 0.08 2.27z"/>
		<path class="s0" d="m59.02 252.32v13.17h3.21v-13.24l4.02-4.34c0.28-0.31 0.42-0.7 0.42-1.09 0-0.43-0.17-0.86-0.51-1.17-0.65-0.6-1.66-0.57-2.27 0.08l-3.35 3.62-3.98-3.7c-0.64-0.6-1.66-0.57-2.26 0.08-0.61 0.65-0.57 1.66 0.08 2.27z"/>
		<path class="s0" d="m73.95 108.6q0-0.45-0.23-0.84c-0.22-0.35-5.34-8.65-12.58-13.34-0.62-0.41-1.45-0.33-1.99 0.2-0.54 0.52-0.64 1.34-0.25 1.98 0.08 0.12 5.42 9.13 1.08 19.67-0.23 0.55-0.13 1.18 0.24 1.64 0.38 0.45 0.98 0.67 1.56 0.55 0.42-0.09 10.43-2.16 12.13-9.5q0.04-0.18 0.04-0.36zm-9.95 5.82c1.46-5.32 0.94-10.07 0.02-13.56 3.28 3.19 5.69 6.65 6.58 7.99-1.02 2.88-4.21 4.63-6.6 5.57z"/>
		<path class="s0" d="m79.69 159.38c4.69-4.95 8.53-9.5 11.09-15.94 1.2-3.03-4.27-4.35-4.73-0.64-0.71 5.68-2.73 12.01-6.51 16.43-0.09 0.1 0.06 0.25 0.15 0.15z"/>
		<path class="s0" d="m79.91 156.17c-0.03 0.12 0.15 0.19 0.2 0.08 1.72-3.93 3.54-7.67 3.19-12.12-0.25-3.13-4.91-2.34-4.14 0.56 0.99 3.7 1.99 7.7 0.75 11.48z"/>
		<path class="s0" d="m87.2 154.02c-1.38 1.76-3.18 3.85-5.22 4.85-0.12 0.06-0.01 0.26 0.11 0.19 2.14-1.31 4.42-2.18 6.44-3.73 1.73-1.31 4.02-3.01 4.7-5.14 0.47-1.5-1.47-2.44-2.52-1.47-1.48 1.39-2.24 3.67-3.51 5.3z"/>
		<path fill-rule="evenodd" class="s0" d="m42.37 162.3c-0.88 0-1.6-0.72-1.6-1.61 0-0.89 0.72-1.6 1.6-1.6 0.89 0 1.61 0.71 1.61 1.6 0 0.89-0.72 1.61-1.61 1.61z"/>
		<path fill-rule="evenodd" class="s0" d="m42.37 114.04c-0.88 0-1.6-0.72-1.6-1.6 0-0.89 0.72-1.61 1.6-1.61 0.89 0 1.61 0.72 1.61 1.61 0 0.88-0.72 1.6-1.61 1.6z"/>
		<path fill-rule="evenodd" class="s0" d="m42.37 119.4c-0.88 0-1.6-0.72-1.6-1.6 0-0.88 0.72-1.6 1.6-1.6 0.89 0 1.61 0.72 1.61 1.6 0 0.88-0.72 1.6-1.61 1.6z"/>
		<path fill-rule="evenodd" class="s0" d="m42.37 103.32c-0.88 0-1.6-0.72-1.6-1.61 0-0.89 0.72-1.61 1.6-1.61 0.89 0 1.61 0.72 1.61 1.61 0 0.89-0.72 1.61-1.61 1.61z"/>
		<path fill-rule="evenodd" class="s0" d="m42.37 108.68c-0.88 0-1.6-0.72-1.6-1.6 0-0.89 0.72-1.61 1.6-1.61 0.89 0 1.61 0.72 1.61 1.61 0 0.88-0.72 1.6-1.61 1.6z"/>
		<path fill-rule="evenodd" class="s0" d="m42.37 140.85c-0.88 0-1.6-0.71-1.6-1.6 0-0.89 0.72-1.61 1.6-1.61 0.89 0 1.61 0.72 1.61 1.61 0 0.89-0.72 1.6-1.61 1.6z"/>
		<path fill-rule="evenodd" class="s0" d="m42.37 146.21c-0.88 0-1.6-0.72-1.6-1.6 0-0.89 0.72-1.61 1.6-1.61 0.89 0 1.61 0.72 1.61 1.61 0 0.88-0.72 1.6-1.61 1.6z"/>
		<path fill-rule="evenodd" class="s0" d="m42.37 156.94c-0.88 0-1.6-0.72-1.6-1.61 0-0.88 0.72-1.6 1.6-1.6 0.89 0 1.61 0.72 1.61 1.6 0 0.89-0.72 1.61-1.61 1.61z"/>
		<path fill-rule="evenodd" class="s0" d="m42.37 135.49c-0.88 0-1.6-0.71-1.6-1.6 0-0.89 0.72-1.6 1.6-1.6 0.89 0 1.61 0.71 1.61 1.6 0 0.89-0.72 1.6-1.61 1.6z"/>
		<path fill-rule="evenodd" class="s0" d="m42.37 130.12c-0.88 0-1.6-0.71-1.6-1.6 0-0.89 0.72-1.6 1.6-1.6 0.89 0 1.61 0.71 1.61 1.6 0 0.89-0.72 1.6-1.61 1.6z"/>
		<path fill-rule="evenodd" class="s0" d="m42.37 97.96c-0.88 0-1.6-0.72-1.6-1.61 0-0.89 0.72-1.6 1.6-1.6 0.89 0 1.61 0.71 1.61 1.6 0 0.89-0.72 1.61-1.61 1.61z"/>
		<path fill-rule="evenodd" class="s0" d="m42.37 124.77c-0.88 0-1.6-0.72-1.6-1.61 0-0.88 0.72-1.6 1.6-1.6 0.89 0 1.61 0.72 1.61 1.6 0 0.89-0.72 1.61-1.61 1.61z"/>
		<path fill-rule="evenodd" class="s0" d="m42.37 60.43c-0.88 0-1.6-0.72-1.6-1.61 0-0.89 0.72-1.6 1.6-1.6 0.89 0 1.61 0.71 1.61 1.6 0 0.89-0.72 1.61-1.61 1.61z"/>
		<path fill-rule="evenodd" class="s0" d="m42.37 55.06c-0.88 0-1.6-0.72-1.6-1.61 0-0.88 0.72-1.6 1.6-1.6 0.89 0 1.61 0.72 1.61 1.6 0 0.89-0.72 1.61-1.61 1.61z"/>
		<path fill-rule="evenodd" class="s0" d="m42.37 49.7c-0.88 0-1.6-0.72-1.6-1.6 0-0.89 0.72-1.61 1.6-1.61 0.89 0 1.61 0.72 1.61 1.61 0 0.88-0.72 1.6-1.61 1.6z"/>
		<path fill-rule="evenodd" class="s0" d="m42.37 65.79c-0.88 0-1.6-0.72-1.6-1.61 0-0.89 0.72-1.6 1.6-1.6 0.89 0 1.61 0.71 1.61 1.6 0 0.89-0.72 1.61-1.61 1.61z"/>
		<path fill-rule="evenodd" class="s0" d="m42.37 87.24c-0.88 0-1.6-0.72-1.6-1.61 0-0.89 0.72-1.61 1.6-1.61 0.89 0 1.61 0.72 1.61 1.61 0 0.89-0.72 1.61-1.61 1.61z"/>
		<path fill-rule="evenodd" class="s0" d="m42.37 81.87c-0.88 0-1.6-0.72-1.6-1.6 0-0.89 0.72-1.61 1.6-1.61 0.89 0 1.61 0.72 1.61 1.61 0 0.88-0.72 1.6-1.61 1.6z"/>
		<path fill-rule="evenodd" class="s0" d="m42.37 92.6c-0.88 0-1.6-0.72-1.6-1.61 0-0.88 0.72-1.6 1.6-1.6 0.89 0 1.61 0.72 1.61 1.6 0 0.89-0.72 1.61-1.61 1.61z"/>
		<path fill-rule="evenodd" class="s0" d="m42.37 71.14c-0.88 0-1.6-0.71-1.6-1.6 0-0.88 0.72-1.59 1.6-1.59 0.89 0 1.61 0.71 1.61 1.59 0 0.89-0.72 1.6-1.61 1.6z"/>
		<path fill-rule="evenodd" class="s0" d="m42.37 76.51c-0.88 0-1.6-0.71-1.6-1.6 0-0.89 0.72-1.61 1.6-1.61 0.89 0 1.61 0.72 1.61 1.61 0 0.89-0.72 1.6-1.61 1.6z"/>
		<path fill-rule="evenodd" class="s0" d="m42.37 151.58c-0.88 0-1.6-0.72-1.6-1.6 0-0.89 0.72-1.61 1.6-1.61 0.89 0 1.61 0.72 1.61 1.61 0 0.88-0.72 1.6-1.61 1.6z"/>
		<path fill-rule="evenodd" class="s0" d="m42.37 221.28c-0.88 0-1.6-0.72-1.6-1.61 0-0.88 0.72-1.6 1.6-1.6 0.89 0 1.61 0.72 1.61 1.6 0 0.89-0.72 1.61-1.61 1.61z"/>
		<path fill-rule="evenodd" class="s0" d="m42.37 178.38c-0.88 0-1.6-0.72-1.6-1.6 0-0.89 0.72-1.61 1.6-1.61 0.89 0 1.61 0.72 1.61 1.61 0 0.88-0.72 1.6-1.61 1.6z"/>
		<path fill-rule="evenodd" class="s0" d="m42.37 189.11c-0.88 0-1.6-0.72-1.6-1.61 0-0.88 0.72-1.6 1.6-1.6 0.89 0 1.61 0.72 1.61 1.6 0 0.89-0.72 1.61-1.61 1.61z"/>
		<path fill-rule="evenodd" class="s0" d="m42.37 194.47c-0.88 0-1.6-0.72-1.6-1.61 0-0.88 0.72-1.6 1.6-1.6 0.89 0 1.61 0.72 1.61 1.6 0 0.89-0.72 1.61-1.61 1.61z"/>
		<path fill-rule="evenodd" class="s0" d="m42.37 183.75c-0.88 0-1.6-0.72-1.6-1.6 0-0.89 0.72-1.61 1.6-1.61 0.89 0 1.61 0.72 1.61 1.61 0 0.88-0.72 1.6-1.61 1.6z"/>
		<path fill-rule="evenodd" class="s0" d="m42.37 167.67c-0.88 0-1.6-0.72-1.6-1.61 0-0.89 0.72-1.6 1.6-1.6 0.89 0 1.61 0.71 1.61 1.6 0 0.89-0.72 1.61-1.61 1.61z"/>
		<path fill-rule="evenodd" class="s0" d="m42.37 215.92c-0.88 0-1.6-0.72-1.6-1.61 0-0.88 0.72-1.6 1.6-1.6 0.89 0 1.61 0.72 1.61 1.6 0 0.89-0.72 1.61-1.61 1.61z"/>
		<path fill-rule="evenodd" class="s0" d="m42.37 210.55c-0.88 0-1.6-0.72-1.6-1.6 0-0.89 0.72-1.61 1.6-1.61 0.89 0 1.61 0.72 1.61 1.61 0 0.88-0.72 1.6-1.61 1.6z"/>
		<path fill-rule="evenodd" class="s0" d="m42.37 173.02c-0.88 0-1.6-0.71-1.6-1.6 0-0.89 0.72-1.61 1.6-1.61 0.89 0 1.61 0.72 1.61 1.61 0 0.89-0.72 1.6-1.61 1.6z"/>
		<path fill-rule="evenodd" class="s0" d="m42.37 199.83c-0.88 0-1.6-0.71-1.6-1.6 0-0.89 0.72-1.6 1.6-1.6 0.89 0 1.61 0.71 1.61 1.6 0 0.89-0.72 1.6-1.61 1.6z"/>
		<path fill-rule="evenodd" class="s0" d="m42.37 205.19c-0.88 0-1.6-0.71-1.6-1.6 0-0.89 0.72-1.61 1.6-1.61 0.89 0 1.61 0.72 1.61 1.61 0 0.89-0.72 1.6-1.61 1.6z"/>
		<path class="s0" d="m41.24 41.6c-0.3 0.3-0.47 0.71-0.47 1.14 0 0.41 0.17 0.83 0.47 1.13 0.3 0.3 0.72 0.47 1.13 0.47 0.43 0 0.85-0.17 1.14-0.47 0.3-0.3 0.47-0.71 0.47-1.13 0-0.43-0.17-0.84-0.47-1.14-0.59-0.59-1.67-0.59-2.27 0z"/>
		<path fill-rule="evenodd" class="s0" d="m186.83 44.34c-0.89 0-1.6-0.71-1.6-1.6 0-0.89 0.71-1.61 1.6-1.61 0.89 0 1.6 0.72 1.6 1.61 0 0.89-0.71 1.6-1.6 1.6z"/>
		<path fill-rule="evenodd" class="s0" d="m176.13 44.34c-0.88 0-1.6-0.71-1.6-1.6 0-0.89 0.72-1.61 1.6-1.61 0.89 0 1.61 0.72 1.61 1.61 0 0.89-0.72 1.6-1.61 1.6z"/>
		<path fill-rule="evenodd" class="s0" d="m181.48 44.34c-0.89 0-1.6-0.71-1.6-1.6 0-0.89 0.71-1.61 1.6-1.61 0.89 0 1.61 0.72 1.61 1.61 0 0.89-0.72 1.6-1.61 1.6z"/>
		<path fill-rule="evenodd" class="s0" d="m170.78 44.34c-0.89 0-1.61-0.71-1.61-1.6 0-0.89 0.72-1.61 1.61-1.61 0.88 0 1.6 0.72 1.6 1.61 0 0.89-0.72 1.6-1.6 1.6z"/>
		<path fill-rule="evenodd" class="s0" d="m165.43 44.34c-0.89 0-1.6-0.71-1.6-1.6 0-0.89 0.71-1.61 1.6-1.61 0.89 0 1.6 0.72 1.6 1.61 0 0.89-0.71 1.6-1.6 1.6z"/>
		<path fill-rule="evenodd" class="s0" d="m160.08 44.34c-0.89 0-1.6-0.71-1.6-1.6 0-0.89 0.71-1.61 1.6-1.61 0.89 0 1.61 0.72 1.61 1.61 0 0.89-0.72 1.6-1.61 1.6z"/>
		<path fill-rule="evenodd" class="s0" d="m154.73 44.34c-0.88 0-1.6-0.71-1.6-1.6 0-0.89 0.72-1.61 1.6-1.61 0.89 0 1.61 0.72 1.61 1.61 0 0.89-0.72 1.6-1.61 1.6z"/>
		<path fill-rule="evenodd" class="s0" d="m192.18 44.34c-0.89 0-1.61-0.71-1.61-1.6 0-0.89 0.72-1.61 1.61-1.61 0.88 0 1.6 0.72 1.6 1.61 0 0.89-0.72 1.6-1.6 1.6z"/>
		<path fill-rule="evenodd" class="s0" d="m197.53 44.34c-0.88 0-1.6-0.71-1.6-1.6 0-0.89 0.72-1.61 1.6-1.61 0.89 0 1.61 0.72 1.61 1.61 0 0.89-0.72 1.6-1.61 1.6z"/>
		<path fill-rule="evenodd" class="s0" d="m90.53 44.34c-0.88 0-1.6-0.71-1.6-1.6 0-0.89 0.72-1.61 1.6-1.61 0.89 0 1.61 0.72 1.61 1.61 0 0.89-0.72 1.6-1.61 1.6z"/>
		<path fill-rule="evenodd" class="s0" d="m149.38 44.34c-0.89 0-1.61-0.71-1.61-1.6 0-0.89 0.72-1.61 1.61-1.61 0.88 0 1.6 0.72 1.6 1.61 0 0.89-0.72 1.6-1.6 1.6z"/>
		<path fill-rule="evenodd" class="s0" d="m95.88 44.34c-0.89 0-1.6-0.71-1.6-1.6 0-0.89 0.71-1.61 1.6-1.61 0.89 0 1.6 0.72 1.6 1.61 0 0.89-0.71 1.6-1.6 1.6z"/>
		<path fill-rule="evenodd" class="s0" d="m111.93 44.34c-0.88 0-1.6-0.71-1.6-1.6 0-0.89 0.72-1.61 1.6-1.61 0.89 0 1.61 0.72 1.61 1.61 0 0.89-0.72 1.6-1.61 1.6z"/>
		<path fill-rule="evenodd" class="s0" d="m106.58 44.34c-0.89 0-1.61-0.71-1.61-1.6 0-0.89 0.72-1.61 1.61-1.61 0.88 0 1.6 0.72 1.6 1.61 0 0.89-0.72 1.6-1.6 1.6z"/>
		<path fill-rule="evenodd" class="s0" d="m85.18 44.34c-0.89 0-1.61-0.71-1.61-1.6 0-0.89 0.72-1.61 1.61-1.61 0.88 0 1.6 0.72 1.6 1.61 0 0.89-0.72 1.6-1.6 1.6z"/>
		<path fill-rule="evenodd" class="s0" d="m101.23 44.34c-0.89 0-1.61-0.71-1.61-1.6 0-0.89 0.72-1.61 1.61-1.61 0.89 0 1.6 0.72 1.6 1.61 0 0.89-0.71 1.6-1.6 1.6z"/>
		<path fill-rule="evenodd" class="s0" d="m133.33 44.34c-0.88 0-1.6-0.71-1.6-1.6 0-0.89 0.72-1.61 1.6-1.61 0.89 0 1.61 0.72 1.61 1.61 0 0.89-0.72 1.6-1.61 1.6z"/>
		<path fill-rule="evenodd" class="s0" d="m117.28 44.34c-0.89 0-1.6-0.71-1.6-1.6 0-0.89 0.71-1.61 1.6-1.61 0.89 0 1.61 0.72 1.61 1.61 0 0.89-0.72 1.6-1.61 1.6z"/>
		<path fill-rule="evenodd" class="s0" d="m144.03 44.34c-0.89 0-1.6-0.71-1.6-1.6 0-0.89 0.71-1.61 1.6-1.61 0.89 0 1.6 0.72 1.6 1.61 0 0.89-0.71 1.6-1.6 1.6z"/>
		<path fill-rule="evenodd" class="s0" d="m138.68 44.34c-0.89 0-1.6-0.71-1.6-1.6 0-0.89 0.71-1.61 1.6-1.61 0.89 0 1.61 0.72 1.61 1.61 0 0.89-0.72 1.6-1.61 1.6z"/>
		<path fill-rule="evenodd" class="s0" d="m122.63 44.34c-0.89 0-1.61-0.71-1.61-1.6 0-0.89 0.72-1.61 1.61-1.61 0.89 0 1.6 0.72 1.6 1.61 0 0.89-0.71 1.6-1.6 1.6z"/>
		<path fill-rule="evenodd" class="s0" d="m127.98 44.34c-0.89 0-1.61-0.71-1.61-1.6 0-0.89 0.72-1.61 1.61-1.61 0.88 0 1.6 0.72 1.6 1.61 0 0.89-0.72 1.6-1.6 1.6z"/>
		<path fill-rule="evenodd" class="s0" d="m79.83 44.34c-0.89 0-1.61-0.71-1.61-1.6 0-0.89 0.72-1.61 1.61-1.61 0.88 0 1.6 0.72 1.6 1.61 0 0.89-0.72 1.6-1.6 1.6z"/>
		<path fill-rule="evenodd" class="s0" d="m74.48 44.34c-0.89 0-1.6-0.71-1.6-1.6 0-0.89 0.71-1.61 1.6-1.61 0.89 0 1.6 0.72 1.6 1.61 0 0.89-0.71 1.6-1.6 1.6z"/>
		<path fill-rule="evenodd" class="s0" d="m58.43 44.34c-0.89 0-1.61-0.71-1.61-1.6 0-0.89 0.72-1.61 1.61-1.61 0.88 0 1.6 0.72 1.6 1.61 0 0.89-0.72 1.6-1.6 1.6z"/>
		<path fill-rule="evenodd" class="s0" d="m63.78 44.34c-0.89 0-1.61-0.71-1.61-1.6 0-0.89 0.72-1.61 1.61-1.61 0.88 0 1.6 0.72 1.6 1.61 0 0.89-0.72 1.6-1.6 1.6z"/>
		<path fill-rule="evenodd" class="s0" d="m69.13 44.34c-0.89 0-1.6-0.71-1.6-1.6 0-0.89 0.71-1.61 1.6-1.61 0.89 0 1.61 0.72 1.61 1.61 0 0.89-0.72 1.6-1.61 1.6z"/>
		<path fill-rule="evenodd" class="s0" d="m47.73 44.34c-0.88 0-1.6-0.71-1.6-1.6 0-0.89 0.72-1.61 1.6-1.61 0.89 0 1.61 0.72 1.61 1.61 0 0.89-0.72 1.6-1.61 1.6z"/>
		<path fill-rule="evenodd" class="s0" d="m53.08 44.34c-0.89 0-1.6-0.71-1.6-1.6 0-0.89 0.71-1.61 1.6-1.61 0.89 0 1.6 0.72 1.6 1.61 0 0.89-0.71 1.6-1.6 1.6z"/>
		<path class="s0" d="m212.95 61.8c0.36-0.31 0.57-0.77 0.56-1.25-0.01-0.48-0.23-0.92-0.6-1.22l-5.17-4.13c-0.29-0.23-0.64-0.35-1-0.35q-0.2 0-0.41 0.05l-15.86 4.13c-0.7 0.18-1.19 0.81-1.2 1.54-0.01 0.72 0.47 1.36 1.17 1.56l15.87 4.42c0.51 0.14 1.06 0.02 1.47-0.33zm-15.91-1.16l9.32-2.43 3.03 2.42-3.04 2.61z"/>
		<path class="s0" d="m221.27 61.99c0.3-0.32 0.45-0.73 0.43-1.16-0.01-0.42-0.2-0.83-0.51-1.11l-4.8-4.45c-0.31-0.28-0.7-0.43-1.09-0.43-0.43 0-0.86 0.18-1.18 0.52-0.6 0.65-0.56 1.66 0.09 2.26l3.62 3.36-3.71 3.98c-0.6 0.64-0.57 1.66 0.08 2.26 0.65 0.61 1.67 0.57 2.27-0.08z"/>
		<path class="s0" d="m222.1 57.63l3.62 3.35-3.71 3.98c-0.6 0.65-0.57 1.66 0.08 2.27 0.65 0.6 1.67 0.56 2.27-0.08l4.8-5.16c0.29-0.31 0.45-0.73 0.43-1.15-0.02-0.43-0.2-0.83-0.52-1.12l-4.79-4.45c-0.31-0.28-0.7-0.42-1.09-0.42-0.44 0-0.86 0.17-1.18 0.51-0.6 0.65-0.56 1.67 0.09 2.27z"/>
		<path class="s0" d="m237.05 61.99c0.29-0.32 0.44-0.73 0.42-1.16-0.01-0.42-0.19-0.83-0.51-1.11l-4.8-4.45c-0.31-0.28-0.7-0.43-1.09-0.43-0.43 0-0.86 0.18-1.18 0.52-0.6 0.65-0.56 1.66 0.09 2.26l3.62 3.36-3.7 3.98c-0.61 0.64-0.57 1.66 0.08 2.26 0.64 0.61 1.66 0.57 2.26-0.08z"/>
		<path class="s0" d="m244.93 61.99c0.29-0.32 0.45-0.73 0.43-1.16-0.01-0.42-0.2-0.83-0.51-1.11l-4.8-4.45c-0.31-0.28-0.7-0.43-1.09-0.43-0.43 0-0.87 0.18-1.18 0.52-0.6 0.65-0.56 1.66 0.09 2.26l3.62 3.36-3.71 3.98c-0.6 0.64-0.57 1.66 0.08 2.26 0.65 0.61 1.67 0.57 2.27-0.08z"/>
		<path class="s0" d="m265.52 59.29h-13.25l-4.34-4.02c-0.31-0.28-0.7-0.42-1.09-0.42-0.43 0-0.86 0.17-1.17 0.51-0.61 0.65-0.57 1.66 0.08 2.27l3.62 3.35-3.7 3.98c-0.6 0.64-0.57 1.66 0.08 2.26 0.65 0.61 1.66 0.57 2.27-0.08l4.32-4.64h13.19c0 0 0-3.21-0.01-3.21z"/>
	</g>
</svg>