<svg version="1.2" xmlns="http://www.w3.org/2000/svg" viewBox="0 0 300 300" width="300" height="300"><style></style><path  d="m74.3 214.2c-3.8-1.9-7.2-4.1-10.7-6.4-12.6-8.5-21.9-23.2-21.9-38.3 0-0.9 0.2-5.3-0.1-9.5v-133h-8.3v132.6c-0.9 5.9 0.2 13.8 0.4 18.7 1.3 27.8 34.9 41.9 39.8 43.3 4.3 1.2 3.6-6.1 0.8-7.4z"/><path  d="m98.1 233.3c9.9 1.2 24.9 6 28.8 9 1.8 1.3 7.7 6.7 5.1 9.4-2.3 2.2-1.9 5.3 2 4.7 3.5-0.5 3.6-3.7 7.7-3.7 1.5 0 6.8-0.3 5.5-3.3-0.8-1.9-8.5-1.9-10.7-3.9-2.7-2.4-5-5.1-7.7-7.5-9.8-9-28.4-10.5-40.9-10.5-3.6 0-9.9-1.1-12.2 2.7-2.8 4.4 15.9 2.3 22.4 3.1z"/><path  d="m113.1 176.4c9.7 0.1 13.2 9.2 13.2 17.1 0 4.3 6.5 7.9 8.1 2.5 1.3-4.2 1.2-10-0.1-14.2-2.7-8.9-11.9-13.6-20.6-13.6 0 0-11.4 0.2-8.3 4.5 3.4 4.6 2.7 3.7 7.6 3.7z"/><path  d="m81.1 224c4.7 3.2 5.7-1.1 5.7-5.2 0-10 1.6-19.6 6.6-28.5 1.7-2.9 6.3-8.3-0.7-9.2-2.8-0.4-5.4 4.4-6.4 6.5-4.1 8.9-6.4 15.4-6.4 25.3 0.1 0-0.7 9.9 1.2 11.1z"/><path  d="m56.2 171.6c4.4 3 6.7 8.2 9 12.7 5.8 12.1 3.8 24.5 7 22.6 2.3-1.4 1.8-3.9 1.8-6.2 0-0.2 0-0.2 0 0 0-12-6.1-24.9-14.8-32.5-2.8-2.4-3.3-3.7-3.3-7.2 0-0.7-0.4-6.5-2.7-3.5-1.5 1.9-0.7 5-2.7 7.1-1.3 1.3-3.3 1.3-4 3.4-2.5 7.4 6.7 1.5 9.7 3.6z"/><path  d="m112.6 209.6c-3.2 3.4-13.4 6.7-18 6.2-6.9-0.5-5.8 8.1 3.6 7.6 11.1-0.5 25.9-10.3 23.9-12.8-2.7-3.5-6.1-4.5-9.5-1z"/><path  d="m34 258q0-0.1 0-0.1 0 0 0 0.1z"/><path  d="m44.7 264.9c-6.7 0.3-10.7 2.1-10.7-6.9 0-11.4-7.4-3.6-7 3.2 0.2 5 5.3 11.3 10.9 10.9 3.3-0.2 7.2 0.4 9.6-2.8 1.8-2.5-0.1-4.5-2.8-4.4z"/><path  d="m68.3 228.6c0.7 13.8-14.1 22.6-12.9 28.7 1.4 7 10.5-7.4 11.6-8.8 2.6-3.5 6.4-15.5 5.8-19.9 0-4.4-4.7-3.9-4.5 0z"/><path  d="m72.8 228.6c0.1 1.2 0-0.6 0 0z"/><path  d="m49.5 241c6.5-4.2 14.3-4 15.2-7.6 1.3-5.2-10-0.4-11.2 0.2-2.9 1.4-13.4 4.7-13.6 8.6 0-0.2 0-0.3 0 0.1 0 0.5 0 0.4 0 0.3 0.2 6.4 7.3-0.1 9.6-1.6z"/><path fill-rule="evenodd" d="m99.8 182.1c-2.2 0-3.9-1.8-3.9-4 0-2.1 1.7-3.9 3.9-3.9 2.2 0 4 1.8 4 3.9 0 2.2-1.8 4-4 4z"/><path fill-rule="evenodd" d="m128.9 203.8c-0.3 2.2-2.2 3.7-4.4 3.4-2.2-0.2-3.7-2.2-3.4-4.4 0.2-2.1 2.2-3.7 4.4-3.4 2.1 0.3 3.7 2.2 3.4 4.4z"/><path fill-rule="evenodd" d="m36.1 249.5c-1.4 0-2.5-1.1-2.5-2.4 0-1.4 1.1-2.5 2.5-2.5 1.4 0 2.5 1.1 2.5 2.5 0 1.3-1.1 2.4-2.5 2.4z"/><path fill-rule="evenodd" d="m52 265.5c-1.4 0-2.5-1.2-2.5-2.5 0-1.4 1.1-2.5 2.5-2.5 1.4 0 2.5 1.1 2.5 2.5 0 1.3-1.1 2.5-2.5 2.5z"/><path  d="m273.1 263h-126.4q-0.4-0.1-0.8-0.2c-10.8-0.8-18.2 3.1-39.1-10.7-5.1-3.4-10.8-8.4-13.5-14.1-1.4-3.1-5.8-4.1-7.8-0.9-1.4 2.2 2.5 7.3 3.7 8.8 19.3 23.8 39.3 25.4 50.9 25.4 1.9 0 4 0.2 5.7 0h127.3z"/></svg>