<svg version="1.2" xmlns="http://www.w3.org/2000/svg" viewBox="0 0 300 300" width="300" height="300">
	<style>
		.s0 { fill: #b6a893 } 
	</style>
	<path class="s0" d="m148.88 223.8c0.15-0.15 0.34-0.19 0.51 0q0.07 0.07 0.15 0.14c7.63 7.07 29.92 7.88 32.78-13.08 0.7-5.16-2.45-12.1-6.6-13.47-0.45-0.15-0.92 0.07-0.68 0.52 8.31 15.26-17.68 27.87-23.39 8.61-1.43-4.85 0.89-10.28 2.05-15.11 1.27-5.25 2.69-10.55 2.9-15.98 0.23-5.58-1.59-10.7-6.53-13.33 0.02-0.01-0.21-0.09-0.53-0.13q-0.18-0.02-0.4-0.02c-0.52-0.02-0.96 0.13-0.93 0.15-4.94 2.64-6.76 7.76-6.53 13.33 0.21 5.43 1.63 10.73 2.89 15.98 1.16 4.84 3.49 10.27 2.06 15.11-5.71 19.26-31.7 6.65-23.4-8.61 0.25-0.44-0.22-0.67-0.67-0.52-4.16 1.38-7.3 8.32-6.6 13.47 2.87 21.1 25.43 20.14 32.92 12.94z"/>
	<path class="s0" d="m171.78 245.45c-3.09-4.3-3.18-7.9-5.7-11.1-2.73-3.48-6.38-4.95-13.61-2.82-0.18 0.05-0.32 0.28-0.19 0.43 2.86 3.5 2.27 7.52 7.29 10.59 3.33 2.04 6.64-0.15 11.97 3.68 0.35 0.24 0.48-0.45 0.24-0.78z"/>
	<path class="s0" d="m155.09 198.12c16.02 4.1 19.48-8.93 19.61-13.84 1.33 9.67 18.14 9.73 21.55 12.31-2.42-3.49-1.05-20.37-10.6-22.44 4.91 0.26 18.17-2.19 15.33-18.47 0.3-1.03-0.69-2.2-1.82-0.59-16.83 14.3-35.06 6.83-37.88 3.08-0.18-0.23-0.82 0.37-0.61 0.56 3.51 3.11 9.55 21.86-6.02 37.53-1.18 0.66-0.61 2.08 0.44 1.86z"/>
	<path class="s0" d="m197.36 122.4c-0.16 0.45 0.07 0.92 0.51 0.68 15.27-8.31 27.88 17.68 8.62 23.39-4.85 1.43-10.28-0.9-15.12-2.06-5.25-1.26-10.55-2.68-15.97-2.9-5.58-0.22-10.7 1.6-13.34 6.54-0.01-0.02-0.07 0.14-0.11 0.38q-0.04 0.24-0.04 0.54v0.01c-0.01 0.52 0.14 0.95 0.15 0.93 2.64 4.94 7.76 6.75 13.34 6.53 5.42-0.22 10.72-1.64 15.97-2.9 4.84-1.16 10.27-3.49 15.12-2.05 19.26 5.71 6.65 31.69-8.62 23.39-0.44-0.24-0.66 0.23-0.51 0.68 1.37 4.15 8.31 7.3 13.46 6.59 21.1-2.87 20.15-25.43 12.95-32.92-0.16-0.15-0.2-0.33 0-0.51q0.14-0.14 0.27-0.29c6.95-7.76 7.62-29.8-13.21-32.64-5.16-0.69-12.1 2.45-13.47 6.61z"/>
	<path class="s0" d="m245.41 171.62c0.34 0.24 1.03 0.11 0.78-0.23-3.82-5.33-1.64-8.65-3.68-11.97-3.07-5.03-7.09-4.43-10.59-7.3-0.15-0.13-0.38 0.02-0.43 0.19-2.13 7.23-0.66 10.88 2.83 13.62 3.19 2.51 6.8 2.6 11.09 5.69z"/>
	<path class="s0" d="m101.53 196.09c3.49-2.42 20.36-1.06 22.43-10.6-0.26 4.9 2.19 18.16 18.47 15.33 1.03 0.29 2.21-0.69 0.59-1.82-14.3-16.83-6.82-35.07-3.08-37.89 0.23-0.17-0.37-0.82-0.56-0.6-3.11 3.51-21.87 9.55-37.53-6.03-0.65-1.17-2.07-0.6-1.86 0.45-4.1 16.02 8.93 19.48 13.85 19.61-9.68 1.33-9.74 18.14-12.31 21.55z"/>
	<path class="s0" d="m25.39 149.34c0 0.01 0.2 0.52 0.51 0.45 5.95 1.73 11.44 4.57 17.17 6.87 2.58 1.04 5.85 0.97 8.58 0.85 4.56-0.18 7.37-5.91 15.67-8.23q-1.1-0.39-2.07-0.85c-7.08-3.33-9.79-9-15.49-8.41-8.58 0.89-11.21 6.25-21.3 8.41q-1.2 0.26-2.56 0.45c-0.31 0.05-0.51 0.45-0.51 0.46z"/>
	<path class="s0" d="m73.08 148.43q0.13 0.15 0.26 0.29c0.16 0.15 0.2 0.34 0 0.51-7.2 7.49-8.15 30.06 12.95 32.93 5.15 0.7 12.1-2.45 13.47-6.6 0.15-0.45-0.08-0.92-0.52-0.68-15.26 8.31-27.87-17.68-8.61-23.39 4.84-1.43 10.27 0.9 15.11 2.05 5.25 1.27 10.55 2.69 15.98 2.9 5.57 0.23 10.69-1.59 13.33-6.53 0.01 0.02 0.17-0.41 0.15-0.93v-0.01q0-0.3-0.04-0.54c-0.04-0.24-0.1-0.4-0.1-0.38-2.64-4.94-7.76-6.76-13.34-6.54-5.43 0.22-10.72 1.64-15.98 2.9-4.83 1.16-10.27 3.49-15.11 2.06-19.26-5.71-6.65-31.7 8.61-23.4 0.44 0.24 0.67-0.22 0.52-0.68-1.37-4.15-8.31-7.3-13.47-6.59-20.84 2.83-20.17 24.87-13.21 32.63z"/>
	<path class="s0" d="m146 231.96c0.12-0.15-0.02-0.38-0.2-0.43-7.23-2.13-10.87-0.66-13.61 2.82-2.52 3.2-2.61 6.8-5.69 11.1-0.25 0.33-0.11 1.02 0.23 0.78 5.33-3.83 8.64-1.64 11.97-3.68 5.02-3.08 4.43-7.09 7.3-10.59z"/>
	<path class="s0" d="m140.18 248.93c0.97 9.27 7.14 11.58 8.87 23.86 0.04 0.32 0.44 0.51 0.45 0.51q0.01 0 0.04-0.02c0.12-0.05 0.47-0.23 0.42-0.49 1.72-5.95 4.56-11.44 6.87-17.17 1.04-2.58 0.96-5.85 0.85-8.58-0.18-4.5-5.77-7.3-8.14-15.35q-0.05-0.16-0.09-0.32c-3.09 8.69-9.92 11.33-9.27 17.56z"/>
	<path class="s0" d="m66.73 152.12c-3.5 2.87-7.51 2.27-10.59 7.3-2.03 3.32 0.15 6.64-3.67 11.97-0.25 0.34 0.44 0.47 0.78 0.23 4.29-3.08 7.89-3.18 11.09-5.69 3.49-2.74 4.95-6.38 2.83-13.62-0.05-0.17-0.28-0.32-0.44-0.19z"/>
	<path class="s0" d="m149.54 73.25q-0.07 0.06-0.15 0.13c-0.15 0.16-0.33 0.2-0.51 0-7.49-7.2-30.05-8.15-32.92 12.95-0.7 5.15 2.44 12.09 6.59 13.46 0.46 0.16 0.92-0.07 0.68-0.51-8.3-15.27 17.68-27.88 23.39-8.62 1.44 4.85-0.89 10.28-2.05 15.12-1.26 5.25-2.68 10.55-2.9 15.97-0.22 5.58 1.59 10.7 6.54 13.34-0.03 0.01 0.4 0.16 0.92 0.15h0.01q0.21 0 0.4-0.02c0.32-0.04 0.54-0.12 0.52-0.13 4.95-2.64 6.76-7.76 6.54-13.34-0.22-5.42-1.64-10.72-2.9-15.97-1.16-4.84-3.49-10.27-2.05-15.12 5.71-19.26 31.69-6.65 23.39 8.62-0.24 0.44 0.22 0.67 0.68 0.51 4.15-1.37 7.29-8.31 6.59-13.46-2.85-20.97-25.14-20.16-32.77-13.08z"/>
	<path class="s0" d="m149.54 27.8q-0.17-0.9-0.31-1.87c-0.05-0.31-0.45-0.51-0.46-0.51-0.01 0-0.52 0.2-0.45 0.51-1.73 5.96-4.56 11.44-6.87 17.18-1.04 2.58-0.97 5.85-0.86 8.57 0.19 4.57 5.92 7.38 8.24 15.67q0.33-0.92 0.71-1.75c3.3-7.32 9.15-10.02 8.55-15.81-0.91-8.77-6.5-11.31-8.55-21.99z"/>
	<path class="s0" d="m152.28 66.77c-0.13 0.15 0.01 0.38 0.19 0.43 7.23 2.13 10.87 0.66 13.61-2.83 2.52-3.19 2.61-6.8 5.7-11.09 0.24-0.34 0.11-1.02-0.24-0.78-5.33 3.83-8.64 1.64-11.97 3.68-5.02 3.08-4.43 7.09-7.29 10.59z"/>
	<path class="s0" d="m245.41 126.34c-4.29 3.08-7.9 3.18-11.09 5.69-3.49 2.74-4.96 6.38-2.83 13.61 0.05 0.18 0.28 0.33 0.43 0.2 3.51-2.87 7.52-2.28 10.59-7.3 2.04-3.32-0.15-6.64 3.68-11.97 0.25-0.34-0.44-0.48-0.78-0.23z"/>
	<path class="s0" d="m196.75 101.87c-3.49 2.41-20.37 1.05-22.44 10.6 0.26-4.91-2.19-18.17-18.47-15.34-1.03-0.29-2.2 0.69-0.59 1.82 14.3 16.84 6.83 35.07 3.08 37.89-0.23 0.17 0.37 0.82 0.56 0.61 3.11-3.52 21.86-9.55 37.53 6.02 0.66 1.18 2.08 0.6 1.86-0.44 4.1-16.02-8.93-19.49-13.85-19.62 9.68-1.32 9.74-18.13 12.32-21.54z"/>
	<path class="s0" d="m149.14 157.78q0.2 0 0.4-0.02c4.68-0.21 8.4-4.05 8.4-8.78q-0.01-0.27-0.03-0.55c-0.27-4.47-3.88-8.03-8.37-8.23q-0.2-0.02-0.4-0.03c-4.68 0-8.49 3.66-8.78 8.26q-0.02 0.27-0.02 0.55c0 4.86 3.94 8.8 8.8 8.8z"/>
	<path class="s0" d="m232.13 148.43q-0.39 0.13-0.79 0.24c8.68 3.08 11.33 9.91 17.56 9.26 9.26-0.96 11.58-7.14 23.86-8.86 0.31-0.05 0.51-0.45 0.51-0.46 0 0-0.04-0.08-0.09-0.18-0.09-0.14-0.23-0.31-0.42-0.27-5.95-1.73-11.44-4.56-17.17-6.87-2.59-1.04-5.86-0.96-8.58-0.85-4.42 0.18-7.19 5.55-14.88 7.99z"/>
	<path class="s0" d="m97.29 142.28c-0.29 1.02 0.69 2.2 1.82 0.59 16.84-14.31 35.07-6.83 37.89-3.09 0.17 0.23 0.82-0.36 0.6-0.56-3.51-3.1-9.54-21.86 6.03-37.53 1.18-0.65 0.6-2.07-0.45-1.86-16.01-4.09-19.48 8.94-19.61 13.85-1.32-9.68-18.13-9.74-21.54-12.31 2.42 3.49 1.05 20.36 10.6 22.44-4.91-0.26-18.17 2.18-15.34 18.47z"/>
	<path class="s0" d="m52.47 126.57c3.82 5.33 1.64 8.65 3.67 11.97 3.08 5.02 7.09 4.43 10.59 7.3 0.16 0.12 0.39-0.02 0.44-0.2 2.12-7.23 0.66-10.87-2.83-13.61-3.19-2.51-6.8-2.61-11.09-5.69-0.34-0.25-1.03-0.11-0.78 0.23z"/>
	<path class="s0" d="m126.73 52.5c-0.34-0.25-0.48 0.44-0.23 0.78 3.08 4.29 3.18 7.9 5.69 11.09 2.73 3.49 6.38 4.96 13.61 2.83 0.18-0.05 0.32-0.28 0.2-0.43-2.87-3.51-2.28-7.52-7.3-10.6-3.33-2.03-6.64 0.16-11.97-3.67z"/>
</svg>