<svg version="1.2" xmlns="http://www.w3.org/2000/svg" viewBox="0 0 300 100" width="300" height="100">
	<style>
		.s0 { fill: #cec4ae } 
	</style>
	<path fill-rule="evenodd" class="s0" d="m272.29 52.74c-1.42 0-2.57-1.15-2.57-2.58 0-1.42 1.15-2.57 2.57-2.57 1.43 0 2.58 1.15 2.58 2.57 0 1.43-1.15 2.58-2.58 2.58z"/>
	<path fill-rule="evenodd" class="s0" d="m18.58 51.09c-0.51 0-0.93-0.42-0.93-0.93 0-0.51 0.42-0.92 0.93-0.92h102.01c0.51 0 0.92 0.41 0.92 0.92 0 0.51-0.41 0.93-0.92 0.93z"/>
	<path fill-rule="evenodd" class="s0" d="m18.57 52.74c-1.42 0-2.57-1.15-2.57-2.58 0-1.42 1.15-2.57 2.57-2.57 1.43 0 2.58 1.15 2.58 2.57 0 1.43-1.15 2.58-2.58 2.58z"/>
	<path fill-rule="evenodd" class="s0" d="m120.59 54.07c-2.16 0-3.91-1.75-3.91-3.91 0-2.16 1.75-3.91 3.91-3.91 2.16 0 3.91 1.75 3.91 3.91 0 2.16-1.75 3.91-3.91 3.91z"/>
	<path fill-rule="evenodd" class="s0" d="m112.08 52.74c-1.43 0-2.58-1.15-2.58-2.58 0-1.42 1.15-2.57 2.58-2.57 1.42 0 2.57 1.15 2.57 2.57 0 1.43-1.15 2.58-2.57 2.58z"/>
	<path fill-rule="evenodd" class="s0" d="m169.7 52.74c-1.42 0-2.57-1.15-2.57-2.58 0-1.42 1.15-2.57 2.57-2.57 1.42 0 2.58 1.15 2.58 2.57 0 1.43-1.16 2.58-2.58 2.58z"/>
	<path fill-rule="evenodd" class="s0" d="m145.43 49.43c-0.4 0-0.76-0.19-0.91-0.48-0.14-0.27-3.44-6.69-2.66-11.61 0.37-2.31 2.06-3.34 3.58-3.34 1.51 0 3.2 1.03 3.57 3.34 0.78 4.92-2.52 11.34-2.66 11.61-0.15 0.29-0.51 0.48-0.92 0.48zm0-13.91c-0.62 0-1.39 0.63-1.61 2.01-0.47 2.93 0.71 6.58 1.61 8.82 0.91-2.24 2.09-5.89 1.62-8.82-0.22-1.38-0.99-2.01-1.62-2.01zm-2.59 1.91h0.01z"/>
	<path fill-rule="evenodd" class="s0" d="m146.35 51.37c0.14 0.27 3.44 6.69 2.66 11.62-0.37 2.3-2.06 3.33-3.57 3.33-1.52 0-3.21-1.03-3.58-3.33-0.78-4.93 2.52-11.35 2.66-11.62 0.15-0.29 0.51-0.47 0.91-0.47 0.41 0 0.77 0.18 0.92 0.47zm0.7 11.43c0.47-2.93-0.71-6.59-1.62-8.82-0.9 2.23-2.08 5.89-1.61 8.82 0.22 1.38 0.99 2 1.61 2 0.63 0 1.4-0.62 1.62-2zm-4.21 0.09h0.01z"/>
	<path fill-rule="evenodd" class="s0" d="m143.63 50.16c0 0.4-0.19 0.77-0.47 0.92-0.28 0.14-6.7 3.44-11.62 2.65-2.31-0.37-3.34-2.06-3.34-3.57 0-1.51 1.03-3.2 3.34-3.57 4.92-0.79 11.34 2.52 11.62 2.66 0.28 0.15 0.47 0.51 0.47 0.91zm-13.91 0c0 0.63 0.63 1.4 2.01 1.62 2.93 0.47 6.59-0.71 8.82-1.62-2.24-0.9-5.89-2.08-8.82-1.61-1.38 0.22-2.01 0.99-2.01 1.61zm1.92 2.6v-0.01z"/>
	<path fill-rule="evenodd" class="s0" d="m147.71 49.25c0.28-0.14 6.7-3.45 11.62-2.66 2.3 0.37 3.34 2.06 3.34 3.57 0 1.51-1.04 3.2-3.34 3.57-4.92 0.79-11.34-2.51-11.62-2.65-0.28-0.15-0.47-0.52-0.47-0.92 0-0.4 0.19-0.76 0.47-0.91zm11.43-0.7c-2.93-0.47-6.58 0.71-8.82 1.61 2.24 0.91 5.89 2.09 8.82 1.62 1.38-0.22 2.01-0.99 2.01-1.62 0-0.62-0.63-1.39-2.01-1.61zm0.09 4.21v-0.01z"/>
	<path fill-rule="evenodd" class="s0" d="m272.29 49.24c0.51 0 0.93 0.41 0.93 0.92 0 0.51-0.42 0.93-0.93 0.93h-102.01c-0.51 0-0.92-0.42-0.92-0.93 0-0.51 0.41-0.92 0.92-0.92z"/>
	<path fill-rule="evenodd" class="s0" d="m272.29 52.74c-1.42 0-2.57-1.15-2.57-2.58 0-1.42 1.15-2.57 2.57-2.57 1.43 0 2.58 1.15 2.58 2.57 0 1.43-1.15 2.58-2.58 2.58z"/>
	<path fill-rule="evenodd" class="s0" d="m170.28 54.07c-2.16 0-3.91-1.75-3.91-3.91 0-2.16 1.75-3.91 3.91-3.91 2.16 0 3.91 1.75 3.91 3.91 0 2.16-1.75 3.91-3.91 3.91z"/>
	<path fill-rule="evenodd" class="s0" d="m178.79 52.74c-1.42 0-2.57-1.15-2.57-2.58 0-1.42 1.15-2.57 2.57-2.57 1.43 0 2.58 1.15 2.58 2.57 0 1.43-1.15 2.58-2.58 2.58z"/>
</svg>