<svg version="1.2" xmlns="http://www.w3.org/2000/svg" viewBox="0 0 300 100" width="300" height="100">
	<style>
		.s0 { fill: #cec4ae } 
	</style>
	<path fill-rule="evenodd" class="s0" d="m150.46 66.09c-1.33-6.78-3.51-13.2-7.13-19.02q4.9-5.71 7.13-13.07 2.23 7.36 7.13 13.07c-3.62 5.82-5.8 12.24-7.13 19.02z"/>
	<path fill-rule="evenodd" class="s0" d="m150.46 66.09c-3.89-2.43-7.98-4.28-12.43-5.16q-0.55-4.96-3.1-9.37 4.57 2.25 9.56 2.47c1.17 4.38 3.29 8.35 5.97 12.06z"/>
	<path fill-rule="evenodd" class="s0" d="m150.46 66.09c3.88-2.43 7.98-4.28 12.43-5.16q0.54-4.96 3.09-9.37-4.57 2.25-9.55 2.47c-1.18 4.38-3.29 8.35-5.97 12.06z"/>
	<path fill-rule="evenodd" class="s0" d="m130.09 57.38c0.51 0 0.93 0.42 0.93 0.94 0 0.52-0.42 0.93-0.93 0.93h-94.41c-0.52 0-0.94-0.42-0.94-0.93 0-0.52 0.42-0.94 0.94-0.94z"/>
	<path fill-rule="evenodd" class="s0" d="m171.41 59.25c-0.52 0-0.94-0.42-0.94-0.93 0-0.52 0.42-0.94 0.94-0.94h93.18c0.52 0 0.94 0.42 0.94 0.94 0 0.52-0.42 0.93-0.94 0.93z"/>
	<path fill-rule="evenodd" class="s0" d="m265.24 58.32c2.26-0.34 6.04-3.32 6.87-4.57 1.53 1.55 5.11 3.47 9.81 4.57-4.7 1.09-8.28 3.02-9.81 4.56-0.83-1.25-4.61-4.23-6.87-4.56z"/>
	<path fill-rule="evenodd" class="s0" d="m265.24 60.64c-1.24 0-2.24-1-2.24-2.23 0-1.24 1-2.24 2.24-2.24 1.23 0 2.23 1 2.23 2.24 0 1.23-1 2.23-2.23 2.23z"/>
	<path fill-rule="evenodd" class="s0" d="m35.68 58.32c-2.26-0.34-6.05-3.32-6.88-4.57-1.52 1.55-5.1 3.47-9.8 4.57 4.7 1.09 8.28 3.02 9.8 4.56 0.83-1.25 4.62-4.23 6.88-4.56z"/>
	<path fill-rule="evenodd" class="s0" d="m35.68 60.64c-1.24 0-2.24-1-2.24-2.23 0-1.24 1-2.24 2.24-2.24 1.23 0 2.23 1 2.23 2.24 0 1.23-1 2.23-2.23 2.23z"/>
</svg>