<svg version="1.2" xmlns="http://www.w3.org/2000/svg" viewBox="0 0 300 100" width="300" height="100">
	<style>
		.s0 { fill: #cec4ae } 
	</style>
	<path fill-rule="evenodd" class="s0" d="m153.1 44.66l-3.12-4.79-3.13 4.79c-0.65 1.01-0.53 2.35 0.31 3.21l2.82 2.91 2.82-2.91c0.83-0.86 0.96-2.2 0.3-3.21z"/>
	<path fill-rule="evenodd" class="s0" d="m146.85 56.9l3.13 4.79 3.12-4.79c0.66-1.01 0.53-2.36-0.3-3.22l-2.82-2.9-2.82 2.9c-0.84 0.86-0.96 2.21-0.31 3.22z"/>
	<path fill-rule="evenodd" class="s0" d="m138.31 45.44l-8.17 5.34 8.17 5.34c1.72 1.13 4.02 0.91 5.48-0.52l4.96-4.82-4.96-4.82c-1.46-1.43-3.76-1.65-5.48-0.52z"/>
	<path fill-rule="evenodd" class="s0" d="m161.65 45.44l8.17 5.34-8.17 5.34c-1.72 1.13-4.02 0.91-5.49-0.52l-4.95-4.82 4.95-4.82c1.47-1.43 3.77-1.65 5.49-0.52z"/>
	<path fill-rule="evenodd" class="s0" d="m16.42 45.65c1.99-0.16 2.55-3.62-0.46-3.6-3.17 0.02-2.77 4.78-0.17 5.64 2.33 0.78 5.73-0.6 6.02-4.02 0.1-1.12-0.19-2.28-0.89-3.25-1.88-2.61-5.52-3.2-8.12-1.33-2.28 1.65-3.2 4.55-2.64 7.27 0.4 1.94 1.56 3.49 3.31 4.43 1.34 0.72 2.9 0.94 4.41 0.99l-0.01-1.95c-1.16-0.05-2.37-0.29-3.39-0.84q-1.84-0.99-2.27-3.03c-0.39-1.91 0.21-3.99 1.82-5.16 1.67-1.2 4.02-0.82 5.22 0.85 0.89 1.25 0.61 2.99-0.63 3.89-0.44 0.32-0.97 0.44-1.51 0.35q-0.37-0.06-0.69-0.24z"/>
	<path fill-rule="evenodd" class="s0" d="m125.62 51.78c0.53 0 0.97-0.44 0.97-0.98 0-0.54-0.44-0.97-0.97-0.97h-107.73c-0.54 0-0.98 0.43-0.98 0.97 0 0.54 0.44 0.98 0.98 0.98z"/>
	<path fill-rule="evenodd" class="s0" d="m283.53 45.65c-1.98-0.16-2.55-3.62 0.47-3.6 3.16 0.02 2.77 4.78 0.17 5.64-2.34 0.78-5.74-0.6-6.03-4.02-0.09-1.12 0.2-2.28 0.9-3.25 1.88-2.61 5.51-3.2 8.12-1.33 2.28 1.65 3.2 4.55 2.64 7.27-0.41 1.94-1.57 3.49-3.32 4.43-1.33 0.72-2.9 0.94-4.4 0.99l0.01-1.95c1.15-0.05 2.37-0.29 3.39-0.84q1.84-0.99 2.27-3.03c0.39-1.91-0.21-3.99-1.83-5.16-1.67-1.2-4.01-0.82-5.21 0.85-0.9 1.25-0.61 2.99 0.63 3.89 0.44 0.32 0.97 0.44 1.51 0.35q0.37-0.06 0.68-0.24z"/>
	<path fill-rule="evenodd" class="s0" d="m174.34 51.78c-0.54 0-0.97-0.44-0.97-0.98 0-0.54 0.43-0.97 0.97-0.97h107.73c0.54 0 0.98 0.43 0.98 0.97 0 0.54-0.44 0.98-0.98 0.98z"/>
</svg>