<svg version="1.2" xmlns="http://www.w3.org/2000/svg" viewBox="0 0 300 100" width="300" height="100">
	<style>
		.s0 { fill: #cec4ae } 
	</style>
	<path fill-rule="evenodd" class="s0" d="m127.21 47.04c4.64 4.28 13.4 5.32 18.99 3.43 2.91-0.99 4.44 1.67 1.39 3.39-1.47 0.83-3.67 1.25-5.7 1.42-4.86 0.41-11.84-2.47-14.68-8.24zm31.34 8.24c-2.03-0.17-4.24-0.59-5.71-1.42-3.05-1.72-1.52-4.38 1.39-3.39 5.59 1.89 14.36 0.85 18.99-3.43-2.83 5.77-9.82 8.65-14.67 8.24zm-4.16-14.69c0 2.67-1.87 3.06-2.94 6.05-0.7 1.93-1.23 5.01-1.23 7.75 0-2.74-0.54-5.81-1.24-7.75-1.07-2.99-2.94-3.38-2.94-6.05 0-2.11 1.46-3.61 2.25-5.13 0.8-1.52 1.75-3.33 1.92-5.46 0.18 2.12 1.13 3.94 1.92 5.46 0.8 1.52 2.26 3.02 2.26 5.13zm2.66 4.27c-1.39-2.33 1.39-3.95 3.5-3.95 5.12 0 4.86 8.98-1.93 8.98-2.34 0-3.11-0.64-5.45-0.64-0.8 0-1.36 0.45-1.93 1.29 0.18-2.14 1.8-3.11 3.61-3.45 1.08-0.21 5.39-0.5 4.74-2.33 0.02 0.64-1.58 1.71-2.54 0.1zm-16.2-0.1c-0.65 1.83 3.65 2.12 4.73 2.33 1.81 0.34 3.43 1.31 3.61 3.45-0.56-0.84-1.13-1.29-1.93-1.29-2.34 0-3.11 0.64-5.45 0.64-6.79 0-7.05-8.98-1.93-8.98 2.12 0 4.89 1.62 3.51 3.95-0.96 1.61-2.56 0.54-2.54-0.1z"/>
	<path fill-rule="evenodd" class="s0" d="m25.82 67.09c1.06-0.7 2.08 0.96 1.03 1.65-1.73 1.13-4.07 0.82-5.24-0.94-1.65-2.49 0.25-5.63 3.13-5.73q0.75-0.01 1.49 0 3.89 0 7.78 0 14.53 0 29.06 0 17.87 0 35.75 0 14.43 0 28.87 0 3.8 0 7.59 0 0.69 0 1.38 0c3.97-0.03 7.69-1.47 10.64-4.13 0.93-0.84 2.28 0.57 1.34 1.42-1.63 1.46-3.48 2.64-5.52 3.44-2.75 1.09-5.54 1.22-8.46 1.22q-4 0-8 0-14.28 0-28.56 0-17.34 0-34.67 0-14.26 0-28.53 0-4.06 0-8.12 0-0.9-0.02-1.8 0-0.13-0.01-0.26-0.01c-1.02 0.06-1.84 0.82-1.75 1.88 0.11 1.47 1.72 1.94 2.85 1.2z"/>
	<path fill-rule="evenodd" class="s0" d="m274.62 67.09c-1.07-0.7-2.08 0.96-1.03 1.65 1.72 1.13 4.06 0.82 5.23-0.94 1.65-2.49-0.24-5.63-3.13-5.73q-0.74-0.01-1.48 0-3.89 0-7.78 0-14.54 0-29.06 0-17.88 0-35.75 0-14.44 0-28.88 0-3.79 0-7.58 0-0.69 0-1.39 0c-3.96-0.03-7.69-1.47-10.63-4.13-0.94-0.84-2.28 0.57-1.34 1.42 1.63 1.46 3.47 2.64 5.51 3.44 2.76 1.09 5.55 1.22 8.46 1.22q4.01 0 8.01 0 14.28 0 28.55 0 17.34 0 34.68 0 14.26 0 28.52 0 4.06 0 8.12 0 0.9-0.02 1.81 0 0.13-0.01 0.26-0.01c1.02 0.06 1.83 0.82 1.75 1.88-0.12 1.47-1.73 1.94-2.85 1.2z"/>
</svg>