<svg version="1.2" xmlns="http://www.w3.org/2000/svg" viewBox="0 0 300 100" width="300" height="100">
	<style>
		.s0 { fill: #cec4ae } 
	</style>
	<path fill-rule="evenodd" class="s0" d="m145.69 60.77q-0.16 0-0.31 0c-0.54 0.02-5.36 0.03-8.78-5.84-1.13-1.92-2.65-3.7-3.95-4.66l-0.19-0.15c-1.67-1.3-3.86-1.66-5.87-0.96-1.92 0.67-3.29 2.17-3.76 4.11q-0.06 0.23-0.1 0.46c-0.24 1.4 0.14 2.81 1.07 3.99 1.31 1.68 3.03 2.4 4.71 1.97 1.52-0.39 2.67-1.65 2.93-3.22 0.14-0.79-0.08-1.64-0.6-2.32-0.79-1.01-1.8-1.45-2.79-1.21-0.88 0.22-1.55 0.95-1.71 1.87-0.16 0.94 0.48 1.76 1.39 2 0.79 0.22 0.34 1.43-0.23 1.32-1.64-0.32-2.76-1.88-2.47-3.54 0.24-1.44 1.3-2.6 2.7-2.95 1.5-0.37 3.06 0.26 4.17 1.7 0.75 0.97 1.06 2.19 0.86 3.36-0.35 2.08-1.89 3.77-3.91 4.29-2.19 0.55-4.47-0.36-6.1-2.44-1.16-1.48-1.63-3.27-1.33-5.05q0.05-0.28 0.12-0.55c0.58-2.39 2.26-4.23 4.61-5.05 2.44-0.85 5.1-0.41 7.13 1.17l0.19 0.14c1.44 1.06 3.05 2.95 4.29 5.04 3.15 5.41 7.54 5.18 7.58 5.18h0.04 0.05c0.75 0.04 1.48-0.21 2.05-0.72 0.59-0.52 0.94-1.25 0.98-2.04 0.07-1.22-0.84-2.27-2.02-2.34-0.42-0.04-0.86 0.14-1.18 0.47-0.48 0.49-0.65 1.06-0.45 1.57 0.16 0.42 0.56 0.68 1 0.74 0.68 0.09 0.62 1.35-0.08 1.34-0.97-0.03-1.82-0.69-2.17-1.6-0.39-1-0.11-2.12 0.74-2.98 0.59-0.61 1.42-0.94 2.23-0.88 1.91 0.13 3.38 1.81 3.27 3.75-0.07 1.16-0.58 2.21-1.43 2.97-0.75 0.67-1.69 1.04-2.68 1.06z"/>
	<path fill-rule="evenodd" class="s0" d="m153.91 60.77q0.15 0 0.3 0c0.54 0.02 5.36 0.03 8.78-5.84 1.13-1.92 2.65-3.7 3.95-4.66l0.19-0.15c1.67-1.3 3.87-1.66 5.87-0.96 1.92 0.67 3.29 2.17 3.76 4.11q0.05 0.23 0.09 0.46c0.24 1.4-0.13 2.81-1.06 3.99-1.32 1.68-3.03 2.4-4.71 1.97-1.52-0.39-2.67-1.65-2.93-3.22-0.14-0.79 0.08-1.64 0.6-2.32 0.79-1.01 1.8-1.45 2.79-1.21 0.88 0.22 1.55 0.95 1.71 1.87 0.15 0.94-0.48 1.76-1.39 2-0.79 0.22-0.34 1.43 0.23 1.32 1.64-0.32 2.76-1.88 2.47-3.54-0.24-1.44-1.3-2.6-2.7-2.95-1.5-0.37-3.06 0.26-4.17 1.7-0.75 0.97-1.06 2.19-0.86 3.36 0.35 2.08 1.89 3.77 3.91 4.29 2.19 0.55 4.47-0.36 6.1-2.44 1.16-1.48 1.63-3.27 1.33-5.05q-0.05-0.28-0.12-0.55c-0.58-2.39-2.26-4.23-4.61-5.05-2.44-0.85-5.11-0.41-7.13 1.17l-0.19 0.14c-1.44 1.06-3.05 2.95-4.29 5.04-3.15 5.41-7.54 5.18-7.58 5.18h-0.05-0.04c-0.75 0.04-1.48-0.21-2.06-0.72-0.58-0.52-0.93-1.25-0.97-2.04-0.07-1.22 0.84-2.27 2.02-2.34 0.42-0.04 0.86 0.14 1.18 0.47 0.48 0.49 0.65 1.06 0.45 1.57-0.16 0.42-0.56 0.68-1 0.74-0.68 0.09-0.62 1.35 0.08 1.34 0.96-0.03 1.82-0.69 2.17-1.6 0.38-1 0.11-2.12-0.74-2.98-0.59-0.61-1.42-0.94-2.23-0.88-1.91 0.13-3.38 1.81-3.27 3.75 0.07 1.16 0.57 2.21 1.43 2.97 0.75 0.67 1.7 1.04 2.69 1.06z"/>
	<path fill-rule="evenodd" class="s0" d="m149.8 40.85q0.41-0.6 0.92-1.02c0.7-0.55 1.51-0.83 2.57-0.83 1.18 0 2.26 0.48 3.03 1.26h0.01c0.77 0.77 1.25 1.85 1.25 3.03 0 2.72-1.69 3.99-3.94 5.67-1.01 0.76-2.14 1.61-3.28 2.75l-0.56 0.56-0.57-0.56c-1.14-1.14-2.27-1.99-3.28-2.75-2.25-1.68-3.94-2.95-3.94-5.67 0-1.18 0.48-2.26 1.25-3.03 0.78-0.78 1.85-1.26 3.04-1.26 1.06 0 1.87 0.28 2.57 0.83q0.51 0.42 0.93 1.02zm1.91 0.22c-0.44 0.35-0.82 0.92-1.21 1.7l-0.71 1.41-0.7-1.41c-0.39-0.78-0.77-1.35-1.21-1.7-0.4-0.32-0.9-0.48-1.58-0.48-0.75 0-1.42 0.3-1.91 0.79-0.49 0.49-0.8 1.17-0.8 1.91 0 1.94 1.42 3 3.31 4.41 0.9 0.67 1.89 1.42 2.89 2.35 1.01-0.93 2-1.68 2.9-2.35 1.89-1.41 3.3-2.47 3.3-4.41 0-0.74-0.3-1.42-0.79-1.91-0.49-0.49-1.16-0.79-1.91-0.79-0.68 0-1.18 0.16-1.58 0.48z"/>
	<path fill-rule="evenodd" class="s0" d="m186.12 57.57c-0.53 0-0.96-0.43-0.96-0.95 0-0.53 0.43-0.95 0.96-0.95h96.52c0.52 0 0.95 0.42 0.95 0.95 0 0.53-0.43 0.95-0.95 0.95z"/>
	<path fill-rule="evenodd" class="s0" d="m16.95 57.57c-0.52 0-0.95-0.43-0.95-0.95 0-0.53 0.43-0.95 0.95-0.95h96.53c0.52 0 0.95 0.42 0.95 0.95 0 0.53-0.43 0.95-0.95 0.95z"/>
</svg>