<svg version="1.2" xmlns="http://www.w3.org/2000/svg" viewBox="0 0 300 100" width="300" height="100">
	<style>
		.s0 { fill: #cec4ae } 
	</style>
	<path fill-rule="evenodd" class="s0" d="m99.8 48.9c0.57 0 1.04 0.47 1.04 1.05 0 0.57-0.47 1.04-1.04 1.04h-81.01c-0.58 0-1.05-0.47-1.05-1.04 0-0.58 0.47-1.05 1.05-1.05z"/>
	<path fill-rule="evenodd" class="s0" d="m200.95 50.99c-0.58 0-1.04-0.47-1.04-1.04 0-0.58 0.47-1.05 1.04-1.05h80.05c0.57 0 1.04 0.47 1.04 1.05 0 0.57-0.47 1.04-1.04 1.04z"/>
	<path fill-rule="evenodd" class="s0" d="m286.15 54.29q-0.87 0-1.68-0.16c-2.4-0.48-3.47-2.45-3.47-4.18 0-1.74 1.07-3.71 3.47-4.18 5.05-1.01 11.53 3.13 11.81 3.3 0.3 0.19 0.47 0.52 0.47 0.88 0 0.35-0.17 0.68-0.47 0.87-0.25 0.16-5.44 3.47-10.13 3.47zm-1.28-2.2c2.93 0.58 6.68-1.06 8.74-2.14-2.06-1.09-5.82-2.72-8.74-2.15-1.32 0.27-1.79 1.32-1.79 2.15 0 0.82 0.47 1.88 1.79 2.14z"/>
	<path fill-rule="evenodd" class="s0" d="m4.47 50.82c-0.3-0.19-0.47-0.52-0.47-0.87 0-0.36 0.17-0.69 0.47-0.88 0.28-0.17 6.76-4.31 11.81-3.3 2.39 0.47 3.47 2.44 3.47 4.18 0 1.73-1.08 3.7-3.47 4.18q-0.82 0.16-1.68 0.16c-4.7 0-9.89-3.31-10.13-3.47zm13.2-0.87c0-0.83-0.47-1.88-1.79-2.15-2.92-0.57-6.68 1.06-8.74 2.15 2.06 1.08 5.81 2.72 8.74 2.14 1.32-0.26 1.79-1.32 1.79-2.14z"/>
	<path fill-rule="evenodd" class="s0" d="m113.4 49.99c-0.76 0.01-1.67-0.25-2.35-0.56-1.67-0.76-2.92-2.12-3.8-3.7-0.6-1.09-1.55-2.39-2.55-3.16l-0.14-0.11c-1.05-0.85-2.44-1.11-3.72-0.69-1.22 0.4-2.12 1.32-2.45 2.55q-0.03 0.15-0.06 0.3c-0.18 0.89 0.07 1.79 0.61 2.51 0.69 0.92 1.72 1.58 2.9 1.31 0.94-0.22 1.66-0.98 1.84-1.93 0.09-0.48-0.05-0.98-0.33-1.37-0.38-0.5-0.95-0.91-1.6-0.76-0.5 0.12-0.88 0.52-0.97 1.03-0.1 0.5 0.24 0.92 0.71 1.06 0.88 0.26 0.43 1.61-0.32 1.45-1.26-0.28-2.09-1.51-1.85-2.79 0.21-1.08 1.03-1.95 2.1-2.19 1.24-0.28 2.39 0.33 3.12 1.32 0.53 0.73 0.76 1.65 0.59 2.53-0.29 1.52-1.44 2.75-2.95 3.1-1.76 0.4-3.38-0.48-4.42-1.86-0.8-1.07-1.14-2.38-0.89-3.69q0.04-0.2 0.09-0.4c0.46-1.73 1.72-3.02 3.42-3.58 1.76-0.57 3.68-0.22 5.12 0.95l0.11 0.1c1.17 0.89 2.23 2.32 2.94 3.6 1.03 1.85 2.66 3.36 4.85 3.5h0.03 0.05c0.44 0.03 0.87-0.11 1.21-0.39 0.35-0.31 0.56-0.73 0.6-1.19 0.05-0.65-0.43-1.26-1.09-1.32-0.22-0.02-0.44 0.08-0.59 0.22-0.2 0.2-0.36 0.48-0.26 0.77 0.07 0.19 0.25 0.3 0.45 0.33 0.81 0.13 0.7 1.52-0.13 1.48-0.79-0.04-1.45-0.58-1.72-1.31-0.3-0.85-0.01-1.71 0.62-2.33 0.46-0.45 1.11-0.7 1.76-0.64 1.45 0.13 2.55 1.46 2.43 2.91-0.06 0.86-0.46 1.64-1.11 2.2-0.57 0.49-1.29 0.76-2.04 0.76q-0.1-0.01-0.21-0.01z"/>
	<path fill-rule="evenodd" class="s0" d="m113.4 49.91c-0.76-0.01-1.67 0.24-2.35 0.56-1.67 0.75-2.92 2.12-3.8 3.7-0.6 1.09-1.55 2.38-2.55 3.15l-0.14 0.11c-1.05 0.85-2.44 1.11-3.72 0.69-1.22-0.39-2.12-1.31-2.45-2.55q-0.03-0.15-0.06-0.29c-0.18-0.9 0.07-1.79 0.61-2.52 0.69-0.92 1.72-1.58 2.9-1.31 0.94 0.22 1.66 0.99 1.84 1.93 0.09 0.48-0.05 0.98-0.33 1.37-0.38 0.51-0.95 0.91-1.6 0.76-0.5-0.11-0.88-0.52-0.97-1.02-0.1-0.51 0.24-0.93 0.71-1.07 0.88-0.26 0.43-1.6-0.32-1.44-1.26 0.27-2.09 1.5-1.85 2.78 0.21 1.09 1.03 1.95 2.1 2.2 1.24 0.28 2.39-0.34 3.12-1.33 0.53-0.72 0.76-1.64 0.59-2.53-0.29-1.52-1.44-2.74-2.95-3.09-1.76-0.41-3.38 0.47-4.42 1.86-0.8 1.06-1.14 2.37-0.89 3.69q0.04 0.2 0.09 0.39c0.46 1.73 1.72 3.03 3.42 3.58 1.76 0.57 3.68 0.22 5.12-0.95l0.11-0.09c1.17-0.9 2.23-2.33 2.94-3.6 1.03-1.86 2.66-3.36 4.85-3.5h0.03 0.05c0.44-0.04 0.87 0.1 1.21 0.39 0.35 0.3 0.56 0.72 0.6 1.19 0.05 0.65-0.43 1.26-1.09 1.32-0.22 0.02-0.44-0.08-0.59-0.23-0.2-0.19-0.36-0.47-0.26-0.76 0.07-0.19 0.25-0.31 0.45-0.34 0.81-0.13 0.7-1.51-0.13-1.47-0.79 0.03-1.45 0.58-1.72 1.31-0.3 0.84-0.01 1.71 0.62 2.32 0.46 0.45 1.11 0.7 1.76 0.65 1.45-0.14 2.55-1.47 2.43-2.92-0.06-0.86-0.46-1.64-1.11-2.2-0.57-0.48-1.29-0.75-2.04-0.75q-0.1 0-0.21 0.01z"/>
	<path fill-rule="evenodd" class="s0" d="m187.28 49.99c0.77 0.01 1.69-0.25 2.38-0.57 1.68-0.76 2.94-2.14 3.83-3.73 0.61-1.1 1.57-2.41 2.58-3.19l0.13-0.11c1.06-0.86 2.47-1.11 3.76-0.69 1.23 0.4 2.14 1.32 2.47 2.57q0.04 0.15 0.07 0.3c0.17 0.91-0.07 1.8-0.62 2.54-0.7 0.93-1.74 1.6-2.93 1.32-0.95-0.22-1.67-1-1.85-1.95-0.09-0.48 0.04-0.99 0.33-1.38 0.38-0.51 0.95-0.92 1.61-0.77 0.51 0.11 0.89 0.53 0.99 1.04 0.09 0.5-0.25 0.93-0.73 1.07-0.89 0.26-0.43 1.62 0.32 1.46 1.29-0.28 2.12-1.52 1.88-2.81-0.21-1.1-1.04-1.97-2.13-2.22-1.25-0.28-2.41 0.34-3.14 1.34-0.54 0.73-0.77 1.66-0.6 2.55 0.29 1.54 1.46 2.77 2.98 3.12 1.77 0.41 3.41-0.47 4.46-1.87 0.81-1.08 1.15-2.4 0.9-3.73q-0.04-0.2-0.09-0.4c-0.47-1.74-1.74-3.05-3.45-3.61-1.78-0.58-3.72-0.22-5.17 0.96l-0.12 0.1c-1.17 0.9-2.24 2.34-2.96 3.63-1.04 1.87-2.69 3.39-4.9 3.53h-0.03-0.04c-0.45 0.04-0.88-0.1-1.23-0.4-0.35-0.3-0.57-0.73-0.6-1.19-0.05-0.66 0.44-1.28 1.1-1.34 0.22-0.02 0.44 0.08 0.59 0.23 0.21 0.2 0.37 0.48 0.27 0.77-0.07 0.2-0.26 0.31-0.46 0.34-0.81 0.13-0.71 1.53 0.14 1.49 0.79-0.04 1.46-0.59 1.73-1.32 0.3-0.86 0-1.73-0.63-2.35-0.46-0.45-1.12-0.71-1.77-0.65-1.47 0.13-2.57 1.48-2.46 2.94 0.07 0.87 0.46 1.66 1.13 2.22 0.57 0.49 1.29 0.76 2.05 0.76q0.1 0.01 0.21 0z"/>
	<path fill-rule="evenodd" class="s0" d="m187.28 49.91c0.77-0.02 1.69 0.25 2.38 0.56 1.68 0.77 2.94 2.14 3.83 3.74 0.61 1.1 1.57 2.41 2.58 3.18l0.13 0.11c1.06 0.86 2.47 1.12 3.76 0.7 1.23-0.4 2.14-1.33 2.47-2.58q0.04-0.15 0.07-0.3c0.17-0.9-0.07-1.8-0.62-2.53-0.7-0.93-1.74-1.6-2.93-1.32-0.95 0.22-1.67 0.99-1.85 1.94-0.09 0.49 0.04 0.99 0.33 1.39 0.38 0.51 0.95 0.91 1.61 0.77 0.51-0.12 0.89-0.53 0.99-1.04 0.09-0.51-0.25-0.94-0.73-1.07-0.89-0.27-0.43-1.63 0.32-1.46 1.29 0.27 2.12 1.52 1.88 2.81-0.21 1.09-1.04 1.97-2.13 2.21-1.25 0.29-2.41-0.34-3.14-1.34-0.54-0.73-0.77-1.66-0.6-2.55 0.29-1.53 1.46-2.77 2.98-3.12 1.77-0.41 3.41 0.48 4.46 1.88 0.81 1.07 1.15 2.4 0.9 3.72q-0.04 0.2-0.09 0.4c-0.47 1.74-1.74 3.06-3.45 3.61-1.78 0.58-3.72 0.23-5.17-0.96l-0.12-0.09c-1.17-0.9-2.24-2.35-2.96-3.63-1.04-1.88-2.69-3.39-4.9-3.54l-0.03 0.01-0.04-0.01c-0.45-0.03-0.88 0.11-1.23 0.4-0.35 0.31-0.57 0.73-0.6 1.2-0.05 0.66 0.44 1.27 1.1 1.33 0.22 0.02 0.44-0.07 0.59-0.23 0.21-0.19 0.37-0.48 0.27-0.76-0.07-0.2-0.26-0.32-0.46-0.35-0.81-0.13-0.71-1.52 0.14-1.49 0.79 0.04 1.46 0.59 1.73 1.33 0.3 0.85 0 1.72-0.63 2.34-0.46 0.46-1.12 0.71-1.77 0.65-1.47-0.13-2.57-1.48-2.46-2.94 0.07-0.86 0.46-1.65 1.13-2.22 0.57-0.49 1.29-0.76 2.05-0.76q0.1 0 0.21 0.01z"/>
	<path fill-rule="evenodd" class="s0" d="m142.47 48.69l7.2-7.2c0.39-0.39 1.02-0.39 1.41 0l7.2 7.2c0.39 0.39 0.39 1.03 0 1.42l-7.2 7.2c-0.39 0.39-1.02 0.39-1.41 0l-7.2-7.2c-0.39-0.39-0.39-1.03 0-1.42z"/>
	<path fill-rule="evenodd" class="s0" d="m159.75 48.92l4.9-4.9c0.27-0.27 0.7-0.27 0.97 0l4.9 4.9c0.26 0.26 0.26 0.7 0 0.96l-4.9 4.9c-0.27 0.27-0.7 0.27-0.97 0l-4.9-4.9c-0.26-0.26-0.26-0.7 0-0.96z"/>
	<path fill-rule="evenodd" class="s0" d="m171.87 48.97l4.35-4.35c0.24-0.24 0.62-0.24 0.86 0l4.35 4.35c0.24 0.24 0.24 0.62 0 0.86l-4.35 4.35c-0.24 0.24-0.62 0.24-0.86 0l-4.35-4.35c-0.24-0.24-0.24-0.62 0-0.86z"/>
	<path fill-rule="evenodd" class="s0" d="m141 48.92l-4.9-4.9c-0.27-0.27-0.7-0.27-0.97 0l-4.9 4.9c-0.27 0.26-0.27 0.7 0 0.96l4.9 4.9c0.27 0.27 0.7 0.27 0.97 0l4.9-4.9c0.26-0.26 0.26-0.7 0-0.96z"/>
	<path fill-rule="evenodd" class="s0" d="m128.88 48.97l-4.35-4.35c-0.24-0.24-0.62-0.24-0.86 0l-4.35 4.35c-0.24 0.24-0.24 0.62 0 0.86l4.35 4.35c0.24 0.24 0.62 0.24 0.86 0l4.35-4.35c0.24-0.24 0.24-0.62 0-0.86z"/>
</svg>