<svg version="1.2" xmlns="http://www.w3.org/2000/svg" viewBox="0 0 300 300" width="300" height="300">
	<style>
		.s0 { fill: #b6a893 } 
	</style>
	<path class="s0" d="m53 253.88c0.97-18.02 24.61-32.46 49.08-32.46 21.23 0 43.02 16.01 48.01 30.66 4.99-14.65 24.98-30.66 46.21-30.66 24.47 0 50.5 14.45 51.46 32.46-0.93-21-24.11-45.08-51.46-45.08-21.05 0-38.56 17.2-46.21 31.37-7.65-14.17-26.96-31.37-48.01-31.37-27.36 0-48.15 24.08-49.08 45.08z"/>
	<path fill-rule="evenodd" class="s0" d="m101.2 251.17c-5.75 0-10.4-4.83-10.4-10.81 0-5.99 4.65-10.82 10.4-10.82 5.75 0 10.39 4.83 10.39 10.82 0 5.98-4.64 10.81-10.39 10.81z"/>
	<path fill-rule="evenodd" class="s0" d="m198.02 251.17c-5.75 0-10.4-4.83-10.4-10.81 0-5.99 4.65-10.82 10.4-10.82 5.75 0 10.4 4.83 10.4 10.82 0 5.98-4.65 10.81-10.4 10.81z"/>
	<path class="s0" d="m210.58 142.23c-16.48 0.92-36.75 4.33-47.88 18.55-9.48 12.14-11.25 24.72-13.62 38.76-2.37-14.04-4.14-26.62-13.63-38.76-11.12-14.22-31.39-17.63-47.87-18.55-1.61-0.11-3.02 1.78-2.5 3.4 5.45 16.61 1.61 33.81 13.93 47.49 12.48 13.79 38.27 16.81 52.25 38.78 13.97-21.63 35.4-24.99 47.88-38.78 12.32-13.68 8.48-30.88 13.93-47.49 0.53-1.62-0.88-3.51-2.49-3.4z"/>
	<path class="s0" d="m149.55 178.76c3.15-15.48 24.39-35.02 24.79-53.96 0.36-18.74-13.56-28.85-20.18-44.99-0.66-1.57-2.93-1.99-4.05-0.8-11.66 12.16-24.53 28.81-23.65 47.12 0.92 18.94 21.93 50.17 23.09 52.63z"/>
	<path fill-rule="evenodd" class="s0" d="m108.34 136.91c-5.74 0-10.39-4.83-10.39-10.81 0-5.98 4.65-10.82 10.39-10.82 5.75 0 10.4 4.84 10.4 10.82 0 5.98-4.65 10.81-10.4 10.81z"/>
	<path fill-rule="evenodd" class="s0" d="m190.22 136.91c-5.75 0-10.39-4.83-10.39-10.81 0-5.98 4.64-10.82 10.39-10.82 5.75 0 10.4 4.84 10.4 10.82 0 5.98-4.65 10.81-10.4 10.81z"/>
	<path fill-rule="evenodd" class="s0" d="m148.64 68.63c-5.75 0-10.4-4.83-10.4-10.81 0-5.99 4.65-10.82 10.4-10.82 5.74 0 10.39 4.83 10.39 10.82 0 5.98-4.65 10.81-10.39 10.81z"/>
</svg>