<svg version="1.2" xmlns="http://www.w3.org/2000/svg" viewBox="0 0 300 300" width="300" height="300">
	<style>
		.s0 { fill: #b6a893 } 
	</style>
	<path class="s0" d="m271.97 42.46c-1.23-3.53-5.1-5.4-8.64-4.18-2.56 0.89-3.93 3.71-3.03 6.27 0.66 1.9 2.74 2.9 4.63 2.24 1.44-0.5 2.2-2.07 1.7-3.5-0.19-0.54-0.58-0.98-1.09-1.23-0.52-0.25-1.1-0.28-1.64-0.1-0.4 0.14-0.62 0.59-0.48 0.99 0.14 0.41 0.59 0.62 0.99 0.48q0.23-0.08 0.45 0.02 0.22 0.11 0.3 0.34 0.16 0.47-0.05 0.92-0.22 0.45-0.69 0.61c-1.09 0.38-2.28-0.19-2.66-1.28-0.61-1.76 0.32-3.69 2.08-4.3 2.72-0.95 5.71 0.5 6.66 3.23 1.43 4.12-0.76 8.65-4.88 10.08-1.85 0.65-4.09-0.2-6.67-1.19-4.59-1.74-10.07-3.83-15.91 1.68q-1.5-1.65-3.05-4.14-0.19-0.3-0.54-0.36c-0.22-0.04-0.45 0.03-0.63 0.18l-5.14 4.44c-10.57-9.17-18.16-9.59-30.89-1.84-4.48 2.73-9.31 1.48-11.9-0.84-2.36-2.12-2.97-5.09-1.64-7.94 1.34-2.85 4.08-4.2 6.69-3.3 1.76 0.61 2.69 2.54 2.08 4.3-0.38 1.09-1.57 1.67-2.66 1.29q-0.47-0.17-0.69-0.62-0.21-0.44-0.05-0.92 0.08-0.22 0.3-0.33 0.22-0.11 0.45-0.03c0.41 0.14 0.85-0.07 0.99-0.48 0.14-0.4-0.07-0.84-0.48-0.98-0.54-0.19-1.12-0.16-1.64 0.09-0.51 0.25-0.9 0.69-1.09 1.23-0.24 0.69-0.2 1.44 0.13 2.1 0.32 0.67 0.87 1.16 1.57 1.4 1.9 0.66 3.98-0.34 4.64-2.24 0.89-2.56-0.47-5.37-3.04-6.27-3.33-1.16-6.95 0.57-8.6 4.11-1.64 3.5-0.89 7.15 2.01 9.75 0.75 0.67 1.67 1.27 2.7 1.74h-23.65q0.51-0.27 0.95-0.7c1.73-1.73 1.31-4.8 1.3-4.93-0.05-0.35-0.32-0.61-0.66-0.66-0.11-0.02-2.19-0.3-3.9 0.56 0.16-0.7 0.26-1.32 0.26-1.77 0-2.18-2.17-3.83-2.27-3.9-0.27-0.21-0.65-0.21-0.93 0-0.09 0.07-2.27 1.72-2.27 3.9 0 0.45 0.11 1.07 0.26 1.77-1.7-0.86-3.78-0.58-3.89-0.56-0.34 0.05-0.61 0.31-0.66 0.66-0.02 0.13-0.43 3.2 1.3 4.93q0.43 0.43 0.95 0.7h-15.76c4.4-0.83 6.72-3.16 7.79-4.66 1.66-2.34 2.18-5.26 1.36-7.61-1.17-3.38-4.88-5.17-8.26-4-2.45 0.86-3.76 3.55-2.9 6.01 0.63 1.83 2.63 2.79 4.45 2.16 1.39-0.48 2.12-2 1.64-3.38-0.18-0.53-0.56-0.95-1.06-1.19-0.5-0.24-1.06-0.27-1.58-0.09-0.43 0.14-0.77 0.45-0.96 0.85-0.2 0.4-0.22 0.86-0.07 1.28 0.14 0.4 0.58 0.62 0.98 0.48 0.41-0.14 0.62-0.59 0.48-0.99q-0.03-0.11 0.08-0.16 0.2-0.06 0.4 0.03 0.19 0.09 0.26 0.3c0.2 0.57-0.1 1.21-0.68 1.41-1.01 0.35-2.13-0.19-2.48-1.2-0.57-1.66 0.3-3.47 1.95-4.04 1.25-0.43 2.59-0.36 3.78 0.22 1.18 0.57 2.08 1.58 2.51 2.82 0.66 1.89 0.21 4.26-1.17 6.2-0.88 1.25-2.78 3.14-6.36 3.94 0.48-0.71 0.77-1.56 0.77-2.48 0-2.44-1.99-4.42-4.42-4.42-2.43 0-4.41 1.98-4.41 4.42 0 0.94 0.3 1.81 0.8 2.53-3.51-0.7-5.43-2.35-6.46-3.8-1.36-1.91-1.77-4.36-1.06-6.39 0.43-1.24 1.32-2.24 2.51-2.82 1.19-0.57 2.53-0.65 3.77-0.22 1.65 0.58 2.53 2.39 1.95 4.04-0.35 1.01-1.46 1.55-2.48 1.2-0.57-0.2-0.88-0.83-0.68-1.41 0.1-0.27 0.4-0.42 0.67-0.32q0.1 0.04 0.07 0.15c-0.14 0.41 0.08 0.85 0.48 0.99 0.41 0.14 0.85-0.07 0.99-0.48 0.3-0.87-0.16-1.83-1.03-2.13-1.08-0.38-2.27 0.2-2.64 1.28-0.49 1.38 0.25 2.9 1.63 3.38 1.83 0.64 3.83-0.33 4.46-2.15 0.85-2.46-0.45-5.16-2.91-6.01-1.64-0.57-3.4-0.47-4.96 0.28-1.56 0.76-2.73 2.08-3.3 3.71-0.87 2.5-0.38 5.48 1.26 7.8 1.23 1.73 3.53 3.72 7.72 4.47h-15.68q0.51-0.26 0.95-0.69c1.73-1.74 1.31-4.81 1.29-4.94-0.04-0.34-0.31-0.61-0.65-0.66-0.11-0.01-2.19-0.29-3.9 0.56 0.16-0.69 0.26-1.32 0.26-1.77 0-2.17-2.18-3.83-2.27-3.9-0.27-0.2-0.65-0.2-0.93 0-0.09 0.07-2.27 1.73-2.27 3.9 0 0.45 0.11 1.08 0.26 1.77-1.7-0.85-3.79-0.57-3.89-0.56-0.34 0.05-0.61 0.32-0.66 0.66-0.02 0.13-0.44 3.2 1.3 4.94q0.43 0.43 0.95 0.69h-15.82c4.4-0.83 6.72-3.15 7.79-4.66 1.66-2.34 2.19-5.25 1.37-7.6-1.18-3.38-4.88-5.18-8.26-4-2.46 0.85-3.77 3.55-2.91 6.01 0.63 1.82 2.63 2.79 4.45 2.16 1.39-0.49 2.12-2 1.64-3.39-0.18-0.52-0.56-0.94-1.05-1.18-0.5-0.25-1.07-0.28-1.59-0.1-0.42 0.15-0.76 0.45-0.96 0.86-0.19 0.4-0.22 0.85-0.07 1.28 0.14 0.4 0.58 0.62 0.98 0.47 0.41-0.14 0.62-0.58 0.48-0.98q-0.02-0.11 0.08-0.16 0.21-0.07 0.4 0.03 0.19 0.09 0.27 0.29c0.2 0.58-0.11 1.21-0.69 1.41-1.01 0.36-2.12-0.18-2.48-1.2-0.57-1.65 0.3-3.46 1.96-4.03 1.24-0.44 2.58-0.36 3.77 0.22 1.19 0.57 2.08 1.57 2.51 2.82 0.66 1.89 0.21 4.26-1.17 6.2-0.88 1.24-2.77 3.14-6.36 3.94 0.48-0.71 0.77-1.57 0.77-2.49 0-2.43-1.98-4.41-4.42-4.41-2.43 0-4.41 1.98-4.41 4.41 0 0.95 0.3 1.82 0.8 2.53-3.51-0.69-5.43-2.35-6.46-3.79-1.36-1.92-1.77-4.36-1.06-6.39 0.43-1.25 1.32-2.25 2.51-2.82 1.19-0.58 2.53-0.65 3.77-0.22 1.66 0.57 2.53 2.38 1.96 4.03-0.35 1.02-1.47 1.56-2.48 1.21-0.58-0.21-0.89-0.84-0.69-1.41 0.1-0.28 0.4-0.42 0.67-0.33q0.1 0.05 0.08 0.16c-0.15 0.4 0.07 0.85 0.47 0.99 0.41 0.14 0.85-0.08 0.99-0.48 0.3-0.87-0.16-1.83-1.03-2.13-1.08-0.38-2.27 0.19-2.64 1.28-0.48 1.38 0.25 2.9 1.64 3.38 1.82 0.63 3.82-0.33 4.45-2.16 0.86-2.45-0.45-5.15-2.91-6.01-1.63-0.57-3.39-0.46-4.95 0.29q-0.63 0.3-1.16 0.72c0.18-1.1 0.08-2.23-0.29-3.31-0.43-1.24-1.32-2.24-2.51-2.81-1.18-0.58-2.52-0.65-3.76-0.22-1.9 0.66-2.9 2.74-2.24 4.64 0.49 1.43 2.07 2.19 3.5 1.69 0.54-0.18 0.98-0.57 1.23-1.09 0.25-0.51 0.28-1.09 0.09-1.63-0.14-0.41-0.58-0.62-0.98-0.48-0.41 0.14-0.62 0.58-0.48 0.99q0.08 0.23-0.03 0.45-0.11 0.22-0.34 0.3c-0.62 0.22-1.31-0.12-1.53-0.74-0.38-1.09 0.2-2.29 1.29-2.66 0.85-0.3 1.76-0.25 2.57 0.15 0.82 0.39 1.43 1.07 1.72 1.92 0.46 1.32 0.38 2.74-0.23 4-0.61 1.26-1.67 2.2-2.99 2.66-4.13 1.44-8.65-0.75-10.09-4.88q-0.05-0.15-0.15-0.26c-0.53-2.16-2.11-4.02-4.36-4.81-2.39-0.83-4.96-0.68-7.24 0.42-2.27 1.11-3.99 3.03-4.82 5.42-0.88 2.55-0.89 5.51-0.03 8.35 0.1 0.34 0.41 0.55 0.74 0.55q0.12 0 0.23-0.03c0.41-0.13 0.64-0.56 0.52-0.97-0.76-2.49-0.76-5.18 0.01-7.39 0.69-2 2.13-3.61 4.03-4.53 1.91-0.92 4.06-1.05 6.05-0.35 1.32 0.46 2.39 1.41 2.99 2.66 0.61 1.26 0.7 2.68 0.24 4-0.61 1.76-2.54 2.69-4.3 2.08-0.53-0.18-0.95-0.56-1.19-1.06-0.25-0.51-0.28-1.07-0.1-1.6q0.17-0.47 0.62-0.69c0.29-0.14 0.61-0.16 0.92-0.05 0.3 0.1 0.47 0.44 0.36 0.75-0.14 0.4 0.07 0.85 0.48 0.99 0.4 0.13 0.85-0.08 0.99-0.48 0.38-1.12-0.21-2.34-1.32-2.73-0.7-0.24-1.45-0.2-2.11 0.12-0.66 0.32-1.16 0.88-1.4 1.58-0.32 0.92-0.26 1.91 0.16 2.78 0.43 0.88 1.16 1.53 2.08 1.85 2.57 0.9 5.38-0.46 6.27-3.03q0.1-0.29 0.17-0.59c1.79 2.44 4.65 3.9 7.66 3.9q1.55 0 3.1-0.53 1.13-0.4 2.03-1.13c-0.38 2.21 0.17 4.63 1.56 6.58 1.23 1.74 3.53 3.73 7.71 4.48h-27.64q-1.72 0-3.25-0.58c-0.4-0.15-0.85 0.05-1 0.45-0.16 0.4 0.05 0.85 0.45 1q1.8 0.68 3.8 0.68h30.49v9.65q-0.43-0.87-1-1.67c-1.97-2.73-4.77-4.29-7.68-4.29h-23.37l0.01 23.36c0 2.91 1.56 5.71 4.29 7.68q0.8 0.57 1.67 1.01h-9.65v-30.5q0-2-0.68-3.8c-0.15-0.4-0.6-0.6-1-0.45-0.4 0.15-0.6 0.6-0.45 1q0.58 1.53 0.58 3.25v27.65c-0.75-4.19-2.74-6.49-4.48-7.72-1.95-1.38-4.37-1.93-6.58-1.56q0.73-0.9 1.13-2.02 0.53-1.55 0.52-3.11c0-3.01-1.45-5.87-3.89-7.65q0.3-0.07 0.59-0.17c2.56-0.89 3.92-3.71 3.03-6.27-0.32-0.92-0.98-1.66-1.85-2.08-0.88-0.43-1.87-0.48-2.78-0.16-0.7 0.24-1.26 0.74-1.58 1.4-0.32 0.66-0.36 1.41-0.12 2.1 0.39 1.12 1.61 1.71 2.72 1.32 0.41-0.14 0.62-0.58 0.48-0.98-0.14-0.41-0.58-0.62-0.98-0.48-0.31 0.1-0.65-0.06-0.76-0.37q-0.15-0.47 0.06-0.91 0.22-0.45 0.69-0.62c0.52-0.18 1.09-0.15 1.59 0.09 0.5 0.25 0.88 0.67 1.07 1.2 0.61 1.76-0.33 3.68-2.08 4.29-1.32 0.46-2.74 0.38-4-0.23-1.26-0.61-2.2-1.67-2.66-2.99-0.7-2-0.57-4.15 0.35-6.05 0.92-1.91 2.53-3.34 4.53-4.04 2.21-0.76 4.9-0.77 7.39-0.01 0.41 0.13 0.84-0.1 0.97-0.51q0.03-0.12 0.03-0.23c0-0.33-0.21-0.64-0.55-0.74-2.84-0.87-5.8-0.86-8.35 0.03-2.39 0.83-4.32 2.54-5.42 4.82-1.1 2.28-1.25 4.85-0.42 7.24 0.79 2.25 2.65 3.82 4.81 4.35q0.11 0.11 0.26 0.16c4.13 1.44 6.32 5.96 4.88 10.09-0.46 1.32-1.4 2.38-2.66 2.99-1.26 0.61-2.68 0.69-4 0.23-0.85-0.3-1.53-0.91-1.93-1.72-0.39-0.81-0.44-1.72-0.15-2.58 0.38-1.08 1.58-1.66 2.67-1.28 0.62 0.22 0.95 0.9 0.74 1.53q-0.09 0.23-0.3 0.34-0.22 0.1-0.46 0.02c-0.4-0.14-0.84 0.08-0.98 0.48-0.15 0.41 0.07 0.85 0.48 0.99 0.54 0.19 1.12 0.15 1.63-0.1 0.52-0.25 0.91-0.68 1.09-1.22 0.5-1.43-0.26-3.01-1.69-3.51-1.9-0.66-3.98 0.35-4.64 2.24-0.43 1.25-0.36 2.58 0.22 3.77 0.57 1.18 1.57 2.07 2.81 2.5 1.08 0.38 2.21 0.47 3.31 0.3q-0.42 0.53-0.72 1.15c-0.76 1.56-0.86 3.32-0.29 4.96 0.86 2.46 3.55 3.76 6.01 2.91 1.83-0.64 2.79-2.64 2.16-4.46-0.48-1.38-2-2.12-3.38-1.64-1.09 0.38-1.66 1.57-1.28 2.65 0.3 0.87 1.26 1.33 2.13 1.03 0.4-0.14 0.62-0.59 0.47-0.99-0.14-0.41-0.58-0.62-0.98-0.48q-0.11 0.03-0.16-0.07c-0.09-0.28 0.05-0.58 0.32-0.67 0.58-0.2 1.21 0.1 1.41 0.68 0.36 1.02-0.18 2.13-1.2 2.48-1.65 0.58-3.46-0.3-4.03-1.95-0.44-1.25-0.36-2.59 0.22-3.77 0.57-1.19 1.57-2.08 2.82-2.52 2.03-0.7 4.47-0.3 6.39 1.06 1.44 1.03 3.1 2.95 3.79 6.47-0.71-0.51-1.59-0.81-2.53-0.81-2.43 0-4.41 1.98-4.41 4.42 0 2.43 1.98 4.41 4.41 4.41 0.92 0 1.78-0.28 2.48-0.76-0.8 3.58-2.69 5.47-3.93 6.36-1.94 1.37-4.32 1.82-6.2 1.16-1.25-0.43-2.25-1.32-2.83-2.51-0.57-1.19-0.65-2.53-0.21-3.77 0.57-1.65 2.38-2.53 4.03-1.95 1.02 0.35 1.56 1.46 1.2 2.48-0.2 0.57-0.83 0.88-1.41 0.68q-0.2-0.07-0.3-0.27-0.09-0.19-0.02-0.4 0.05-0.1 0.16-0.07c0.4 0.14 0.84-0.08 0.98-0.48 0.14-0.41-0.07-0.85-0.48-0.99-0.42-0.15-0.87-0.12-1.28 0.07-0.4 0.2-0.7 0.54-0.85 0.96-0.18 0.52-0.15 1.09 0.1 1.59 0.24 0.5 0.66 0.87 1.18 1.05 1.39 0.49 2.9-0.25 3.38-1.63 0.64-1.83-0.33-3.82-2.15-4.46-2.46-0.85-5.16 0.45-6.01 2.91-1.18 3.38 0.61 7.08 3.99 8.26 2.36 0.82 5.27 0.29 7.61-1.37 1.5-1.07 3.83-3.38 4.66-7.79v15.82q-0.26-0.51-0.69-0.95c-1.74-1.73-4.81-1.31-4.94-1.3-0.34 0.05-0.61 0.32-0.66 0.66-0.01 0.11-0.29 2.19 0.56 3.9-0.69-0.16-1.32-0.26-1.77-0.26-2.17 0-3.83 2.17-3.9 2.27-0.2 0.27-0.2 0.65 0 0.93 0.07 0.09 1.73 2.27 3.9 2.27 0.45 0 1.08-0.11 1.77-0.26-0.85 1.7-0.57 3.78-0.56 3.89 0.05 0.34 0.32 0.61 0.66 0.66 0.13 0.02 3.2 0.44 4.94-1.3q0.43-0.43 0.69-0.95v15.68c-0.74-4.18-2.74-6.48-4.47-7.71-2.32-1.65-5.3-2.13-7.8-1.26-1.63 0.56-2.95 1.74-3.71 3.3-0.75 1.56-0.85 3.32-0.28 4.96 0.85 2.45 3.55 3.76 6.01 2.9 1.82-0.63 2.79-2.63 2.15-4.45-0.48-1.39-2-2.12-3.38-1.64-1.08 0.38-1.66 1.56-1.28 2.64 0.3 0.87 1.26 1.34 2.13 1.03 0.4-0.14 0.62-0.58 0.48-0.98-0.14-0.41-0.59-0.62-0.99-0.48q-0.11 0.02-0.15-0.08c-0.1-0.27 0.04-0.57 0.32-0.66 0.57-0.2 1.21 0.1 1.41 0.68 0.35 1.01-0.19 2.13-1.2 2.48-1.66 0.57-3.47-0.3-4.04-1.95-0.43-1.25-0.36-2.59 0.22-3.78 0.57-1.19 1.58-2.08 2.82-2.51 2.03-0.71 4.48-0.3 6.39 1.06 1.45 1.03 3.1 2.95 3.8 6.46-0.72-0.5-1.59-0.8-2.53-0.8-2.44 0-4.42 1.98-4.42 4.41 0 2.44 1.98 4.42 4.42 4.42 0.92 0 1.77-0.29 2.48-0.77-0.8 3.59-2.69 5.48-3.94 6.36-1.94 1.38-4.31 1.83-6.2 1.17-1.24-0.43-2.25-1.32-2.82-2.51-0.58-1.19-0.65-2.53-0.22-3.77 0.57-1.66 2.38-2.53 4.03-1.96 1.02 0.36 1.56 1.47 1.21 2.49-0.2 0.57-0.84 0.88-1.41 0.68q-0.21-0.08-0.3-0.27-0.09-0.19-0.03-0.4 0.05-0.1 0.16-0.08c0.4 0.14 0.85-0.07 0.99-0.47 0.14-0.41-0.08-0.85-0.48-0.99-0.42-0.15-0.88-0.12-1.28 0.07-0.4 0.2-0.71 0.54-0.85 0.96-0.19 0.52-0.15 1.09 0.09 1.59 0.24 0.49 0.66 0.87 1.18 1.05 1.39 0.48 2.91-0.25 3.39-1.63 0.63-1.83-0.34-3.83-2.16-4.46-2.46-0.86-5.15 0.45-6.01 2.91-1.18 3.38 0.62 7.08 4 8.26 2.35 0.82 5.27 0.29 7.6-1.37 1.51-1.07 3.84-3.38 4.67-7.79v15.76q-0.27-0.52-0.7-0.95c-1.73-1.73-4.8-1.32-4.94-1.3-0.34 0.05-0.6 0.32-0.65 0.66-0.02 0.11-0.3 2.19 0.55 3.9-0.69-0.16-1.31-0.26-1.76-0.26-2.18 0-3.83 2.17-3.9 2.27-0.21 0.27-0.21 0.65 0 0.93 0.07 0.09 1.72 2.27 3.9 2.27 0.45 0 1.07-0.11 1.76-0.27-0.85 1.71-0.57 3.79-0.55 3.9 0.05 0.34 0.31 0.61 0.65 0.66 0.14 0.02 3.21 0.44 4.94-1.3q0.43-0.44 0.7-0.95v23.65c-0.47-1.03-1.07-1.95-1.74-2.7-2.6-2.9-6.25-3.65-9.75-2.01-3.54 1.66-5.27 5.27-4.11 8.61 0.89 2.56 3.71 3.92 6.27 3.03 1.9-0.66 2.9-2.74 2.24-4.64-0.24-0.69-0.74-1.25-1.4-1.57-0.66-0.32-1.41-0.37-2.1-0.12-0.54 0.18-0.98 0.57-1.23 1.09-0.25 0.51-0.28 1.09-0.09 1.63 0.14 0.41 0.58 0.62 0.98 0.48 0.41-0.14 0.62-0.58 0.48-0.99q-0.08-0.23 0.03-0.45 0.11-0.21 0.34-0.3 0.47-0.16 0.92 0.06 0.44 0.22 0.61 0.68c0.38 1.09-0.2 2.29-1.29 2.66-1.76 0.61-3.68-0.32-4.29-2.07-0.91-2.61 0.44-5.36 3.29-6.69 2.86-1.34 5.82-0.73 7.94 1.64 2.32 2.59 3.57 7.41 0.84 11.9-7.75 12.73-7.33 20.32 1.84 30.88l-4.44 5.15c-0.15 0.17-0.22 0.4-0.18 0.62q0.06 0.35 0.36 0.54 2.49 1.55 4.14 3.05c-5.5 5.84-3.42 11.32-1.68 15.91 0.99 2.58 1.84 4.82 1.19 6.67-1.43 4.13-5.96 6.31-10.08 4.88-2.73-0.95-4.17-3.94-3.23-6.66 0.61-1.76 2.54-2.69 4.3-2.08 1.09 0.38 1.67 1.57 1.29 2.66q-0.17 0.47-0.62 0.69-0.45 0.21-0.92 0.05-0.23-0.08-0.34-0.3-0.1-0.22-0.02-0.45c0.14-0.4-0.07-0.85-0.48-0.99-0.4-0.14-0.85 0.08-0.99 0.48-0.18 0.54-0.15 1.12 0.1 1.64 0.25 0.51 0.68 0.9 1.22 1.09 1.44 0.5 3.01-0.26 3.51-1.7 0.66-1.89-0.35-3.97-2.24-4.63-2.57-0.9-5.38 0.46-6.27 3.03-1.23 3.53 0.65 7.41 4.18 8.63 4.93 1.72 10.34-0.9 12.06-5.83q0.07-0.22 0.13-0.44 0.06 0.22 0.14 0.44c1.71 4.93 7.12 7.55 12.05 5.83 2.8-0.97 4.56-3.6 4.56-6.41q0-1.11-0.38-2.22c-0.89-2.57-3.7-3.93-6.27-3.03-1.89 0.66-2.9 2.74-2.24 4.63 0.5 1.44 2.07 2.2 3.51 1.7 0.54-0.19 0.97-0.58 1.22-1.09 0.25-0.52 0.29-1.1 0.1-1.64-0.14-0.4-0.58-0.62-0.99-0.48-0.4 0.14-0.62 0.59-0.47 0.99q0.07 0.23-0.03 0.45-0.11 0.22-0.34 0.3-0.47 0.16-0.92-0.05-0.44-0.22-0.61-0.69c-0.38-1.09 0.2-2.28 1.29-2.66 1.75-0.61 3.68 0.32 4.29 2.08 0.95 2.72-0.5 5.71-3.22 6.66-4.13 1.43-8.65-0.76-10.09-4.88-0.64-1.85 0.21-4.09 1.19-6.67 1.74-4.59 3.83-10.07-1.67-15.91q1.64-1.5 4.14-3.05 0.3-0.19 0.36-0.53 0.05-0.35-0.17-0.63l-4.39-5.22c9.1-10.53 9.51-18.11 1.77-30.81-2.73-4.49-1.47-9.31 0.85-11.9 2.11-2.37 5.08-2.98 7.93-1.65 2.85 1.34 4.21 4.09 3.3 6.69-0.61 1.76-2.54 2.69-4.29 2.08-1.09-0.38-1.67-1.57-1.29-2.66q0.17-0.46 0.61-0.69 0.45-0.21 0.92-0.05 0.23 0.08 0.34 0.3 0.1 0.22 0.03 0.45c-0.15 0.41 0.07 0.85 0.47 0.99 0.41 0.14 0.85-0.07 0.99-0.48 0.19-0.54 0.15-1.12-0.1-1.64-0.25-0.51-0.68-0.9-1.22-1.09-0.7-0.24-1.44-0.2-2.11 0.13-0.66 0.32-1.16 0.87-1.4 1.57-0.66 1.9 0.35 3.98 2.24 4.64 2.57 0.89 5.38-0.47 6.27-3.04q0.36-1.05 0.36-2.1c0-2.33-1.27-4.56-3.47-5.96 2.08 0.69 4.4 0.74 6.63-0.04 3.84-1.33 5.88-5.54 4.54-9.38-0.46-1.35-1.43-2.43-2.71-3.05-1.28-0.62-2.73-0.7-4.08-0.24-2.04 0.71-3.12 2.95-2.41 5 0.53 1.53 2.22 2.35 3.75 1.81 1.19-0.41 1.82-1.71 1.4-2.9-0.14-0.4-0.58-0.61-0.98-0.47-0.41 0.14-0.62 0.58-0.48 0.98 0.13 0.38-0.07 0.8-0.45 0.93-0.35 0.12-0.73 0.1-1.07-0.06-0.33-0.17-0.58-0.45-0.71-0.8-0.21-0.6-0.17-1.25 0.11-1.82 0.27-0.57 0.76-0.99 1.35-1.2 0.96-0.33 1.98-0.27 2.89 0.17 0.91 0.44 1.6 1.2 1.93 2.16 1.05 3.03-0.56 6.36-3.59 7.41-2.21 0.77-4.6 0.63-6.71-0.39-2.11-1.02-3.69-2.8-4.46-5.02-1.32-3.78-0.56-8.64 1.89-12.08 2.06-2.9 5.06-4.49 8.45-4.49 0.43 0 0.78-0.35 0.78-0.78 0-0.43-0.35-0.78-0.78-0.78-3.39 0-6.39-1.59-8.45-4.49-2.45-3.44-3.21-8.3-1.89-12.08 0.77-2.22 2.35-4 4.46-5.02 2.11-1.02 4.49-1.16 6.71-0.39 1.47 0.51 2.65 1.56 3.33 2.96 0.68 1.4 0.77 2.98 0.26 4.45-0.34 0.96-1.02 1.72-1.93 2.16-0.91 0.44-1.93 0.5-2.89 0.17-0.6-0.21-1.08-0.64-1.35-1.2-0.28-0.57-0.32-1.22-0.11-1.82 0.26-0.72 1.05-1.11 1.78-0.86 0.38 0.13 0.58 0.55 0.45 0.93-0.15 0.4 0.07 0.84 0.48 0.98 0.4 0.14 0.84-0.07 0.98-0.47 0.42-1.19-0.21-2.49-1.4-2.9-1.53-0.54-3.22 0.28-3.75 1.81-0.35 0.99-0.29 2.06 0.17 3 0.46 0.95 1.25 1.65 2.24 2 2.78 0.96 5.82-0.51 6.79-3.29q0.41-1.2 0.41-2.43c0-1.09-0.25-2.18-0.74-3.2-0.8-1.66-2.17-2.93-3.86-3.61 3.6-1.47 5.48-5.53 4.19-9.25-0.97-2.77-4.01-4.25-6.79-3.28-2.04 0.71-3.13 2.95-2.42 4.99 0.54 1.54 2.22 2.35 3.76 1.82 1.19-0.42 1.82-1.71 1.4-2.9-0.14-0.41-0.58-0.62-0.99-0.48-0.4 0.14-0.62 0.58-0.47 0.99 0.13 0.37-0.07 0.79-0.45 0.92-0.35 0.12-0.73 0.1-1.07-0.06-0.33-0.16-0.59-0.45-0.71-0.8-0.21-0.6-0.17-1.24 0.1-1.81 0.28-0.57 0.76-1 1.36-1.21 0.95-0.33 1.98-0.27 2.89 0.17 0.91 0.44 1.59 1.21 1.92 2.16 1.06 3.03-0.55 6.36-3.58 7.41-2.22 0.77-4.6 0.63-6.71-0.39-2.11-1.02-3.7-2.8-4.47-5.01-1.31-3.79-0.55-8.64 1.9-12.09 2.06-2.89 5.06-4.49 8.45-4.49h14.8c0.43 0 0.78-0.35 0.78-0.78v-8.95c2.27 0.36 4.74 0.62 7.25 0.87 5.38 0.56 10.89 1.12 14.69 2.83-1.71-3.79-2.28-9.31-2.83-14.69-0.26-2.51-0.51-4.97-0.88-7.24h8.95c0.43 0 0.78-0.35 0.78-0.78v-14.81c0-3.39 1.59-6.39 4.49-8.45 3.44-2.45 8.3-3.21 12.08-1.89 2.22 0.77 4 2.36 5.02 4.47 1.02 2.11 1.16 4.49 0.39 6.7-1.06 3.04-4.38 4.64-7.41 3.59-0.96-0.33-1.72-1.01-2.16-1.92-0.45-0.91-0.5-1.94-0.17-2.89 0.2-0.6 0.63-1.08 1.2-1.36 0.57-0.27 1.22-0.31 1.81-0.1 0.36 0.12 0.64 0.37 0.8 0.71 0.17 0.34 0.19 0.72 0.07 1.07-0.14 0.38-0.55 0.58-0.93 0.44-0.4-0.14-0.84 0.08-0.98 0.48-0.15 0.41 0.07 0.85 0.47 0.99 1.19 0.41 2.49-0.22 2.9-1.4 0.54-1.54-0.28-3.22-1.82-3.76-2.04-0.71-4.28 0.38-4.99 2.42-0.97 2.78 0.51 5.82 3.29 6.79 3.72 1.29 7.78-0.59 9.24-4.2 0.69 1.7 1.95 3.07 3.61 3.87 1.02 0.49 2.11 0.74 3.21 0.74q1.23 0 2.43-0.41c2.77-0.97 4.25-4.01 3.28-6.79-0.34-0.99-1.05-1.79-1.99-2.24-0.95-0.46-2.01-0.52-3-0.18-1.54 0.54-2.35 2.22-1.82 3.76 0.41 1.18 1.71 1.81 2.9 1.4 0.41-0.14 0.62-0.58 0.48-0.99-0.14-0.4-0.58-0.62-0.99-0.47-0.37 0.13-0.79-0.07-0.92-0.45-0.25-0.73 0.13-1.53 0.86-1.78 0.6-0.21 1.24-0.17 1.81 0.1 0.57 0.28 1 0.76 1.21 1.36 0.33 0.95 0.27 1.98-0.17 2.89-0.44 0.91-1.21 1.59-2.16 1.92-1.47 0.52-3.05 0.42-4.45-0.25-1.4-0.68-2.45-1.86-2.96-3.33-0.77-2.22-0.64-4.6 0.39-6.71 1.02-2.11 2.8-3.7 5.01-4.47 3.79-1.31 8.64-0.55 12.09 1.9 2.89 2.06 4.49 5.06 4.49 8.45 0 0.43 0.35 0.77 0.78 0.77 0.43 0 0.77-0.35 0.77-0.77 0-3.39 1.6-6.39 4.5-8.45 3.44-2.45 8.29-3.21 12.08-1.9 2.21 0.77 3.99 2.36 5.02 4.47 1.02 2.11 1.15 4.49 0.39 6.71-1.06 3.03-4.38 4.64-7.42 3.58-0.95-0.33-1.72-1.01-2.16-1.92-0.44-0.91-0.5-1.93-0.17-2.89 0.21-0.6 0.64-1.08 1.21-1.35 0.57-0.28 1.21-0.32 1.81-0.11 0.35 0.12 0.64 0.38 0.8 0.71 0.16 0.34 0.18 0.72 0.06 1.07-0.13 0.38-0.54 0.58-0.92 0.45-0.41-0.15-0.85 0.07-0.99 0.48-0.14 0.4 0.08 0.84 0.48 0.98 1.19 0.42 2.49-0.22 2.9-1.4 0.54-1.53-0.28-3.22-1.82-3.76-2.04-0.71-4.28 0.38-4.99 2.42-0.47 1.35-0.39 2.79 0.24 4.08 0.62 1.28 1.7 2.24 3.04 2.71 3.84 1.34 8.06-0.7 9.39-4.54 0.78-2.23 0.73-4.55 0.04-6.63 1.4 2.19 3.63 3.47 5.95 3.47q1.06 0 2.11-0.36c2.56-0.89 3.92-3.7 3.03-6.27-0.66-1.89-2.74-2.9-4.63-2.24-0.7 0.24-1.26 0.74-1.58 1.4-0.32 0.67-0.36 1.41-0.12 2.11 0.19 0.54 0.57 0.97 1.09 1.22 0.51 0.25 1.1 0.29 1.64 0.1 0.4-0.14 0.61-0.59 0.47-0.99-0.14-0.4-0.58-0.62-0.98-0.48q-0.23 0.08-0.45-0.02-0.22-0.11-0.3-0.34-0.16-0.47 0.05-0.92 0.22-0.45 0.69-0.61c1.09-0.38 2.28 0.2 2.66 1.28 0.61 1.76-0.32 3.69-2.08 4.3-2.6 0.9-5.36-0.45-6.69-3.3-1.33-2.85-0.72-5.82 1.64-7.94 2.59-2.32 7.42-3.57 11.9-0.84 12.7 7.73 20.29 7.33 30.82-1.78l5.22 4.39q0.27 0.22 0.62 0.18 0.35-0.07 0.54-0.36 1.54-2.5 3.05-4.14c5.84 5.5 11.32 3.41 15.9 1.67 2.59-0.98 4.82-1.83 6.68-1.19 4.12 1.44 6.31 5.96 4.88 10.09-0.95 2.72-3.94 4.16-6.66 3.22-1.76-0.61-2.69-2.54-2.08-4.3 0.38-1.08 1.57-1.66 2.66-1.28q0.46 0.17 0.69 0.61 0.21 0.45 0.05 0.92-0.08 0.23-0.3 0.34-0.22 0.1-0.45 0.02c-0.41-0.14-0.85 0.08-0.99 0.48-0.14 0.41 0.07 0.85 0.48 0.99 0.54 0.19 1.12 0.15 1.64-0.1 0.51-0.25 0.9-0.68 1.09-1.22 0.5-1.44-0.27-3.01-1.7-3.51-1.9-0.66-3.98 0.34-4.64 2.24-0.89 2.57 0.47 5.38 3.04 6.27q1.11 0.38 2.22 0.38c2.81 0 5.44-1.76 6.41-4.56 1.72-4.93-0.9-10.34-5.83-12.06q-0.22-0.07-0.45-0.13 0.23-0.06 0.45-0.13c4.94-1.72 7.56-7.13 5.85-12.07zm-222.2 52.34c-1.58 0-2.86-1.28-2.86-2.86 0-1.58 1.28-2.86 2.86-2.86 1.58 0 2.86 1.28 2.86 2.85q0 0.01 0 0.01c0 1.58-1.28 2.86-2.86 2.86zm-3.39 22.41c-0.91 0-1.76-0.7-2.24-1.19 0.52-0.52 1.38-1.18 2.24-1.18 0.92 0 3.04 0.62 4.77 1.18-1.73 0.57-3.85 1.19-4.77 1.19zm5.7 3.45c-0.81 0.81-2.2 0.91-3 0.9-0.01-0.81 0.09-2.2 0.9-3.01 0.81-0.81 2.2-0.91 3-0.89 0.01 0.8-0.09 2.19-0.9 3zm0.9-6.27c-0.8 0.02-2.19-0.09-3-0.9-0.81-0.81-0.92-2.19-0.89-3 0.8-0.01 2.19 0.09 3 0.9 0.8 0.81 0.91 2.2 0.89 3zm-3.21 28.58c-1.58 0-2.86-1.28-2.86-2.86 0-1.58 1.28-2.86 2.86-2.86 1.58 0 2.86 1.28 2.86 2.85q0 0.01 0 0.01c0 1.58-1.28 2.86-2.86 2.86zm-3.39 22.35c-0.91 0-1.76-0.7-2.24-1.19 0.52-0.53 1.38-1.18 2.24-1.18 0.92 0 3.04 0.62 4.77 1.18-1.73 0.57-3.85 1.19-4.77 1.19zm5.7 3.45c-0.81 0.81-2.2 0.91-3 0.89-0.01-0.79 0.09-2.19 0.9-3 0.81-0.81 2.2-0.91 3-0.9 0.01 0.8-0.09 2.2-0.9 3.01zm0.9-6.27c-0.8 0.02-2.19-0.09-3-0.9-0.81-0.81-0.92-2.2-0.89-3 0.8-0.02 2.19 0.09 3 0.9 0.8 0.81 0.91 2.2 0.89 3zm113.68-112.52c0.81-0.81 2.21-0.91 3-0.9 0.02 0.8-0.08 2.2-0.89 3.01-0.82 0.81-2.21 0.9-3.01 0.9-0.01-0.81 0.09-2.2 0.9-3.01zm-8.06-0.89c0.8-0.03 2.19 0.08 3 0.89 0.81 0.81 0.91 2.2 0.9 3-0.81 0.02-2.19-0.09-3-0.89-0.81-0.81-0.92-2.2-0.9-3zm-40.05 0.89c0.81-0.81 2.2-0.91 3-0.9 0.02 0.8-0.09 2.2-0.89 3.01-0.81 0.81-2.21 0.9-3 0.9-0.02-0.81 0.08-2.2 0.89-3.01zm-8.06-0.89c0.8-0.03 2.19 0.08 3 0.89 0.81 0.81 0.92 2.2 0.9 3-0.8 0.02-2.19-0.09-3-0.89-0.81-0.81-0.92-2.2-0.9-3zm-21.41 0.68c0-1.57 1.28-2.86 2.86-2.86 1.58 0 2.86 1.29 2.86 2.86 0 1.58-1.28 2.86-2.86 2.87q0 0-0.01 0c-1.57-0.01-2.85-1.29-2.85-2.87zm-24.77 39.13c-2.31-1.67-3.64-4.01-3.64-6.42l-0.01-21.81h21.82c2.4 0 4.75 1.33 6.42 3.64 1.97 2.73 2.66 6.27 1.75 9.02-0.57 1.71-1.76 3.09-3.37 3.9-1.6 0.8-3.42 0.94-5.13 0.37-1.11-0.37-2.02-1.15-2.55-2.2-0.52-1.05-0.61-2.24-0.24-3.36 0.48-1.47 2.07-2.26 3.54-1.78 0.88 0.3 1.37 1.26 1.07 2.14-0.16 0.49-0.69 0.76-1.17 0.59q-0.16-0.05-0.24-0.2-0.07-0.15-0.02-0.3c0.14-0.41-0.09-0.85-0.49-0.98-0.41-0.14-0.85 0.08-0.98 0.49-0.17 0.49-0.13 1.02 0.11 1.49 0.23 0.47 0.63 0.81 1.13 0.98 0.63 0.21 1.3 0.16 1.89-0.14 0.6-0.3 1.04-0.81 1.24-1.44 0.57-1.7-0.36-3.54-2.06-4.1-2.28-0.75-4.74 0.49-5.5 2.77-0.5 1.51-0.38 3.12 0.34 4.54 0.71 1.42 1.94 2.48 3.45 2.98q1.29 0.42 2.6 0.42c1.28 0 2.54-0.3 3.71-0.88q0.26-0.14 0.5-0.29c5.04 0.16 6.38 6.45 7.79 13.12 0.46 2.15 0.92 4.33 1.52 6.35-2.01-0.6-4.2-1.07-6.35-1.52-6.67-1.41-12.96-2.75-13.11-7.79q0.15-0.24 0.28-0.5c0.59-1.17 0.89-2.44 0.89-3.71q0-1.32-0.43-2.6c-0.5-1.51-1.55-2.74-2.97-3.45-1.42-0.72-3.04-0.84-4.55-0.34-2.28 0.76-3.52 3.22-2.77 5.5 0.57 1.7 2.41 2.62 4.11 2.06 0.62-0.21 1.14-0.65 1.43-1.24 0.3-0.59 0.35-1.26 0.14-1.89-0.16-0.5-0.51-0.9-0.98-1.14-0.46-0.23-0.99-0.27-1.49-0.1-0.4 0.13-0.63 0.57-0.49 0.98 0.13 0.4 0.57 0.62 0.98 0.49q0.16-0.05 0.31 0.02 0.14 0.08 0.2 0.23c0.16 0.49-0.11 1.02-0.59 1.18-0.89 0.29-1.85-0.19-2.14-1.08-0.49-1.46 0.31-3.05 1.78-3.53 1.11-0.37 2.3-0.29 3.36 0.24 1.05 0.53 1.83 1.44 2.2 2.55 0.56 1.71 0.43 3.53-0.38 5.13-0.81 1.61-2.19 2.8-3.89 3.36-2.75 0.91-6.29 0.23-9.02-1.75zm-8.32 169.5c-0.54 1.43-1.07 2.82-1.34 4.15-0.26-1.33-0.79-2.72-1.33-4.15-1.65-4.32-3.46-9.09 1.33-14.26 4.8 5.17 2.98 9.94 1.34 14.26zm2.35-19.25q-2.17 1.41-3.69 2.8-1.51-1.39-3.67-2.79l3.73-4.32zm-2.18-35.55c7.34 12.06 7.03 18.93-1.5 28.86-8.54-9.93-8.85-16.8-1.51-28.86 0.75-1.23 1.23-2.49 1.51-3.73 0.27 1.24 0.75 2.5 1.5 3.73zm7.33-35.1c-2.77 3.9-3.59 9.19-2.09 13.49 0.81 2.34 2.38 4.2 4.34 5.4-3.12-0.98-6.26-0.11-8.57 2.47-0.67 0.75-1.27 1.67-1.74 2.7v-27.71h6.35l-3.79 3.79c-0.31 0.3-0.31 0.79 0 1.1 0.3 0.3 0.79 0.3 1.09 0l4.73-4.73q0.07-0.07 0.11-0.16h3.55c-1.52 0.86-2.87 2.09-3.98 3.65zm-2.09-22.23c-1.5 4.3-0.68 9.59 2.09 13.49 1.06 1.49 2.35 2.68 3.79 3.54h-3.41q-0.03-0.05-0.06-0.09l-4.73-4.73c-0.3-0.3-0.79-0.3-1.09 0-0.31 0.31-0.31 0.8 0 1.1l3.71 3.72h-6.27v-22.54h10.49c-2.12 1.24-3.71 3.17-4.52 5.51zm2.09-25.94c-2.77 3.9-3.59 9.19-2.09 13.5 0.81 2.33 2.37 4.18 4.33 5.38h-10.3v-22.47h5.88l-3.32 3.32c-0.31 0.3-0.31 0.8 0 1.1 0.3 0.3 0.79 0.3 1.09 0l4.42-4.42h3.87c-1.48 0.86-2.8 2.07-3.88 3.59zm0.32-5.14q0 0 0 0l-4.73-4.73c-0.3-0.3-0.79-0.3-1.09 0-0.31 0.3-0.31 0.79 0 1.1l3.63 3.63h-6.19v-22.47h10.28c-2.01 1.24-3.53 3.12-4.32 5.38-1.49 4.3-0.67 9.6 2.1 13.49 1.08 1.53 2.4 2.74 3.88 3.6zm23.43 0h-14.04c-3.38 0-6.38-1.6-8.45-4.5-2.44-3.44-3.2-8.3-1.89-12.08 0.77-2.21 2.36-4 4.47-5.02 2.11-1.02 4.49-1.16 6.7-0.39 1.47 0.51 2.66 1.57 3.33 2.97 0.68 1.4 0.77 2.98 0.26 4.45-0.33 0.95-1.02 1.72-1.92 2.16-0.91 0.44-1.94 0.5-2.89 0.17-0.6-0.21-1.08-0.64-1.36-1.21-0.28-0.57-0.31-1.21-0.1-1.81 0.25-0.73 1.05-1.12 1.78-0.87q0.28 0.11 0.41 0.37 0.13 0.27 0.03 0.56c-0.14 0.4 0.08 0.85 0.48 0.99 0.41 0.14 0.85-0.08 0.99-0.48 0.2-0.58 0.16-1.19-0.1-1.74-0.27-0.55-0.73-0.96-1.3-1.16-1.54-0.53-3.22 0.28-3.76 1.82-0.34 0.98-0.28 2.05 0.17 2.99 0.46 0.95 1.26 1.66 2.25 2 2.41 0.84 5.03-0.17 6.31-2.27 1.33 2.52 4.56 3.8 8.62 4.6 0 0 0 8.45 0.01 8.45zm20.96-6.99c-3.58-0.99-7.83-1.42-12.01-1.85-8.58-0.88-16.69-1.71-16.69-7.06q-0.01-0.05-0.02-0.09 0.02-0.25 0.02-0.5c0-1.1-0.25-2.19-0.74-3.21-0.84-1.73-2.29-3.04-4.1-3.7q1.33-0.61 2.35-1.62c1.3 4.9 7.79 6.29 14.11 7.62 3.3 0.7 6.67 1.41 9.28 2.61-1.2-2.61-1.91-5.98-2.61-9.28-1.33-6.32-2.72-12.81-7.62-14.11q1.01-1.02 1.62-2.35c0.66 1.81 1.97 3.26 3.7 4.1 1.02 0.49 2.11 0.74 3.21 0.74q0.25 0 0.5-0.02 0.04 0.01 0.09 0.02c5.35 0 6.18 8.11 7.06 16.69 0.43 4.17 0.87 8.43 1.85 12.01zm6.99-20.97h-8.45c-0.79-4.06-2.07-7.29-4.6-8.62 2.11-1.28 3.12-3.9 2.28-6.31-0.35-0.99-1.06-1.79-2-2.25-0.94-0.45-2.01-0.52-3-0.17-1.53 0.53-2.35 2.22-1.81 3.76 0.19 0.57 0.61 1.03 1.15 1.3 0.55 0.26 1.17 0.3 1.74 0.1 0.41-0.14 0.62-0.59 0.48-0.99-0.14-0.4-0.58-0.62-0.99-0.48q-0.28 0.09-0.55-0.03-0.27-0.13-0.37-0.41c-0.25-0.73 0.13-1.53 0.86-1.78 0.6-0.21 1.24-0.17 1.81 0.1 0.58 0.27 1 0.76 1.21 1.36 0.33 0.95 0.27 1.98-0.17 2.89-0.44 0.9-1.21 1.59-2.16 1.92-1.47 0.51-3.05 0.42-4.45-0.26-1.4-0.67-2.45-1.86-2.96-3.33-0.77-2.21-0.63-4.59 0.39-6.7 1.02-2.11 2.8-3.7 5.02-4.47 3.78-1.31 8.63-0.55 12.08 1.89 2.9 2.06 4.49 5.06 4.49 8.45 0 0 0 14.03 0 14.03zm0-25.62l-3.63-3.63c-0.3-0.3-0.79-0.3-1.1 0-0.3 0.31-0.3 0.8 0 1.1l4.73 4.73v3.56c-0.86-1.49-2.07-2.8-3.59-3.88-3.9-2.77-9.19-3.6-13.49-2.1-2.27 0.79-4.15 2.3-5.39 4.32v-10.28h22.47c0 0 0 6.18 0 6.18zm0.84-10.46c-0.57-1.73-1.19-3.85-1.19-4.77 0-0.86 0.66-1.72 1.18-2.24 0.49 0.48 1.19 1.33 1.19 2.24 0 0.92-0.62 3.04-1.18 4.77zm23.19 14.57c-1.21-1.95-3.06-3.52-5.39-4.33-4.3-1.49-9.6-0.67-13.49 2.1-1.53 1.08-2.74 2.4-3.6 3.88v-3.87l4.42-4.42c0.3-0.3 0.3-0.79 0-1.1-0.3-0.3-0.79-0.3-1.1 0l-3.32 3.33v-5.88h22.47c0 0 0 10.29 0.01 10.29zm0.88-13.09c-1.57 0-2.85-1.28-2.85-2.86 0-1.58 1.28-2.86 2.86-2.86 1.58 0 2.86 1.28 2.86 2.86 0 1.58-1.28 2.86-2.86 2.86q0 0-0.01 0zm23.2 9.07l-3.71-3.72c-0.31-0.3-0.8-0.3-1.1 0-0.3 0.31-0.3 0.8 0 1.1l4.73 4.73q0.04 0.03 0.08 0.05v3.42c-0.86-1.45-2.04-2.73-3.54-3.79-3.89-2.77-9.19-3.59-13.49-2.1-2.34 0.82-4.26 2.41-5.5 4.52v-10.48h22.53zm0.83-10.55c-0.56-1.73-1.18-3.85-1.18-4.77 0-0.86 0.66-1.72 1.18-2.24 0.49 0.48 1.19 1.33 1.19 2.24 0 0.92-0.62 3.04-1.19 4.77zm25.73 6.02c-2.57 2.31-3.45 5.44-2.46 8.57-1.21-1.96-3.07-3.53-5.4-4.35-4.3-1.49-9.6-0.67-13.49 2.1-1.56 1.11-2.79 2.46-3.66 3.98v-3.55q0.09-0.05 0.16-0.11l4.73-4.73c0.3-0.3 0.3-0.79 0-1.1-0.3-0.3-0.79-0.3-1.1 0l-3.79 3.8v-6.35h27.72c-1.04 0.47-1.95 1.06-2.71 1.74zm13.74-1.01c-1.23-0.75-2.49-1.24-3.73-1.51 1.24-0.27 2.5-0.75 3.73-1.5 12.07-7.34 18.93-7.03 28.86 1.5-9.93 8.54-16.79 8.85-28.86 1.51zm35.56 2.17l-4.32-3.62 4.32-3.73q1.41 2.16 2.79 3.67-1.39 1.52-2.79 3.68zm19.24-2.34c-4.32 1.64-9.09 3.46-14.26-1.34 5.17-4.79 9.95-2.98 14.26-1.33 1.43 0.54 2.82 1.07 4.16 1.33-1.34 0.27-2.73 0.8-4.16 1.34z"/>
	<path class="s0" d="m47.78 38.57q0.34 0 0.58-0.26c0.09-0.1 2.2-2.5 2.2-5.53 0-3.03-2.11-5.43-2.2-5.53-0.3-0.33-0.87-0.33-1.16 0-0.09 0.1-2.2 2.5-2.2 5.53 0 3.03 2.11 5.43 2.2 5.53q0.23 0.26 0.58 0.26zm0-9.5c0.53 0.81 1.23 2.18 1.23 3.71 0 1.52-0.71 2.89-1.23 3.71-0.53-0.81-1.23-2.18-1.23-3.71 0-1.52 0.7-2.89 1.23-3.71z"/>
	<path class="s0" d="m66.78 50.55q0.25 0 0.47-0.16c0.09-0.07 2.27-1.72 2.27-3.9 0-2.17-2.18-3.83-2.27-3.9-0.28-0.2-0.66-0.2-0.93 0-0.09 0.07-2.27 1.73-2.27 3.9 0 2.18 2.18 3.83 2.27 3.9q0.21 0.16 0.46 0.16zm-1.18-4.06c0-0.85 0.65-1.71 1.18-2.24 0.49 0.49 1.18 1.34 1.18 2.24 0 0.86-0.65 1.72-1.18 2.25-0.48-0.49-1.18-1.34-1.18-2.25z"/>
	<path class="s0" d="m210.4 53.87c-0.2 0.28-0.2 0.66 0 0.93 0.14 0.18 3.34 4.39 7.44 4.39 4.11 0 7.31-4.21 7.45-4.39 0.2-0.27 0.2-0.65 0-0.93-0.14-0.18-3.34-4.38-7.45-4.38-4.1 0-7.3 4.21-7.44 4.38zm13.26 0.47c-0.89 1.01-3.2 3.3-5.82 3.3-2.6 0-4.92-2.29-5.81-3.3 0.89-1.01 3.2-3.3 5.81-3.3 2.61 0 4.93 2.29 5.82 3.3z"/>
	<path class="s0" d="m71.72 66.87h-4.85v4.85c0 0.43 0.35 0.77 0.78 0.77h4.84v-4.84c0-0.43-0.34-0.78-0.77-0.78zm-3.3 4.07v-2.52h2.52v2.52z"/>
	<path class="s0" d="m75.6 62.8c0-0.43-0.35-0.78-0.78-0.78h-8.63c-0.43 0-0.77 0.35-0.77 0.78v2.52h-0.1v0.1h-2.52c-0.43 0-0.78 0.34-0.78 0.77v8.63c0 0.43 0.35 0.78 0.78 0.78h12.8zm-12.03 11.25v-7.08h2.52c0.24 0 0.45-0.12 0.59-0.29 0.17-0.14 0.29-0.35 0.29-0.59v-2.52h7.08v10.48z"/>
	<path class="s0" d="m82.69 34.34c0.04 0.01 0.36 0.06 0.84 0.06 0.95 0 2.5-0.18 3.52-1.21 1.54-1.54 1.17-4.25 1.15-4.36-0.05-0.34-0.31-0.61-0.65-0.66-0.12-0.01-2.83-0.38-4.37 1.15-1.53 1.54-1.17 4.25-1.15 4.37 0.05 0.34 0.32 0.61 0.66 0.65zm1.59-3.92c0.61-0.61 1.68-0.75 2.42-0.75 0 0.75-0.14 1.82-0.75 2.43-0.6 0.6-1.68 0.75-2.42 0.75 0-0.75 0.14-1.82 0.75-2.43z"/>
	<path class="s0" d="m53.97 53.98l3.2-3.2c0.31-0.31 0.31-0.8 0-1.1l-2.83-2.84c-0.31-0.3-0.8-0.3-1.1 0l-3.2 3.2-3.2 3.2c-0.3 0.3-0.3 0.8 0 1.1l2.84 2.83c0.3 0.31 0.79 0.31 1.09 0zm-5.48-0.18l2.65-2.65 2.65-2.65 1.74 1.73-2.66 2.66-2.65 2.65z"/>
	<path class="s0" d="m32.78 50.56c3.03 0 5.43-2.11 5.53-2.2q0.26-0.24 0.26-0.58 0-0.35-0.26-0.58c-0.1-0.09-2.5-2.2-5.53-2.2-3.03 0-5.43 2.11-5.53 2.2-0.33 0.29-0.33 0.86 0 1.16 0.1 0.09 2.5 2.2 5.53 2.2zm0-4.01c1.53 0 2.9 0.7 3.71 1.23-0.82 0.53-2.19 1.23-3.71 1.23-1.53 0-2.9-0.7-3.71-1.23 0.82-0.53 2.19-1.23 3.71-1.23z"/>
	<path class="s0" d="m48.55 48.55c-0.13-8.08-2.42-15.75-17.48-17.48 1.73 15.06 9.4 17.35 17.48 17.48zm-1.61-1.6c-6.26-0.33-12.16-2.36-14.06-14.06 11.71 1.9 13.73 7.79 14.06 14.06z"/>
	<path class="s0" d="m46.49 64.05c-2.17 0-3.83 2.18-3.9 2.27-0.2 0.27-0.2 0.65 0 0.93 0.07 0.09 1.73 2.27 3.9 2.27 2.18 0 3.83-2.18 3.9-2.27q0.16-0.22 0.16-0.47 0-0.25-0.16-0.46c-0.07-0.09-1.72-2.27-3.9-2.27zm0 3.92c-0.9 0-1.75-0.7-2.24-1.19 0.53-0.52 1.38-1.18 2.24-1.18 0.91 0 1.76 0.7 2.25 1.19-0.53 0.52-1.39 1.18-2.25 1.18z"/>
	<path class="s0" d="m53.87 210.4c-0.18 0.14-4.38 3.34-4.38 7.45 0 4.1 4.2 7.3 4.38 7.44 0.28 0.2 0.66 0.2 0.93 0 0.18-0.14 4.39-3.34 4.39-7.44 0-4.11-4.21-7.31-4.39-7.45-0.27-0.2-0.65-0.2-0.93 0zm3.77 7.45c0 2.62-2.29 4.92-3.3 5.81-1.01-0.89-3.3-3.2-3.3-5.81 0-2.61 2.29-4.93 3.3-5.82 1.01 0.89 3.3 3.21 3.3 5.82z"/>
	<path class="s0" d="m34.34 82.69c-0.05-0.34-0.31-0.61-0.66-0.66-0.11-0.01-2.82-0.38-4.36 1.15-1.54 1.54-1.17 4.25-1.15 4.37 0.05 0.34 0.32 0.61 0.66 0.66 0.11 0.01 2.82 0.38 4.36-1.16 1.03-1.02 1.2-2.57 1.2-3.52 0-0.47-0.04-0.8-0.05-0.84zm-2.25 3.27c-0.6 0.6-1.68 0.75-2.42 0.75 0-0.75 0.14-1.82 0.75-2.43 0.61-0.61 1.68-0.75 2.42-0.75 0 0.74-0.14 1.82-0.75 2.43z"/>
	<path class="s0" d="m91.12 91.12c-0.69-4.38-2.28-7.57-4.73-9.49-1.86-1.44-4.19-2.08-6.57-1.81-0.27 2.38 0.37 4.71 1.81 6.57 1.92 2.45 5.11 4.04 9.49 4.73zm-5.69-8.26q2.57 2.01 3.7 6.27-4.26-1.12-6.27-3.7c-1.11-1.42-1.47-2.91-1.54-4.11 1.2 0.07 2.69 0.43 4.11 1.54z"/>
</svg>