<svg version="1.2" xmlns="http://www.w3.org/2000/svg" viewBox="0 0 300 300" width="300" height="300"><style></style><path  d="m69.6 207.5c3.4-4-7.1-3.2-7.2-7.3 0-6 0.9-12.8 7.2-15.5 2.7-1.2 15.9-2 8.5-7.8-2.8-2.2-4.7-6.4-8.9-6.3-1.8 0.1-4.9 3.5-6.8 1.4-3.1-3.5 7.8-10.4 9.9-11.4 8.1-4.2 24.8-7.5 27.7 5.5 0.7 3-10.7 2.6-9.9 9.6 0.7 5.4 8.2 9 12.7 6.2 8.7-5.3 9.2-14.6 4.6-22.7-6.6-11.7-30.6-19.3-45.4 0.5-5.2 7-2.3-2.4-4-5.9-2.5-5.3-8.2 7.6-8.7 8.7-2.6 5-2.7 10.6-2.7 16.1 0 10.9 4 19 7 29.3 0.4 1.3 6.4 14.9 1 9.7-4.7-4.5-10-7.6-16.3-8.9-8.7-1.8-24.2 5.2-19.4 17 2.5 6.1 9.1 6.6 8.7-0.8-0.5-9.5 6.5-9.9 5.6-6.3-0.6 2.6 1.2 11.6 5 6.6 4-5.3 8-4.7 13.3-1.1 5.3 3.7 9.4 12 9.2 18.5-0.1 3.8-8.4 18.4-16.7 19.9-7.5 1.4-4.7-8.6-3.1-11.7 3.2-6 8.4-7.4 13.3-11.5 5.9-5-6-3.9-7.7-3.4-10.7 3.7-19.2 12.3-19.2 23.8 0 13.5 11.6 18.7 24.8 10.9 8.6-5 15.4-16.3 12.8-38.2-1-8.7-1.3-17.8 4.7-24.9z"/><path  d="m81.4 240.1c5 2 9.9 4.1 15 6 23.7 9.1 39.6-1.5 43.2-4.6 4.9-4.1-0.7-6.4-4.6-4.9-5.4 2.1-6.9-0.4-2.1-3.8 5.2-3.8 7.3-7.1 10.1-12.9 4.6-9.5 4.3-22.6-3.3-30.7-6.3-6.7-16.9-10.7-24.7-3.4-7.6 7.1-0.1 23.6 7.8 15.7 2.5-2.6 0.4-11.5 7.1-7 5.1 3.5 6.6 9.3 6.6 15.1 0 6.7-2.9 11.3-6.5 16.8-2.2 3.4-9.9 9.2-6.7 0.9 1.9-5.1-4.1-9.8-7.8-12.4-4.8-3.3-4.9 9.9-6 11.8-3 5.2-7.5 5.4-12.6 7-6.6 2.1-2.3-4.7-5.3-7.2-2.9-2.4-7.6 3.6-10.3 4.8-4.1 1.8-9.6-1.2-12.6 3-6.7 9.5 16.5 14.2 6 25.5-3.4 3.6-1.8 8 3.6 7.2 7.4-1.2 3.3 3.7-1.3 4.5-14.7 2.7-1.8 16.9 9 7 7.7-7.1 4-20.4-0.8-27.7-0.8-1.1-10.6-13.4-3.8-10.7z"/><path  d="m104.9 141.1c2.7-0.1 13.4 5.4 12.4 18.9-0.3 3.2-4 16.7-1.3 17.7 2.3 0.8 6.6-1.6 8.8-2.3 3.7-1.3 8.7-1.3 12.6-0.6 5.2 0.9 14.5 6.8 13 13.2-0.7 2.8-3.5 7 2.1 7.2 2.4 0.1 4.8-1.7 6-3.7 2.7-4.4 1.8-10-0.7-14.1-3.9-6.3-10.8-9.5-18-9.6-7.2-0.2 0.4-3.5 1.9-4.1 3.4-1.4 13.7-5.6 8.7-10.8-4.6-4.6 7.4-11.2 0.8-16-5.4-3.9-9.3 7.9-15.1 3.6-5.3-3.9-8.3 8.4-9.1 11.1-2.3 7.4-4.7-6.8-6.2-9.3-3.2-5.9-7.4-10.5-14.3-10.5 0-0.3-13 0-9.1 10.1 0.6 1.5 4.2-0.7 7.5-0.8z"/><path  d="m106.5 131.8c0 0 0.9 0 0 0z"/><path  d="m95.8 208.6c4-2.9 5.8 5 9.7 4.3 4.8-0.8 7.2-5.2 3.2-8.6-5-4.1-2.7-8.2-2.6-13.5 0 0.2 0 1.3 0 0 0-5.7-7.2-2.7-10.8-2.5-3.5 0.1-8.5-6.2-11.4-3.9-3.9 3.1-1.5 8.2 1.7 10.9 3 2.5 1.4 9 0.2 12.4-2.6 7.3 8.4 2 10 0.9z"/><path  d="m77.7 215.3c-1.8 1.7-6.4 3.5-6.3 6.6 0.4 8.3 11.6-1.4 11.5-7-0.6-6.7-2.7-2.1-5.2 0.4z"/><path  d="m35.4 201.1q0.7 0 1.4 0v-183.1h-9.4v184.3c2.7-0.8 5.5-1.2 8-1.2z"/><path  d="m97.3 262.2c0.6 3.1 0.7 6.3 0.2 9.4h183.8v-9.4z"/></svg>