<svg version="1.2" xmlns="http://www.w3.org/2000/svg" viewBox="0 0 300 300" width="300" height="300">
	<style>
		.s0 { fill: #b6a893 } 
	</style>
	<path class="s0" d="m149.64 55.56c5.07 1.83 10.22 1.85 15.51 2.36 0.09 0.01 0.11-0.14 0.02-0.16-10.97-1.83-19.4-7.36-27.06-15.18-2.66-2.71-6.48 1.82-3.28 4.25 4.59 3.47 9.36 6.75 14.81 8.73z"/>
	<path class="s0" d="m165.13 54.13c0.1 0.02 0.14-0.12 0.04-0.15-3.57-0.99-6.84-3.66-9.41-6.22-1.2-1.2-2.33-2.48-3.26-3.9-0.87-1.32-1.18-2.21-2.9-2.46-1.04-0.15-2.39 0.24-2.6 1.48q-0.05 0.25-0.09 0.51c-0.16 0.91-0.08 2 0.7 2.64 5.29 4.36 10.78 6.9 17.52 8.1z"/>
	<path class="s0" d="m162.04 50.16c1.52 1.3 3.1 2.36 4.88 3.23 0.07 0.04 0.15-0.03 0.11-0.1-0.8-1.38-1.56-2.89-2.2-4.35-0.67-1.52-0.87-2.85-1.07-4.45-0.5-3.96-6.14-3.27-5.46 0.74 0.34 1.95 2.31 3.7 3.74 4.93z"/>
	<path class="s0" d="m195.95 58.9c-11.34 7.4-24.3 11.31-37.83 11.65-0.1 0-0.09 0.14 0 0.15 13.95 1.31 27.7-1.47 40.2-7.76 2.68-1.35 0.17-5.69-2.37-4.04z"/>
	<path class="s0" d="m155.73 73.28c9.32 2.74 18.17 4.6 27.95 4.05 1.05-0.06 2.16-0.73 2.4-1.83 0.19-0.85 0.15-1.15-0.25-1.92-0.54-1.05-1.75-1.33-2.81-1.15-8.83 1.51-18.36 2.25-27.24 0.7-0.1-0.02-0.14 0.12-0.05 0.15z"/>
	<path class="s0" d="m153.96 75.58c4.53 3.61 10.16 7.29 16.13 7.56 2.49 0.12 2.74-3.42 0.57-4.16-5.27-1.8-11.17-2.09-16.55-3.64-0.14-0.04-0.26 0.15-0.15 0.24z"/>
	<path class="s0" d="m84.35 58.61c-10.95-0.3-22.13-2.36-30.92-9.43-0.08-0.06-0.18 0.04-0.11 0.11 8.74 8.33 18.75 14.92 31.03 16.18 4.33 0.45 4.49-6.74 0-6.86z"/>
	<path class="s0" d="m82.39 50.09c-9.8-0.14-19.51-0.37-28.56-4.75-0.09-0.04-0.17 0.08-0.08 0.14 8.66 5.42 18.14 10.3 28.64 10.46 3.76 0.06 3.77-5.79 0-5.85z"/>
	<path class="s0" d="m80.23 48.06c5.15-1.72 0.94-9.26-3.27-5.61-2.49 2.15-7.29 1.92-10.41 1.93-3.66 0.01-7.36-0.27-10.92-1.17-0.1-0.02-0.14 0.12-0.04 0.15 4.38 1.7 8.67 3.33 13.32 4.16 3.62 0.65 7.74 1.75 11.32 0.54z"/>
	<path class="s0" d="m99.83 105.57c-0.24-1.14-0.51-2.25-0.88-3.36-1.08-3.31-2.52-6.52-4.56-9.35-5.33-7.39-13.24-9.43-21.35-11.87 2.43 8.12 4.48 16.03 11.86 21.35 2.83 2.04 6.04 3.49 9.35 4.57 1.11 0.37 2.22 0.63 3.37 0.88 0.47 0.1 2.3 0.63 1.83 0.38q0.56 0.29 1.08 0.31-0.03-0.52-0.31-1.07c0.24 0.47-0.28-1.36-0.39-1.84zm-11.29-5.72c-7.14-3.49-10.43-10.27-13.7-17.06 6.79 3.27 13.56 6.57 17.06 13.7 0.74 1.53 1.18 3.2 1.54 4.9-1.7-0.36-3.38-0.79-4.9-1.54z"/>
	<path class="s0" d="m106.25 108.77c-0.09-2 0.26-3.95 0.34-5.94 0.1-2.6-0.23-5.18-1.8-7.18 3.22-3.46 2.3-8.49-1.39-11.21 0.17 0.12 1.8-3.37 1.93-3.78 0.85-2.79 0.6-5.79-0.34-8.52-0.43-1.26-2.11-2.33-3.38-1.38-5.84 4.38-14.75 4.78-21.7 3.95-6.06-0.72-12.14-2.44-17.89-4.73 2.29 5.75 4.01 11.83 4.73 17.88 0.83 6.96 0.43 15.86-3.94 21.7-0.95 1.28 0.12 2.95 1.37 3.39 2.74 0.94 5.74 1.18 8.53 0.33 0.41-0.12 3.89-1.75 3.77-1.93 2.73 3.7 7.76 4.61 11.21 1.4 2 1.57 4.59 1.9 7.19 1.79 1.98-0.07 3.94-0.43 5.93-0.33 2.54 0.12 4.84 0.9 7.18 1.73-0.83-2.33-1.61-4.63-1.74-7.17zm-7.28 3.17c-4.06-0.42-7.14 0.4-10.57-2.29-0.57-0.45-1.19-0.43-1.64-0.16q-0.44 0.07-0.84 0.5c-2.47 2.71-6.3 3.67-9.3 1.25 1.67-1.3 2.99-3.06 3.69-5.2 0.01-0.05-0.05-0.07-0.07-0.03-2.71 4.38-7.29 5.96-11.72 4.26 1.08-3.06 1.24-6.85 1.34-9.9 0.13-4.02-0.24-8.14-0.92-12.1-1.06-6.13-3.21-11.74-5.84-17.21 5.47 2.63 11.08 4.77 17.21 5.84 3.96 0.68 8.08 1.05 12.1 0.92 3.05-0.1 6.84-0.26 9.9-1.35 1.7 4.44 0.12 9.02-4.26 11.73-0.04 0.02-0.01 0.08 0.03 0.07 2.14-0.71 3.9-2.03 5.21-3.69 2.41 3 1.45 6.83-1.26 9.29q-0.42 0.4-0.49 0.85c-0.28 0.45-0.3 1.07 0.15 1.64 2.69 3.43 1.87 6.51 2.29 10.57 0.25 2.44 0.87 4.81 1.95 6.96-2.15-1.08-4.52-1.7-6.96-1.95z"/>
	<path class="s0" d="m45.75 48.24c0.52-1.03-0.13-2.58-0.99-3.04 3.24-1.02 3.78 5.04 3.52 6.41-1.23 0.11-2.33 0.6-3.29 1.34-0.73 0.95-1.22 2.05-1.34 3.28-1.37 0.26-7.43-0.28-6.41-3.52 0.47 0.87 2.01 1.52 3.05 0.99 3.21-1.62 0.27-5.55-2.45-5.49-4.31 0.11-5.11 5.2-2.32 7.78 2.53 2.34 5.36 2.41 8.24 2.09 0.69 3.42 3.91 5.52 6.19 7.9 6.54 6.82 11.58 15.4 11.72 25.07 0.16 10.14-4.89 24.42-17.6 21.01-4.72-1.28-8.9-6.39-4.77-10.88 1.85-2.01 5.51-2.6 7.24-0.07 1.01 1.47 1.12 3.82-0.88 4.5-1 0.34-3.33 0.22-2.39-1.41 1.11-1.92-1.85-3.64-2.97-1.73-2.34 4 1.4 7.23 5.5 6.69 4.73-0.63 6.29-6.11 3.49-9.66-5.56-7.07-15.82 0.43-13.84 8.12 2.24 8.74 15.21 9.09 21.2 4.52 4.52-3.45 6.33-10.17 7.09-15.53 0.81-5.7 0.04-11.46-2.11-16.79-1.85-4.6-4.62-8.76-7.88-12.48-2.27-2.61-6.64-5.93-8.17-9.5 1.32-0.18 2.64-0.36 3.94-0.37 0-1.3 0.18-2.62 0.37-3.93 3.57 1.52 6.89 5.89 9.49 8.17 3.73 3.25 7.88 6.02 12.48 7.88 5.33 2.14 11.1 2.91 16.79 2.1 5.37-0.76 12.08-2.57 15.54-7.09 4.57-5.98 4.21-18.95-4.52-21.2-7.69-1.97-15.19 8.28-8.12 13.85 3.55 2.79 9.03 1.24 9.66-3.5 0.54-4.09-2.69-7.84-6.69-5.49-1.91 1.12-0.19 4.07 1.73 2.96 1.62-0.94 1.74 1.39 1.4 2.4-0.67 1.99-3.02 1.88-4.49 0.87-2.54-1.73-1.95-5.38 0.07-7.23 4.48-4.14 9.6 0.04 10.87 4.77 3.42 12.71-10.86 17.75-21.01 17.6-9.67-0.15-18.24-5.19-25.06-11.72-2.39-2.29-4.48-5.5-7.91-6.19 0.32-2.89 0.26-5.71-2.08-8.25-2.58-2.79-7.68-1.98-7.78 2.33-0.07 2.71 3.86 5.65 5.49 2.44zm1.65 7.11c-0.78 0.19-1.55 0.41-2.33 0.6q-0.14-1.26 0.39-2.54 1.28-0.53 2.53-0.38c-0.19 0.77-0.41 1.54-0.59 2.32z"/>
	<path class="s0" d="m128.61 67.73c2.3 0.57 4.4 1 6.47 2.25 1.93 1.18 3.64 2.69 5.7 3.67 2.72 1.29 5.05 1.39 7.69-0.03 0.04-0.01 0.03-0.07-0.02-0.07-5.46 0.62-8.34-3.06-12.21-6.09-2.22-1.74-4.81-3.17-7.63-2.27-1.19 0.38-1.31 2.2 0 2.54z"/>
	<path class="s0" d="m116.86 93.87c1.94-1.78 3.26-3.99 4.02-6.41 1.65 3.18 7.59 4.69 10.54 3.95 2.23-2.25 3.49-4.56 3.28-7.79q-0.09-1.53-0.53-3c5.71 1.45 12.74-0.49 14.28-6.84 0.01-0.03-0.04-0.06-0.07-0.03-4.58 4.53-9.92 7.06-15.98 3.14-1.54-0.99-2.76 1.18-1.44 2.46 2.09 2.04 2.48 8.26 0.39 11.99-3-0.55-8.04-2.26-9.84-8.56-0.48-1.7-2.68-1.25-2.65 1.18-0.27 2.73-1.16 5.42-2.8 7.63-2.14 2.88-4.59 3.26-7.79 3.14 6.84-2.65 1.45-13.39 6.05-17.75 1.51-1.43-0.91-3.82-2.28-2.27-5.3 6.02 1.32 14.55-4.58 20.04-0.13 0.15-0.26 0.41 0 0.64 2.73 2.32 7.01 0.69 9.4-1.52z"/>
	<path class="s0" d="m112.44 72.71c-0.19 0.62 0.42 1.1 0.99 0.99 5.39-1.06 10.08-3.21 13.73-7.4 0.45-0.51 0.2-1.61-0.63-1.51-6.72 0.75-11.36-2.74-13.5-9.01q0.6-2.18 1.61-3.61c-1.05 2.9 0.16 6.64 2.83 8.77 3.86 3.09 10.43 3 11.44-2.85 0.86-4.93-3.19-10.67-8.51-7.85-3.72 1.97-3.51 8.1 1.18 8.46 1.85 0.14 3.77-0.92 3.92-2.91 0.14-1.83-1.41-3.05-2.91-1.72-0.74 0.65 0.35 1.74 1.08 1.08q0.62 0.48 0.11 1.04-0.19 0.77-1.03 0.93c-0.56 0.23-1.26 0.14-1.8-0.06-2.13-0.77-2.11-3.5-0.65-4.91 1.42-1.37 4.06-1.35 5.5-0.04 1.27 1.15 1.63 3.31 1.55 4.94-0.24 4.34-4.37 5.25-7.68 3.58-3.06-1.54-5.75-5.94-4.52-9.11 4.23-4.92 12.37-2.4 18.07 0.66 6.63 3.56 12.6 6.78 20.03 8.58 6.62 1.61 14.17 3.4 20.85 1.12 4.78-1.63 8.6-5.65 8.83-10.86 0.2-4.33-2.51-8.67-6.96-9.46-3.98-0.71-8.93 1.29-9.9 5.57-1.08 4.78 3.15 8.31 7.59 7.77 4.15-0.5 7.86-4.26 5-8.32-2.94-4.15-9-0.93-7.45 3.75 0.46 1.38 2.63 0.8 2.19-0.6-0.89-2.81 5.83-1.8 3.14 1.37-0.7 0.82-2.16 1.27-3.2 1.44-5.07 0.85-7.25-5.54-2.78-8.23 5.93-3.57 11.88 2.46 10.26 8.59-1.93 7.31-10.29 8.66-16.73 8.1-7.26-0.64-15.25-2.55-21.79-5.74-7.11-3.46-16.84-11.81-25.2-7.3-4.02 2.18-6.03 6.59-6.17 11.01-0.07 2.39 0.35 4.78 0.82 7.12 0.41 2.06 1.34 4.54 0.69 6.62zm0.36-15.85c0.82 6.01 5.68 9.68 11.56 9.8-2.86 2.69-6.27 4.31-10.14 5.22 0.12-1.48-0.26-3.02-0.54-4.45-0.69-3.45-1.53-7.05-0.88-10.57z"/>
	<path class="s0" d="m213.4 46.7c-13.36 3.57-23.74 13.56-36.79 17.83-14.37 4.69-31.59 2.43-44.23-5.96-0.04-0.03-0.08 0.04-0.04 0.06 7.68 5.37 15.72 8.7 25.13 9.48 9.39 0.77 18.6-1.12 27.07-5.18 10.23-4.9 19.4-12.33 30.66-14.86 5.28-1.18 14.78-2.13 17.42 4.08 1.63 3.83-0.37 9.07-4.48 10.16-5.12 1.36-6.73-3.48-6.3-4.82 0.7-4.1 6.48-2.95 4.07 0.7-0.99 0.88 0.47 2.33 1.45 1.45 2.22-1.98 1.92-5.79-1.13-6.75-3.29-1.03-6.17 1.96-6.44 5.08-0.31 3.61 2.73 6.29 6.16 6.57 4.12 0.35 7.57-2.86 8.67-6.65 3.75-12.96-13.17-13.34-21.22-11.19z"/>
	<path class="s0" d="m183.96 57.76c-0.45 1.18 1.35 1.79 1.94 0.8 1.42-2.41 18.91-13.42 26.25-13.5 0.28-0.01 0.31-0.35 0.06-0.5-2.58-1.66-8.08-2.64-11.75-2.25-2.56 0.28-7.74 1.66-9.68 4.36-1.62-2.91-4.55-4.78-8.04-4.76-0.07 0-0.11 0.07-0.1 0.14q-0.04 0.03-0.02 0.09c3.21 4.9 3.39 10.22 1.34 15.62zm-1.12-15.6c3.27 0.81 6.11 3.43 6.66 6.77 0.21 1.28 1.28 1.01 1.37 0.78 2.88-7.25 17.25-6.43 20.15-5.27-4.96-0.24-20.24 6.5-24.18 10.44 0.74-4.7-0.35-8.97-4-12.72z"/>
	<path class="s0" d="m49.81 173.13c0.01 0.08 0.16 0.06 0.15-0.02-0.51-5.29-0.53-10.45-2.36-15.51-1.97-5.45-5.25-10.22-8.73-14.81-2.43-3.2-6.96 0.62-4.25 3.28 7.82 7.66 13.36 16.09 15.19 27.06z"/>
	<path class="s0" d="m35.9 160.46c1.42 0.93 2.7 2.06 3.9 3.26 2.56 2.57 5.23 5.84 6.22 9.41 0.03 0.1 0.17 0.05 0.15-0.04-1.2-6.75-3.74-12.23-8.1-17.53-0.64-0.78-1.74-0.85-2.64-0.7q-0.26 0.05-0.51 0.09c-1.24 0.22-1.63 1.56-1.48 2.61 0.25 1.72 1.14 2.03 2.46 2.9z"/>
	<path class="s0" d="m40.98 172.78c1.46 0.65 2.97 1.4 4.35 2.2 0.07 0.04 0.14-0.04 0.11-0.1-0.88-1.79-1.93-3.36-3.24-4.88-1.22-1.43-2.98-3.41-4.93-3.74-4-0.69-4.7 4.96-0.73 5.46 1.59 0.19 2.93 0.4 4.44 1.06z"/>
	<path class="s0" d="m54.98 206.27c6.29-12.5 9.08-26.25 7.76-40.2-0.01-0.09-0.14-0.09-0.14 0-0.35 13.54-4.25 26.49-11.65 37.84-1.66 2.54 2.68 5.05 4.03 2.36z"/>
	<path class="s0" d="m65.62 193.79c0.77 0.4 1.07 0.43 1.92 0.25 1.1-0.24 1.77-1.35 1.83-2.4 0.56-9.78-1.3-18.64-4.05-27.95-0.03-0.1-0.17-0.06-0.15 0.04 1.55 8.88 0.81 18.42-0.69 27.24-0.18 1.06 0.09 2.28 1.14 2.82z"/>
	<path class="s0" d="m67.63 161.92c-0.1-0.12-0.28 0.01-0.25 0.14 1.56 5.39 1.85 11.29 3.64 16.56 0.74 2.17 4.28 1.92 4.17-0.57-0.28-5.97-3.95-11.61-7.56-16.13z"/>
	<path class="s0" d="m57.52 92.31c-1.27-12.28-7.86-22.29-16.19-31.03-0.07-0.08-0.17 0.03-0.11 0.11 7.07 8.79 9.13 19.96 9.43 30.92 0.12 4.48 7.31 4.32 6.87 0z"/>
	<path class="s0" d="m37.39 61.79c4.37 9.04 4.6 18.76 4.75 28.56 0.06 3.76 5.9 3.76 5.85 0-0.16-10.51-5.04-19.98-10.47-28.64-0.06-0.09-0.18-0.01-0.13 0.08z"/>
	<path class="s0" d="m40.11 88.19c1.2-3.59 0.11-7.7-0.54-11.32-0.84-4.65-2.47-8.94-4.16-13.33-0.04-0.09-0.18-0.06-0.15 0.04 0.89 3.56 1.18 7.27 1.16 10.93-0.01 3.12 0.23 7.92-1.93 10.41-3.64 4.21 3.89 8.41 5.62 3.27z"/>
	<path class="s0" d="m39.62 47.58c0.72-1.04 0.38-2.71-0.33-3.67-1.13-1.55-3.22-2.52-5.13-2.45q-0.29 0.02-0.53 0.13-0.11 0.24-0.12 0.53c-0.07 1.9 0.9 3.99 2.44 5.13 0.96 0.71 2.63 1.05 3.67 0.33z"/>
	<path class="s0" d="m62.03 143.03c-1.26-2.06-1.68-4.17-2.26-6.46-0.33-1.31-2.15-1.19-2.54 0-0.9 2.82 0.54 5.4 2.27 7.62 3.04 3.88 6.71 6.76 6.09 12.22 0 0.04 0.06 0.06 0.08 0.02 1.42-2.64 1.32-4.97 0.02-7.69-0.98-2.06-2.48-3.77-3.66-5.71z"/>
	<path class="s0" d="m87.43 115.42c-0.23-0.27-0.49-0.13-0.64 0-5.49 5.9-14.02-0.72-20.04 4.58-1.55 1.36 0.84 3.79 2.27 2.27 4.36-4.6 15.11 0.8 17.75-6.04 0.12 3.2-0.26 5.65-3.14 7.79-2.21 1.64-4.9 2.53-7.63 2.8-2.43-0.03-2.88 2.17-1.18 2.65 6.3 1.8 8.01 6.84 8.56 9.84-3.73 2.09-9.95 1.7-11.99-0.39-1.28-1.32-3.45-0.11-2.46 1.44 3.92 6.06 1.39 11.4-3.14 15.98-0.03 0.03 0 0.08 0.04 0.07 6.34-1.54 8.28-8.57 6.83-14.28q1.47 0.43 3 0.53c3.23 0.21 5.54-1.05 7.79-3.28 0.74-2.95-0.77-8.89-3.95-10.54 2.42-0.76 4.63-2.09 6.41-4.02 2.21-2.4 3.85-6.67 1.52-9.4z"/>
	<path class="s0" d="m33.6 183.93c0.8 4.45 5.14 7.16 9.46 6.96 5.22-0.24 9.23-4.06 10.87-8.84 2.28-6.67 0.49-14.23-1.12-20.84-1.81-7.43-5.02-13.4-8.59-20.04-3.06-5.69-5.58-13.83-0.66-18.07 3.17-1.22 7.57 1.47 9.11 4.53 1.67 3.31 0.77 7.43-3.58 7.67-1.63 0.09-3.79-0.28-4.94-1.54-1.3-1.44-1.33-4.08 0.04-5.5 1.41-1.46 4.14-1.49 4.91 0.64 0.2 0.54 0.29 1.25 0.06 1.81q-0.16 0.84-0.93 1.03-0.56 0.51-1.04-0.11c0.66-0.73-0.43-1.82-1.08-1.09-1.33 1.51-0.11 3.06 1.72 2.92 1.99-0.15 3.05-2.07 2.91-3.92-0.36-4.69-6.49-4.9-8.46-1.18-2.82 5.32 2.92 9.37 7.85 8.51 5.85-1.01 5.94-7.58 2.85-11.44-2.13-2.67-5.87-3.88-8.77-2.83q1.43-1.01 3.61-1.61c6.27 2.14 9.76 6.78 9.01 13.5-0.1 0.83 1 1.07 1.51 0.63 4.19-3.66 6.34-8.34 7.4-13.73 0.11-0.57-0.37-1.19-0.99-0.99-2.08 0.65-4.56-0.29-6.62-0.7-2.34-0.46-4.73-0.89-7.12-0.81-4.42 0.14-8.83 2.14-11.01 6.16-4.51 8.36 3.84 18.1 7.3 25.2 3.19 6.55 5.1 14.54 5.74 21.8 0.56 6.43-0.79 14.79-8.1 16.72-6.12 1.62-12.16-4.33-8.59-10.25 2.69-4.47 9.09-2.29 8.23 2.78-0.17 1.03-0.61 2.5-1.44 3.2-3.17 2.69-4.17-4.03-1.37-3.15 1.4 0.45 1.98-1.72 0.6-2.18-4.68-1.55-7.91 4.51-3.75 7.44 4.06 2.87 7.82-0.85 8.32-5 0.54-4.44-2.99-8.67-7.77-7.59-4.27 0.97-6.28 5.93-5.57 9.91zm25.87-62.3c1.44 0.29 2.97 0.67 4.45 0.55-0.91 3.86-2.52 7.28-5.21 10.13-0.13-5.88-3.8-10.73-9.81-11.56 3.52-0.64 7.13 0.2 10.57 0.88z"/>
	<path class="s0" d="m38.75 221.36c-2.15 8.05-1.78 24.97 11.18 21.21 3.8-1.1 7-4.55 6.66-8.67-0.29-3.43-2.97-6.46-6.58-6.15-3.12 0.26-6.1 3.14-5.07 6.43 0.96 3.06 4.76 3.35 6.74 1.13 0.88-0.98-0.57-2.43-1.44-1.44-3.66 2.41-4.81-3.38-0.7-4.07 1.33-0.43 6.17 1.18 4.81 6.3-1.09 4.11-6.33 6.1-10.16 4.47-6.21-2.63-5.26-12.13-4.07-17.42 2.52-11.26 9.95-20.43 14.85-30.65 4.06-8.48 5.95-17.68 5.18-27.08-0.78-9.4-4.11-17.44-9.47-25.12-0.03-0.04-0.1-0.01-0.07 0.04 8.39 12.64 10.66 29.85 5.96 44.23-4.26 13.05-14.26 23.43-17.82 36.79z"/>
	<path class="s0" d="m49.8 191.92c-5.4 2.05-10.72 1.87-15.62-1.34q-0.06-0.03-0.09 0.02c-0.06-0.01-0.14 0.02-0.14 0.1-0.02 3.49 1.86 6.42 4.76 8.04-2.7 1.93-4.08 7.11-4.35 9.67-0.4 3.68 0.58 9.18 2.24 11.76 0.15 0.24 0.5 0.22 0.5-0.07 0.08-7.33 11.09-24.82 13.5-26.25 0.99-0.58 0.38-2.38-0.8-1.93zm-13.32 27.06c-1.16-2.91-1.98-17.27 5.27-20.15 0.23-0.1 0.5-1.17-0.77-1.37-3.35-0.55-5.97-3.39-6.78-6.67 3.75 3.65 8.02 4.74 12.73 4-3.95 3.95-10.69 19.22-10.45 24.19z"/>
	<path fill-rule="evenodd" class="s0" d="m31.99 39.95v236.23h2.07v-234.16h241.11v-2.07z"/>
	<path fill-rule="evenodd" class="s0" d="m91.38 134.86c-2.01 0-3.63-1.62-3.63-3.62 0-2 1.62-3.62 3.63-3.62 2 0 3.62 1.62 3.62 3.62 0 2-1.62 3.62-3.62 3.62z"/>
	<path fill-rule="evenodd" class="s0" d="m117.17 125.84c-2.01 0-3.63-1.62-3.63-3.62 0-2 1.62-3.62 3.63-3.62 2 0 3.62 1.62 3.62 3.62 0 2-1.62 3.62-3.62 3.62z"/>
	<path fill-rule="evenodd" class="s0" d="m123.28 102.13c-2 0-3.62-1.62-3.62-3.62 0-2.01 1.62-3.63 3.62-3.63 2.01 0 3.62 1.62 3.62 3.63 0 2-1.61 3.62-3.62 3.62z"/>
	<path fill-rule="evenodd" class="s0" d="m122.84 114.63c-2 0-3.62-1.62-3.62-3.62 0-2 1.62-3.62 3.62-3.62 2 0 3.62 1.62 3.62 3.62 0 2-1.62 3.62-3.62 3.62z"/>
	<path fill-rule="evenodd" class="s0" d="m105.92 133.09c-2 0-3.62-1.62-3.62-3.62 0-2 1.62-3.62 3.62-3.62 2.01 0 3.63 1.62 3.63 3.62 0 2-1.62 3.62-3.63 3.62z"/>
</svg>