<svg version="1.2" xmlns="http://www.w3.org/2000/svg" viewBox="0 0 300 300" width="300" height="300">
	<style>
		.s0 { fill: #b6a893 } 
	</style>
	<path class="s0" d="m149.25 41.98c5.32 1.93 10.73 1.95 16.29 2.48 0.09 0.01 0.11-0.14 0.02-0.16-11.52-1.92-20.38-7.75-28.42-15.98-2.79-2.86-6.81 1.91-3.44 4.47 4.81 3.66 9.83 7.11 15.55 9.19z"/>
	<path class="s0" d="m80.67 45.19c-11.5-0.32-23.24-2.49-32.47-9.92-0.08-0.07-0.2 0.04-0.12 0.11 9.18 8.77 19.69 15.71 32.59 17.04 4.55 0.47 4.72-7.1 0-7.23z"/>
	<path class="s0" d="m78.62 36.23c-10.29-0.16-20.5-0.4-30-5-0.1-0.05-0.18 0.08-0.09 0.14 9.1 5.71 19.05 10.85 30.08 11.01 3.96 0.06 3.96-6.09 0.01-6.15z"/>
	<path class="s0" d="m76.35 34.09c5.4-1.82 0.98-9.75-3.44-5.91-2.61 2.27-7.65 2.02-10.93 2.03-3.85 0.02-7.74-0.28-11.48-1.22-0.1-0.03-0.14 0.12-0.04 0.15 4.6 1.79 9.11 3.5 14 4.38 3.8 0.68 8.12 1.84 11.89 0.57z"/>
	<path class="s0" d="m96.94 94.63c-0.26-1.2-0.55-2.37-0.93-3.54-1.13-3.49-2.65-6.87-4.8-9.85-5.59-7.77-13.89-9.92-22.42-12.48 2.56 8.54 4.7 16.86 12.46 22.47 2.97 2.15 6.34 3.67 9.82 4.81 1.17 0.39 2.34 0.67 3.54 0.93 0.49 0.1 2.42 0.66 1.93 0.4q0.58 0.3 1.12 0.32-0.02-0.54-0.32-1.12c0.26 0.49-0.3-1.44-0.4-1.94zm-11.87-6.02c-7.5-3.68-10.96-10.81-14.39-17.96 7.13 3.44 14.25 6.91 17.92 14.42 0.78 1.61 1.24 3.37 1.62 5.16-1.79-0.38-3.55-0.83-5.15-1.62z"/>
	<path class="s0" d="m103.68 97.99c-0.1-2.09 0.27-4.15 0.35-6.24 0.11-2.74-0.24-5.46-1.89-7.57 3.38-3.63 2.42-8.93-1.46-11.8 0.18 0.13 1.89-3.54 2.03-3.97 0.89-2.94 0.63-6.1-0.36-8.97-0.45-1.33-2.21-2.45-3.55-1.45-6.14 4.6-15.49 5.02-22.79 4.15-6.36-0.76-12.75-2.57-18.79-4.98 2.4 6.06 4.22 12.46 4.97 18.83 0.87 7.32 0.45 16.7-4.14 22.85-1 1.33 0.12 3.1 1.44 3.55 2.87 1 6.02 1.25 8.96 0.36 0.43-0.13 4.08-1.85 3.96-2.03 2.86 3.89 8.14 4.85 11.77 1.46 2.11 1.65 4.82 2 7.55 1.9 2.08-0.08 4.14-0.46 6.23-0.36 2.67 0.13 5.08 0.95 7.54 1.83-0.87-2.46-1.69-4.88-1.82-7.56zm-7.65 3.34c-4.27-0.44-7.5 0.43-11.11-2.41-0.6-0.47-1.24-0.45-1.71-0.16q-0.47 0.07-0.89 0.52c-2.59 2.85-6.62 3.87-9.77 1.32 1.75-1.38 3.14-3.22 3.88-5.48 0.01-0.05-0.05-0.07-0.08-0.03-2.84 4.61-7.65 6.27-12.31 4.48 1.14-3.22 1.31-7.2 1.41-10.42 0.14-4.23-0.25-8.56-0.97-12.73-1.11-6.46-3.37-12.37-6.13-18.13 5.75 2.77 11.64 5.03 18.08 6.15 4.16 0.72 8.48 1.11 12.71 0.97 3.2-0.1 7.18-0.27 10.4-1.41 1.78 4.67 0.12 9.49-4.48 12.34-0.04 0.02-0.01 0.09 0.03 0.07 2.25-0.74 4.1-2.13 5.47-3.88 2.54 3.16 1.53 7.19-1.32 9.79q-0.45 0.42-0.52 0.89c-0.28 0.47-0.31 1.12 0.16 1.72 2.83 3.62 1.97 6.86 2.41 11.13 0.26 2.57 0.92 5.06 2.04 7.32-2.25-1.13-4.73-1.79-7.3-2.05z"/>
	<path class="s0" d="m40.13 34.28c0.55-1.09-0.13-2.72-1.04-3.21 3.4-1.07 3.97 5.31 3.69 6.75-1.29 0.12-2.45 0.64-3.45 1.41-0.77 1.01-1.29 2.17-1.4 3.46-1.44 0.28-7.81-0.29-6.74-3.7 0.49 0.91 2.11 1.59 3.2 1.04 3.37-1.71 0.28-5.85-2.57-5.78-4.53 0.11-5.37 5.47-2.44 8.19 2.66 2.46 5.63 2.53 8.66 2.19 0.72 3.61 4.1 5.81 6.5 8.32 6.87 7.18 12.16 16.21 12.31 26.39 0.16 10.68-5.14 25.71-18.48 22.11-4.97-1.33-9.36-6.72-5.02-11.44 1.95-2.12 5.79-2.74 7.61-0.08 1.05 1.55 1.17 4.02-0.93 4.73-1.05 0.36-3.5 0.24-2.51-1.47 1.17-2.02-1.94-3.83-3.11-1.83-2.47 4.22 1.47 7.62 5.76 7.05 4.98-0.66 6.61-6.44 3.67-10.17-5.84-7.44-16.61 0.45-14.53 8.55 2.35 9.19 15.98 9.56 22.26 4.75 4.75-3.63 6.65-10.7 7.45-16.35 0.85-6 0.04-12.06-2.21-17.67-1.95-4.84-4.86-9.22-8.28-13.14-2.39-2.75-6.98-6.24-8.58-10 1.38-0.19 2.77-0.38 4.13-0.39 0.01-1.37 0.2-2.76 0.39-4.14 3.75 1.61 7.24 6.21 9.97 8.6 3.91 3.43 8.28 6.35 13.11 8.3 5.6 2.26 11.65 3.07 17.64 2.22 5.63-0.81 12.68-2.71 16.31-7.47 4.8-6.3 4.43-19.95-4.74-22.32-8.08-2.08-15.95 8.72-8.53 14.57 3.72 2.95 9.48 1.31 10.14-3.67 0.57-4.31-2.82-8.25-7.03-5.79-2 1.18-0.19 4.3 1.82 3.13 1.71-0.99 1.83 1.46 1.48 2.52-0.71 2.1-3.18 1.98-4.73 0.92-2.65-1.82-2.03-5.67 0.08-7.62 4.71-4.35 10.08 0.05 11.42 5.03 3.59 13.37-11.41 18.68-22.06 18.52-10.16-0.15-19.17-5.45-26.33-12.34-2.51-2.4-4.71-5.79-8.3-6.51 0.34-3.04 0.27-6.01-2.19-8.68-2.71-2.94-8.07-2.09-8.17 2.45-0.07 2.85 4.06 5.95 5.77 2.57zm1.73 7.49c-0.82 0.19-1.63 0.42-2.44 0.62q-0.15-1.32 0.4-2.66 1.34-0.56 2.67-0.41c-0.2 0.81-0.44 1.62-0.63 2.45z"/>
	<path class="s0" d="m127.16 54.79c2.41 0.61 4.62 1.06 6.79 2.38 2.03 1.24 3.83 2.82 5.99 3.86 2.86 1.36 5.3 1.46 8.08-0.03 0.04-0.02 0.02-0.08-0.02-0.08-5.73 0.65-8.76-3.22-12.83-6.41-2.33-1.83-5.05-3.34-8.01-2.39-1.25 0.4-1.37 2.32 0 2.67z"/>
	<path class="s0" d="m114.82 82.31c2.03-1.88 3.43-4.2 4.22-6.75 1.73 3.35 7.97 4.94 11.07 4.16 2.35-2.36 3.67-4.8 3.45-8.2q-0.1-1.61-0.56-3.16c6 1.53 13.38-0.52 14.99-7.19 0.01-0.04-0.03-0.07-0.06-0.04-4.82 4.77-10.43 7.43-16.79 3.31-1.62-1.05-2.9 1.24-1.51 2.59 2.19 2.14 2.6 8.69 0.41 12.62-3.15-0.58-8.45-2.38-10.33-9.01-0.51-1.79-2.83-1.31-2.79 1.24-0.28 2.87-1.22 5.71-2.94 8.03-2.25 3.03-4.82 3.43-8.18 3.31 7.18-2.79 1.51-14.1 6.35-18.69 1.59-1.5-0.96-4.02-2.39-2.39-5.57 6.34 1.38 15.32-4.81 21.1-0.14 0.15-0.28 0.43 0 0.67 2.86 2.45 7.35 0.73 9.87-1.6z"/>
	<path class="s0" d="m110.18 60.03c-0.21 0.66 0.44 1.16 1.04 1.05 5.65-1.11 10.58-3.38 14.41-7.79 0.48-0.54 0.22-1.69-0.66-1.59-7.05 0.79-11.93-2.88-14.17-9.49q0.62-2.29 1.69-3.8c-1.1 3.06 0.17 6.99 2.97 9.24 4.06 3.25 10.95 3.15 12.02-3.01 0.9-5.19-3.35-11.23-8.94-8.26-3.91 2.07-3.69 8.53 1.23 8.9 1.95 0.15 3.97-0.97 4.13-3.06 0.14-1.92-1.49-3.21-3.07-1.81-0.77 0.69 0.37 1.84 1.14 1.14q0.65 0.51 0.11 1.09-0.19 0.82-1.08 0.98c-0.58 0.24-1.32 0.15-1.89-0.06-2.23-0.81-2.21-3.68-0.67-5.17 1.48-1.44 4.26-1.42 5.77-0.04 1.33 1.21 1.72 3.48 1.62 5.2-0.25 4.57-4.58 5.53-8.06 3.77-3.21-1.62-6.04-6.26-4.75-9.59 4.45-5.18 13-2.53 18.98 0.69 6.97 3.75 13.24 7.14 21.04 9.04 6.95 1.69 14.88 3.58 21.89 1.18 5.03-1.72 9.04-5.95 9.28-11.44 0.21-4.55-2.63-9.12-7.3-9.96-4.19-0.75-9.39 1.36-10.41 5.87-1.13 5.03 3.31 8.74 7.97 8.18 4.36-0.53 8.26-4.49 5.25-8.76-3.08-4.38-9.45-0.99-7.81 3.95 0.47 1.45 2.76 0.84 2.29-0.64-0.93-2.95 6.12-1.89 3.3 1.45-0.74 0.86-2.27 1.33-3.36 1.51-5.32 0.9-7.61-5.83-2.92-8.66 6.23-3.76 12.47 2.59 10.77 9.04-2.03 7.7-10.81 9.11-17.57 8.52-7.62-0.67-16.01-2.68-22.89-6.04-7.46-3.64-17.68-12.43-26.46-7.68-4.23 2.29-6.33 6.94-6.48 11.59-0.08 2.52 0.37 5.03 0.86 7.49 0.43 2.17 1.41 4.79 0.73 6.97zm0.37-16.68c0.87 6.33 5.96 10.19 12.14 10.32-2.99 2.83-6.58 4.53-10.64 5.49 0.12-1.56-0.27-3.17-0.57-4.68-0.73-3.63-1.61-7.43-0.93-11.13z"/>
	<path class="s0" d="m216.21 32.66c-14.03 3.75-24.93 14.27-38.64 18.76-15.1 4.95-33.18 2.56-46.45-6.27-0.05-0.03-0.09 0.04-0.04 0.07 8.06 5.65 16.51 9.16 26.39 9.97 9.86 0.82 19.53-1.17 28.43-5.45 10.74-5.16 20.38-12.98 32.2-15.64 5.55-1.24 15.53-2.24 18.3 4.29 1.71 4.03-0.39 9.55-4.7 10.7-5.38 1.43-7.07-3.67-6.62-5.07 0.73-4.32 6.8-3.11 4.27 0.74-1.04 0.91 0.49 2.44 1.52 1.52 2.33-2.09 2.03-6.09-1.19-7.1-3.45-1.09-6.47 2.05-6.76 5.34-0.32 3.8 2.87 6.62 6.47 6.92 4.33 0.36 7.95-3.01 9.11-7.01 3.94-13.64-13.83-14.04-22.29-11.77z"/>
	<path class="s0" d="m44.39 165.75c0.02 0.09 0.17 0.07 0.16-0.02-0.54-5.57-0.55-11-2.48-16.33-2.07-5.74-5.51-10.76-9.17-15.59-2.55-3.37-7.3 0.65-4.46 3.45 8.21 8.06 14.03 16.94 15.95 28.49z"/>
	<path class="s0" d="m29.79 152.41c1.49 0.98 2.83 2.17 4.09 3.43 2.69 2.71 5.5 6.15 6.54 9.91 0.03 0.1 0.18 0.06 0.16-0.05-1.26-7.09-3.93-12.87-8.51-18.44-0.68-0.82-1.83-0.9-2.78-0.74q-0.27 0.05-0.53 0.09c-1.3 0.23-1.72 1.65-1.56 2.75 0.27 1.81 1.2 2.13 2.59 3.05z"/>
	<path class="s0" d="m35.12 165.39c1.53 0.67 3.12 1.47 4.57 2.31 0.07 0.04 0.15-0.04 0.11-0.11-0.92-1.88-2.03-3.54-3.4-5.14-1.28-1.5-3.13-3.58-5.17-3.93-4.21-0.72-4.94 5.22-0.78 5.74 1.68 0.21 3.08 0.43 4.67 1.13z"/>
	<path class="s0" d="m49.83 200.64c6.6-13.16 9.53-27.63 8.15-42.32-0.01-0.09-0.15-0.1-0.16 0-0.36 14.25-4.46 27.89-12.23 39.83-1.74 2.68 2.82 5.31 4.24 2.49z"/>
	<path class="s0" d="m61 187.5c0.81 0.41 1.12 0.45 2.02 0.26 1.15-0.25 1.86-1.42 1.92-2.53 0.58-10.29-1.37-19.62-4.26-29.42-0.03-0.1-0.17-0.06-0.15 0.04 1.63 9.35 0.85 19.39-0.73 28.68-0.19 1.12 0.1 2.4 1.2 2.97z"/>
	<path class="s0" d="m63.11 153.95c-0.1-0.12-0.3 0.01-0.26 0.15 1.63 5.67 1.94 11.88 3.82 17.42 0.78 2.29 4.5 2.03 4.38-0.59-0.29-6.29-4.15-12.22-7.94-16.98z"/>
	<path class="s0" d="m52.49 80.67c-1.33-12.93-8.25-23.47-17-32.67-0.07-0.08-0.18 0.04-0.11 0.12 7.42 9.25 9.58 21.01 9.9 32.55 0.12 4.72 7.68 4.55 7.21 0z"/>
	<path class="s0" d="m31.34 48.54c4.6 9.52 4.84 19.75 5 30.07 0.06 3.96 6.2 3.96 6.14 0-0.17-11.06-5.29-21.04-10.99-30.16-0.06-0.09-0.19-0.01-0.15 0.09z"/>
	<path class="s0" d="m34.2 76.33c1.27-3.77 0.12-8.11-0.56-11.92-0.88-4.89-2.59-9.41-4.37-14.03-0.04-0.09-0.18-0.06-0.16 0.05 0.94 3.74 1.24 7.65 1.23 11.5-0.01 3.29 0.23 8.34-2.03 10.96-3.83 4.43 4.08 8.86 5.89 3.44z"/>
	<path class="s0" d="m33.7 33.58c0.75-1.09 0.39-2.85-0.35-3.86-1.19-1.63-3.39-2.65-5.39-2.58q-0.3 0.02-0.56 0.14-0.11 0.25-0.13 0.56c-0.07 2 0.95 4.2 2.57 5.4 1.01 0.74 2.77 1.1 3.86 0.34z"/>
	<path class="s0" d="m57.23 134.06c-1.32-2.16-1.77-4.38-2.38-6.8-0.34-1.38-2.26-1.25-2.66 0-0.95 2.97 0.56 5.69 2.39 8.03 3.18 4.08 7.04 7.11 6.39 12.86 0 0.04 0.06 0.06 0.08 0.02 1.49-2.78 1.39-5.23 0.03-8.1-1.03-2.17-2.61-3.97-3.85-6.01z"/>
	<path class="s0" d="m83.9 105c-0.24-0.28-0.51-0.14-0.67 0-5.76 6.21-14.72-0.76-21.04 4.82-1.63 1.44 0.88 3.99 2.38 2.4 4.58-4.85 15.87 0.83 18.65-6.37 0.12 3.37-0.28 5.95-3.3 8.2-2.32 1.73-5.15 2.67-8.02 2.95-2.55-0.03-3.02 2.28-1.24 2.79 6.63 1.89 8.42 7.2 9 10.36-3.92 2.2-10.46 1.79-12.59-0.41-1.35-1.39-3.63-0.11-2.59 1.51 4.12 6.38 1.46 12-3.3 16.83-0.03 0.03 0 0.08 0.04 0.07 6.66-1.62 8.7-9.02 7.18-15.04q1.54 0.47 3.15 0.57c3.39 0.22 5.82-1.11 8.18-3.46 0.78-3.1-0.81-9.36-4.15-11.1 2.55-0.79 4.86-2.19 6.74-4.23 2.31-2.52 4.03-7.02 1.58-9.89z"/>
	<path class="s0" d="m27.37 177.12c0.84 4.68 5.39 7.53 9.94 7.32 5.47-0.25 9.69-4.26 11.41-9.3 2.39-7.02 0.51-14.98-1.18-21.94-1.89-7.82-5.27-14.11-9.02-21.09-3.21-6-5.86-14.57-0.69-19.03 3.33-1.29 7.95 1.55 9.57 4.77 1.76 3.48 0.8 7.82-3.76 8.08-1.71 0.09-3.98-0.3-5.19-1.63-1.37-1.51-1.4-4.29 0.04-5.79 1.49-1.54 4.35-1.56 5.16 0.68 0.21 0.57 0.3 1.31 0.06 1.9q-0.16 0.89-0.98 1.08-0.58 0.54-1.09-0.11c0.7-0.77-0.45-1.92-1.13-1.14-1.4 1.58-0.11 3.21 1.8 3.07 2.09-0.16 3.21-2.19 3.06-4.13-0.37-4.94-6.82-5.16-8.89-1.24-2.96 5.6 3.07 9.86 8.25 8.96 6.14-1.07 6.24-7.98 2.99-12.05-2.24-2.8-6.16-4.08-9.21-2.97q1.51-1.07 3.79-1.7c6.59 2.25 10.25 7.14 9.47 14.21-0.1 0.88 1.05 1.13 1.59 0.66 4.4-3.84 6.66-8.78 7.76-14.45 0.12-0.6-0.38-1.25-1.04-1.04-2.18 0.68-4.79-0.3-6.95-0.73-2.45-0.49-4.96-0.94-7.48-0.86-4.63 0.15-9.27 2.26-11.56 6.49-4.74 8.8 4.04 19.05 7.67 26.52 3.35 6.9 5.36 15.31 6.02 22.95 0.6 6.77-0.82 15.58-8.5 17.61-6.43 1.7-12.77-4.56-9.02-10.8 2.82-4.7 9.54-2.41 8.64 2.93-0.18 1.09-0.65 2.63-1.51 3.36-3.33 2.84-4.39-4.24-1.44-3.3 1.47 0.46 2.08-1.82 0.63-2.3-4.92-1.64-8.3 4.74-3.94 7.83 4.26 3.02 8.21-0.89 8.74-5.26 0.57-4.68-3.14-9.13-8.16-7.99-4.49 1.02-6.59 6.24-5.85 10.43zm27.17-65.58c1.51 0.3 3.12 0.7 4.68 0.58-0.96 4.06-2.66 7.66-5.48 10.66-0.13-6.19-3.99-11.3-10.3-12.17 3.7-0.68 7.48 0.21 11.1 0.93z"/>
	<path class="s0" d="m32.77 216.52c-2.26 8.47-1.86 26.29 11.75 22.33 3.99-1.15 7.35-4.79 6.99-9.12-0.3-3.61-3.11-6.81-6.9-6.48-3.28 0.28-6.41 3.31-5.33 6.77 1 3.22 5 3.53 7.08 1.19 0.92-1.03-0.6-2.56-1.52-1.52-3.84 2.54-5.05-3.55-0.73-4.29 1.4-0.45 6.48 1.25 5.05 6.64-1.14 4.33-6.64 6.43-10.67 4.71-6.52-2.77-5.52-12.77-4.28-18.34 2.65-11.85 10.46-21.51 15.6-32.27 4.27-8.92 6.26-18.61 5.44-28.5-0.81-9.9-4.31-18.37-9.95-26.45-0.03-0.04-0.1 0-0.07 0.04 8.82 13.31 11.2 31.43 6.26 46.56-4.47 13.74-14.97 24.67-18.72 38.73z"/>
	<path class="s0" d="m44.39 185.53c-5.68 2.15-11.26 1.97-16.41-1.41q-0.06-0.03-0.1 0.02c-0.06-0.01-0.14 0.03-0.14 0.11-0.02 3.67 1.95 6.75 5 8.46-2.84 2.03-4.29 7.49-4.58 10.18-0.41 3.87 0.62 9.66 2.36 12.38 0.16 0.26 0.52 0.23 0.53-0.07 0.08-7.73 11.65-26.14 14.18-27.64 1.04-0.61 0.4-2.51-0.84-2.03zm-13.99 28.48c-1.22-3.05-2.08-18.17 5.53-21.21 0.25-0.09 0.53-1.22-0.81-1.44-3.51-0.58-6.27-3.57-7.12-7.01 3.94 3.84 8.42 4.99 13.37 4.2-4.15 4.16-11.22 20.24-10.97 25.46z"/>
	<path fill-rule="evenodd" class="s0" d="m25.68 25.55v248.68h2.18v-246.5h253.22v-2.18z"/>
</svg>