<svg version="1.2" xmlns="http://www.w3.org/2000/svg" viewBox="0 0 300 300" width="300" height="300">
	<style>
		.s0 { fill: #b6a893 } 
	</style>
	<path class="s0" d="m120.25 175.05c-0.79 0-1.42-0.63-1.42-1.42v-36.62c0-0.12-0.09-0.24-0.21-0.27-5.73-1.66-11.05-2.5-15.82-2.5-6.1 0-11.26 1.39-15.36 4.11-4.02 2.68-6.75 6.76-7.7 11.49-0.96 4.74-0.01 9.56 2.67 13.58 1.36 2.04 3.43 3.43 5.83 3.91q0.9 0.18 1.82 0.18c1.8 0 3.55-0.53 5.06-1.54 0.96-0.64 1.61-1.61 1.84-2.75 0.23-1.13 0-2.29-0.64-3.25-0.32-0.47-0.84-0.75-1.42-0.75q-0.51 0-0.93 0.28-0.36 0.24-0.79 0.24c-0.48 0-0.92-0.24-1.18-0.63-0.44-0.65-0.26-1.54 0.39-1.97 0.75-0.5 1.62-0.76 2.51-0.76 1.53 0 2.94 0.76 3.78 2.02 1.06 1.6 1.44 3.51 1.06 5.38-0.37 1.88-1.46 3.49-3.05 4.55-1.98 1.32-4.27 2.02-6.63 2.02q-1.2 0-2.38-0.24c-3.15-0.63-5.86-2.45-7.63-5.11-3.1-4.65-4.2-10.23-3.1-15.71 1.1-5.48 4.27-10.2 8.92-13.3 4.62-3.07 10.32-4.63 16.96-4.63q1.06 0 2.13 0.05 0 0 0.01 0c0.14 0 0.26-0.1 0.28-0.24 0.02-0.15-0.06-0.28-0.2-0.32-3.34-0.9-6.63-1.63-9.81-2.18-5.57-0.95-11.93-1.47-17.9-1.47-11.07 0-30.87 1.86-39.05 14.32-2.65 4.03-3.56 8.86-2.58 13.59 0.98 4.73 3.74 8.79 7.78 11.44 1.49 0.98 3.23 1.5 5.01 1.5 3.11 0 5.98-1.54 7.68-4.13 0.63-0.97 0.85-2.12 0.61-3.25-0.23-1.13-0.89-2.11-1.86-2.74q-0.42-0.28-0.92-0.28c-0.58 0-1.11 0.29-1.43 0.77-0.26 0.4-0.7 0.64-1.19 0.64q-0.42 0-0.77-0.23c-0.66-0.43-0.84-1.31-0.41-1.97 0.66-1.01 1.68-1.7 2.87-1.95q0.46-0.1 0.93-0.1c0.88 0 1.74 0.26 2.48 0.75 3.3 2.16 4.22 6.61 2.06 9.92-2.23 3.39-5.98 5.41-10.05 5.41-2.34 0-4.61-0.68-6.57-1.97-4.67-3.06-7.87-7.76-9-13.23-1.14-5.47-0.08-11.06 2.99-15.73 8.95-13.64 29.64-15.68 41.17-15.68 6.08 0 12.53 0.55 18.63 1.6 8.34 1.42 17.1 4.02 24.68 7.33 0.32 0.06 0.54 0.16 0.74 0.32q3.63 1.64 6.79 3.42l0.35 0.14q0.22 0.09 0.44 0.29 5.37 3.15 9.2 6.62c0.3 0.27 0.47 0.65 0.47 1.05v12.68c0 0.15 0.13 0.28 0.28 0.28h15.06c0.16 0 0.28-0.13 0.28-0.28v-15.06c0-0.16-0.12-0.28-0.28-0.28h-12.67c-0.4 0-0.79-0.17-1.05-0.47-2.32-2.55-4.53-5.63-6.59-9.15-0.17-0.2-0.26-0.34-0.32-0.49l-0.13-0.32q-1.81-3.21-3.4-6.76c-0.2-0.26-0.3-0.48-0.34-0.73-3.33-7.65-5.93-16.41-7.35-24.75-3.58-20.98-2.04-49.23 14.08-59.8 3.42-2.25 7.38-3.44 11.43-3.44q2.16 0 4.3 0.44c5.47 1.14 10.17 4.34 13.23 9.01 3.63 5.53 2.09 12.99-3.45 16.62-1.16 0.76-2.52 1.17-3.92 1.17-2.42 0-4.67-1.21-5.99-3.23-0.67-1.02-0.9-2.23-0.65-3.41 0.24-1.19 0.94-2.21 1.95-2.87q0.35-0.23 0.78-0.24c0.48 0 0.92 0.24 1.19 0.64 0.42 0.66 0.24 1.54-0.41 1.97-0.78 0.51-1 1.57-0.49 2.35 0.8 1.22 2.15 1.95 3.62 1.95 0.84 0 1.66-0.24 2.37-0.71 4.22-2.77 5.4-8.46 2.63-12.68-2.65-4.04-6.71-6.81-11.44-7.79q-1.85-0.38-3.71-0.38c-3.51 0-6.92 1.03-9.88 2.97-16.02 10.51-15.61 40.74-12.85 56.95 0.55 3.17 1.28 6.47 2.18 9.8 0.03 0.13 0.15 0.21 0.27 0.21q0.02 0 0.05 0c0.14-0.02 0.24-0.15 0.24-0.29-0.36-7.56 1.18-13.99 4.58-19.09 3.1-4.65 7.82-7.82 13.3-8.92q2.07-0.41 4.16-0.41c4.1 0 8.09 1.21 11.54 3.51 2.67 1.77 4.49 4.48 5.12 7.63 0.63 3.14 0 6.34-1.78 9.01-1.06 1.59-2.68 2.68-4.55 3.05q-0.71 0.14-1.43 0.14c-1.4 0-2.77-0.41-3.95-1.2-2.08-1.38-2.65-4.21-1.26-6.29 0.26-0.39 0.7-0.63 1.18-0.63q0.43 0 0.79 0.24c0.65 0.43 0.83 1.31 0.39 1.97-0.25 0.37-0.34 0.82-0.25 1.27 0.09 0.45 0.35 0.83 0.72 1.08 0.72 0.47 1.54 0.72 2.4 0.72 1.45 0 2.8-0.72 3.6-1.92 1.36-2.04 1.84-4.48 1.36-6.88-0.48-2.4-1.87-4.47-3.91-5.83-2.98-1.99-6.44-3.04-9.98-3.04q-1.81 0-3.6 0.37c-4.73 0.95-8.81 3.68-11.49 7.7-6.12 9.2-4.25 22.03-1.61 31.18 0.04 0.12 0.15 0.21 0.27 0.21h36.63c0.78 0 1.41 0.63 1.41 1.42v50.8c0 0-50.8 0-50.8 0zm1.7-37.26q-0.09 0-0.17 0.06-0.11 0.08-0.11 0.23v33.85c0 0.16 0.12 0.29 0.28 0.29h45.98c0.16 0 0.29-0.13 0.29-0.29v-45.98c0-0.16-0.13-0.28-0.29-0.28h-33.85q-0.15 0-0.23 0.11-0.08 0.12-0.04 0.26 0.79 2.36 1.75 4.75c0.03 0.06 0.12 0.15 0.19 0.18q0.08 0.02 0.16 0.03 0.05 0 0.08-0.02 0.35-0.2 0.72-0.2h25.42c0.78 0 1.42 0.63 1.42 1.42v35.35h-35.36c-0.78 0-1.41-0.64-1.41-1.42v-25.42q0-0.37 0.2-0.72 0.05-0.1 0.03-0.22-0.04-0.11-0.14-0.17-2.49-1.01-4.83-1.79-0.04-0.02-0.09-0.02zm7.95 3.72q-0.07 0-0.14 0.04-0.14 0.08-0.15 0.25v22.62c0 0.16 0.13 0.29 0.29 0.29h30.52c0.16 0 0.29-0.13 0.29-0.29v-30.52c0-0.16-0.13-0.29-0.29-0.29h-22.62q-0.17 0.01-0.25 0.15-0.08 0.15 0.01 0.29c1.36 2.08 2.68 3.84 4.05 5.41q0.08 0.09 0.21 0.09h13.61c0.78 0 1.42 0.64 1.42 1.42v19.88h-19.88c-0.78 0-1.42-0.63-1.42-1.42v-13.61q0-0.12-0.1-0.21c-1.56-1.36-3.33-2.69-5.4-4.05q-0.07-0.05-0.15-0.05z"/>
	<path class="s0" d="m228.97 46.76h-45.71c-0.79 0-1.42 0.64-1.42 1.42v3.58c0 0.78 0.63 1.42 1.42 1.42 0.78 0 1.42-0.64 1.42-1.42v-1.87c0-0.16 0.12-0.29 0.28-0.29h30.91c0.14 0 0.26 0.11 0.28 0.25 0.02 0.14-0.07 0.27-0.21 0.31l-44.26 11.71q-0.04 0.01-0.08 0.01-0.14-0.01-0.22-0.12-0.11-0.15-0.02-0.32c5.39-8.69 3.05-15.9 1.18-19.43q-0.07-0.14 0.01-0.28 0.08-0.13 0.24-0.13h95.15v-2.84h-98.31c-0.55 0-1.06 0.33-1.29 0.84-0.23 0.52-0.13 1.12 0.25 1.54 0.35 0.39 8.58 9.76-2.3 22.41-0.41 0.47-0.46 1.15-0.13 1.68 0.26 0.42 0.71 0.67 1.2 0.67q0.19 0 0.36-0.05l61.61-16.3c0.69-0.18 1.13-0.85 1.04-1.55-0.09-0.71-0.69-1.24-1.4-1.24z"/>
	<path class="s0" d="m236.1 51.18c-1.96 0-3.57-1.6-3.57-3.56 0-1.97 1.61-3.57 3.57-3.57 1.97 0 3.57 1.6 3.57 3.57 0 1.96-1.6 3.56-3.57 3.56zm0-4.3c-0.4 0-0.73 0.33-0.73 0.73 0 0.41 0.33 0.73 0.73 0.73 0.4 0 0.73-0.32 0.73-0.73 0-0.4-0.32-0.73-0.73-0.73z"/>
	<path class="s0" d="m124.21 128.21c-20.49-6.57-42.53-10.49-59.07-10.49-8.87 0-15.92 1.11-20.96 3.29q-0.27 0.12-0.56 0.12c-0.39 0-0.74-0.15-1.01-0.42l-10.22-10.22c-0.29-0.29-0.37-0.65-0.39-0.9v-0.21c0.02-0.24 0.1-0.6 0.39-0.89l9.09-9.09c0.26-0.26 0.63-0.41 1-0.41h0.11c1.63 0.13 40.28 3.36 68.98 16.96q0.05 0.02 0.12 0.02 0.11 0 0.2-0.08c0.08-0.08 0.1-0.21 0.05-0.32-13.59-28.7-16.82-67.35-16.95-68.98-0.03-0.41 0.12-0.82 0.41-1.11l9.09-9.09c0.29-0.29 0.65-0.37 0.9-0.39h0.21c0.24 0.02 0.6 0.1 0.89 0.39l10.22 10.22c0.41 0.42 0.53 1.03 0.3 1.57-7.3 16.85-1.41 53.17 7.2 80.03zm-59.12-13.27c15.03 0 34.5 3.12 53.39 8.56q0.04 0.01 0.08 0.01 0.17 0 0.26-0.17c0.05-0.13 0-0.28-0.12-0.35-26.64-16.08-70.63-20.63-75.55-21.1q-0.02 0-0.03 0-0.12 0-0.2 0.08l-7.32 7.32c-0.11 0.11-0.11 0.29 0 0.4l8.22 8.21q0.08 0.09 0.2 0.09 0.05 0 0.1-0.02c5.21-2.01 12.27-3.03 20.97-3.03zm40.4-75.42q-0.11 0-0.2 0.08l-7.32 7.32q-0.09 0.09-0.08 0.23c0.47 4.92 5.02 48.91 21.09 75.55q0.09 0.14 0.25 0.14 0.06 0 0.11-0.02c0.13-0.06 0.2-0.21 0.16-0.34-6.74-23.42-12.23-56.95-5.53-74.36q0.06-0.17-0.07-0.3l-8.21-8.22q-0.09-0.08-0.2-0.08z"/>
	<path class="s0" d="m102.54 106.55c-19.41-8.69-36.46-13.28-49.35-13.28-3.97 0-7.59 0.44-10.74 1.29q-0.18 0.05-0.37 0.05c-0.45 0-0.87-0.21-1.14-0.57l-8.65-11.57c-0.23-0.31-0.32-0.68-0.27-1.06 0.06-0.37 0.25-0.7 0.56-0.93l10.29-7.69q0.38-0.28 0.85-0.28 0.15 0 0.3 0.03c0.74 0.16 18.19 4.09 36.95 12.8q0.06 0.03 0.12 0.03 0.11 0 0.2-0.08c0.08-0.09 0.1-0.22 0.05-0.32-8.71-18.77-12.64-36.21-12.8-36.95-0.09-0.4 0-0.82 0.25-1.15l7.69-10.29c0.23-0.31 0.56-0.5 0.93-0.56q0.11-0.01 0.21-0.01 0.47 0 0.85 0.28l11.57 8.65c0.47 0.35 0.67 0.94 0.52 1.51-3.69 13.57 0.46 34.34 11.98 60.1zm-49.47-16.1c11.82 0 26.44 3.52 43.45 10.44q0.05 0.02 0.11 0.02 0.11 0 0.2-0.08 0.12-0.14 0.06-0.31c-9.11-22.38-12.35-40.95-9.35-53.69q0.03-0.18-0.11-0.29l-9.3-6.95q-0.07-0.06-0.17-0.06-0.02 0-0.04 0-0.11 0.02-0.18 0.11l-6.2 8.29q-0.08 0.11-0.05 0.24c0.96 3.98 6.24 24.58 16.76 44.08-19.5-10.52-40.1-15.79-44.08-16.76q-0.04 0-0.07 0-0.09 0-0.17 0.05l-8.29 6.2q-0.09 0.07-0.11 0.18-0.01 0.12 0.05 0.21l6.96 9.3q0.08 0.12 0.22 0.12 0.04 0 0.07-0.01c3.06-0.72 6.51-1.09 10.24-1.09z"/>
	<path class="s0" d="m64.94 71.87c-6.02 0-13.71-0.73-19.75-6.43-5.6-5.28-8.87-13.87-9.99-26.24 12.37 1.12 20.96 4.39 26.24 9.99 6.07 6.43 6.65 15.02 6.38 22.63q-1.42 0.05-2.88 0.05 0 0 0 0zm-26.21-29.42q-0.11 0-0.2 0.08-0.09 0.11-0.08 0.24c1.33 9.61 4.18 16.34 8.69 20.61 5.29 4.99 12.19 5.64 17.61 5.66q0.12-0.01 0.2-0.09 0.08-0.08 0.08-0.2c-0.01-5.42-0.66-12.32-5.65-17.61-4.27-4.51-11.01-7.36-20.61-8.69q-0.02 0-0.04 0z"/>
	<path class="s0" d="m37.6 264.57v-87.78q0-0.16 0.13-0.24 0.07-0.04 0.15-0.04 0.07 0 0.13 0.03c1.86 0.99 4.85 2.16 8.55 2.16 3.65 0 7.3-1.12 10.88-3.34q0.07-0.04 0.15-0.04 0.09 0 0.17 0.06 0.15 0.11 0.11 0.3l-11.71 44.26c-0.03 0.13-0.15 0.21-0.27 0.21q-0.02 0-0.04 0c-0.14-0.02-0.25-0.14-0.25-0.28v-30.91c0-0.15 0.13-0.28 0.29-0.28h1.87c0.78 0 1.42-0.64 1.42-1.42 0-0.78-0.64-1.42-1.42-1.42h-3.58c-0.78 0-1.42 0.64-1.42 1.42v45.71c0 0.71 0.53 1.31 1.24 1.41q0.09 0.01 0.18 0.01c0.65 0 1.21-0.44 1.37-1.06l16.3-61.6q0.04-0.18 0.05-0.36c0-0.5-0.25-0.94-0.67-1.21q-0.35-0.21-0.75-0.21c-0.34 0-0.67 0.12-0.93 0.34-4.33 3.72-8.74 5.61-13.1 5.61-5.59 0-9.16-3.18-9.31-3.31-0.27-0.24-0.61-0.37-0.96-0.37q-0.3 0-0.58 0.12c-0.51 0.23-0.84 0.74-0.84 1.3v90.93c0 0 2.84 0 2.84 0z"/>
	<path class="s0" d="m43.61 243.67c-1.96 0-3.56-1.6-3.56-3.57 0-1.96 1.6-3.56 3.56-3.56 1.97 0 3.57 1.6 3.57 3.56 0 1.97-1.6 3.57-3.57 3.57zm0-4.3c-0.4 0-0.73 0.33-0.73 0.73 0 0.41 0.33 0.73 0.73 0.73 0.41 0 0.73-0.32 0.73-0.73 0-0.4-0.32-0.73-0.73-0.73z"/>
</svg>