<svg version="1.2" xmlns="http://www.w3.org/2000/svg" viewBox="0 0 300 300" width="300" height="300">
	<style>
		.s0 { fill: #b6a893 } 
	</style>
	<path class="s0" d="m180.74 49.79h85.4v-3.2h-72.33v-3.93h72.33v-3.2h-73.93c-0.89 0-1.6 0.72-1.6 1.6v5.53h-9.87c-4.63 0-12.5-1.16-13.31-8.98-0.16-1.55 0.29-3.07 1.28-4.28 0.98-1.21 2.37-1.96 3.92-2.12 1.34-0.15 2.56 0.84 2.7 2.2 0.04 0.34-0.21 0.65-0.55 0.68-0.88 0.1-1.52 0.88-1.43 1.76 0.09 0.88 0.88 1.51 1.76 1.42 2.09-0.21 3.62-2.1 3.4-4.19-0.15-1.51-0.88-2.86-2.06-3.81-1.17-0.95-2.65-1.39-4.15-1.24-2.4 0.25-4.55 1.42-6.07 3.29-1.52 1.87-2.22 4.22-1.98 6.61 0.5 4.81 3.27 8.35 7.75 10.26-4.48 1.91-7.25 5.45-7.75 10.25-0.25 2.4 0.46 4.75 1.98 6.62 1.52 1.87 3.67 3.04 6.07 3.29q0.3 0.03 0.59 0.03c1.3 0 2.54-0.44 3.56-1.27 1.18-0.95 1.91-2.31 2.07-3.81 0.1-1.02-0.2-2.01-0.84-2.8-0.64-0.8-1.56-1.29-2.57-1.4-0.88-0.09-1.67 0.55-1.76 1.43-0.09 0.88 0.55 1.66 1.43 1.75 0.34 0.04 0.59 0.35 0.56 0.69-0.14 1.35-1.37 2.33-2.71 2.2-3.2-0.33-5.53-3.2-5.2-6.4 0.84-8.11 9.59-8.98 13.31-8.98z"/>
	<path class="s0" d="m232.31 59.13h33.83v-3.19h-62.56q-0.04 0-0.08 0 0 0-0.01 0-0.01 0-0.02 0 0 0-0.01 0-0.01 0-0.03 0.01 0 0-0.01 0c-0.81 0.07-1.44 0.76-1.44 1.59 0 0.88 0.71 1.6 1.6 1.6h0.01c0.52 0 16.51 0.11 26.53 4.84q0.33 0.15 0.68 0.15 0.46 0 0.86-0.25c0.46-0.29 0.74-0.8 0.74-1.35l-0.02-2.92q0-0.25-0.07-0.48z"/>
	<path class="s0" d="m38.08 173.51c2.1 0.22 3.98-1.31 4.2-3.41 0.08-0.87-0.55-1.66-1.43-1.75-0.88-0.09-1.66 0.54-1.75 1.42-0.04 0.35-0.35 0.6-0.69 0.56-1.35-0.14-2.34-1.36-2.2-2.71 0.16-1.54 0.91-2.94 2.12-3.92 1.21-0.98 2.73-1.43 4.28-1.27 7.82 0.81 8.98 8.68 8.98 13.3v9.87h-5.53c-0.88 0-1.6 0.72-1.6 1.6v84.49h3.2v-82.89h3.93v82.89h3.2v-95.96c0-3.72 0.87-12.46 8.98-13.3 3.2-0.33 6.07 2 6.4 5.2 0.13 1.34-0.85 2.56-2.2 2.7-0.34 0.04-0.65-0.21-0.69-0.56-0.09-0.87-0.87-1.51-1.75-1.42-0.88 0.09-1.52 0.88-1.43 1.75 0.11 1.02 0.6 1.93 1.4 2.58 0.79 0.64 1.78 0.94 2.8 0.83 1.5-0.16 2.86-0.89 3.81-2.06 0.83-1.02 1.27-2.27 1.27-3.56q0-0.3-0.03-0.6c-0.25-2.39-1.42-4.55-3.29-6.07-1.87-1.52-4.22-2.22-6.62-1.97-4.8 0.49-8.34 3.27-10.25 7.74-1.91-4.47-5.45-7.25-10.26-7.74-2.39-0.25-4.74 0.45-6.61 1.97-1.87 1.52-3.04 3.68-3.29 6.07-0.15 1.51 0.29 2.98 1.24 4.16 0.95 1.17 2.31 1.9 3.81 2.06z"/>
	<path class="s0" d="m46.03 56.9l13.71 0.28c0.43 0.01 0.84-0.15 1.15-0.45q0.22-0.22 0.34-0.5 0.28-0.12 0.5-0.34c0.3-0.31 0.47-0.73 0.46-1.16l-0.28-13.71c-0.02-0.87-0.73-1.56-1.6-1.56h-13.79c-0.43 0-0.84 0.17-1.14 0.48q-0.11 0.11-0.2 0.24-0.12 0.08-0.24 0.19c-0.3 0.3-0.48 0.71-0.48 1.14v13.8c0 0.86 0.7 1.57 1.57 1.59zm1.63-13.76l0.5 0.02-0.01-0.5h10.59l0.22 10.51h-0.79v0.79l-10.51-0.22c0 0 0-10.6 0-10.6z"/>
	<path class="s0" d="m89.89 99.63h14.74v-14.74c0-0.88-0.72-1.6-1.6-1.6h-14.74v14.74c0.01 0.88 0.72 1.6 1.6 1.6zm1.6-13.14h9.94v9.94h-9.94z"/>
	<path class="s0" d="m51.64 159.78c0.29 0.31 0.7 0.49 1.13 0.49 0.43 0.01 0.84-0.16 1.15-0.46l9.75-9.76c0.31-0.31 0.47-0.72 0.47-1.13 0-0.39-0.15-0.79-0.45-1.1l-8.92-9.3c1.39-7.33 5.45-13.75 11.52-18.15 6.31-4.56 14.01-6.4 21.69-5.17 4.02 0.64 7.54 2.81 9.92 6.1 2.39 3.29 3.35 7.32 2.71 11.33-0.67 4.14-4.57 6.97-8.71 6.31-1.88-0.3-3.15-2.06-2.86-3.94q0.08-0.47 0.47-0.75 0.39-0.28 0.86-0.21c0.87 0.14 1.69-0.45 1.83-1.32 0.14-0.87-0.45-1.7-1.33-1.83-1.14-0.19-2.29 0.09-3.24 0.77-0.94 0.68-1.56 1.69-1.74 2.84-0.58 3.61 1.89 7.02 5.5 7.6 5.88 0.94 11.43-3.08 12.37-8.96q0.09-0.6 0.15-1.2h33.03v-33.04q0.6-0.05 1.2-0.14c5.88-0.94 9.9-6.49 8.96-12.37-0.58-3.61-3.99-6.08-7.6-5.5-1.15 0.18-2.16 0.8-2.84 1.74-0.68 0.94-0.96 2.1-0.77 3.24 0.14 0.87 0.96 1.47 1.83 1.33 0.87-0.14 1.46-0.96 1.32-1.83q-0.07-0.47 0.21-0.86 0.28-0.39 0.75-0.47c1.88-0.3 3.64 0.98 3.94 2.85 0.66 4.14-2.17 8.05-6.31 8.71-4.01 0.65-8.04-0.31-11.33-2.7-3.29-2.38-5.46-5.91-6.1-9.92-1.23-7.69 0.61-15.39 5.17-21.69 4.4-6.07 10.82-10.13 18.15-11.52l9.3 8.92c0.31 0.3 0.71 0.44 1.11 0.44 0.4 0 0.81-0.15 1.12-0.46l9.76-9.76c0.3-0.3 0.47-0.71 0.46-1.14 0-0.43-0.18-0.84-0.49-1.14l-9.89-9.49c-0.63-0.6-1.62-0.6-2.24 0.02l-9.27 9.28h-9.28v-5.38c0-0.88-0.72-1.6-1.6-1.6h-65.1c-0.88 0-1.6 0.72-1.6 1.6v19.74h-19.74c-0.88 0-1.6 0.72-1.6 1.6v65.1c0 0.88 0.72 1.6 1.6 1.6h5.38v9.28l-9.28 9.28c-0.61 0.61-0.62 1.61-0.02 2.23zm102.18-119.25l7.58 7.28-7.49 7.49-7.59-7.28zm-79.63 72.45c-8.38 2.5-15.49 8.35-19.54 16.21v-37.99c0-11.47 4.93-17.28 14.67-17.28 2.92 0 5.67 1.26 7.76 3.56 2.42 2.66 3.66 6.4 3.32 10.01-0.16 1.62-0.93 3.08-2.19 4.12-1.25 1.03-2.84 1.52-4.46 1.37-1.43-0.14-2.48-1.42-2.35-2.85 0.03-0.25 0.17-0.41 0.25-0.48 0.09-0.07 0.27-0.18 0.52-0.15 0.88 0.08 1.66-0.57 1.74-1.44 0.09-0.87-0.56-1.66-1.44-1.75-2.14-0.2-4.05 1.38-4.25 3.52-0.3 3.19 2.04 6.03 5.23 6.33q0.37 0.03 0.74 0.03zm54.95 11.15v-26.18q2.24 0.8 4.62 0.99v29.81h-29.81q-0.19-2.38-0.99-4.62zm-81.47 1.78v-61.9h21.35v-21.35h61.9v3.78h-34.71c-13.2 0-20.48 6.35-20.48 17.87 0 3.83 1.64 7.42 4.61 10.12 2.95 2.69 6.97 4.21 10.98 4.21q0.74 0 1.48-0.07c2.47-0.24 4.7-1.42 6.28-3.33q1.07-1.31 1.61-2.86h16.53c-0.68 3.57-0.77 7.32-0.16 11.11q0.26 1.54 0.75 2.99v26.32h-26.32q-1.45-0.49-2.99-0.75c-3.8-0.61-7.54-0.52-11.11 0.16v-16.53q1.55-0.54 2.86-1.61c1.91-1.58 3.09-3.81 3.33-6.28q0.07-0.74 0.07-1.48c0-4.01-1.52-8.03-4.21-10.98-2.7-2.97-6.29-4.6-10.12-4.6-11.52 0-17.87 7.27-17.87 20.47v34.71c0 0-3.78 0-3.78 0zm86.53-76.27c-7.86 4.05-13.71 11.17-16.21 19.54h-16.79q0-0.37-0.03-0.74c-0.3-3.18-3.14-5.53-6.33-5.23-2.14 0.2-3.72 2.11-3.51 4.25 0.08 0.88 0.87 1.53 1.74 1.44 0.88-0.08 1.52-0.86 1.44-1.74-0.02-0.25 0.09-0.43 0.16-0.51 0.07-0.09 0.22-0.23 0.47-0.26 1.44-0.13 2.71 0.92 2.85 2.35 0.15 1.62-0.33 3.21-1.37 4.46-1.04 1.26-2.5 2.03-4.12 2.19-3.61 0.34-7.35-0.9-10.01-3.32-2.3-2.09-3.56-4.84-3.56-7.76 0-9.73 5.81-14.67 17.28-14.67 0 0 37.99 0 37.99 0zm-13.19 66.36v-23.76q1.48 1.83 3.43 3.26 0.73 0.52 1.51 0.97v24.47h-24.47q-0.45-0.77-0.98-1.51-1.42-1.94-3.25-3.43c0 0 23.76 0 23.76 0zm-67.98 25.32l7.29 7.59-7.5 7.49-7.28-7.59z"/>
	<path class="s0" d="m64.14 271.69v-44.39q0.22 0.08 0.47 0.08l2.92 0.02c0.55 0 1.06-0.28 1.36-0.74q0.25-0.4 0.25-0.86 0-0.35-0.16-0.68c-4.72-10.03-4.84-26.01-4.84-26.54v-0.01c0-0.88-0.72-1.6-1.6-1.6-0.83 0-1.51 0.64-1.59 1.45q0 0.01 0 0.01 0 0.01 0 0.03 0 0 0 0.01 0 0.01-0.01 0.02 0 0.01 0 0.01 0 0.04 0 0.07v73.12c0 0 3.2 0 3.2 0z"/>
</svg>