<svg version="1.2" xmlns="http://www.w3.org/2000/svg" viewBox="0 0 300 300" width="300" height="300">
	<style>
		.s0 { fill: #b6a893 } 
	</style>
	<path class="s0" d="m220.56 234.43q0.02 0.02 0.04 0.03 0.19 0.12 0.37 0.13 0.01 0 0.03 0.01 0.01 0 0.03-0.01c0.56-0.03 0.96-0.84 0.51-1.35-12.9-14.57-31.72-23.78-51.08-25.83-6.73-0.71-14.03-0.02-18.23 6.03-2.95 4.23-3.46 9.46-1.71 13.97-2.37 2.86-4.25 6.09-5.07 9.5-1.19 2.81-1.35 5.9-0.54 8.8 0.11 2.06 0.8 3.97 2.72 4.93q0.08 0.04 0.12-0.05 0.41-1.09 0.74-2.11c1.11-2.18 2.33-4.33 3.82-6.27 19.73-13.81 45.86-16.99 68.25-7.78zm-51.74-7.5c7.73-4.65 17.36-3.09 26.56-2.99 0.07 0 0.12-0.1 0.06-0.15-2.32-2.17-5.05-3.83-7.99-5.03q1.7 0.39 3.38 0.85c10.06 2.83 19.37 7.8 28 13.65-15.84-8.28-33.36-10.4-50.01-6.33z"/>
	<path class="s0" d="m165.26 266.87c33.55-2.62 67.81-0.73 101.48 0.13-0.86-33.67-2.75-67.93-0.13-101.48 0.32-4.1-6.67-4.11-6.37 0q0.08 1.22 0.15 2.44c-0.86 9.96-1.57 26.39-10.93 30.97-3.87 1.89-0.86 7.44 2.92 6.34 0.95 0.53 1.87 1.09 2.6 2.03 0.81 1.06 1.24 3.08 2.45 3.76 0.42 0.23 0.89-0.88 0.97-1.05 0.58-1.2 0.44-2.41 0.13-3.67-0.31-1.24-0.95-2.67-1.84-3.9 2.46-2.32 4.11-5.39 5.15-8.85 1.13 24.31 1.92 48.58 4.37 72.87-24.29-2.44-48.57-3.23-72.88-4.37 3.47-1.03 6.54-2.69 8.85-5.14 1.23 0.88 2.67 1.53 3.9 1.83 1.26 0.31 2.48 0.45 3.67-0.13 0.17-0.08 1.29-0.55 1.05-0.96-0.67-1.21-2.69-1.65-3.75-2.46-0.94-0.72-1.5-1.65-2.04-2.6 1.1-3.78-4.44-6.78-6.34-2.92-4.58 9.36-21 10.08-30.97 10.94q-1.22-0.08-2.44-0.16c-4.11-0.29-4.1 6.7 0 6.38z"/>
	<path class="s0" d="m153.51 262.33q-0.07 0.24-0.11 0.48c-0.05 0.12-0.13 0.22-0.16 0.35-0.1 0.34-0.12 0.71-0.15 1.07-0.09 1.35 1.22 2.49 2.5 2.5 2.76 0.01 3.6-2.87 2.56-5.01-1-2.06-4.05-1.35-4.64 0.61z"/>
	<path class="s0" d="m142.62 262.24c-0.31 0.67-0.33 1.48-0.03 2.14 0.13 1.35 1.25 2.56 2.7 2.5 1.2-0.04 2.27-0.5 3.01-1.45 0.91-1.16 1.09-2.92-0.06-4-1.6-1.5-4.62-1.32-5.62 0.81zm3.14-0.47c-0.2 0.13-0.08 0.05 0 0z"/>
	<path class="s0" d="m135.66 260.63q-0.62 0.13-1.24 0.26c-1.18 0.25-1.67 1.54-1.47 2.6q0.15 0.82 0.3 1.64 0.02 0.03 0.03 0.05c0.28 1.61 1.81 3 3.71 2.41 1.04-0.33 2.1-1.41 1.98-2.6q-0.13-1.36-0.39-2.7c-0.26-1.31-1.74-1.9-2.92-1.66zm2.62 2.86q0.04 0.07 0.07 0.13-0.02-0.01-0.09-0.15 0.01 0.01 0.02 0.02z"/>
	<path class="s0" d="m60.9 258.61c-2.6-0.64-3.68 3.5-1.1 3.99 21.13 3.94 38.78-2.85 53.09-16.13-2.69 6.55-1.43 12.88-1.39 17.01 0.04 3.46 3.52 3.94 5.77 1.14 7.42-9.6 8.62-15.72 3.74-24.97-0.47-0.9-1.73-0.13-1.33 0.78 2.52 5.8 0.49 13.76-3.59 18.27-1.81-3.63-1.35-10.66 0.42-15.78q3.52-3.67 6.75-7.85c2.78-3.59 5.5-7.33 8.34-10.97-4 7.27-2.46 14.55-2.42 19.13 0.04 3.46 3.52 3.94 5.77 1.14 7.42-9.6 8.62-15.72 3.75-24.97-0.47-0.9-1.74-0.13-1.34 0.78 2.52 5.8 0.5 13.76-3.59 18.27-2.44-4.9-0.76-16.03 2.73-20.23q0.01-0.03 0-0.06c5.25-6 11.16-11.29 18.63-14.58 15.62-6.87 35.47-3.86 48.46 7.22 0.09 0.08 0.22-0.05 0.13-0.13-11.94-10.84-27.2-14.62-41.49-11.42-5.46-0.56-12.28-3.31-14.81-6.62 5.85-1.68 13.89 0 17.99 4.82 0.64 0.76 1.88-0.04 1.29-0.85-6.16-8.45-12.19-10.07-24.07-7.64-3.51 0.79-4.61 4.13-1.52 5.68 3.64 1.83 8.68 5.69 15.6 6.23-4.01 1.44-7.89 3.47-11.55 6.07-5.08 2.46-13.74 3.38-17.91 1.3 4.5-4.09 12.46-6.11 18.26-3.59 0.92 0.4 1.68-0.87 0.79-1.34-9.25-4.87-15.38-3.67-24.97 3.75-2.81 2.25-2.32 5.73 1.13 5.77 4.2 0.03 10.65 1.33 17.3-1.52-5.51 5.16-10.09 11.13-14.66 17.11-5.08 2.46-13.74 3.38-17.91 1.3 4.51-4.09 12.47-6.11 18.27-3.59 0.91 0.4 1.67-0.87 0.78-1.34-9.25-4.87-15.37-3.67-24.97 3.75-2.8 2.25-2.32 5.73 1.14 5.76 4.94 0.05 13.02 1.85 20.85-3.47-3.38 4.4-6.82 8.74-10.7 12.71q-3.46 3.52-7.34 6.33c-5.33 1.84-13.87 1.79-17.74-0.69 4.91-3.58 13.04-4.75 18.54-1.62 0.87 0.49 1.76-0.68 0.92-1.25-8.67-5.83-14.89-5.29-25.22 1.06-3.04 1.94-2.92 5.45 0.51 5.86 4.09 0.48 10.23 2.4 17 0.44-11.51 6.32-24.88 8.23-38.33 4.94z"/>
	<path class="s0" d="m122.03 154.19c-2.05 3.17-2.54 7.51-1.44 11.1 1.34 4.39 4.91 7.04 8.75 7.12q-0.09 0.15-0.18 0.3c-2.97 4.94-3.52 12.82 2.4 15.89 5.69 2.96 10.46-1.12 13.79-5.35 3.4 1.46 7.26 1.98 11.2 1.59 4.06 3.2 9.34 5.12 14.34 6.69 7.42 3.96 17.62 5.35 24.97 4.59 0.76-7.36-0.63-17.55-4.59-24.98-1.57-4.99-3.49-10.27-6.69-14.33 0.4-3.95-0.13-7.81-1.59-11.21 4.23-3.32 8.32-8.09 5.36-13.79-3.08-5.91-10.95-5.37-15.9-2.39q-0.15 0.08-0.29 0.18c-0.09-3.85-2.73-7.41-7.13-8.75-3.59-1.1-7.92-0.61-11.1 1.44-1.97 1.28-3.2 3.5-3.94 5.89-1.13-1.49-2.67-2.77-4.32-3.65-6.88-3.71-14.98-1.53-22.43-1.04-0.5 7.45-2.68 15.56 1.03 22.44 0.89 1.65 2.16 3.19 3.66 4.32-2.4 0.73-4.62 1.97-5.9 3.94zm10.91 29.7c-1.26-3.22 1.08-6.81 3.29-9.04 2.07 3.9 5.18 6.65 8.85 8.29-3.05 2.82-10.07 6.02-12.14 0.75zm62.04 11.35c-9.84-2.11-25.62-6.43-27.85-16.68-0.77-3.59-0.39-7.24 0.28-10.89 3.65-0.68 7.3-1.06 10.89-0.28 10.25 2.23 14.58 18.01 16.68 27.85zm-9.88-31.38c-6.08-4.11-15.83-4.09-24.19-2.69-1.4 8.36-1.42 18.11 2.69 24.19-1.21-0.94-2.33-1.88-3.21-2.76-4.32-4.35-5.14-10.08-4.86-15.97 0.15-3.12 0.87-6.23 1.52-9.33 3.09-0.65 6.21-1.36 9.32-1.51 5.89-0.28 11.62 0.54 15.97 4.86 0.89 0.88 1.82 2 2.76 3.21zm-1.47-30.66c5.27 2.07 2.07 9.09-0.75 12.14-1.64-3.67-4.39-6.78-8.3-8.85 2.24-2.21 5.83-4.55 9.05-3.29zm-28.19 0.71c0.12-4.66 2.44-8.65 7.5-8.69 3.41-0.02 6.63 2.54 7.48 5.7-1.05 0.93-1.97 2.09-2.3 3.34-4.12-0.79-8.4-0.58-12.72 0.01q0.03-0.18 0.04-0.36zm-0.35 8.73c12.26-3.06 26.75-0.93 28.79 13.31-1.87-2.14-4.15-3.87-7-4.94-7.05-2.64-18.75-3.71-27.31-1.18-2.52 8.56-1.45 20.26 1.18 27.31 1.07 2.85 2.8 5.13 4.94 7-14.24-2.04-16.37-16.54-13.31-28.79 0.85-3.4 1.8-6.82 2.46-10.25 3.43-0.67 6.85-1.61 10.25-2.46zm-5.97-9.58q-0.03 0.43-0.05 0.85-0.01 0.78 0.25 1.36c-4.16 0.77-8.3 1.61-12.31 2-0.39 4.01-1.23 8.15-2 12.31q-0.58-0.26-1.36-0.25-0.42 0.02-0.85 0.05c-6.39-4.21-4.63-12.08-3.36-19.68 7.6-1.27 15.48-3.03 19.68 3.36zm-15.47 22.64q0.18-0.01 0.36-0.04c-0.59 4.32-0.8 8.6-0.01 12.71-1.25 0.34-2.4 1.26-3.34 2.31-3.16-0.85-5.72-4.07-5.7-7.48 0.04-5.06 4.03-7.38 8.69-7.5z"/>
	<path class="s0" d="m243.48 175.27c-0.47-0.87-1.89-1.13-2.57-0.33-5.2 6.15-3.1 17.63-2.35 25.15 0.92 9.22 2.73 18.35 5.49 27.2 3.73 11.98 9.16 22.8 15.9 32.92-10.12-6.74-20.94-12.17-32.92-15.9-8.84-2.76-17.98-4.57-27.2-5.49-7.52-0.76-19-2.85-25.15 2.35-0.8 0.68-0.53 2.1 0.33 2.57 5.74 3.13 13.88 0.91 20.33 1.02 9.79 0.16 19.49 1.3 29.03 3.57 13.8 3.29 27.56 8.69 39.86 16.15-7.47-12.3-12.86-26.05-16.15-39.86-2.28-9.53-3.42-19.24-3.58-29.03-0.11-6.45 2.12-14.59-1.02-20.32z"/>
	<path class="s0" d="m250.33 148.02q0.09-0.04 0.06-0.13c-0.97-1.92-2.88-2.6-4.94-2.72-2.9-0.8-5.99-0.64-8.8 0.54-3.41 0.83-6.64 2.7-9.49 5.07-4.52-1.75-9.75-1.23-13.98 1.71-6.04 4.2-6.74 11.5-6.02 18.24 2.05 19.35 11.26 38.18 25.83 51.07 0.51 0.45 1.32 0.05 1.34-0.51q0.02-0.02 0.02-0.03-0.01-0.02-0.02-0.03 0-0.18-0.12-0.37-0.01-0.02-0.03-0.04c-9.21-22.39-6.03-48.52 7.78-68.25 1.94-1.49 4.09-2.71 6.27-3.82q1.01-0.32 2.1-0.73zm-17.33 71.07c-5.85-8.63-10.82-17.94-13.65-28q-0.46-1.68-0.85-3.38c1.2 2.94 2.86 5.67 5.03 7.99 0.05 0.05 0.15 0.01 0.15-0.06-0.1-9.2-1.67-18.83 2.99-26.56-4.07 16.65-1.95 34.17 6.33 50.01z"/>
	<path class="s0" d="m263.97 153.35c-0.36 0.02-0.73 0.05-1.07 0.15-0.13 0.03-0.23 0.11-0.35 0.16q-0.24 0.04-0.48 0.11c-1.96 0.59-2.66 3.64-0.61 4.64 2.14 1.04 5.02 0.2 5.01-2.56-0.01-1.28-1.15-2.59-2.5-2.5z"/>
	<path class="s0" d="m264.12 142.85c-0.66-0.3-1.47-0.29-2.14 0.03-2.13 1-2.31 4.02-0.81 5.61 1.08 1.16 2.84 0.97 4 0.07 0.95-0.74 1.4-1.82 1.45-3.01 0.06-1.45-1.15-2.57-2.5-2.7zm-2.61 3.17c0.05-0.08 0.13-0.2 0 0z"/>
	<path class="s0" d="m264.92 133.54q-0.02-0.01-0.05-0.02-0.82-0.16-1.64-0.31c-1.06-0.2-2.35 0.29-2.6 1.47q-0.13 0.62-0.26 1.24c-0.24 1.18 0.35 2.66 1.66 2.92q1.34 0.26 2.71 0.39c1.18 0.12 2.26-0.94 2.59-1.98 0.59-1.9-0.8-3.43-2.41-3.71zm-1.68 5q-0.02-0.01-0.02-0.02 0.13 0.07 0.14 0.09-0.06-0.03-0.12-0.07z"/>
	<path class="s0" d="m200.61 156.98c-0.55-6.92-4.4-11.96-6.23-15.61-1.55-3.09-4.89-1.99-5.68 1.52-2.43 11.88-0.82 17.91 7.63 24.07 0.82 0.6 1.62-0.65 0.86-1.29-4.82-4.1-6.51-12.13-4.82-17.98 3.31 2.53 6.06 9.35 6.62 14.81-3.2 14.29 0.58 29.54 11.42 41.49 0.08 0.09 0.21-0.04 0.13-0.13-11.08-13-14.1-32.84-7.22-48.47 3.29-7.47 8.58-13.37 14.57-18.63q0.03 0.01 0.06 0c4.21-3.48 15.33-5.17 20.23-2.72-4.5 4.08-12.46 6.11-18.26 3.58-0.92-0.39-1.68 0.87-0.79 1.34 9.25 4.87 15.38 3.67 24.97-3.74 2.81-2.26 2.32-5.74-1.13-5.77-4.58-0.04-11.86-1.59-19.13 2.42 3.64-2.84 7.38-5.57 10.97-8.34q4.18-3.23 7.85-6.76c5.12-1.77 12.15-2.22 15.77-0.42-4.5 4.09-12.46 6.11-18.26 3.59-0.92-0.4-1.68 0.87-0.79 1.34 9.25 4.87 15.38 3.67 24.97-3.74 2.81-2.26 2.32-5.74-1.13-5.77-4.14-0.04-10.47-1.31-17.01 1.39 13.28-14.32 20.07-31.97 16.12-53.09-0.48-2.59-4.62-1.51-3.98 1.1 3.28 13.44 1.38 26.81-4.94 38.33 1.96-6.77 0.03-12.91-0.45-17.01-0.4-3.43-3.91-3.54-5.85-0.51-6.35 10.34-6.89 16.55-1.06 25.23 0.56 0.84 1.74-0.05 1.25-0.92-3.13-5.5-1.97-13.63 1.61-18.55 2.48 3.88 2.53 12.42 0.7 17.75q-2.81 3.88-6.34 7.34c-3.96 3.88-8.31 7.32-12.71 10.7 5.33-7.83 3.53-15.91 3.48-20.86-0.03-3.45-3.52-3.94-5.77-1.13-7.41 9.59-8.61 15.72-3.74 24.97 0.47 0.9 1.73 0.13 1.34-0.78-2.52-5.8-0.5-13.76 3.58-18.27 2.08 4.17 1.17 12.82-1.29 17.91-5.99 4.57-11.96 9.15-17.12 14.66 2.86-6.65 1.56-13.1 1.52-17.3-0.03-3.45-3.52-3.94-5.77-1.13-7.41 9.59-8.61 15.71-3.74 24.97 0.47 0.89 1.73 0.13 1.34-0.79-2.52-5.8-0.5-13.75 3.58-18.26 2.08 4.16 1.17 12.83-1.3 17.91-2.6 3.66-4.62 7.53-6.06 11.55z"/>
	<path class="s0" d="m267.49 57.28v210.47h-210.47c-1.52 0-2.76 1.23-2.76 2.75 0 0.79 0.34 1.5 0.87 2h217.11v-217.11c-0.5-0.53-1.21-0.86-2-0.86-1.52 0-2.75 1.23-2.75 2.75z"/>
	<path class="s0" d="m50.33 272.5c0.54-0.5 0.87-1.21 0.87-2v-19.73h19c1.52 0 2.76-1.24 2.76-2.76v-17h20.83c1.52 0 2.75-1.23 2.75-2.76v-18.72h14.62c1.53 0 2.76-1.23 2.76-2.76v-18.84q0-0.56-0.22-1.07c-0.17-0.41-16.43-40.12 0.07-72.83 32.72-16.5 72.42-0.24 72.83-0.07q0.51 0.22 1.07 0.22h18.84c1.53 0 2.76-1.24 2.76-2.76v-14.62h18.73c1.52 0 2.75-1.23 2.75-2.75v-20.83h17c1.52 0 2.76-1.24 2.76-2.76v-19h19.74c0.79 0 1.49-0.33 1.99-0.86v-24.96h-4.75v20.31h-19.74c-1.52 0-2.75 1.23-2.75 2.76v19h-17c-1.53 0-2.76 1.23-2.76 2.75v20.83h-18.73c-1.52 0-2.75 1.24-2.75 2.76v14.62h-15.55c-5.26-2.11-44.91-16.84-78.51 1.29-18.14 33.6-3.4 73.25-1.29 78.51v15.55h-14.62c-1.53 0-2.76 1.23-2.76 2.76v18.72h-20.83c-1.52 0-2.76 1.23-2.76 2.76v17h-19c-1.52 0-2.75 1.23-2.75 2.75v19.74h-19.85v4.75c0 0 24.49 0 24.49 0z"/>
</svg>