<svg version="1.2" xmlns="http://www.w3.org/2000/svg" viewBox="0 0 300 300" width="300" height="300"><style></style><path  d="m96.5 257.8c-2.5 1.8-4.6-3.5-8.3 0.8-4.3 5-5.9 10.6-12.3 13.7-1.1 0.5-9.9 2-6.6 0.1 4.3-2.5 9.6-2.9 11.9-8 0.5-1 2.2-4.5 1.1-5.5-1.1-1-2.4 0.2-3.3-1.1-1-1.7 0.5-12.8-2.1-12.3-3.7 0.8-4.8 5.6-5.5 8.6-0.7 2.5-2.8 0-4.4 1.5-1.6 1.4-1.9 3.4-2.8 5.2-2.4 5-6.7 7.1-12.3 7-3.2 0-10-5.4-4.7-5.3 5 0.1 10 5 14.1-1.3 1.5-2.2 2.3-6-0.1-7.8-1.8-1.3-0.4-3.3-0.4-5 0-3.1-7.5-5.3-9.9-6.7-1.8-1-6.4-0.7-5.8-3.6 0.3-1.7-1.1-3.1-2.7-2.8-5.2 0.9-8 4.2-8 9.5 0.1 1.4 1.7 12-2.5 5.1-1.9-3.1-0.5-9 1.4-11.9 2.3-3.6 10.2-3.1 11.3-6.7 0.3-1.2-1.8-4.1 0.9-4 2.3 0.1 5.3-0.9 7.2-2.4 4.2-3.4-2.1-3.9-4.3-5-1.6-0.9-3.5-0.5-4.9-1.2-1.8-0.9-1-3.5-3.8-3.1-6 0.8-10.4 5.6-11.7 11.3-1.2 4.7-3.3 1.8-2-1.6 1.7-4.2 4.3-7.8 8-10.5 2.4-1.8 11.9-4.2 11.1-8.4-0.4-1.9-3.4-2.3-1.7-4.7 1.4-1.8 2.9-4.5 3-6.9 0.1-3.7-4.5-6.1-3.7-3.1 1.2 4.6-5 9.3-7.5 12.2-4 4.6-7.5 9.3-10.3 14.8-4.7 9.4-6.8 25.8 0.5 34.7 1.4 1.7 4.6 8.9 2.9 11.1-1.4 1.7-0.8 3.9 0.8 5.3 2.4 2 3.1-0.5 5.4-0.7 4.8-0.3 9.2 3.9 12.9 6 4.1 2.3 9.2 3.6 13.8 3.3 9.8-0.5 17.5-1.3 26.3-6.3 5-2.9 8.5-7.6 13.4-10.7 1.3-0.9 10.1-1.1 8.5-3.3-3-4.1-9.4-2.9-12.9-0.3z"/><path  d="m117.4 149.1c4.2 0.1 6.5 3.7 6.9 7.7 1.3 10.4-1.6 22 12.3 24.2 6.4 1 20.3-0.4 18.4 9.5-0.7 3.6 5.4-0.5 5.7-3.4 0.4-3.7-5.2-8-4-10.6 3.7-7.8-22.8-1.9-22.7-1.8-1.4-2.3 16.8-5.2 18.2-5.6 2.4-0.6 5.6-4.7 2.3-6.4-2.5-1.4 0-5.1 0-7.4 0 0.2 0 1.5 0 0 0-5.7-6.2-2.7-9.3-2.3-2.8 0.3-3-5.2-6.6-0.8-3.6 4.2-3 10.8-6.1 15.5-3.9 5.8-0.9-2.3-0.4-4.2 0.9-3.4 5.6-12.7-0.1-14.9-1.7-0.7-2.8 1.3-4.4-0.4-1.7-1.9-4-3.1-6.6-3.3-2.9-0.3-8.1 4.2-3.6 4.2z"/><path  d="m30.9 139.5c0.2 8.7 0.6 16.8 0.4 19.4q0 0.1 0 0.2c0 5.3 4.2 10.6 9.5 7.3 4.8-2.9 12.6-0.4 16.6-3.4 19.6-14.4-15.6-4.3-16-9.4-0.4-4.7-0.4-9.4-0.3-14.1q0 0 0 0l0.1-126.5h-10.3l0.1 126.5q0 0-0.1 0z"/><path  d="m57.9 166.6c-3.1 5.3-3.9 17.7 5.7 16.4 3.7-0.5 6-4.6 4.5-8-2-4.4-4.7-0.4-6.4 1.1-2.4 2.1 0-4.1 0.2-4.4 2.6-3.6 5-6.7 8.9-8.9 7.8-4.3 16.4-2.8 24.1 1.1 8.5 4.5 11.3 11.2 17.6 17.7 3.1 3.3 2.9-1.2 1.8-3.2-2.1-3.8-4.8-7.4-7.8-10.6-6.5-7.1-15.2-12.2-24.9-12.5-7.9-1.2-19.6 4.6-23.7 11.3z"/><path  d="m81.6 155.3c4.1 0.1-0.7-0.1 0 0z"/><path  d="m115.9 204.6c-1.1-3.1-5.7-4.4-8.4-5.5-7.1-2.8-14.4-4-21.7-5.9-5.3-1.4-23.4-0.8-34.3 5.1-1 0.5-8.3 6.4-2.6 5.3 3.2-0.6 6.6-2.3 9.7-3.4 12.1-4.3 25.4-2.8 37.4 1.1 3.6 1.2 7.3 2.3 10.7 4.1 2.5 1.3 4.9 4.3 7.6 5.1 2.5 0.9 1.9-4.8 1.6-5.9z"/><path  d="m137.1 279c-3.7-2.6-1.1-6.2-4-8.4-1.7-1.3-5.7 3.1-8.8 1.9-1.5-0.5-6.5-6.8-2.9-7.6 2.6-0.5 6.2 7.1 8.7-0.4 1.4-3.9-3.6-8.2-7.3-7.8-13.2 2.4-7.8 14.8-3.6 19.3 5.3 5.8 13.3 4.7 18 10.7 1.2 1.6 3.9-5-0.1-7.7z"/><path  d="m36 185c-1.3 0.1 0.5 0 0 0z"/><path  d="m36 185c5.5-0.3 11.7-5.8 8.9-11.7-1.9-3.9-10.2-4.7-9.8 0.9 0.2 2.5 3.9 7-2.2 4.8-4.8-1.9-4.2-7.4-1.2-10.5 3.1-3.2-5.9-3.6-6.9-5.2-2.1-3.4-8.9-3.2-5.5 0.1 5.9 5.8 3.5 22.8 16.7 21.6z"/><path  d="m129 192.1c-6.6-4.4-13.9-7.1-21.6-8.7-1.2-0.3-7.4-2.7-7.9-0.3-0.4 2.1 5 2.4 5.7 2.6 13.5 2.6 28.6 10.5 34.5 23.6 1.4 3 2.6 6.3 3 9.5 0.5 3.6-1.2 8 0 11.4 3 8.3 5.4-4.5 5.3-7 1-12.8-9.1-24.6-19-31.1z"/><path  d="m88 183.1c2.5 2.8 4.6 7.5 7.8 9.7 0.9 0.6 6.9 3.7 6.9 0.7 0-7.1-11.6-17.6-16.3-22.3-2.7-2.6-6.1-6.6-10-7.5-1.7-0.4-6.7 1.3-6.7 3.6 0 2.3 6.7 5.5 8.3 6.7 3.6 2.7 6.8 5.7 10 9.1z"/><path  d="m108.5 214.7c0 1.2 0-0.9 0 0z"/><path  d="m103.3 206.7c-2.8-1-0.5 9-0.2 10.2 2.4 10.1-1.6 22.4-5.7 31.5-0.4 0.8-2.6 10.2 1.1 5.7 3.3-4 5.3-9 7.1-13.8 3.1-8.2 2.9-16.9 2.9-25.6 0.3-3.8-1.7-6.7-5.2-8z"/><path  d="m75.9 210.6c4.7 0 0.1-3.8-1.5-4.5-2.7-1.2-6-1.9-9-1.6-6.9 0.9-13.3 3-19.4 6.5-6.8 3.9 8.5 1.4 9.8 1.7 3.5 0.9 6.8 4 10.4 1.6 3.1-2.1-1.9-3.2-0.8-4.9 0.9-1.4 8.4 1.6 10.5 1.2z"/><path  d="m86.6 256.2c5.3-3 9.2-16.7 8.6-22.2 0-5.1-2.2-14.2-5.2-5.3-0.2 0.8 1.3 8.7-0.1 7.8-2-1.3-3.6-5-5.2-0.3-1.2 3.8 2.4 7.7 2 11.6-0.1 0.6-3.5 10.3-0.1 8.4z"/><path  d="m117.6 192.5c-2.1 0.9 0.3 9.9 0.5 12.1 0.9 11.5-2.2 24.2-7 34.6-1.5 3.3-3.3 6.7-5.3 9.9 0.7-1.1-3.1 6.6 0.3 3.8 3.7-3.2 6.5-10.2 8.3-14.7 4.3-10.6 6.6-20.7 6.6-32.2 0.1-1.4-0.3-14.9-3.4-13.5z"/><path  d="m128.1 239.5c1.6-5.8-9.1-4.6-10.3 0.9-1.3 5.7 6.2 6.5 9.8 7.3 8.4 0.2 6-10.2 1.2-5.6-1.1 0.8-5.2 2.3-3.5 0.2 0.9-1.1 2.3-1.3 2.8-2.8z"/><path  d="m22.2 267.9c-7.4 0.9-3 11.6 2.8 11.6 8 0 4.1-12.5-2.8-11.6z"/><path  d="m51.6 194.1c3.5-1.5 6.8-3.2 10.3-4.6 5.4-2.1 13.6-4.7 19.4-4q0.2 0 0.2 0c1.4-0.2 6-1.7 2.2-2.9-2.1-0.6-6.4 0.1-8.5 0.6-7.3 2-14.3 3.8-21.2 7.2-1.2 0.6-6.8 5.5-2.4 3.7z"/><path  d="m62.5 239.3c-3.6 0.4-6.6-1-10.2-1.7-1.6-0.3-4.1 1.4-1.6 2.3 3.3 1.2 5.7 2.9 9.1 3.8q0.2 0 0.5 0.1c0.4 0 0.5 0 0.5 0 2.7-0.6 5.1-5 1.7-4.5z"/><path  d="m121.1 178.3c-2.5 1.9-1.8 6.5 1.8 6.5 6.2 0.1 2.4-9.8-1.8-6.5z"/><path  d="m20 266.9c2.3-1 3.9-3.4 0.4-3.4q-0.1 0-0.4 0c-0.2 0-0.3 0-0.2 0-3 0.6-4.9 5.8 0.2 3.4z"/><path  d="m15 281.2c0.1 3.2 4.7 1.8 4.7-0.8 0-3.2-4.7-1.8-4.7 0.8z"/><path  d="m30.4 278.4c-2.8 4.6 3.1 3 3.2-0.8 0-4-2.4-0.4-3.2 0.8z"/><path  d="m158.8 262.5c-2.8 0-5 0.4-6.6 0.4-8.4 0.1-6.2-2.1-5.8-9.3 0.2-4.2-0.3-8.9-1.5-12.9-2.5-7.9-7.2-16.2-12.3-22.7-1-1.2-7.1-10-8.8-7-1.3 2.1-1.5 6.3 0 8.3 5.3 7.2 10.1 15 11.7 23.9 1 5.5 0.5 10.6-1 16-1 3.2-4.6 6.4-1.1 9.2 3.3 2.5 2.5 4.1 6.7 4.1 3.8 0.1 7.5 0.4 11.3 0.4-3.2 0 3.6 0.1 0 0q4 0 7.9 0h126.2v-10.4z"/></svg>