<svg version="1.2" xmlns="http://www.w3.org/2000/svg" viewBox="0 0 300 300" width="300" height="300"><style></style><path  d="m35.9 168.1v-147.1h-7.9v147.4q2.2-0.6 4.6-0.6c1.1 0 2.2 0.1 3.3 0.3z"/><path  d="m24.2 184c5-6.8 13.4-0.2 17.4 3.9 4.2 4.3 6.7 10.7 8.7 16.3 1.2 3.6 3.6 6.5 5.5 9.7 0.7 1.2 5.1 3.9 4.2 0.5-0.7-2.9-6.5-43.3 15.1-48 4-0.9 18.1-0.8 16.6 6.6-0.4 1.8-4.2 4.8-1.2 6.2 2.5 1.2 6.9-1.9 8.1-3.9 3.4-5.2-0.6-14.1-5.4-17-3.3-2.1-6-2.7-9.8-3-3.7-0.2-1.6-4.2-3.1-6.1-3.7-5-13 3.7-19.3 11.1-2.5 2.9-2.6-2.4-3.4-3.9-2.4-4.4-5.5 0.7-6.9 2.9-1.7 2.5-2.2 13.5-3.2 16.2-1.5 3.6-5.5-1-7-2-5-3.6-12.1-3.3-16.7 0.6-2.2 1.9-4.6 4.9-4.8 7.9-0.3 3.6 3 5 5.2 2z"/><path  d="m133.4 262.5c0.5 2.6 0.4 5.3-0.5 7.9h6.2 0.1q0 0 0 0h142.4v-7.9z"/><path  d="m124.1 253c0.4-3.3 7.1 2 15.6-4 3.8-2.7 5.5-3.4 6.9-5.5 2.5-3.7-4.7-3.4-5.8-4.6-1.8-2 3.3-4.1 4.3-4.7 6.1-3.7 9.1-9.5 4.6-15.9-1.7-2.4-4.9-2.2-4.8-5.9 0.1-2.9-1.4-5.6-3.4-7.6-4-4.4-11.5-7.6-17.1-3.8-1.7 1.3-4.6 5-3.4 7.3 1.3 2.6 3.5 0.1 5.2-0.4 7.2-2.2 10.8 8.9 8.7 14.1-1.8 4.4-4 10.3-8.2 13.3-7.9 5.7-23 9.8-39.4 4.5-1.6-0.5-6.6-1.8-3.1 1.3 2.6 2.4 6.1 4 9.3 5.7 2.8 1.5 5.7 3.1 8.6 4.3 2.4 1 5 2.8 7.5 3.5 5 1.3 13.2 11.1 10.7 16.4-0.9 1.9-5.5 4.4-4.7 6.5 1 2.5 4.5 2.7 6.4 1.5 5.8-3.4 10.2-10.7 7.8-17.5-1-2.6-5.9-5.9-5.7-8.5z"/><path  d="m87.5 268.3c-1.7-0.4-5.6 2-9.4 1-3.4-1-14.6-8.7-14-23.4q0-0.1 0-0.2 0 0.1 0 0.2c0-1.1 0.3-12.4-3.4-8.8-1.7 1.5-1 4.8-4.4 4.4-3.5-0.4-2.2-3.8-3.6-5.8-1.6-2.4-13.5 5.1-24-14.3-1.5-2.8 1.2-4.9 0.4-7.5-1.1-3.9-4.4-0.2-5.5 1.5-1.8 2.8-1.3 6.5 0.1 9.5 0.9 2 5.2 6.4 4.1 8.6-3.4 7.5 6 7.5 10.7 9.7 3.2 1.5 7.3-1.5 9.7-0.1 4 2.3-2.7 3.4-3.6 3.5-3.9 0.6-18.5 4.5-14.5 10.6 3.4 5.2 0 5.9-1.8 10.4-1.7 4.3 3.8 3 5.7 2 2.5-1.3 3.6-3 6.2-0.5 5.4 5 10.7-8 11.5-10.2 0.6-1.3 0.3-7.3 2.8-7.2 2.4 0 1.5 7.3 1.5 8.6 0 3.5 0.7 6.2 3.1 8.9 1.6 1.7 3.2 3 5.5 1.8 1.4-0.7 2.8-0.6 4.1 0.4 4.7 3.4 12.9 4.2 16.5 3.1 2-0.6 6.6-5.2 2.3-6.2zm-23.4-22.7q0-0.1 0-0.1 0 0 0 0.1z"/><path  d="m108.3 226.2c-5.4-5-6.5-13.4-9.1-19.8-3.4-8.8-14.2-6.7-21.4-10.4-3.4-1.8-7.8-5.2-7.8-9.4 0-2.1-0.4-9.9-4.1-5.4-6 7.2 0.2 17.4 7 21.6 1.8 1.2 9.9 2 8.4 5.5-1 2.4-5.4 5-4 8 1.3 2.9 5.2 6.9 8.8 5.3 2.7-1.3 8.1-6.2 9.2-0.6 2.1 10.9 16.1 13.3 17.1 13.3 2.5-0.2 4.9 0.3 7-1.4 1.2-1.1 2.3-3.3 0.1-4.1-1.5-0.6-6.1 2.3-11.2-2.6z"/><path  d="m116.1 267.8c2.6-6.6-19.5-11-30.6-20.1-18.5-15.2-11.8-38.9-14.1-41.3-2.1-2.2-4.7-3.4-6.3 0-1.3 2.7-4.6 32.1 20.2 50.2 9 6.6 28.8 16.3 30.8 11.2z"/><path  d="m87.7 184.4c-9 2.6-9.5 7.4-6.9 8.3 4.9 1.6 9.3-2.3 14.1-1.1 2.9 0.7 2.9 3.7 4.1 5.8 1.6 2.9 3 2.7 5.7 3.6 6.4 2.2 3.1 9.6 2.7 14.2q0 0.1 0 0.4 0 0.1 0 0.1c0.7 8.7 5.6 4.2 7.5-1.6 1.7-5.2 2-10.5 0-15.7-4-10.5-15.9-17.2-27.2-14z"/><path  d="m41.1 213.9c3.6 4 7.6 7.6 11.8 10.8 1.9 1.5 4 5.2 7.1 4 2.2-0.8 1.1-3.8 0.4-5.3-1.6-3.7-6.8-6.3-9.6-9.1-10.2-10-10.8-21.4-13.4-25.5-1.5-2.6-7.7-5.5-7.6-0.4-0.2 4.5 3.4 16.6 11.3 25.5z"/><path  d="m29.8 188.4c0-0.7 0 0.9 0 0z"/><path  d="m88.3 227.5c-2.3 0-8.6-0.2-6.8 4.2 3 7.5 16.4 2.4 14.5-1.1-1.7-3.2-4.5-2.9-7.7-3.1z"/></svg>