<svg version="1.2" xmlns="http://www.w3.org/2000/svg" viewBox="0 0 300 300" width="300" height="300">
	<style>
		.s0 { fill: #b6a893 } 
	</style>
	<path class="s0" d="m119.43 47.68c1.24-1.01 2.69-1.8 4-2.73 1.18-0.82 2.32-1.73 3.57-2.43 1.36-0.76 1.57-2.7 0.49-3.78-1-0.99-3.16-0.97-3.78 0.49-0.61 1.44-1.45 2.8-2.2 4.18-0.74 1.38-1.34 2.87-2.18 4.19-0.03 0.06 0.05 0.11 0.1 0.08z"/>
	<path class="s0" d="m117.45 46.99c0.01 0.05 0.1 0.05 0.11 0 0.66-2.98 1.54-6.12 2.54-9 1.29-3.7-5.79-4.06-4.63 0 0.82 2.88 1.5 6.03 1.98 9z"/>
	<path class="s0" d="m108.45 42.19c1.25 0.82 2.39 1.84 3.56 2.77 1.18 0.93 2.47 1.75 3.59 2.75 0.04 0.05 0.12-0.01 0.09-0.07-0.71-1.31-1.21-2.75-1.84-4.1-0.62-1.34-1.36-2.67-1.86-4.06-0.57-1.58-2.37-2.34-3.78-1.25-1.37 1.06-1.16 3.04 0.24 3.96z"/>
	<path class="s0" d="m105.23 49.86c3.06-0.31 6.35-0.44 9.43-0.39 0.07 0 0.07-0.09 0.01-0.12-2.75-1.14-5.63-2.52-8.23-3.97-3.77-2.11-4.95 4.86-1.21 4.48z"/>
	<path class="s0" d="m110.45 52.46c-1.5 0.4-3.01 0.88-4.54 1.16-3.81 0.68-0.57 7.08 2.34 4.02 1.05-1.12 2.26-2.09 3.41-3.11 1.15-1.02 2.2-2.17 3.4-3.12 0.05-0.04 0-0.12-0.05-0.1-1.49 0.49-3.05 0.74-4.56 1.15z"/>
	<path class="s0" d="m115.41 61.58c0.19-2.9 0.64-6.07 1.21-8.93 0.01-0.06-0.07-0.1-0.11-0.05-1.54 2.46-3.36 5.04-5.21 7.28-2.88 3.49 3.82 6.05 4.11 1.7z"/>
	<path class="s0" d="m123.66 60.54c-1.8-2.46-3.58-5.28-5.05-7.95-0.04-0.07-0.12-0.02-0.11 0.04 0.4 2.94 0.66 6.16 0.68 9.13 0.03 4.29 6.72 1.85 4.48-1.22z"/>
	<path class="s0" d="m128.9 54.06c-1.49-0.36-2.94-0.93-4.4-1.41-1.46-0.48-2.99-0.82-4.41-1.39-0.06-0.02-0.1 0.06-0.06 0.1 1.16 1.04 2.16 2.26 3.26 3.36 1.1 1.11 2.27 2.17 3.27 3.36 2.52 2.99 6.41-3.05 2.34-4.02z"/>
	<path class="s0" d="m128.71 45.88c-2.63 1.28-5.57 2.45-8.33 3.42-0.06 0.02-0.05 0.11 0.02 0.11 2.9 0.13 6.02 0.4 8.89 0.87 4.47 0.72 3.36-6.31-0.58-4.4z"/>
	<path class="s0" d="m195.77 35.34c-1.38 1.25-1.01 3.19 0 4.48 1.3 1.67 2.37 0.33 3.84 0.5q2.19-2.2 3.71 2.92-0.62 2.1-2.35 3.26c-2.46 2.08-5.42 2.23-8.43 1.28-5.2-1.64-9.14-5.48-13.54-8.59-1.79-2.22-4.44-3.82-7.79-4.16-6.05-0.62-12.21 1.59-17.34 4.65-6.6 3.94-12.23 12.51-20.32 12.97-0.06 0.01-0.08 0.1-0.01 0.12 7.68 2.26 14.02-6.31 20.03-9.74 4.79-2.74 13.94-6.75 19.34-3.26 6.17 3.98 0.73 8.02-0.73 12.37-0.4 1.18 0.46 2.59 1.64 2.89q0.55 0.13 1.09 0.27c1.17 0.3 2.47 0.01 3.32-0.88 3.24-3.37 3.95-7.77 2.75-11.54 7.21 7.12 15.07 15.22 24.21 7.31 3.88-3.35 5.71-9.52 2.54-13.97-2.94-4.15-8.37-4.13-11.96-0.88z"/>
	<path class="s0" d="m93.4 51.35c-0.12 2.63 4.28 2.57 4.04 0-0.27-2.81 0.46-5.6 2.66-7.48 0.13-0.11-0.02-0.31-0.16-0.27-3.77 0.84-6.37 3.91-6.54 7.75z"/>
	<path class="s0" d="m93.7 44.23c0.05-0.05-0.02-0.12-0.07-0.09-2.68 1.36-4.62 2.97-5.81 5.78-0.96 2.28-1.94 6.4 0.4 8.08 0.57 0.42 1.51 0.36 2.09 0q0.1-0.06 0.2-0.12c1.36-0.84 1.2-2.36 0.29-3.19-1.62-3.26 0.3-8.37 2.9-10.46z"/>
	<path class="s0" d="m94.54 38.5c0.32-0.07 0.3-0.55 0-0.63q-1.56-0.43-2.78-1.49c-0.77-0.67-1.2-1.59-1.94-2.26-1.39-1.26-3.68 0.34-2.66 2.05 1.39 2.33 4.95 2.86 7.38 2.33z"/>
	<path class="s0" d="m76.3 39.62c3.22 2.35 6.88 2.81 10.6 1.38 0.06-0.02 0.05-0.1-0.02-0.11-3.05-0.4-6.1-2.14-8.13-4.45-1.83-2.08-4.95 1.36-2.45 3.18z"/>
	<path class="s0" d="m76.57 47.26c1.82-0.43 4.43-1.03 5.78-2.4 0.09-0.08 0.06-0.25-0.07-0.28-0.86-0.16-1.76-0.04-2.64-0.11-1.06-0.1-2.06-0.35-3.07-0.69-2.69-0.91-3.13 4.2 0 3.48z"/>
	<path class="s0" d="m134.44 51.12c2.23-1.75 3.99-4.36 4.6-7.14 0.67-3.01-4.27-3-3.58 0 0.58 2.55 0.2 4.77-1.19 7.01-0.07 0.11 0.08 0.2 0.17 0.13z"/>
	<path class="s0" d="m140.73 47.81c2.38-2.12 4.03-4.72 5.06-7.72 0.18-0.54-0.04-1.14-0.41-1.54q-0.11-0.12-0.23-0.25c-0.33-0.35-0.98-0.45-1.39-0.18-1.49 0.97-0.99 2.58-1.21 4.14-0.29 1.94-0.96 3.77-1.9 5.48-0.03 0.06 0.04 0.11 0.08 0.07z"/>
	<path class="s0" d="m147.99 41.28c0.71-0.72 1.55-1.23 2.32-1.88 0.77-0.64 1.6-1.21 2.53-1.6 1.82-0.76 0.49-3.42-1.01-2.39-1.05 0.71-1.99 1.53-2.78 2.53-0.72 0.91-1.04 2.11-1.24 3.24-0.02 0.1 0.1 0.19 0.18 0.1z"/>
	<path class="s0" d="m134.45 54.6c-0.26-0.07-0.46 0.25-0.26 0.45 1.32 1.37 2.61 2.36 4.32 3.2 1.61 0.79 3.22 1.64 5.04 1.38 1.4-0.21 1.45-2.27 0.37-2.9-1.38-0.81-3.11-0.69-4.66-1.04q-2.41-0.53-4.81-1.09z"/>
	<path class="s0" d="m142.53 52.71c-0.15-0.01-0.23 0.24-0.08 0.3 1.8 0.79 3.64 1.37 5.58 1.66 1.84 0.28 3.54 0.62 4.73-1.02 0.42-0.58 0.08-1.44-0.47-1.79-1.45-0.91-2.74-0.09-4.26 0.29-1.81 0.46-3.64 0.6-5.5 0.56z"/>
	<path class="s0" d="m153.84 46.7c-1.78 0.81-3.65 1.41-5.46 2.13-0.05 0.02-0.06 0.09 0 0.1 1.92 0.39 3.81 0.38 5.75 0.18 1.85-0.2 3.8-0.28 5.23-1.54 0.99-0.87 0.21-2.69-1.09-2.63-1.68 0.08-2.93 1.08-4.43 1.76z"/>
	<path class="s0" d="m168.23 41.6c-2.94-1.73-6.09-1.04-8.78 0.7-0.07 0.04-0.01 0.13 0.05 0.1 2.43-1.05 4.97 0.13 6.66 1.88 1.7 1.77 4.25-1.41 2.07-2.68z"/>
	<path class="s0" d="m116.74 48.26q-0.14 0.03-0.28 0.05c-1.56 0.3-1.57 2.87 0 3.17q0.14 0.02 0.28 0.05c1.07 0.2 2.14-0.48 2.14-1.64 0-1.15-1.07-1.83-2.14-1.63z"/>
	<path class="s0" d="m181.91 57.12c-0.89 4.34 5.83 5.23 5.97 0.81 0.06-2.01-0.03-3.97-1-5.76-0.85-1.56-1.95-2.96-3.21-4.2-0.29-0.28-0.87-0.09-0.84 0.35 0.11 1.48 0.07 2.95-0.26 4.41-0.34 1.46-0.36 2.92-0.66 4.39z"/>
	<path class="s0" d="m81.91 51.56c-0.93 2.64-1.63 5.77-1.69 8.83-2.41 9.64-5.39 20.98 4.71 26.83 2.02 1.18 4.13 1.73 6.19 1.82-0.5 1.01-1.41 2.05-2.13 2.92q-0.47 0.55-0.98 1.05-0.5 0.51-1.05 0.98c-0.87 0.72-1.91 1.63-2.92 2.13-0.08-2.06-0.64-4.17-1.82-6.19-5.85-10.1-17.19-7.12-26.83-4.71-3.06 0.06-6.19 0.76-8.83 1.68-7.32 2.58-12.54 8.34-11.82 16.35 0 0.07 0.12 0.07 0.11 0-0.27-8.23 6.69-13.4 14.12-14.89 2.96-0.6 6.97-1.05 9.93-0.03q5.27 1.82 5.58 7.16 0.25 5.96-5.8 4.59c1.02-0.96-0.03-3.03-1.43-2.47-4.74 1.89-2.77 7.96 2.05 8.04 6.86 0.11 10.43-8.9 7.77-14.37-1.96-4.02-5.64-5.67-9.67-6 7.15-1.17 15.25-1.8 19.85 3.35 6.04 6.76 2.08 16.6-6.33 18.51-2.54 0.58-1.46 4.49 1.07 3.9q1.67-0.39 3.17-1.11c5.23 3.25 11.3 4.16 17.52 2.19 2.82-0.9 6.38-2.74 9.28-5.16 2.42-2.9 4.26-6.46 5.16-9.28 1.97-6.22 1.06-12.3-2.19-17.52q0.72-1.5 1.11-3.17c0.59-2.53-3.32-3.61-3.9-1.07-1.91 8.41-11.75 12.37-18.5 6.33-5.16-4.6-4.52-12.71-3.35-19.86 0.33 4.04 1.98 7.72 5.99 9.68 5.48 2.66 14.48-0.91 14.37-7.77-0.08-4.83-6.14-6.8-8.03-2.06-0.56 1.41 1.5 2.46 2.46 1.44q1.37 6.05-4.58 5.8-5.35-0.31-7.17-5.58c-1.02-2.96-0.56-6.97 0.03-9.93 1.49-7.43 6.66-14.4 14.89-14.12 0.07 0 0.07-0.11 0-0.11-8-0.72-13.77 4.5-16.34 11.82zm22.24 30.05c1.94 5.59 1.85 11.78-0.97 17.17-1.03 1.99-2.35 3.87-3.85 5.55-1.68 1.51-3.56 2.82-5.55 3.85-5.39 2.82-11.58 2.91-17.17 0.97q1.24-0.75 2.3-1.69c3.52 0.89 6.69 1.39 10.42 0.06 3.01-1.08 5.74-2.91 8.25-4.94 2.03-2.5 3.86-5.23 4.94-8.25 1.32-3.72 0.83-6.89-0.07-10.41q0.95-1.07 1.7-2.31zm-2.1 2.77c0.21 2.99 0.13 6.12-0.83 8.88-1.04 3.02-3 5.52-5 7.96-2.44 2-4.94 3.96-7.96 5-2.76 0.96-5.89 1.04-8.88 0.83q1.35-1.28 2.35-2.8c4.18 0.71 9.23-1.96 12.86-4.66 2.7-3.63 5.37-8.68 4.66-12.86q1.52-1 2.8-2.35zm-3.28 2.63c-0.25 2.49-1.84 5.47-2.77 7.2q-1.18 2.17-2.74 4.05c-1.26 1.03-2.6 1.96-4.05 2.74-1.73 0.93-4.71 2.52-7.2 2.77q0.99-1.64 1.52-3.47c2.82-0.7 5.9-1.69 8.17-3.6 1.91-2.27 2.9-5.35 3.6-8.17q1.83-0.53 3.47-1.52zm-3.64 1.57c-0.52 1.69-1.45 3.3-2.51 4.68-0.64 0.84-1.39 1.53-2.15 2.21-0.68 0.76-1.37 1.51-2.21 2.15-1.38 1.06-2.99 1.99-4.68 2.51q0.52-1.88 0.47-3.86c1.23-0.36 2.36-0.54 3.52-1.16q0.82-0.44 1.57-0.97 0.53-0.75 0.96-1.57c0.63-1.16 0.8-2.29 1.17-3.52q1.98 0.05 3.86-0.47z"/>
	<path class="s0" d="m107.26 80.4c3.6-1.39 7.33-2.55 10.79-4.27 2.72-1.36 0.12-5.79-2.37-4.06-3.18 2.2-6 4.92-8.95 7.41-0.41 0.35 0.02 1.11 0.53 0.92z"/>
	<path class="s0" d="m109.15 83.42c1.65-0.33 3.29-0.49 4.97-0.61 1.53-0.1 3.11 0.12 4.63-0.07 2.46-0.32 2.59-3.77 0-3.94-3.48-0.22-7.23 1.69-10.07 3.52-0.58 0.38-0.2 1.24 0.47 1.1z"/>
	<path class="s0" d="m119.99 86.61c-3.14-1-7.38-1.2-10.38 0.29-0.31 0.15-0.2 0.61 0.09 0.7 1.53 0.47 3.1 0.63 4.64 1.05 1.6 0.44 3.07 1.14 4.61 1.76 2.31 0.92 3.49-3.02 1.04-3.8z"/>
	<path class="s0" d="m119.58 94.13c-2.86-1.32-6.44-2.29-9.56-1.37-0.68 0.2-0.57 1.03 0 1.26 2.63 1.11 5.16 1.91 7.59 3.49 2.14 1.39 4.24-2.34 1.97-3.38z"/>
	<path class="s0" d="m107.97 99.94c2.24 2.02 5.03 3.42 7.32 5.42 2.23 1.94 4.97-1.53 2.5-3.24-2.72-1.88-6.27-3.54-9.65-2.82-0.28 0.06-0.38 0.45-0.17 0.64z"/>
	<path class="s0" d="m105.17 107.61c2.38 1.5 4.42 3.42 5.98 5.76 2.03 3.03 6.21-0.85 3.7-2.85-2.7-2.13-5.65-3.7-8.99-4.54-0.99-0.25-1.55 1.09-0.69 1.63z"/>
	<path class="s0" d="m96.29 75.04c-2.34 0.54-3.79 2.5-6.38 2.63-3.39 0.16-6.58-1.96-8.5-4.62-0.04-0.07-0.13-0.01-0.1 0.05 1.82 3.43 4.25 6.45 8.22 7.37 3.08 0.72 7.87 0.2 8.84-3.34 0.35-1.29-0.84-2.37-2.08-2.09z"/>
	<path class="s0" d="m80.28 48.84c-1.02 0.76-1.93 1.37-2.64 2.48q-1.15 1.82-1.34 3.96c-0.22 2.51 4.21 2.31 3.61-0.48-0.4-1.89-0.52-4.13 0.45-5.88 0.03-0.05-0.03-0.12-0.08-0.08z"/>
	<path class="s0" d="m65.41 54.77c1.5 4.3 2.79 9.52 1.4 13.96-0.02 0.07 0.08 0.1 0.11 0.03 2.71-6.5 2.23-16.68-2.45-22.22-0.41-0.49-1.18-0.62-1.76-0.47q-0.33 0.09-0.65 0.17c-0.39 0.1-0.63 0.46-0.65 0.85-0.04 0.89 0.09 1.26 0.5 2 1.15 2.07 2.64 3.25 3.5 5.68z"/>
	<path class="s0" d="m42.61 124.33c-1.33 0.84-2.82 1.44-4.2 2.18-1.37 0.75-2.74 1.59-4.18 2.2-1.46 0.62-1.48 2.78-0.49 3.78 1.08 1.08 3.02 0.87 3.78-0.49 0.7-1.24 1.61-2.39 2.43-3.57 0.93-1.31 1.72-2.76 2.73-4 0.03-0.05-0.01-0.13-0.07-0.1z"/>
	<path class="s0" d="m32.99 125.11c2.88-1.01 6.02-1.88 9-2.55 0.05-0.01 0.05-0.1 0-0.11-2.97-0.48-6.12-1.16-9-1.98-4.06-1.16-3.7 5.92 0 4.64z"/>
	<path class="s0" d="m33.23 113.21c-1.09 1.4-0.33 3.21 1.25 3.78 1.39 0.5 2.72 1.23 4.06 1.86 1.35 0.63 2.79 1.12 4.1 1.84 0.06 0.03 0.12-0.05 0.07-0.1-1-1.12-1.82-2.4-2.75-3.58-0.93-1.17-1.95-2.31-2.77-3.56-0.92-1.4-2.9-1.61-3.96-0.24z"/>
	<path class="s0" d="m40.38 111.44c1.45 2.6 2.83 5.48 3.97 8.23 0.03 0.06 0.12 0.06 0.12-0.01-0.05-3.08 0.08-6.37 0.39-9.43 0.38-3.74-6.59-2.56-4.48 1.21z"/>
	<path class="s0" d="m48.62 110.91c-0.28 1.53-0.76 3.04-1.16 4.54-0.41 1.51-0.66 3.08-1.15 4.56-0.02 0.05 0.06 0.1 0.1 0.06 0.95-1.21 2.1-2.26 3.12-3.41 1.02-1.14 1.99-2.36 3.11-3.41 3.06-2.91-3.34-6.15-4.02-2.34z"/>
	<path class="s0" d="m47.65 121.62c2.86-0.57 6.03-1.02 8.93-1.21 4.35-0.29 1.79-6.99-1.7-4.11-2.24 1.85-4.82 3.67-7.28 5.21-0.05 0.04-0.01 0.12 0.05 0.11z"/>
	<path class="s0" d="m56.76 124.18c-2.97-0.02-6.19-0.28-9.13-0.68-0.06-0.01-0.11 0.07-0.04 0.11 2.67 1.47 5.48 3.25 7.95 5.05 3.07 2.24 5.51-4.45 1.22-4.48z"/>
	<path class="s0" d="m49.06 133.9c0.97 4.07 7.01 0.18 4.02-2.34-1.19-1-2.25-2.17-3.36-3.27-1.1-1.1-2.32-2.1-3.36-3.26-0.04-0.04-0.12 0-0.1 0.06 0.56 1.43 0.9 2.95 1.39 4.41 0.48 1.46 1.05 2.91 1.41 4.4z"/>
	<path class="s0" d="m45.28 134.29c-0.47-2.87-0.74-5.99-0.87-8.89 0-0.07-0.09-0.08-0.11-0.02-0.97 2.76-2.14 5.7-3.42 8.33-1.91 3.94 5.12 5.05 4.4 0.58z"/>
	<path class="s0" d="m31.22 212.74c4.45 3.16 10.62 1.33 13.97-2.54 7.91-9.15-0.19-17-7.31-24.22 3.77 1.2 8.17 0.5 11.54-2.74 0.89-0.86 1.18-2.15 0.88-3.32q-0.14-0.55-0.27-1.09c-0.3-1.19-1.71-2.04-2.89-1.65-4.35 1.46-8.39 6.9-12.37 0.73-3.49-5.4 0.52-14.55 3.26-19.34 3.43-6.01 12-12.34 9.74-20.03-0.02-0.07-0.11-0.05-0.12 0.01-0.46 8.09-9.03 13.72-12.97 20.32-3.06 5.13-5.26 11.29-4.65 17.35 0.34 3.34 1.94 5.99 4.16 7.78 3.11 4.41 6.95 8.34 8.59 13.54 0.95 3.01 0.8 5.97-1.28 8.43q-1.16 1.73-3.26 2.35-5.12-1.52-2.92-3.71c-0.17-1.47 1.17-2.54-0.5-3.84-1.29-1.01-3.23-1.38-4.48 0-3.25 3.59-3.27 9.02 0.88 11.97z"/>
	<path class="s0" d="m36.62 56.24c-6.12 4.79-7.38 13.23-1.2 18.74 8.85 7.89 23.9 4.36 35.07 0.51 3.85-11.17 7.38-26.22-0.51-35.07-5.51-6.18-13.95-4.92-18.74 1.2q-1.34-0.98-2.77-1.79c-4.95-2.79-12.91-6.49-18.76-5.12-1.37 5.85 2.33 13.81 5.12 18.76q0.81 1.43 1.79 2.77zm20.2-10.69c2.83-4.1 7.65-2.9 10.28 0.68 5.53 7.55 4.47 18.92 2.58 28.45-9.53 1.89-20.9 2.95-28.45-2.58-3.58-2.63-4.78-7.45-0.68-10.28q0.36-0.25 0.62-0.55 2.2 1.93 4.71 3.4c5.19 3.02 11.55 4.54 17.58 3.79 0.75-6.03-0.77-12.39-3.79-17.58q-1.46-2.52-3.4-4.71 0.3-0.26 0.55-0.62zm-19.86-4.44c3.09 0.67 6.15 1.62 9 3.01 4.25 2.06 8.14 4.8 11.04 8.56 3.26 4.2 5.33 9.58 5.66 14.98-5.4-0.33-10.78-2.4-14.98-5.66-3.76-2.91-6.5-6.79-8.56-11.04-1.39-2.85-2.34-5.91-3.01-9q-0.11-0.53-0.2-1.05 0.52 0.09 1.05 0.2z"/>
	<path class="s0" d="m38.87 105.1c1.88-2.2 4.67-2.93 7.48-2.66 2.57 0.24 2.63-4.16 0-4.04-3.84 0.17-6.91 2.77-7.75 6.54-0.04 0.15 0.16 0.29 0.27 0.16z"/>
	<path class="s0" d="m44.92 92.82c-2.81 1.19-4.42 3.13-5.78 5.81-0.03 0.05 0.04 0.12 0.09 0.07 2.09-2.6 7.2-4.52 10.46-2.9 0.83 0.91 2.35 1.07 3.19-0.28q0.06-0.11 0.12-0.21c0.36-0.58 0.42-1.52 0-2.09-1.68-2.34-5.8-1.36-8.08-0.4z"/>
	<path class="s0" d="m31.38 96.76q1.06 1.22 1.49 2.78c0.08 0.3 0.56 0.32 0.63 0 0.53-2.43 0-5.99-2.33-7.38-1.71-1.02-3.31 1.27-2.05 2.66 0.67 0.74 1.59 1.17 2.26 1.94z"/>
	<path class="s0" d="m36 91.9c1.43-3.72 0.97-7.38-1.38-10.6-1.82-2.5-5.26 0.62-3.18 2.45 2.31 2.03 4.05 5.08 4.45 8.13 0.01 0.07 0.09 0.08 0.11 0.02z"/>
	<path class="s0" d="m39.58 87.28c0.03 0.13 0.2 0.15 0.28 0.07 1.37-1.36 1.98-3.96 2.4-5.79 0.72-3.12-4.39-2.68-3.48 0 0.34 1.01 0.59 2.01 0.69 3.08 0.07 0.88-0.05 1.78 0.11 2.64z"/>
	<path class="s0" d="m46.12 139.44c0.07-0.09-0.02-0.24-0.13-0.17-2.24 1.39-4.46 1.77-7.01 1.19-3-0.69-3.01 4.25 0 3.58 2.78-0.62 5.39-2.37 7.14-4.6z"/>
	<path class="s0" d="m42.81 145.73c0.04-0.04-0.01-0.11-0.07-0.08-1.71 0.94-3.54 1.61-5.48 1.9-1.56 0.22-3.17-0.28-4.14 1.21-0.27 0.41-0.18 1.06 0.18 1.39q0.13 0.12 0.25 0.23c0.4 0.37 1 0.59 1.54 0.41 3-1.03 5.6-2.68 7.72-5.06z"/>
	<path class="s0" d="m32.8 157.84c0.4-0.93 0.96-1.76 1.6-2.53 0.65-0.78 1.16-1.61 1.88-2.32 0.09-0.08 0-0.2-0.1-0.19-1.13 0.21-2.33 0.53-3.24 1.25-1 0.79-1.82 1.73-2.53 2.77-1.03 1.51 1.63 2.84 2.39 1.02z"/>
	<path class="s0" d="m51.73 148.92c0.63 1.08 2.69 1.03 2.9-0.37 0.26-1.82-0.59-3.43-1.38-5.04-0.84-1.71-1.83-3-3.2-4.32-0.2-0.2-0.52 0-0.45 0.26q0.56 2.4 1.09 4.81c0.35 1.55 0.23 3.28 1.04 4.66z"/>
	<path class="s0" d="m47.71 147.53c0.04 1.86-0.1 3.7-0.56 5.5-0.37 1.52-1.2 2.81-0.29 4.26 0.35 0.55 1.21 0.89 1.79 0.47 1.64-1.19 1.3-2.89 1.02-4.73-0.29-1.94-0.87-3.78-1.66-5.58-0.06-0.15-0.31-0.07-0.3 0.08z"/>
	<path class="s0" d="m43.83 153.38c-0.72 1.81-1.32 3.68-2.13 5.46-0.68 1.5-1.68 2.75-1.76 4.43-0.06 1.3 1.76 2.07 2.63 1.09 1.26-1.44 1.34-3.38 1.54-5.23 0.2-1.94 0.21-3.84-0.18-5.75-0.01-0.06-0.08-0.05-0.1 0z"/>
	<path class="s0" d="m37.3 164.45c-1.74 2.69-2.43 5.83-0.71 8.78 1.28 2.18 4.46-0.37 2.69-2.07-1.75-1.69-2.93-4.23-1.88-6.66 0.03-0.06-0.06-0.12-0.1-0.05z"/>
	<path class="s0" d="m46.53 121.74q-0.03-0.14-0.05-0.28c-0.3-1.57-2.87-1.56-3.17 0q-0.02 0.14-0.05 0.28c-0.2 1.07 0.48 2.14 1.63 2.14 1.16 0 1.84-1.07 1.64-2.14z"/>
	<path class="s0" d="m43.32 187.83c-0.44-0.04-0.64 0.55-0.35 0.84 1.24 1.25 2.64 2.36 4.2 3.2 1.79 0.98 3.75 1.07 5.76 1.01 4.42-0.14 3.53-6.86-0.81-5.97-1.47 0.3-2.93 0.32-4.39 0.65-1.46 0.34-2.93 0.37-4.41 0.27z"/>
	<path class="s0" d="m71.13 123.05c1.72-3.46 2.88-7.19 4.27-10.79 0.19-0.51-0.57-0.94-0.92-0.54-2.49 2.96-5.21 5.78-7.41 8.96-1.73 2.49 2.7 5.09 4.06 2.37z"/>
	<path class="s0" d="m77.32 113.68c-1.82 2.84-3.74 6.59-3.52 10.07 0.17 2.59 3.61 2.46 3.94 0 0.19-1.52-0.03-3.1 0.07-4.63 0.12-1.68 0.28-3.32 0.61-4.97 0.14-0.67-0.72-1.05-1.1-0.47z"/>
	<path class="s0" d="m85.41 123.95c-0.62-1.54-1.33-3.01-1.76-4.61-0.42-1.54-0.58-3.11-1.06-4.64-0.09-0.29-0.54-0.4-0.69-0.09-1.49 3-1.29 7.23-0.29 10.38 0.78 2.45 4.72 1.27 3.8-1.04z"/>
	<path class="s0" d="m92.5 122.61c-1.57-2.43-2.37-4.96-3.48-7.59-0.24-0.57-1.06-0.68-1.26 0-0.92 3.12 0.04 6.7 1.37 9.56 1.04 2.27 4.77 0.17 3.37-1.97z"/>
	<path class="s0" d="m100.36 120.29c-2-2.29-3.4-5.08-5.42-7.32-0.19-0.2-0.58-0.1-0.64 0.17-0.71 3.38 0.94 6.93 2.82 9.65 1.71 2.47 5.18-0.27 3.24-2.5z"/>
	<path class="s0" d="m100.98 110.85c0.85 3.35 2.41 6.3 4.55 8.99 1.99 2.52 5.87-1.66 2.84-3.69-2.34-1.56-4.26-3.6-5.76-5.99-0.54-0.85-1.88-0.29-1.63 0.69z"/>
	<path class="s0" d="m72.13 103.37c3.54-0.97 4.06-5.77 3.34-8.84-0.92-3.97-3.94-6.4-7.37-8.22-0.06-0.04-0.12 0.06-0.05 0.1 2.66 1.92 4.78 5.11 4.62 8.5-0.13 2.59-2.09 4.04-2.63 6.38-0.28 1.24 0.8 2.43 2.09 2.08z"/>
	<path class="s0" d="m49.8 84.91c2.79 0.6 2.99-3.83 0.48-3.61q-2.14 0.19-3.96 1.34c-1.11 0.71-1.72 1.62-2.48 2.64-0.04 0.05 0.03 0.11 0.08 0.08 1.75-0.97 3.99-0.85 5.88-0.45z"/>
	<path class="s0" d="m49.77 70.41c-2.43-0.86-3.61-2.35-5.68-3.5-0.75-0.41-1.11-0.53-2-0.49-0.39 0.01-0.75 0.25-0.85 0.64q-0.08 0.32-0.17 0.65c-0.15 0.58-0.02 1.35 0.47 1.76 5.54 4.68 15.72 5.16 22.22 2.45 0.06-0.03 0.04-0.13-0.03-0.11-4.44 1.39-9.65 0.1-13.96-1.4z"/>
	<path class="s0" d="m40.51 266.84v-46.08c0-0.83-0.67-1.5-1.49-1.5-0.83 0-1.5 0.67-1.5 1.5v46.08z"/>
	<path class="s0" d="m271.23 40.93h-54.89c-0.83 0-1.5 0.67-1.5 1.5 0 0.83 0.68 1.5 1.5 1.5h54.89z"/>
</svg>