<svg version="1.2" xmlns="http://www.w3.org/2000/svg" viewBox="0 0 300 100" width="300" height="100">
	<style>
		.s0 { fill: #cec4ae } 
	</style>
	<path fill-rule="evenodd" class="s0" d="m45.17 50.9c-0.47 0-0.85-0.38-0.85-0.84 0-0.47 0.38-0.85 0.85-0.85h81.85c0.47 0 0.85 0.38 0.85 0.85 0 0.46-0.38 0.84-0.85 0.84z"/>
	<path fill-rule="evenodd" class="s0" d="m254.6 49.21c0.47 0 0.85 0.38 0.85 0.85 0 0.46-0.38 0.84-0.85 0.84h-81.96c-0.47 0-0.85-0.38-0.85-0.84 0-0.47 0.38-0.85 0.85-0.85z"/>
	<path fill-rule="evenodd" class="s0" d="m150.62 54.72c-2.58 0.42-5-1.32-5.43-3.89-0.42-2.58 1.32-5.01 3.9-5.43 2.58-0.43 5 1.32 5.43 3.89 0.42 2.58-1.32 5.01-3.9 5.43z"/>
	<path fill-rule="evenodd" class="s0" d="m149.83 43c1.95 0 3.71 0.79 4.99 2.07 1.28 1.27 2.07 3.04 2.07 4.99 0 1.94-0.79 3.71-2.07 4.98-1.28 1.28-3.04 2.07-4.99 2.07-1.95 0-3.71-0.79-4.99-2.07-1.28-1.27-2.07-3.04-2.07-4.98 0-1.95 0.79-3.72 2.07-4.99 1.28-1.28 3.04-2.07 4.99-2.07zm4.39 2.67c-1.12-1.13-2.68-1.82-4.39-1.82-1.72 0-3.27 0.69-4.39 1.82-1.12 1.12-1.82 2.67-1.82 4.39 0 1.71 0.69 3.26 1.82 4.39 1.12 1.12 2.67 1.82 4.39 1.82 1.71 0 3.27-0.7 4.39-1.82 1.12-1.13 1.82-2.68 1.82-4.39 0-1.72-0.7-3.27-1.82-4.39z"/>
	<path fill-rule="evenodd" class="s0" d="m129.09 47.99h9.92c1.14 0 2.07 0.93 2.07 2.07 0 1.13-0.93 2.06-2.07 2.06h-9.92c-1.14 0-2.07-0.93-2.07-2.06 0-1.14 0.93-2.07 2.07-2.07z"/>
	<path fill-rule="evenodd" class="s0" d="m160.64 47.99h9.93c1.14 0 2.07 0.93 2.07 2.07 0 1.13-0.93 2.06-2.07 2.06h-9.93c-1.13 0-2.06-0.93-2.06-2.06 0-1.14 0.93-2.07 2.06-2.07z"/>
	<path fill-rule="evenodd" class="s0" d="m31.44 49.22c0.25-0.13 6.14-3.17 10.66-2.44 2.12 0.34 3.07 1.89 3.07 3.28 0 1.38-0.95 2.93-3.07 3.27-4.52 0.73-10.41-2.31-10.66-2.44-0.27-0.13-0.44-0.46-0.44-0.83 0-0.37 0.17-0.71 0.44-0.84zm10.49-0.65c-2.69-0.43-6.05 0.66-8.1 1.49 2.05 0.83 5.41 1.91 8.1 1.48 1.26-0.2 1.84-0.91 1.84-1.48 0-0.58-0.58-1.29-1.84-1.49zm0.08 3.87v-0.01z"/>
	<path fill-rule="evenodd" class="s0" d="m268.76 50.06c0 0.37-0.17 0.7-0.43 0.83-0.25 0.13-6.15 3.17-10.66 2.44-2.12-0.34-3.07-1.89-3.07-3.27 0-1.39 0.95-2.94 3.07-3.28 4.51-0.73 10.41 2.31 10.66 2.44 0.26 0.13 0.43 0.47 0.43 0.84zm-12.76 0c0 0.57 0.57 1.28 1.84 1.48 2.69 0.43 6.04-0.65 8.1-1.48-2.06-0.83-5.41-1.92-8.1-1.49-1.27 0.2-1.84 0.91-1.84 1.49zm1.75 2.38v-0.01z"/>
</svg>