<svg version="1.2" xmlns="http://www.w3.org/2000/svg" viewBox="0 0 300 100" width="300" height="100">
	<style>
		.s0 { fill: #cec4ae } 
	</style>
	<path fill-rule="evenodd" class="s0" d="m150.02 40c-0.95 3.76-7.62 5.19-8.11 8.81-0.47 3.53 4.46 4.31 3.28 6.06-0.34 0-1.18-1.94-6.29-0.78-2.85 0.65-5.1 1.53-7.54 3.28 3.36-0.82 11.89-1.97 16.32 1.95 2.49 2.2 2.19 2.2 4.68 0 4.43-3.92 12.96-2.77 16.32-1.95-2.43-1.75-4.69-2.63-7.54-3.28-5.11-1.16-5.95 0.78-6.29 0.78-1.18-1.75 3.76-2.53 3.28-6.06-0.49-3.62-7.16-5.05-8.11-8.81z"/>
	<path fill-rule="evenodd" class="s0" d="m128.79 54.97c0.52 0 0.93 0.42 0.93 0.93 0 0.51-0.42 0.93-0.93 0.93h-84.12c-0.51 0-0.92-0.42-0.92-0.93 0-0.51 0.41-0.93 0.92-0.93z"/>
	<path fill-rule="evenodd" class="s0" d="m39.46 57.76c-1.02 0-1.86-0.83-1.86-1.86 0-1.03 0.84-1.86 1.86-1.86 1.03 0 1.87 0.83 1.87 1.86 0 1.03-0.84 1.86-1.87 1.86z"/>
	<path fill-rule="evenodd" class="s0" d="m35.19 54.97c0.51 0 0.92 0.42 0.92 0.93 0 0.51-0.41 0.93-0.92 0.93h-15.26c-0.52 0-0.93-0.42-0.93-0.93 0-0.51 0.42-0.93 0.93-0.93z"/>
	<path fill-rule="evenodd" class="s0" d="m171.25 56.83c-0.51 0-0.93-0.42-0.93-0.93 0-0.51 0.42-0.93 0.93-0.93h84.12c0.51 0 0.92 0.42 0.92 0.93 0 0.51-0.41 0.93-0.92 0.93z"/>
	<path fill-rule="evenodd" class="s0" d="m260.58 57.76c-1.03 0-1.86-0.83-1.86-1.86 0-1.03 0.83-1.86 1.86-1.86 1.02 0 1.86 0.83 1.86 1.86 0 1.03-0.84 1.86-1.86 1.86z"/>
	<path fill-rule="evenodd" class="s0" d="m264.85 56.83c-0.51 0-0.92-0.42-0.92-0.93 0-0.51 0.41-0.93 0.92-0.93h15.26c0.52 0 0.93 0.42 0.93 0.93 0 0.51-0.41 0.93-0.93 0.93z"/>
</svg>