<svg version="1.2" xmlns="http://www.w3.org/2000/svg" viewBox="0 0 300 100" width="300" height="100">
	<style>
		.s0 { fill: #cec4ae } 
	</style>
	<path fill-rule="evenodd" class="s0" d="m133.09 56.06c-0.3-0.41-0.21-0.98 0.2-1.28 0.41-0.3 0.98-0.21 1.28 0.2q0.95 1.31 1.15 2.4 0.2 1.06-0.13 1.87-0.34 0.83-1.06 1.36-0.71 0.51-1.65 0.7c-2.57 0.53-4.57-0.54-5.7-2.24-0.49-0.73-0.82-1.58-0.95-2.45-0.14-0.88-0.08-1.8 0.18-2.67 0.64-2.12 2.47-3.97 5.83-4.41 1.84-0.23 3.59 0.37 4.97 1.5 1.05 0.85 1.89 2.01 2.4 3.33 0.51 1.33 0.69 2.82 0.42 4.33-0.38 2.1-1.63 4.24-4.08 6-2.11 1.52-4.57 2.02-6.95 1.73-2-0.24-3.94-1.04-5.57-2.28-1.63-1.24-2.95-2.92-3.68-4.9-0.86-2.3-0.94-5.01 0.18-7.9 1.01-2.63 2.87-5.04 5.25-6.69 2.19-1.53 4.83-2.41 7.67-2.24 3.58 0.22 7.07 2.31 9.94 5.2 3.2 3.24 5.64 7.51 6.55 11.34 0.11 0.49-0.19 0.99-0.68 1.1-0.5 0.12-0.99-0.18-1.11-0.68-0.84-3.52-3.1-7.47-6.06-10.46-2.57-2.61-5.66-4.47-8.75-4.66-2.4-0.15-4.65 0.6-6.52 1.91-2.07 1.44-3.7 3.54-4.58 5.84-0.94 2.44-0.89 4.69-0.18 6.6 0.61 1.65 1.71 3.04 3.08 4.08 1.37 1.04 3 1.71 4.68 1.92 1.95 0.24 3.96-0.17 5.66-1.4 2.03-1.45 3.05-3.17 3.35-4.83 0.21-1.17 0.07-2.32-0.32-3.34-0.4-1.03-1.04-1.93-1.85-2.58-1.01-0.83-2.28-1.27-3.59-1.1-2.5 0.33-3.85 1.63-4.3 3.11q-0.27 0.93-0.12 1.87 0.14 0.94 0.65 1.71c0.75 1.11 2.08 1.82 3.81 1.46q0.55-0.11 0.94-0.39 0.31-0.22 0.44-0.54 0.14-0.34 0.04-0.84-0.13-0.7-0.84-1.68z"/>
	<path fill-rule="evenodd" class="s0" d="m110.64 47.18c0.14-0.49 0.65-0.78 1.13-0.64 0.49 0.14 0.78 0.64 0.64 1.13-0.19 0.68-0.08 1.2 0.2 1.54q0.27 0.3 0.67 0.45 0.45 0.16 0.97 0.12c0.74-0.07 1.5-0.48 1.96-1.31 0.57-1.02 0.59-1.9 0.25-2.59q-0.33-0.66-1.02-1.1c-0.48-0.31-1.06-0.53-1.67-0.63-1.38-0.21-2.95 0.16-4.09 1.35-0.84 0.89-1.34 1.84-1.55 2.78q-0.26 1.22 0.1 2.34 0.36 1.14 1.31 2.05c0.82 0.78 1.96 1.38 3.38 1.7 0.49 0.11 0.8 0.6 0.69 1.09-0.09 0.43-0.47 0.72-0.89 0.72h-89.08c-0.51 0-0.92-0.41-0.92-0.91 0-0.51 0.41-0.93 0.92-0.93h85.03q-0.21-0.16-0.39-0.34c-0.86-0.81-1.46-1.77-1.8-2.82-0.33-1.05-0.39-2.17-0.14-3.29 0.27-1.26 0.93-2.51 2.01-3.65 1.59-1.68 3.78-2.2 5.7-1.9 0.87 0.14 1.69 0.45 2.39 0.9 0.71 0.47 1.3 1.09 1.67 1.84 0.59 1.2 0.6 2.68-0.3 4.29-0.79 1.41-2.11 2.12-3.41 2.23q-0.92 0.08-1.74-0.21-0.87-0.32-1.45-1c-0.65-0.79-0.94-1.88-0.57-3.21z"/>
	<path fill-rule="evenodd" class="s0" d="m112.72 56.18c-0.51 0-0.92-0.41-0.92-0.92 0-0.5 0.41-0.92 0.92-0.92h4.42c0.51 0 0.92 0.42 0.92 0.92 0 0.51-0.42 0.92-0.92 0.92z"/>
	<path fill-rule="evenodd" class="s0" d="m164.9 54.98c0.3-0.41 0.88-0.5 1.28-0.2 0.41 0.3 0.5 0.87 0.2 1.28q-0.7 0.98-0.83 1.68-0.1 0.5 0.04 0.84 0.13 0.32 0.43 0.54 0.39 0.28 0.94 0.39c1.74 0.36 3.07-0.35 3.82-1.46q0.51-0.77 0.65-1.71 0.15-0.94-0.12-1.87c-0.45-1.48-1.8-2.79-4.31-3.11-1.31-0.17-2.57 0.27-3.58 1.1-0.81 0.65-1.46 1.55-1.85 2.57-0.4 1.03-0.53 2.18-0.32 3.34 0.3 1.67 1.32 3.39 3.34 4.84 1.7 1.23 3.71 1.64 5.67 1.4 1.68-0.21 3.31-0.88 4.68-1.92 1.36-1.04 2.46-2.44 3.08-4.08 0.7-1.91 0.76-4.16-0.18-6.6-0.89-2.3-2.51-4.4-4.58-5.85-1.88-1.3-4.12-2.05-6.52-1.91-3.1 0.2-6.18 2.06-8.75 4.66-2.97 3-5.23 6.95-6.06 10.47-0.12 0.49-0.62 0.8-1.11 0.68-0.49-0.11-0.8-0.61-0.68-1.1 0.91-3.83 3.35-8.11 6.55-11.34 2.86-2.9 6.36-4.98 9.94-5.2 2.83-0.17 5.47 0.71 7.67 2.24 2.38 1.65 4.23 4.05 5.25 6.69 1.11 2.89 1.04 5.6 0.18 7.9-0.74 1.98-2.05 3.66-3.68 4.9-1.63 1.23-3.58 2.04-5.57 2.28-2.39 0.29-4.85-0.21-6.95-1.73-2.45-1.76-3.7-3.9-4.08-6-0.27-1.51-0.1-3 0.41-4.33 0.51-1.32 1.35-2.48 2.4-3.34 1.39-1.12 3.14-1.73 4.98-1.49 3.35 0.44 5.19 2.29 5.83 4.41 0.26 0.87 0.31 1.79 0.18 2.66-0.14 0.88-0.46 1.73-0.95 2.46-1.14 1.69-3.13 2.77-5.7 2.24q-0.94-0.19-1.66-0.71-0.72-0.52-1.06-1.35-0.33-0.82-0.13-1.87 0.21-1.09 1.15-2.4z"/>
	<path fill-rule="evenodd" class="s0" d="m187.07 47.67c-0.14-0.49 0.14-0.99 0.63-1.13 0.49-0.14 0.99 0.15 1.13 0.64 0.37 1.33 0.09 2.42-0.56 3.2q-0.59 0.69-1.46 1-0.82 0.3-1.74 0.22c-1.29-0.11-2.62-0.82-3.41-2.23-0.9-1.61-0.88-3.09-0.29-4.29 0.36-0.75 0.95-1.37 1.67-1.84 0.69-0.45 1.51-0.76 2.38-0.9 1.93-0.3 4.11 0.22 5.7 1.9 1.08 1.14 1.74 2.39 2.02 3.65 0.25 1.12 0.18 2.24-0.15 3.29-0.34 1.04-0.94 2.01-1.79 2.82q-0.19 0.18-0.39 0.34h85.02c0.51 0 0.92 0.42 0.92 0.92 0 0.51-0.41 0.92-0.92 0.92h-89.07c-0.42 0-0.81-0.29-0.9-0.72-0.11-0.5 0.2-0.99 0.7-1.09 1.42-0.32 2.56-0.92 3.38-1.7q0.94-0.91 1.31-2.05 0.36-1.12 0.1-2.34c-0.21-0.94-0.72-1.89-1.56-2.78-1.13-1.19-2.7-1.56-4.08-1.35-0.62 0.1-1.2 0.32-1.67 0.63q-0.7 0.44-1.03 1.1c-0.34 0.68-0.32 1.57 0.25 2.59 0.47 0.82 1.23 1.24 1.97 1.31q0.51 0.04 0.96-0.12 0.41-0.15 0.67-0.46c0.28-0.33 0.4-0.85 0.21-1.53z"/>
	<path fill-rule="evenodd" class="s0" d="m275.83 50.73c-0.5 0-0.91-0.41-0.91-0.92 0-0.51 0.41-0.92 0.91-0.92 1.01 0 1.92 0.41 2.58 1.07 0.66 0.66 1.06 1.57 1.06 2.58 0 1-0.4 1.91-1.06 2.57l-0.01 0.01c-0.65 0.66-1.56 1.07-2.57 1.07-0.5 0-0.91-0.42-0.91-0.92 0-0.51 0.41-0.92 0.91-0.92 0.5 0 0.95-0.21 1.28-0.53 0.32-0.33 0.53-0.78 0.53-1.28 0-0.5-0.21-0.95-0.53-1.28-0.33-0.33-0.78-0.53-1.28-0.53z"/>
	<path fill-rule="evenodd" class="s0" d="m186.76 54.34c0.5 0 0.91 0.42 0.91 0.92 0 0.51-0.41 0.92-0.91 0.92h-4.42c-0.51 0-0.92-0.41-0.92-0.92 0-0.5 0.41-0.92 0.92-0.92z"/>
	<path fill-rule="evenodd" class="s0" d="m23.64 48.89c0.51 0 0.92 0.41 0.92 0.92 0 0.51-0.41 0.92-0.92 0.92-0.5 0-0.95 0.2-1.28 0.53-0.32 0.32-0.52 0.78-0.52 1.28 0 0.5 0.2 0.95 0.52 1.28 0.33 0.32 0.78 0.52 1.28 0.52 0.51 0 0.92 0.41 0.92 0.92 0 0.51-0.41 0.92-0.92 0.92-1 0-1.91-0.41-2.57-1.07-0.66-0.66-1.07-1.57-1.07-2.57 0-1.01 0.41-1.92 1.07-2.58 0.66-0.66 1.57-1.07 2.57-1.07z"/>
	<path fill-rule="evenodd" class="s0" d="m149.74 49.47c-0.33 0-0.63-0.2-0.75-0.51-0.12-0.29-2.84-7.14-2.19-12.4 0.3-2.46 1.69-3.56 2.94-3.56 1.24 0 2.63 1.1 2.94 3.56 0.64 5.26-2.07 12.11-2.19 12.4-0.12 0.31-0.42 0.51-0.75 0.51zm0-14.85c-0.52 0-1.15 0.67-1.33 2.14-0.39 3.13 0.58 7.03 1.33 9.42 0.74-2.39 1.71-6.29 1.33-9.42-0.18-1.47-0.82-2.14-1.33-2.14zm-2.14 2.04h0.01z"/>
	<path fill-rule="evenodd" class="s0" d="m155.27 43.88q-0.34 0-0.58-0.23c-0.19-0.2-0.28-0.48-0.22-0.75 0.04-0.15 0.81-3.6 2.81-4.95 0.91-0.61 2.05-0.51 2.82 0.25 0.77 0.78 0.88 1.92 0.26 2.84-1.34 2.02-4.78 2.79-4.92 2.82q-0.09 0.03-0.17 0.02zm3.27-4.7q-0.16-0.01-0.36 0.12c-0.75 0.51-1.32 1.59-1.68 2.54 0.93-0.37 2.01-0.94 2.51-1.7 0.27-0.4 0.03-0.7-0.06-0.78-0.05-0.06-0.2-0.18-0.41-0.18zm-0.81-0.55h0.01z"/>
	<path fill-rule="evenodd" class="s0" d="m144.21 43.88q-0.09 0-0.18-0.01c-0.14-0.04-3.58-0.81-4.92-2.83-0.61-0.92-0.51-2.06 0.27-2.83 0.77-0.77 1.9-0.87 2.82-0.26 2 1.35 2.77 4.8 2.8 4.95 0.06 0.27-0.02 0.55-0.22 0.75q-0.24 0.23-0.57 0.23zm-3.28-4.7c-0.21 0-0.36 0.12-0.41 0.18-0.08 0.08-0.33 0.38-0.06 0.78 0.51 0.76 1.58 1.33 2.52 1.7-0.37-0.95-0.94-2.03-1.69-2.54q-0.2-0.13-0.36-0.12z"/>
</svg>