<svg version="1.2" xmlns="http://www.w3.org/2000/svg" viewBox="0 0 300 100" width="300" height="100">
	<style>
		.s0 { fill: #cec4ae } 
	</style>
	<path fill-rule="evenodd" class="s0" d="m133.84 49.19l7.87-7.87c0.43-0.43 1.13-0.43 1.55 0l7.88 7.87c0.42 0.43 0.42 1.13 0 1.55l-7.88 7.88c-0.42 0.43-1.12 0.43-1.55 0l-7.87-7.88c-0.43-0.42-0.43-1.12 0-1.55z"/>
	<path fill-rule="evenodd" class="s0" d="m158.25 51.38c-0.51 0-0.93-0.42-0.93-0.93 0-0.51 0.42-0.92 0.93-0.92h111.15c0.51 0 0.92 0.42 0.92 0.92 0 0.51-0.41 0.93-0.92 0.93z"/>
	<path fill-rule="evenodd" class="s0" d="m158.25 53.03c-1.43 0-2.58-1.15-2.58-2.58 0-1.42 1.15-2.57 2.58-2.57 1.42 0 2.57 1.15 2.57 2.57 0 1.43-1.15 2.58-2.57 2.58z"/>
	<path fill-rule="evenodd" class="s0" d="m269.4 53.03c-1.42 0-2.58-1.15-2.58-2.58 0-1.42 1.16-2.57 2.58-2.57 1.42 0 2.58 1.15 2.58 2.57 0 1.43-1.16 2.58-2.58 2.58z"/>
	<path fill-rule="evenodd" class="s0" d="m15.58 51.38c-0.51 0-0.93-0.42-0.93-0.93 0-0.51 0.42-0.92 0.93-0.92h111.15c0.51 0 0.92 0.42 0.92 0.92 0 0.51-0.41 0.93-0.92 0.93z"/>
	<path fill-rule="evenodd" class="s0" d="m15.58 53.03c-1.43 0-2.58-1.15-2.58-2.58 0-1.42 1.15-2.57 2.58-2.57 1.42 0 2.57 1.15 2.57 2.57 0 1.43-1.15 2.58-2.57 2.58z"/>
	<path fill-rule="evenodd" class="s0" d="m126.73 53.03c-1.42 0-2.58-1.15-2.58-2.58 0-1.42 1.16-2.57 2.58-2.57 1.42 0 2.58 1.15 2.58 2.57 0 1.43-1.16 2.58-2.58 2.58z"/>
</svg>