<svg version="1.2" xmlns="http://www.w3.org/2000/svg" viewBox="0 0 300 100" width="300" height="100">
	<style>
		.s0 { fill: #cec4ae } 
	</style>
	<path fill-rule="evenodd" class="s0" d="m168.34 51.28c-0.53 0-0.96-0.43-0.96-0.97 0-0.53 0.43-0.96 0.96-0.96h102.41c0.53 0 0.96 0.43 0.96 0.96 0 0.54-0.43 0.97-0.96 0.97z"/>
	<path fill-rule="evenodd" class="s0" d="m275.52 54.34q-0.8 0-1.56-0.15c-2.22-0.44-3.21-2.27-3.21-3.88 0-1.61 0.99-3.43 3.21-3.87 4.68-0.93 10.69 2.9 10.95 3.06 0.28 0.18 0.44 0.48 0.44 0.81 0 0.33-0.16 0.63-0.44 0.81-0.23 0.15-5.04 3.22-9.39 3.22zm-1.18-2.04c2.71 0.54 6.19-0.98 8.1-1.99-1.91-1-5.4-2.51-8.1-1.98-1.23 0.24-1.66 1.22-1.66 1.98 0 0.77 0.43 1.75 1.66 1.99z"/>
	<path fill-rule="evenodd" class="s0" d="m268.26 52.95c-1.46 0-2.64-1.18-2.64-2.64 0-1.46 1.18-2.64 2.64-2.64 1.46 0 2.64 1.18 2.64 2.64 0 1.46-1.18 2.64-2.64 2.64z"/>
	<path fill-rule="evenodd" class="s0" d="m131 49.35c0.54 0 0.97 0.43 0.97 0.96 0 0.54-0.44 0.97-0.97 0.97h-103.3c-0.53 0-0.96-0.43-0.96-0.97 0-0.53 0.43-0.96 0.96-0.96z"/>
	<path fill-rule="evenodd" class="s0" d="m14.44 51.12c-0.28-0.18-0.44-0.48-0.44-0.81 0-0.33 0.16-0.63 0.44-0.81 0.25-0.16 6.26-3.99 10.94-3.06 2.22 0.44 3.22 2.26 3.22 3.87 0 1.61-1 3.44-3.22 3.88q-0.75 0.15-1.55 0.15c-4.36 0-9.17-3.07-9.39-3.22zm12.23-0.81c0-0.76-0.44-1.74-1.66-1.98-2.7-0.53-6.19 0.98-8.1 1.98 1.91 1.01 5.39 2.53 8.1 1.99 1.22-0.24 1.66-1.22 1.66-1.99z"/>
	<path fill-rule="evenodd" class="s0" d="m30.34 52.95c-1.46 0-2.64-1.18-2.64-2.64 0-1.46 1.18-2.64 2.64-2.64 1.46 0 2.64 1.18 2.64 2.64 0 1.46-1.18 2.64-2.64 2.64z"/>
	<path fill-rule="evenodd" class="s0" d="m149.67 43.66c1.84 0 3.5 0.75 4.71 1.95 1.2 1.21 1.95 2.87 1.95 4.7 0 1.84-0.75 3.5-1.95 4.71-1.21 1.2-2.87 1.95-4.71 1.95-1.83 0-3.5-0.75-4.7-1.95-1.2-1.21-1.95-2.87-1.95-4.71 0-1.83 0.75-3.49 1.95-4.7 1.2-1.2 2.87-1.95 4.7-1.95zm3.34 3.32c-0.85-0.85-2.03-1.38-3.34-1.38-1.3 0-2.48 0.53-3.33 1.38-0.86 0.85-1.38 2.03-1.38 3.33 0 1.31 0.52 2.49 1.38 3.34 0.85 0.85 2.03 1.38 3.33 1.38 1.31 0 2.49-0.53 3.34-1.38 0.85-0.85 1.38-2.03 1.38-3.34 0-1.3-0.53-2.48-1.38-3.33z"/>
	<path fill-rule="evenodd" class="s0" d="m149.67 37c1.19 0 2.26 0.48 3.04 1.26 0.78 0.78 1.26 1.85 1.26 3.04 0 1.18-0.48 2.26-1.26 3.04-0.78 0.77-1.85 1.26-3.04 1.26-1.18 0-2.25-0.49-3.03-1.26h-0.01c-0.77-0.78-1.26-1.86-1.26-3.04 0-1.19 0.49-2.26 1.26-3.04 0.79-0.78 1.86-1.26 3.04-1.26zm1.67 2.63c-0.42-0.43-1.01-0.7-1.67-0.7-0.65 0-1.24 0.27-1.67 0.69v0.01c-0.43 0.42-0.69 1.02-0.69 1.67 0 0.65 0.26 1.24 0.69 1.67 0.42 0.43 1.02 0.69 1.67 0.69 0.65 0 1.25-0.26 1.67-0.69 0.43-0.43 0.7-1.02 0.7-1.67 0-0.65-0.27-1.25-0.7-1.67z"/>
	<path fill-rule="evenodd" class="s0" d="m140.26 40.9c0.84-0.84 1.94-1.26 3.04-1.26 1.09 0 2.19 0.42 3.03 1.26h0.01c0.84 0.84 1.26 1.94 1.26 3.04 0 1.1-0.42 2.2-1.26 3.04-0.84 0.84-1.94 1.26-3.04 1.26-1.1 0-2.2-0.42-3.04-1.26v-0.01c-0.84-0.84-1.26-1.94-1.26-3.03 0-1.1 0.42-2.2 1.26-3.04zm3.04 0.67c-0.61 0-1.21 0.24-1.67 0.7-0.47 0.46-0.7 1.06-0.7 1.67 0 0.61 0.23 1.21 0.69 1.67l0.01 0.01c0.45 0.45 1.06 0.68 1.67 0.68 0.6 0 1.21-0.23 1.67-0.69 0.46-0.46 0.69-1.06 0.69-1.67 0-0.61-0.23-1.21-0.69-1.67-0.46-0.46-1.07-0.7-1.67-0.7z"/>
	<path fill-rule="evenodd" class="s0" d="m136.36 50.31c0-1.18 0.48-2.26 1.26-3.04v0.01c0.78-0.78 1.85-1.26 3.04-1.26 1.18 0 2.26 0.48 3.04 1.25v0.01c0.77 0.78 1.26 1.85 1.26 3.03 0 1.19-0.49 2.26-1.26 3.04-0.78 0.78-1.86 1.26-3.04 1.26-1.19 0-2.26-0.48-3.04-1.26-0.78-0.78-1.26-1.85-1.26-3.04zm2.63-1.67c-0.43 0.43-0.7 1.02-0.7 1.67 0 0.66 0.27 1.25 0.69 1.68h0.01c0.42 0.43 1.01 0.69 1.67 0.69 0.65 0 1.24-0.26 1.67-0.69 0.43-0.43 0.69-1.02 0.69-1.68 0-0.65-0.26-1.24-0.69-1.67-0.43-0.42-1.02-0.69-1.67-0.69-0.66 0-1.25 0.26-1.67 0.69z"/>
	<path fill-rule="evenodd" class="s0" d="m140.26 59.73v-0.01c-0.84-0.84-1.26-1.94-1.26-3.03 0-1.1 0.42-2.2 1.26-3.04 0.84-0.84 1.94-1.26 3.04-1.26 1.09 0 2.19 0.42 3.03 1.26h0.01c0.84 0.84 1.26 1.94 1.26 3.04 0 1.1-0.42 2.2-1.26 3.04-0.84 0.84-1.94 1.26-3.04 1.26-1.1 0-2.2-0.42-3.04-1.26zm0.67-3.04c0 0.61 0.23 1.21 0.69 1.67l0.01 0.01c0.45 0.46 1.06 0.68 1.67 0.68 0.6 0 1.21-0.23 1.67-0.69 0.46-0.46 0.69-1.06 0.69-1.67 0-0.61-0.23-1.21-0.69-1.67-0.46-0.46-1.06-0.69-1.67-0.69-0.61 0-1.21 0.23-1.67 0.69-0.47 0.46-0.7 1.06-0.7 1.67z"/>
	<path fill-rule="evenodd" class="s0" d="m149.67 63.63c-1.18 0-2.25-0.48-3.03-1.26l-0.01-0.01c-0.77-0.77-1.26-1.85-1.26-3.03 0-1.19 0.49-2.26 1.26-3.04h0.01c0.78-0.78 1.85-1.26 3.03-1.26 1.19 0 2.26 0.48 3.04 1.26 0.78 0.78 1.26 1.85 1.26 3.04 0 1.18-0.48 2.26-1.26 3.04-0.78 0.78-1.85 1.26-3.04 1.26zm-1.67-2.63c0.43 0.43 1.02 0.69 1.67 0.69 0.66 0 1.25-0.26 1.68-0.69 0.43-0.43 0.69-1.02 0.69-1.67 0-0.65-0.27-1.25-0.69-1.67-0.43-0.43-1.02-0.69-1.68-0.69-0.65 0-1.24 0.26-1.67 0.69-0.42 0.42-0.69 1.02-0.69 1.67 0 0.65 0.26 1.24 0.69 1.67z"/>
	<path fill-rule="evenodd" class="s0" d="m159.09 59.73c-0.84 0.84-1.94 1.26-3.04 1.26-1.1 0-2.2-0.42-3.04-1.26v-0.01c-0.84-0.84-1.26-1.94-1.26-3.03 0-1.1 0.42-2.2 1.26-3.04 0.84-0.84 1.94-1.26 3.04-1.26 1.09 0 2.19 0.42 3.03 1.26h0.01c0.83 0.84 1.26 1.94 1.26 3.04 0 1.1-0.42 2.2-1.26 3.04zm-3.04-0.68c0.6 0 1.21-0.23 1.67-0.69 0.46-0.46 0.69-1.07 0.69-1.67 0-0.61-0.23-1.21-0.69-1.67-0.46-0.47-1.06-0.7-1.67-0.7-0.61 0-1.21 0.24-1.67 0.7-0.46 0.46-0.7 1.06-0.7 1.67 0 0.61 0.23 1.21 0.69 1.67h0.01c0.45 0.46 1.06 0.69 1.67 0.69z"/>
	<path fill-rule="evenodd" class="s0" d="m162.99 50.31c0 1.19-0.48 2.26-1.26 3.04-0.78 0.78-1.85 1.26-3.04 1.26-1.19 0-2.26-0.48-3.04-1.26-0.78-0.78-1.26-1.85-1.26-3.04 0-1.18 0.48-2.26 1.26-3.03v-0.01c0.78-0.77 1.85-1.26 3.04-1.26 1.19 0 2.26 0.49 3.04 1.26 0.78 0.78 1.26 1.86 1.26 3.04zm-2.63 1.68c0.43-0.43 0.69-1.02 0.69-1.68 0-0.65-0.26-1.24-0.69-1.67-0.43-0.43-1.02-0.69-1.67-0.69-0.66 0-1.25 0.26-1.67 0.69h-0.01c-0.42 0.43-0.69 1.02-0.69 1.67 0 0.66 0.27 1.25 0.69 1.68h0.01c0.42 0.42 1.01 0.69 1.67 0.69 0.65 0 1.24-0.27 1.67-0.69z"/>
	<path fill-rule="evenodd" class="s0" d="m159.09 40.9c0.84 0.84 1.26 1.94 1.26 3.04 0 1.1-0.42 2.2-1.26 3.04-0.84 0.84-1.94 1.26-3.04 1.26-1.1 0-2.2-0.42-3.04-1.26v-0.01c-0.84-0.84-1.26-1.94-1.26-3.03 0-1.1 0.42-2.2 1.26-3.04 0.84-0.84 1.94-1.26 3.04-1.26 1.09 0 2.19 0.42 3.03 1.26zm-0.67 3.04c0-0.61-0.23-1.22-0.69-1.68-0.46-0.46-1.07-0.69-1.68-0.69-0.6 0-1.21 0.23-1.67 0.69-0.46 0.47-0.69 1.07-0.69 1.68 0 0.6 0.23 1.21 0.69 1.67 0.46 0.46 1.07 0.69 1.67 0.69 0.61 0 1.21-0.23 1.68-0.69 0.46-0.46 0.69-1.07 0.69-1.67z"/>
</svg>