<svg version="1.2" xmlns="http://www.w3.org/2000/svg" viewBox="0 0 300 100" width="300" height="100">
	<style>
		.s0 { fill: #cec4ae } 
	</style>
	<path fill-rule="evenodd" class="s0" d="m149.46 43.81c-0.96 1.58-2.17 3.01-3.23 3.83l-0.17 0.14c-1.52 1.23-3.53 1.61-5.39 1-1.78-0.58-3.07-1.93-3.55-3.71q-0.05-0.21-0.1-0.42c-0.24-1.28 0.07-2.59 0.9-3.7 1.19-1.57 2.75-2.27 4.31-1.91 1.4 0.33 2.49 1.47 2.76 2.91 0.14 0.73-0.04 1.51-0.51 2.15-0.7 0.95-1.63 1.38-2.54 1.17-0.82-0.19-1.46-0.85-1.61-1.69-0.17-0.86 0.4-1.63 1.23-1.87 0.72-0.21 0.29-1.32-0.24-1.21-1.5 0.32-2.5 1.78-2.21 3.31 0.26 1.32 1.26 2.37 2.55 2.66 1.4 0.32 2.82-0.3 3.81-1.64 0.67-0.91 0.94-2.05 0.73-3.11-0.36-1.92-1.81-3.44-3.69-3.88-2.03-0.47-4.11 0.42-5.57 2.37-1.04 1.39-1.44 3.05-1.13 4.67q0.05 0.26 0.12 0.51c0.58 2.19 2.17 3.86 4.36 4.56 2.26 0.74 4.71 0.28 6.54-1.21l0.17-0.14c0.8-0.61 1.66-1.53 2.46-2.59 0 0 0-2.2 0-2.2z"/>
	<path fill-rule="evenodd" class="s0" d="m149.46 55.55c-0.96-1.58-2.17-3.01-3.23-3.82l-0.17-0.15c-1.52-1.23-3.53-1.6-5.39-1-1.78 0.58-3.07 1.93-3.55 3.71q-0.05 0.21-0.1 0.42c-0.24 1.29 0.07 2.6 0.9 3.7 1.19 1.58 2.75 2.27 4.31 1.91 1.4-0.32 2.49-1.46 2.76-2.9 0.14-0.74-0.04-1.52-0.51-2.15-0.7-0.96-1.63-1.38-2.54-1.18-0.82 0.19-1.46 0.85-1.61 1.69-0.17 0.87 0.4 1.63 1.23 1.88 0.72 0.21 0.29 1.32-0.24 1.21-1.5-0.33-2.5-1.79-2.21-3.32 0.26-1.32 1.26-2.36 2.55-2.66 1.4-0.31 2.82 0.3 3.81 1.65 0.67 0.91 0.94 2.04 0.73 3.11-0.36 1.92-1.81 3.44-3.69 3.87-2.03 0.47-4.11-0.42-5.57-2.37-1.04-1.38-1.44-3.04-1.13-4.67q0.05-0.26 0.12-0.51c0.58-2.19 2.17-3.85 4.36-4.56 2.26-0.74 4.71-0.28 6.54 1.22l0.17 0.13c0.8 0.62 1.66 1.53 2.46 2.59 0 0 0 2.2 0 2.2z"/>
	<path fill-rule="evenodd" class="s0" d="m149.46 43.81c0.96 1.58 2.17 3.01 3.23 3.83l0.17 0.14c1.52 1.23 3.53 1.61 5.39 1 1.78-0.58 3.07-1.93 3.55-3.71q0.05-0.21 0.1-0.42c0.25-1.28-0.07-2.59-0.9-3.7-1.18-1.57-2.75-2.27-4.31-1.91-1.4 0.33-2.49 1.47-2.76 2.91-0.14 0.73 0.04 1.51 0.51 2.15 0.7 0.95 1.63 1.38 2.54 1.17 0.82-0.19 1.46-0.85 1.61-1.69 0.17-0.86-0.4-1.63-1.23-1.87-0.72-0.21-0.29-1.32 0.24-1.21 1.5 0.32 2.5 1.78 2.2 3.31-0.25 1.32-1.25 2.37-2.54 2.66-1.4 0.32-2.82-0.3-3.81-1.64-0.67-0.91-0.94-2.05-0.73-3.11 0.36-1.92 1.81-3.44 3.69-3.88 2.03-0.47 4.11 0.42 5.57 2.37 1.04 1.39 1.44 3.05 1.13 4.67q-0.05 0.26-0.12 0.51c-0.58 2.19-2.17 3.86-4.36 4.56-2.26 0.74-4.71 0.28-6.54-1.21l-0.17-0.14c-0.8-0.61-1.66-1.53-2.46-2.59 0 0 0-2.2 0-2.2z"/>
	<path fill-rule="evenodd" class="s0" d="m149.46 55.55c0.96-1.58 2.17-3.01 3.23-3.82l0.17-0.15c1.52-1.23 3.53-1.6 5.39-1 1.78 0.58 3.07 1.93 3.55 3.71q0.05 0.21 0.1 0.42c0.25 1.29-0.07 2.6-0.9 3.7-1.18 1.58-2.75 2.27-4.31 1.91-1.4-0.32-2.49-1.46-2.76-2.9-0.14-0.74 0.04-1.52 0.51-2.15 0.7-0.96 1.63-1.38 2.54-1.18 0.82 0.19 1.46 0.85 1.61 1.69 0.17 0.87-0.4 1.63-1.23 1.88-0.72 0.21-0.29 1.32 0.24 1.21 1.5-0.33 2.5-1.79 2.2-3.32-0.25-1.32-1.25-2.36-2.54-2.66-1.4-0.31-2.82 0.3-3.81 1.65-0.67 0.91-0.94 2.04-0.73 3.11 0.36 1.92 1.81 3.44 3.69 3.87 2.03 0.47 4.11-0.42 5.57-2.37 1.04-1.38 1.44-3.04 1.13-4.67q-0.05-0.26-0.12-0.51c-0.58-2.19-2.17-3.85-4.36-4.56-2.26-0.74-4.71-0.28-6.54 1.22l-0.17 0.13c-0.8 0.62-1.66 1.53-2.46 2.59 0 0 0 2.2 0 2.2z"/>
	<path fill-rule="evenodd" class="s0" d="m149.46 41.96c-0.31 0-0.59-0.14-0.71-0.36-0.11-0.22-2.67-5.2-2.06-9.01 0.29-1.79 1.6-2.59 2.77-2.59 1.17 0 2.48 0.8 2.77 2.59 0.61 3.82-1.95 8.79-2.06 9.01-0.12 0.22-0.4 0.36-0.71 0.36zm0-10.78c-0.48 0-1.08 0.49-1.25 1.55-0.37 2.27 0.55 5.11 1.25 6.84 0.7-1.73 1.62-4.57 1.25-6.84-0.17-1.06-0.77-1.55-1.25-1.55zm-2.01 1.48h0.01z"/>
	<path fill-rule="evenodd" class="s0" d="m150.17 57.77c0.11 0.21 2.67 5.19 2.06 9-0.29 1.79-1.6 2.59-2.77 2.59-1.17 0-2.48-0.8-2.77-2.59-0.61-3.81 1.95-8.79 2.06-9 0.12-0.23 0.4-0.37 0.71-0.37 0.31 0 0.59 0.14 0.71 0.37zm0.54 8.86c0.37-2.27-0.55-5.11-1.25-6.84-0.7 1.73-1.62 4.57-1.25 6.84 0.17 1.07 0.77 1.55 1.25 1.55 0.48 0 1.08-0.48 1.25-1.55zm-3.26 0.07h0.01z"/>
	<path fill-rule="evenodd" class="s0" d="m141.74 49.68c0 0.31-0.14 0.59-0.37 0.71-0.21 0.11-5.19 2.67-9 2.06-1.79-0.28-2.59-1.6-2.59-2.77 0-1.17 0.8-2.48 2.59-2.77 3.81-0.61 8.79 1.95 9 2.06 0.23 0.12 0.37 0.4 0.37 0.71zm-10.78 0c0 0.48 0.48 1.08 1.55 1.25 2.27 0.37 5.11-0.55 6.84-1.25-1.73-0.7-4.57-1.62-6.84-1.25-1.07 0.17-1.55 0.77-1.55 1.25zm1.48 2.01z"/>
	<path fill-rule="evenodd" class="s0" d="m157.55 48.97c0.21-0.11 5.19-2.67 9-2.06 1.79 0.29 2.59 1.6 2.59 2.77 0 1.17-0.8 2.49-2.59 2.77-3.81 0.61-8.79-1.95-9-2.06-0.23-0.12-0.37-0.4-0.37-0.71 0-0.31 0.14-0.59 0.37-0.71zm8.86-0.54c-2.27-0.37-5.11 0.55-6.84 1.25 1.73 0.7 4.57 1.62 6.84 1.25 1.07-0.17 1.55-0.77 1.55-1.25 0-0.48-0.48-1.08-1.55-1.25zm0.07 3.26z"/>
	<path fill-rule="evenodd" class="s0" d="m25.94 44.92c1.84-0.15 2.36-3.34-0.43-3.32-2.92 0.01-2.56 4.41-0.15 5.21 2.16 0.72 5.3-0.56 5.57-3.72 0.09-1.03-0.18-2.1-0.83-3-1.74-2.41-5.1-2.96-7.51-1.23-2.11 1.52-2.96 4.21-2.44 6.71 0.37 1.8 1.45 3.23 3.06 4.1 1.24 0.67 2.69 0.87 4.08 0.91l-0.01-1.79c-1.07-0.05-2.19-0.27-3.14-0.78q-1.7-0.92-2.09-2.8c-0.37-1.77 0.19-3.69 1.68-4.77 1.55-1.11 3.71-0.76 4.83 0.78 0.83 1.15 0.56 2.77-0.59 3.6-0.4 0.29-0.9 0.4-1.39 0.32q-0.34-0.05-0.64-0.22z"/>
	<path fill-rule="evenodd" class="s0" d="m125.25 50.58c0.5 0 0.9-0.4 0.9-0.9 0-0.5-0.4-0.9-0.9-0.9h-97.95c-0.5 0-0.9 0.4-0.9 0.9 0 0.5 0.4 0.9 0.9 0.9z"/>
	<path fill-rule="evenodd" class="s0" d="m273.09 44.92c-1.84-0.15-2.36-3.34 0.43-3.32 2.93 0.01 2.56 4.41 0.16 5.21-2.16 0.72-5.31-0.56-5.58-3.72-0.08-1.03 0.18-2.1 0.83-3 1.74-2.41 5.1-2.96 7.51-1.23 2.11 1.52 2.97 4.21 2.44 6.71-0.37 1.8-1.44 3.23-3.06 4.1-1.24 0.67-2.68 0.87-4.08 0.91l0.02-1.79c1.06-0.05 2.19-0.27 3.13-0.78q1.7-0.92 2.1-2.8c0.36-1.77-0.19-3.69-1.69-4.77-1.54-1.11-3.71-0.76-4.82 0.78-0.83 1.15-0.57 2.77 0.58 3.6 0.41 0.29 0.9 0.4 1.39 0.32q0.35-0.05 0.64-0.22z"/>
	<path fill-rule="evenodd" class="s0" d="m173.79 50.58c-0.5 0-0.9-0.4-0.9-0.9 0-0.5 0.4-0.9 0.9-0.9h97.95c0.5 0 0.9 0.4 0.9 0.9 0 0.5-0.4 0.9-0.9 0.9z"/>
</svg>