<svg version="1.2" xmlns="http://www.w3.org/2000/svg" viewBox="0 0 300 100" width="300" height="100">
	<style>
		.s0 { fill: #cec4ae } 
	</style>
	<path fill-rule="evenodd" class="s0" d="m150.32 49.79c-1.36 2.21-3.06 4.23-4.56 5.37l-0.25 0.2c-2.14 1.73-4.99 2.25-7.62 1.4-2.51-0.81-4.34-2.7-5.01-5.2q-0.08-0.29-0.13-0.6c-0.36-1.79 0.1-3.64 1.27-5.18 1.67-2.21 3.88-3.19 6.08-2.68 1.99 0.45 3.52 2.05 3.91 4.07 0.19 1.03-0.07 2.13-0.73 3.02-0.99 1.34-2.3 1.94-3.59 1.65-1.16-0.27-2.05-1.19-2.28-2.37-0.23-1.22 0.58-2.29 1.75-2.63 1.02-0.3 0.4-1.86-0.34-1.7-2.12 0.46-3.53 2.5-3.12 4.65 0.36 1.85 1.77 3.32 3.6 3.73 1.97 0.45 3.98-0.42 5.39-2.31 0.94-1.27 1.32-2.86 1.03-4.36-0.52-2.69-2.57-4.83-5.23-5.44-2.85-0.66-5.8 0.59-7.87 3.32-1.47 1.95-2.03 4.28-1.59 6.56q0.07 0.36 0.17 0.71c0.82 3.08 3.07 5.41 6.15 6.41 3.2 1.03 6.66 0.39 9.26-1.71l0.23-0.19c1.14-0.87 2.35-2.14 3.48-3.64 1.12 1.5 2.34 2.77 3.47 3.64l0.24 0.19c2.59 2.1 6.05 2.74 9.25 1.71 3.09-1 5.33-3.33 6.16-6.41q0.09-0.35 0.16-0.71c0.45-2.28-0.12-4.61-1.59-6.56-2.07-2.73-5.01-3.98-7.87-3.32-2.66 0.61-4.71 2.75-5.22 5.44-0.29 1.5 0.08 3.09 1.03 4.36 1.4 1.89 3.41 2.76 5.38 2.31 1.83-0.41 3.25-1.88 3.6-3.73 0.42-2.15-0.99-4.2-3.12-4.65-0.74-0.16-1.36 1.4-0.33 1.7 1.16 0.34 1.97 1.41 1.74 2.63-0.22 1.18-1.12 2.1-2.27 2.37-1.29 0.29-2.61-0.31-3.6-1.65-0.66-0.89-0.92-1.99-0.72-3.02 0.39-2.02 1.92-3.62 3.9-4.07 2.2-0.51 4.42 0.47 6.09 2.68 1.17 1.54 1.62 3.39 1.27 5.18q-0.06 0.31-0.14 0.6c-0.67 2.5-2.5 4.39-5.01 5.2-2.63 0.85-5.48 0.33-7.61-1.4l-0.25-0.2c-1.5-1.14-3.2-3.16-4.56-5.37z"/>
	<path fill-rule="evenodd" class="s0" d="m150.32 47.75c-0.3 0-0.57-0.19-0.68-0.46-0.1-0.26-2.56-6.4-1.98-11.1 0.28-2.2 1.53-3.19 2.66-3.19 1.12 0 2.38 0.99 2.65 3.19 0.59 4.7-1.87 10.84-1.97 11.1-0.11 0.27-0.38 0.46-0.68 0.46zm0-13.3c-0.46 0-1.04 0.6-1.2 1.92-0.35 2.8 0.53 6.29 1.2 8.43 0.67-2.14 1.55-5.63 1.2-8.43-0.16-1.32-0.74-1.92-1.2-1.92zm-1.93 1.83h0.01z"/>
	<path fill-rule="evenodd" class="s0" d="m30.77 45.74c1.78-0.15 2.29-3.23-0.42-3.21-2.84 0.02-2.49 4.25-0.15 5.03 2.09 0.69 5.15-0.54 5.41-3.59 0.08-0.99-0.18-2.02-0.81-2.89-1.68-2.32-4.95-2.85-7.29-1.18-2.04 1.46-2.87 4.05-2.37 6.47 0.37 1.73 1.41 3.1 2.98 3.95 1.2 0.64 2.6 0.83 3.95 0.87l-0.01-1.73c-1.03-0.04-2.12-0.25-3.04-0.75q-1.65-0.88-2.03-2.7c-0.36-1.69 0.18-3.55 1.63-4.59 1.5-1.07 3.6-0.73 4.68 0.76 0.81 1.1 0.55 2.66-0.56 3.46-0.4 0.28-0.88 0.39-1.36 0.31q-0.33-0.05-0.61-0.21z"/>
	<path fill-rule="evenodd" class="s0" d="m124.79 51.19c0.48 0 0.87-0.39 0.87-0.87 0-0.48-0.39-0.87-0.87-0.87h-92.71c-0.48 0-0.87 0.39-0.87 0.87 0 0.48 0.39 0.87 0.87 0.87z"/>
	<path fill-rule="evenodd" class="s0" d="m269.11 45.74c-1.78-0.15-2.29-3.23 0.42-3.21 2.84 0.02 2.49 4.25 0.15 5.03-2.1 0.69-5.15-0.54-5.41-3.59-0.08-0.99 0.18-2.02 0.81-2.89 1.68-2.32 4.95-2.85 7.28-1.18 2.05 1.46 2.88 4.05 2.37 6.47-0.36 1.73-1.4 3.1-2.97 3.95-1.2 0.64-2.6 0.83-3.96 0.87l0.02-1.73c1.03-0.04 2.12-0.25 3.04-0.75q1.65-0.88 2.03-2.7c0.35-1.69-0.18-3.55-1.63-4.59-1.5-1.07-3.6-0.73-4.69 0.76-0.8 1.1-0.54 2.66 0.57 3.46 0.4 0.28 0.87 0.39 1.35 0.31q0.34-0.05 0.62-0.21z"/>
	<path fill-rule="evenodd" class="s0" d="m175.09 51.19c-0.48 0-0.87-0.39-0.87-0.87 0-0.48 0.39-0.87 0.87-0.87h92.71c0.48 0 0.87 0.39 0.87 0.87 0 0.48-0.39 0.87-0.87 0.87z"/>
</svg>