<svg version="1.2" xmlns="http://www.w3.org/2000/svg" viewBox="0 0 300 100" width="300" height="100">
	<style>
		.s0 { fill: #cec4ae } 
	</style>
	<path fill-rule="evenodd" class="s0" d="m146.14 53.85c-0.38 0-0.72-0.23-0.87-0.58-0.13-0.33-3.25-8.18-2.5-14.19 0.35-2.82 1.94-4.08 3.37-4.08 1.42 0 3.02 1.26 3.37 4.08 0.74 6.01-2.38 13.86-2.51 14.19-0.14 0.35-0.48 0.58-0.86 0.58zm0-16.99c-0.59 0-1.32 0.77-1.53 2.45-0.44 3.58 0.68 8.04 1.53 10.77 0.85-2.73 1.96-7.19 1.52-10.77-0.21-1.68-0.93-2.45-1.52-2.45zm-2.45 2.33h0.01z"/>
	<path fill-rule="evenodd" class="s0" d="m146.14 64.42c-2.08 0-3.75-1.68-3.75-3.76 0-2.07 1.67-3.75 3.75-3.75 2.07 0 3.75 1.68 3.75 3.75 0 2.08-1.68 3.76-3.75 3.76z"/>
	<path fill-rule="evenodd" class="s0" d="m127.85 43.29c2.94-0.33 11.79 2.1 6.94 6.94-4.84 4.85-7.32-3.94-6.94-6.94z"/>
	<path fill-rule="evenodd" class="s0" d="m140.48 55.05c0.23 0.24 0.23 0.62 0 0.86-0.24 0.24-0.63 0.24-0.87 0l-5.25-5.24c-0.24-0.24-0.24-0.63 0-0.87 0.24-0.24 0.63-0.24 0.87 0z"/>
	<path fill-rule="evenodd" class="s0" d="m122.15 60.66c1.84-2.31 9.82-6.85 9.82 0 0 6.86-7.97 2.4-9.82 0z"/>
	<path fill-rule="evenodd" class="s0" d="m139.39 60.05c0.33 0 0.61 0.28 0.61 0.61 0 0.34-0.28 0.62-0.61 0.62h-7.42c-0.34 0-0.62-0.28-0.62-0.62 0-0.33 0.28-0.61 0.62-0.61z"/>
	<path fill-rule="evenodd" class="s0" d="m164.42 43.29c-2.94-0.33-11.79 2.1-6.94 6.94 4.85 4.85 7.33-3.94 6.94-6.94z"/>
	<path fill-rule="evenodd" class="s0" d="m152.67 55.91c-0.24 0.24-0.63 0.24-0.87 0-0.24-0.24-0.24-0.62 0-0.86l5.24-5.25c0.24-0.24 0.63-0.24 0.87 0 0.24 0.24 0.24 0.63 0 0.87z"/>
	<path fill-rule="evenodd" class="s0" d="m170.12 60.66c-1.84-2.31-9.81-6.85-9.81 0 0 6.86 7.97 2.4 9.81 0z"/>
	<path fill-rule="evenodd" class="s0" d="m152.89 61.28c-0.34 0-0.62-0.28-0.62-0.62 0-0.33 0.28-0.61 0.62-0.61h7.42c0.34 0 0.61 0.28 0.61 0.61 0 0.34-0.27 0.62-0.61 0.62z"/>
	<path fill-rule="evenodd" class="s0" d="m115.34 58.38c0.51 0 0.92 0.41 0.92 0.92 0 0.51-0.42 0.92-0.92 0.92h-81.96c-0.51 0-0.92-0.41-0.92-0.92 0-0.51 0.41-0.92 0.92-0.92z"/>
	<path fill-rule="evenodd" class="s0" d="m176.94 60.22c-0.51 0-0.92-0.41-0.92-0.92 0-0.51 0.41-0.92 0.92-0.92h81.32c0.51 0 0.92 0.41 0.92 0.92 0 0.51-0.41 0.92-0.92 0.92z"/>
	<path fill-rule="evenodd" class="s0" d="m258.89 59.3c2.22-0.33 5.94-3.26 6.76-4.49 1.49 1.52 5.01 3.41 9.62 4.49-4.61 1.08-8.13 2.96-9.62 4.49-0.82-1.23-4.54-4.16-6.76-4.49z"/>
	<path fill-rule="evenodd" class="s0" d="m258.89 61.58c-1.21 0-2.19-0.98-2.19-2.19 0-1.22 0.98-2.2 2.19-2.2 1.21 0 2.19 0.98 2.19 2.2 0 1.21-0.98 2.19-2.19 2.19z"/>
	<path fill-rule="evenodd" class="s0" d="m33.38 59.3c-2.22-0.33-5.93-3.26-6.75-4.49-1.5 1.52-5.02 3.41-9.63 4.49 4.61 1.08 8.13 2.96 9.63 4.49 0.82-1.23 4.53-4.16 6.75-4.49z"/>
	<path fill-rule="evenodd" class="s0" d="m33.38 61.58c-1.21 0-2.19-0.98-2.19-2.19 0-1.22 0.98-2.2 2.19-2.2 1.22 0 2.2 0.98 2.2 2.2 0 1.21-0.98 2.19-2.2 2.19z"/>
</svg>