<svg version="1.2" xmlns="http://www.w3.org/2000/svg" viewBox="0 0 300 100" width="300" height="100">
	<style>
		.s0 { fill: #cec4ae } 
	</style>
	<path fill-rule="evenodd" class="s0" d="m186.59 45.28c0.37-0.37 0.97-0.37 1.33 0 0.37 0.36 0.37 0.96 0 1.33l-12 12c-0.37 0.37-0.97 0.37-1.33 0l-11.34-11.33-11.34 11.33c-0.37 0.37-0.96 0.37-1.33 0l-11.34-11.33-11.34 11.33c-0.36 0.37-0.96 0.37-1.33 0l-11.34-11.33-11.33 11.33q-0.29 0.28-0.67 0.28h-90.29c-0.52 0-0.94-0.42-0.94-0.94 0-0.52 0.42-0.95 0.94-0.95h89.9l11.73-11.72c0.37-0.37 0.96-0.37 1.33 0l11.34 11.33 11.34-11.33c0.37-0.37 0.96-0.37 1.33 0l11.34 11.33 11.33-11.33c0.37-0.37 0.97-0.37 1.34 0l11.34 11.33z"/>
	<path fill-rule="evenodd" class="s0" d="m187.92 57.28c0.37 0.37 0.37 0.97 0 1.33-0.36 0.37-0.96 0.37-1.33 0l-11.34-11.33-11.33 11.33c-0.37 0.37-0.97 0.37-1.34 0l-11.33-11.33-11.34 11.33c-0.37 0.37-0.97 0.37-1.33 0l-11.34-11.33-11.34 11.33c-0.37 0.37-0.96 0.37-1.33 0l-11.73-11.72h-89.9c-0.52 0-0.94-0.43-0.94-0.95 0-0.52 0.42-0.94 0.94-0.94h90.29q0.38 0 0.67 0.28l11.33 11.33 11.34-11.33c0.37-0.37 0.97-0.37 1.33 0l11.34 11.33 11.34-11.33c0.37-0.37 0.96-0.37 1.33 0l11.34 11.33 11.34-11.33c0.36-0.37 0.96-0.37 1.33 0z"/>
	<path fill-rule="evenodd" class="s0" d="m187.26 46.89c-0.52 0-0.95-0.43-0.95-0.95 0-0.52 0.43-0.94 0.95-0.94h90.28c0.53 0 0.95 0.42 0.95 0.94 0 0.52-0.43 0.95-0.95 0.95z"/>
	<path fill-rule="evenodd" class="s0" d="m187.26 58.89c-0.52 0-0.95-0.42-0.95-0.94 0-0.52 0.43-0.95 0.95-0.95h90.28c0.53 0 0.95 0.43 0.95 0.95 0 0.52-0.43 0.94-0.95 0.94z"/>
</svg>