<svg version="1.2" xmlns="http://www.w3.org/2000/svg" viewBox="0 0 300 100" width="300" height="100">
	<style>
		.s0 { fill: #cec4ae } 
	</style>
	<path fill-rule="evenodd" class="s0" d="m145.88 63.79q-0.21 0-0.42-0.01c-0.75 0.01-7.46-0.11-12.05-8.41-1.52-2.71-3.57-5.24-5.35-6.61l-0.27-0.22c-2.28-1.86-5.33-2.43-8.14-1.52-2.68 0.88-4.64 2.92-5.35 5.62q-0.09 0.32-0.15 0.64c-0.38 1.94 0.11 3.93 1.36 5.6 1.78 2.38 4.15 3.43 6.5 2.89 2.12-0.5 3.76-2.22 4.18-4.4 0.21-1.11-0.07-2.3-0.78-3.25-1.06-1.45-2.46-2.09-3.84-1.78-1.24 0.28-2.19 1.28-2.43 2.56-0.25 1.31 0.61 2.46 1.86 2.83 1.1 0.32 0.44 2-0.36 1.83-2.27-0.49-3.77-2.7-3.33-5.01 0.38-2 1.89-3.58 3.85-4.03 2.1-0.48 4.26 0.45 5.75 2.49 1.01 1.38 1.41 3.09 1.11 4.71-0.56 2.9-2.75 5.21-5.59 5.86-3.05 0.71-6.2-0.63-8.41-3.58-1.57-2.1-2.18-4.61-1.7-7.08q0.08-0.38 0.18-0.76c0.88-3.32 3.28-5.84 6.58-6.91 3.41-1.11 7.11-0.42 9.88 1.84l0.25 0.2c1.98 1.52 4.16 4.21 5.83 7.17 4.22 7.63 10.34 7.44 10.4 7.45h0.06 0.05c1.06 0.08 2.08-0.25 2.89-0.94 0.83-0.71 1.34-1.72 1.43-2.82 0.13-1.69-1.11-3.18-2.75-3.33-0.59-0.06-1.2 0.18-1.66 0.63-0.68 0.67-0.93 1.46-0.67 2.17 0.21 0.6 0.76 0.97 1.37 1.07 0.94 0.15 0.82 1.9-0.15 1.86-1.35-0.07-2.51-1.01-2.97-2.3-0.51-1.41-0.09-2.95 1.12-4.14 0.84-0.82 2-1.25 3.12-1.15 2.66 0.24 4.65 2.63 4.44 5.33-0.12 1.61-0.86 3.06-2.07 4.1-1.07 0.91-2.39 1.4-3.77 1.4z"/>
	<path fill-rule="evenodd" class="s0" d="m157.32 63.79q0.21 0 0.42-0.01c0.75 0.01 7.46-0.11 12.04-8.41 1.52-2.71 3.57-5.24 5.35-6.61l0.27-0.22c2.29-1.86 5.33-2.43 8.14-1.52 2.69 0.88 4.64 2.92 5.36 5.62q0.08 0.32 0.14 0.64c0.38 1.94-0.1 3.93-1.36 5.6-1.78 2.38-4.15 3.43-6.5 2.89-2.12-0.5-3.76-2.22-4.17-4.4-0.21-1.11 0.07-2.3 0.77-3.25 1.06-1.45 2.46-2.09 3.84-1.78 1.24 0.28 2.19 1.28 2.43 2.56 0.25 1.31-0.61 2.46-1.86 2.83-1.09 0.32-0.44 2 0.36 1.83 2.27-0.49 3.77-2.7 3.33-5.01-0.38-2-1.89-3.58-3.84-4.03-2.11-0.48-4.26 0.45-5.76 2.49-1.01 1.38-1.41 3.09-1.1 4.71 0.55 2.9 2.74 5.21 5.58 5.86 3.06 0.71 6.2-0.63 8.41-3.58 1.57-2.1 2.18-4.61 1.7-7.08q-0.08-0.38-0.17-0.76c-0.89-3.32-3.28-5.84-6.58-6.91-3.42-1.11-7.12-0.42-9.89 1.84l-0.25 0.2c-1.98 1.52-4.16 4.21-5.83 7.17-4.22 7.63-10.34 7.44-10.4 7.45h-0.05-0.06c-1.05 0.08-2.08-0.25-2.89-0.94-0.83-0.71-1.34-1.72-1.42-2.82-0.13-1.69 1.1-3.18 2.74-3.33 0.59-0.06 1.21 0.18 1.66 0.63 0.69 0.67 0.93 1.46 0.67 2.17-0.21 0.6-0.76 0.97-1.37 1.07-0.94 0.15-0.82 1.9 0.15 1.86 1.35-0.07 2.51-1.01 2.98-2.3 0.5-1.41 0.08-2.95-1.13-4.14-0.84-0.82-2-1.25-3.12-1.15-2.66 0.24-4.65 2.63-4.44 5.33 0.13 1.61 0.86 3.06 2.07 4.1 1.07 0.91 2.4 1.4 3.78 1.4z"/>
	<path fill-rule="evenodd" class="s0" d="m108.47 56.01c0.5 0 0.89 0.4 0.89 0.89 0 0.49-0.39 0.89-0.89 0.89h-79.04c-0.49 0-0.89-0.4-0.89-0.89 0-0.49 0.4-0.89 0.89-0.89z"/>
	<path fill-rule="evenodd" class="s0" d="m29.43 50.72c0.49 0 0.89 0.4 0.89 0.89 0 0.5-0.4 0.9-0.89 0.9-0.48 0-0.92 0.19-1.23 0.51-0.32 0.32-0.51 0.75-0.51 1.24 0 0.48 0.19 0.92 0.51 1.24 0.31 0.31 0.75 0.51 1.23 0.51 0.49 0 0.89 0.4 0.89 0.89 0 0.49-0.4 0.89-0.89 0.89-0.97 0-1.85-0.4-2.49-1.04-0.64-0.64-1.03-1.52-1.03-2.49 0-0.98 0.39-1.86 1.03-2.5 0.64-0.64 1.52-1.04 2.49-1.04z"/>
	<path fill-rule="evenodd" class="s0" d="m194.72 57.79c-0.49 0-0.89-0.4-0.89-0.89 0-0.49 0.4-0.89 0.89-0.89h79.04c0.49 0 0.89 0.4 0.89 0.89 0 0.49-0.4 0.89-0.89 0.89z"/>
	<path fill-rule="evenodd" class="s0" d="m151.6 51.61c-0.32 0-0.61-0.2-0.73-0.5-0.11-0.28-2.75-6.92-2.12-12.01 0.3-2.39 1.64-3.46 2.85-3.46 1.2 0 2.55 1.07 2.84 3.46 0.63 5.09-2 11.73-2.12 12.01-0.11 0.3-0.4 0.5-0.72 0.5zm0-14.39c-0.5 0-1.12 0.64-1.29 2.07-0.37 3.03 0.57 6.81 1.29 9.13 0.72-2.32 1.66-6.1 1.29-9.13-0.18-1.43-0.8-2.07-1.29-2.07zm-2.07 1.97h0.01z"/>
	<path fill-rule="evenodd" class="s0" d="m156.95 50.81q-0.32 0-0.55-0.23c-0.19-0.19-0.27-0.46-0.21-0.72 0.03-0.14 0.77-3.49 2.71-4.8 0.89-0.59 1.99-0.5 2.73 0.25 0.75 0.75 0.86 1.86 0.26 2.75-1.3 1.95-4.63 2.7-4.77 2.74q-0.08 0.01-0.17 0.01zm3.18-4.56q-0.16 0-0.35 0.12c-0.73 0.49-1.28 1.54-1.64 2.46 0.91-0.36 1.96-0.91 2.44-1.64 0.27-0.39 0.02-0.68-0.06-0.76-0.05-0.06-0.19-0.18-0.39-0.18zm-0.79-0.53h0.01z"/>
	<path fill-rule="evenodd" class="s0" d="m146.24 50.81q-0.08 0-0.17-0.01c-0.14-0.03-3.47-0.79-4.77-2.74-0.59-0.89-0.49-2 0.26-2.75 0.75-0.75 1.84-0.84 2.73-0.25 1.94 1.31 2.69 4.66 2.72 4.8 0.06 0.26-0.02 0.53-0.21 0.72q-0.24 0.23-0.56 0.23zm-3.17-4.56c-0.21 0-0.35 0.12-0.4 0.18-0.08 0.08-0.32 0.37-0.06 0.76 0.49 0.73 1.53 1.29 2.44 1.64-0.35-0.91-0.91-1.97-1.64-2.46q-0.19-0.12-0.34-0.12z"/>
</svg>