<svg version="1.2" xmlns="http://www.w3.org/2000/svg" viewBox="0 0 300 100" width="300" height="100">
	<style>
		.s0 { fill: #cec4ae } 
	</style>
	<path fill-rule="evenodd" class="s0" d="m165.3 56.4q-0.22 0.02-0.43 0.03c-0.75 0.11-7.52 0.79-13.12-6.99-1.86-2.54-4.22-4.84-6.18-6l-0.29-0.19c-2.52-1.6-5.65-1.8-8.37-0.55-2.6 1.2-4.32 3.49-4.72 6.28q-0.05 0.33-0.07 0.66c-0.15 1.99 0.57 3.93 2.03 5.46 2.08 2.18 4.59 2.95 6.89 2.12 2.08-0.75 3.52-2.68 3.68-4.91 0.08-1.14-0.35-2.3-1.17-3.18-1.24-1.32-2.73-1.8-4.08-1.32-1.21 0.43-2.05 1.55-2.14 2.86-0.09 1.34 0.91 2.4 2.22 2.62 1.13 0.19 0.67 1.96-0.15 1.88-2.34-0.22-4.12-2.26-3.95-4.63 0.14-2.06 1.47-3.83 3.39-4.51 2.06-0.73 4.34-0.05 6.09 1.81 1.18 1.26 1.79 2.94 1.67 4.6-0.21 2.98-2.14 5.56-4.92 6.56-2.99 1.07-6.31 0.1-8.89-2.6-1.83-1.91-2.74-4.37-2.56-6.9q0.03-0.39 0.09-0.79c0.49-3.43 2.6-6.25 5.8-7.72 3.3-1.53 7.1-1.28 10.17 0.66l0.27 0.18c2.17 1.29 4.69 3.72 6.71 6.5 5.16 7.16 11.3 6.23 11.36 6.23l0.06-0.01h0.06c1.06-0.04 2.06-0.5 2.79-1.29 0.75-0.81 1.14-1.88 1.1-3-0.07-1.71-1.49-3.06-3.17-3.01-0.59 0.01-1.18 0.32-1.59 0.83-0.61 0.75-0.76 1.57-0.42 2.25 0.29 0.58 0.89 0.89 1.51 0.91 0.96 0.04 1.06 1.82 0.08 1.89-1.37 0.09-2.65-0.72-3.27-1.95-0.68-1.35-0.44-2.96 0.63-4.29 0.75-0.93 1.87-1.5 3.01-1.53 2.7-0.08 4.99 2.08 5.1 4.82 0.07 1.63-0.5 3.17-1.6 4.36-0.96 1.04-2.24 1.69-3.62 1.86z"/>
	<path fill-rule="evenodd" class="s0" d="m130.77 48.81c0.5 0 0.9 0.41 0.9 0.9 0 0.5-0.4 0.9-0.9 0.9h-104.2c-0.49 0-0.9-0.4-0.9-0.9 0-0.5 0.41-0.9 0.9-0.9z"/>
	<path fill-rule="evenodd" class="s0" d="m26.57 43.47c0.5 0 0.9 0.4 0.9 0.9 0 0.5-0.4 0.9-0.9 0.9-0.49 0-0.93 0.2-1.25 0.52-0.32 0.32-0.52 0.76-0.52 1.25 0 0.49 0.2 0.94 0.52 1.26 0.32 0.31 0.76 0.51 1.25 0.51 0.5 0 0.9 0.41 0.9 0.9 0 0.5-0.4 0.9-0.9 0.9-0.98 0-1.87-0.4-2.52-1.04v-0.01c-0.65-0.64-1.05-1.54-1.05-2.52 0-0.99 0.4-1.88 1.05-2.53 0.64-0.64 1.54-1.04 2.52-1.04z"/>
	<path fill-rule="evenodd" class="s0" d="m170.52 50.62c-0.5 0-0.9-0.41-0.9-0.91 0-0.49 0.4-0.9 0.9-0.9h103.64c0.5 0 0.9 0.41 0.9 0.9 0 0.5-0.4 0.91-0.9 0.91z"/>
	<path fill-rule="evenodd" class="s0" d="m274.16 45.27c-0.5 0-0.9-0.4-0.9-0.9 0-0.5 0.4-0.9 0.9-0.9 0.99 0 1.88 0.4 2.53 1.05 0.64 0.64 1.04 1.54 1.04 2.52 0 0.99-0.4 1.88-1.04 2.53h-0.01c-0.64 0.65-1.54 1.05-2.52 1.05-0.5 0-0.9-0.41-0.9-0.9 0-0.5 0.4-0.9 0.9-0.9 0.49 0 0.93-0.2 1.25-0.52 0.32-0.32 0.52-0.76 0.52-1.25 0-0.49-0.2-0.93-0.52-1.26-0.32-0.32-0.76-0.52-1.25-0.52z"/>
</svg>