<svg version="1.2" xmlns="http://www.w3.org/2000/svg" viewBox="0 0 300 100" width="300" height="100">
	<style>
		.s0 { fill: #cec4ae } 
	</style>
	<path fill-rule="evenodd" class="s0" d="m262.49 44.95c0.49 0 0.9 0.4 0.9 0.9 0 0.5-0.41 0.9-0.9 0.9h-100.67c-0.5 0-0.9-0.4-0.9-0.9 0-0.5 0.4-0.9 0.9-0.9zm-125.2 0c0.5 0 0.9 0.4 0.9 0.9 0 0.5-0.4 0.9-0.9 0.9h-100.67c-0.5 0-0.9-0.4-0.9-0.9 0-0.5 0.4-0.9 0.9-0.9z"/>
	<path fill-rule="evenodd" class="s0" d="m142.37 44.23l5.56-5.56c0.45-0.45 1.03-0.67 1.62-0.67 0.59 0 1.18 0.22 1.62 0.67l5.57 5.56c0.44 0.45 0.67 1.03 0.67 1.62 0 0.59-0.23 1.17-0.67 1.62l-5.57 5.57c-0.44 0.44-1.03 0.67-1.62 0.67-0.59 0-1.17-0.23-1.62-0.67l-5.56-5.57c-0.45-0.44-0.67-1.03-0.67-1.62 0-0.59 0.22-1.17 0.67-1.62zm5.99-5.14l-5.57 5.56c-0.32 0.33-0.49 0.77-0.49 1.2 0 0.43 0.17 0.87 0.49 1.2l5.57 5.56c0.33 0.33 0.76 0.49 1.19 0.49 0.44 0 0.87-0.16 1.2-0.49l5.56-5.56c0.33-0.33 0.49-0.77 0.49-1.2 0-0.43-0.16-0.87-0.49-1.19l-5.56-5.57c-0.33-0.33-0.77-0.49-1.2-0.49-0.43 0-0.86 0.16-1.19 0.49z"/>
	<path fill-rule="evenodd" class="s0" d="m143.44 45.3l5.56-5.56c0.31-0.3 0.8-0.3 1.1 0l5.56 5.56c0.3 0.31 0.3 0.8 0 1.1l-5.56 5.56c-0.3 0.3-0.79 0.3-1.1 0l-5.56-5.56c-0.3-0.3-0.3-0.79 0-1.1z"/>
	<path fill-rule="evenodd" class="s0" d="m159.85 42.28c-0.17 0-0.3 0.14-0.3 0.3 0 0.17 0.13 0.31 0.3 0.31h95.94c0.17 0 0.3-0.14 0.3-0.31 0-0.16-0.13-0.3-0.3-0.3zm-116.54 0c-0.16 0-0.3 0.14-0.3 0.3 0 0.17 0.14 0.31 0.3 0.31h95.95c0.16 0 0.3-0.14 0.3-0.31 0-0.16-0.14-0.3-0.3-0.3z"/>
	<path fill-rule="evenodd" class="s0" d="m159.85 48.82c-0.17 0-0.3 0.13-0.3 0.3 0 0.16 0.13 0.3 0.3 0.3h95.94c0.17 0 0.3-0.14 0.3-0.3 0-0.17-0.13-0.3-0.3-0.3zm-116.54 0c-0.16 0-0.3 0.13-0.3 0.3 0 0.16 0.14 0.3 0.3 0.3h95.95c0.16 0 0.3-0.14 0.3-0.3 0-0.17-0.14-0.3-0.3-0.3z"/>
	<path fill-rule="evenodd" class="s0" d="m23.41 46.61c-0.26-0.17-0.41-0.45-0.41-0.76 0-0.31 0.15-0.59 0.41-0.76 0.23-0.15 5.84-3.72 10.21-2.85 2.07 0.41 3 2.11 3 3.61 0 1.5-0.93 3.2-3 3.62q-0.71 0.13-1.45 0.13c-4.06 0-8.55-2.86-8.76-2.99zm11.41-0.76c0-0.71-0.41-1.62-1.55-1.85-2.52-0.5-5.77 0.91-7.56 1.85 1.79 0.94 5.03 2.35 7.56 1.85 1.14-0.23 1.55-1.14 1.55-1.85z"/>
	<path fill-rule="evenodd" class="s0" d="m266.94 49.6q-0.75 0-1.45-0.13c-2.07-0.42-3-2.12-3-3.62 0-1.5 0.93-3.2 3-3.61 4.36-0.87 9.97 2.7 10.21 2.85 0.26 0.17 0.4 0.45 0.4 0.76 0 0.31-0.14 0.59-0.4 0.76-0.21 0.13-4.7 2.99-8.76 2.99zm-1.11-1.9c2.53 0.5 5.78-0.91 7.56-1.85-1.78-0.94-5.03-2.35-7.56-1.85-1.14 0.23-1.54 1.14-1.54 1.85 0 0.71 0.4 1.62 1.54 1.85z"/>
</svg>